G04*
G04 #@! TF.GenerationSoftware,Altium Limited,Altium Designer,20.0.9 (164)*
G04*
G04 Layer_Physical_Order=1*
G04 Layer_Color=255*
%FSLAX25Y25*%
%MOIN*%
G70*
G01*
G75*
%ADD12C,0.01000*%
%ADD15R,0.03780X0.05472*%
%ADD16R,0.04528X0.02362*%
%ADD17R,0.05118X0.08661*%
%ADD18R,0.08465X0.08661*%
%ADD19R,0.05700X0.04400*%
%ADD20R,0.05866X0.03780*%
%ADD21R,0.05709X0.03740*%
%ADD31C,0.07000*%
%ADD40C,0.00800*%
%ADD41C,0.05000*%
%ADD42C,0.02000*%
%ADD43C,0.03000*%
%ADD44R,0.07000X0.07000*%
%ADD45C,0.06200*%
%ADD46C,0.16500*%
%ADD47R,0.05906X0.05906*%
%ADD48C,0.05906*%
%ADD49C,0.05512*%
%ADD50C,0.06614*%
%ADD51C,0.14764*%
%ADD52C,0.04724*%
%ADD53C,0.05000*%
D12*
X539047Y223500D02*
X543000D01*
X486500Y352000D02*
Y356100D01*
X482400Y352000D02*
X486500D01*
X471000Y317000D02*
Y320756D01*
X467244Y317000D02*
X471000D01*
Y313244D02*
Y317000D01*
X550000Y71400D02*
Y75500D01*
X545900D02*
X550000D01*
X511138Y51500D02*
X514500D01*
X517862D01*
X514500D02*
Y54862D01*
Y48138D02*
Y51500D01*
X545900Y15500D02*
X550000D01*
Y19600D01*
Y11400D02*
Y15500D01*
X426000Y76000D02*
X430100D01*
X426000D02*
Y80100D01*
Y71900D02*
Y76000D01*
Y16000D02*
X430100D01*
X426000D02*
Y20100D01*
Y11900D02*
Y16000D01*
X295047Y346500D02*
X299000D01*
X302953D01*
X299000Y342547D02*
Y346500D01*
X280500Y292000D02*
X284600D01*
X276400D02*
X280500D01*
Y287900D02*
Y292000D01*
X93141Y345500D02*
X97448D01*
X93141D02*
Y349807D01*
Y341193D02*
Y345500D01*
X88834D02*
X93141D01*
X30500Y292000D02*
Y296100D01*
Y292000D02*
X34600D01*
X26400D02*
X30500D01*
Y287900D02*
Y292000D01*
X164500Y167063D02*
X168354D01*
X164500D02*
Y169933D01*
Y164193D02*
Y167063D01*
X144921Y185500D02*
X148185D01*
X290500Y122000D02*
X294600D01*
X290500D02*
Y126100D01*
X286400Y122000D02*
X290500D01*
Y117900D02*
Y122000D01*
X119500Y170193D02*
Y173083D01*
Y167303D02*
Y170193D01*
X98000Y165339D02*
Y170669D01*
Y160008D02*
Y165339D01*
X71000Y188500D02*
Y191700D01*
Y188500D02*
X74850D01*
X36400Y122000D02*
X40500D01*
X44600D01*
X40500Y117900D02*
Y122000D01*
D15*
X136311Y214500D02*
D03*
X142689D02*
D03*
D16*
X144921Y189240D02*
D03*
Y185500D02*
D03*
Y181760D02*
D03*
X135079D02*
D03*
Y185500D02*
D03*
Y189240D02*
D03*
D17*
X93232Y211000D02*
D03*
X101500D02*
D03*
D18*
X98000Y182661D02*
D03*
Y165339D02*
D03*
D19*
X71000Y195700D02*
D03*
Y188500D02*
D03*
D20*
X119500Y170193D02*
D03*
Y176807D02*
D03*
D21*
X164500Y192563D02*
D03*
Y200437D02*
D03*
Y167063D02*
D03*
Y174937D02*
D03*
D31*
X504964Y10911D02*
D03*
X524964D02*
D03*
X504964Y30911D02*
D03*
X514964D02*
D03*
D40*
X639150Y354000D02*
G03*
X639150Y354000I-9650J0D01*
G01*
X595000Y346000D02*
G03*
X595000Y346000I-4500J0D01*
G01*
Y336000D02*
G03*
X595000Y336000I-4500J0D01*
G01*
X575000Y286000D02*
G03*
X566600Y283755I-4500J0D01*
G01*
X574400D02*
G03*
X575000Y286000I-3900J2245D01*
G01*
X565000D02*
G03*
X561670Y290345I-4500J0D01*
G01*
X556155Y284830D02*
G03*
X565000Y286000I4345J1170D01*
G01*
X550485Y290500D02*
G03*
X555000Y285985I15J-4500D01*
G01*
X535000Y346000D02*
G03*
X535000Y346000I-4500J0D01*
G01*
Y336000D02*
G03*
X535000Y336000I-4500J0D01*
G01*
X510400Y349755D02*
G03*
X511000Y352000I-3900J2245D01*
G01*
D02*
G03*
X502600Y349755I-4500J0D01*
G01*
X550447Y244947D02*
G03*
X549305Y247704I-3900J0D01*
G01*
X550447Y244947D02*
G03*
X549305Y247704I-3900J0D01*
G01*
X546900Y221567D02*
G03*
X547125Y222109I-3900J1933D01*
G01*
X545758Y199161D02*
G03*
X546900Y201919I-2758J2758D01*
G01*
X545758Y199161D02*
G03*
X546900Y201919I-2758J2758D01*
G01*
X541609Y227625D02*
G03*
X539100Y221567I1391J-4125D01*
G01*
X537353Y223500D02*
G03*
X537353Y223500I-4353J0D01*
G01*
X513656Y253000D02*
G03*
X513656Y253000I-4156J0D01*
G01*
X527353Y223500D02*
G03*
X527353Y223500I-4353J0D01*
G01*
X532992Y197427D02*
G03*
X531850Y194669I2758J-2758D01*
G01*
X517353Y223500D02*
G03*
X517353Y223500I-4353J0D01*
G01*
X532992Y197427D02*
G03*
X531850Y194669I2758J-2758D01*
G01*
X557150Y178200D02*
G03*
X539650Y183812I-9650J0D01*
G01*
Y172588D02*
G03*
X557150Y178200I7850J5613D01*
G01*
X490845Y353170D02*
G03*
X485330Y347655I-4345J-1170D01*
G01*
X502600Y340000D02*
G03*
X503742Y337242I3900J0D01*
G01*
X502600Y340000D02*
G03*
X503742Y337242I3900J0D01*
G01*
X494100Y348300D02*
G03*
X492958Y351058I-3900J0D01*
G01*
X494100Y348300D02*
G03*
X492958Y351058I-3900J0D01*
G01*
Y329536D02*
G03*
X494100Y332294I-2758J2758D01*
G01*
X492958Y329536D02*
G03*
X494100Y332294I-2758J2758D01*
G01*
X472436Y320900D02*
G03*
X472436Y313100I-1436J-3900D01*
G01*
X443400Y313607D02*
G03*
X445156Y317000I-2400J3393D01*
G01*
D02*
G03*
X438600Y313607I-4156J0D01*
G01*
X475156Y293000D02*
G03*
X475156Y293000I-4156J0D01*
G01*
X445156D02*
G03*
X443400Y296393I-4156J0D01*
G01*
X445096Y292298D02*
G03*
X445156Y293000I-4096J702D01*
G01*
X438600Y296393D02*
G03*
X436844Y293050I2400J-3393D01*
G01*
X376697Y353197D02*
G03*
X375000Y353900I-1697J-1697D01*
G01*
X376697Y353197D02*
G03*
X375000Y353900I-1697J-1697D01*
G01*
Y292000D02*
G03*
X375000Y292000I-4500J0D01*
G01*
X365000D02*
G03*
X365000Y292000I-4500J0D01*
G01*
X345000D02*
G03*
X345000Y292000I-4500J0D01*
G01*
X355000D02*
G03*
X355000Y292000I-4500J0D01*
G01*
X335000D02*
G03*
X335000Y292000I-4500J0D01*
G01*
X483656Y253000D02*
G03*
X483656Y253000I-4156J0D01*
G01*
X466997Y256303D02*
G03*
X467700Y258000I-1697J1697D01*
G01*
X466997Y256303D02*
G03*
X467700Y258000I-1697J1697D01*
G01*
Y268700D02*
G03*
X466997Y270397I-2400J0D01*
G01*
X441050Y288844D02*
G03*
X441702Y288904I-50J4156D01*
G01*
X467700Y268700D02*
G03*
X466997Y270397I-2400J0D01*
G01*
X460450Y270156D02*
G03*
X459798Y270096I50J-4156D01*
G01*
X456404Y266702D02*
G03*
X462900Y262607I4096J-702D01*
G01*
X462400Y232304D02*
G03*
X464656Y236000I-1900J3696D01*
G01*
D02*
G03*
X457600Y233023I-4156J0D01*
G01*
X507353Y223500D02*
G03*
X507353Y223500I-4353J0D01*
G01*
X487353D02*
G03*
X487353Y223500I-4353J0D01*
G01*
X497353D02*
G03*
X497353Y223500I-4353J0D01*
G01*
X498050Y178200D02*
G03*
X498050Y178200I-9650J0D01*
G01*
X463900Y124000D02*
G03*
X462400Y127074I-3900J0D01*
G01*
X457600D02*
G03*
X463900Y124000I2400J-3074D01*
G01*
X375000Y282000D02*
G03*
X375000Y282000I-4500J0D01*
G01*
X368803Y164897D02*
G03*
X368100Y163200I1697J-1697D01*
G01*
X368803Y164897D02*
G03*
X368100Y163200I1697J-1697D01*
G01*
X365000Y282000D02*
G03*
X365000Y282000I-4500J0D01*
G01*
X345000D02*
G03*
X345000Y282000I-4500J0D01*
G01*
X355000D02*
G03*
X355000Y282000I-4500J0D01*
G01*
X335000D02*
G03*
X335000Y282000I-4500J0D01*
G01*
X375000Y122000D02*
G03*
X372900Y125807I-4500J0D01*
G01*
X368100D02*
G03*
X375000Y122000I2400J-3807D01*
G01*
X365000D02*
G03*
X365000Y122000I-4500J0D01*
G01*
X355000D02*
G03*
X355000Y122000I-4500J0D01*
G01*
X345000D02*
G03*
X345000Y122000I-4500J0D01*
G01*
X335000D02*
G03*
X335000Y122000I-4500J0D01*
G01*
X573258Y103242D02*
G03*
X574400Y106000I-2758J2758D01*
G01*
X604500Y85500D02*
G03*
X604500Y85500I-4500J0D01*
G01*
X573258Y103242D02*
G03*
X574400Y106000I-2758J2758D01*
G01*
X550636Y81045D02*
G03*
X554345Y84330I-636J4455D01*
G01*
X604500Y75500D02*
G03*
X604500Y75500I-4500J0D01*
G01*
X556481Y78028D02*
G03*
X553723Y79170I-2758J-2758D01*
G01*
X563200Y69694D02*
G03*
X562058Y72452I-3900J0D01*
G01*
X563200Y69694D02*
G03*
X562058Y72452I-3900J0D01*
G01*
X552603Y79170D02*
G03*
X552312Y79361I-2603J-3670D01*
G01*
X556481Y78028D02*
G03*
X553723Y79170I-2758J-2758D01*
G01*
X604500Y65500D02*
G03*
X597600Y61693I-4500J0D01*
G01*
X602400D02*
G03*
X604500Y65500I-2400J3807D01*
G01*
X531850Y90416D02*
G03*
X532992Y87659I3900J0D01*
G01*
X531850Y90416D02*
G03*
X532992Y87659I3900J0D01*
G01*
X548830Y89845D02*
G03*
X545545Y86136I1170J-4345D01*
G01*
X545515Y75136D02*
G03*
X551788Y71370I4485J364D01*
G01*
X554500Y65500D02*
G03*
X554500Y65500I-4500J0D01*
G01*
X507364Y86136D02*
G03*
X506661Y87833I-2400J0D01*
G01*
X507364Y86136D02*
G03*
X506661Y87833I-2400J0D01*
G01*
X518262Y81500D02*
G03*
X518262Y81500I-3762J0D01*
G01*
X604500Y55500D02*
G03*
X602400Y59307I-4500J0D01*
G01*
X597600D02*
G03*
X604500Y55500I2400J-3807D01*
G01*
Y45500D02*
G03*
X604500Y45500I-4500J0D01*
G01*
X602400Y31693D02*
G03*
X604500Y35500I-2400J3807D01*
G01*
D02*
G03*
X597600Y31693I-4500J0D01*
G01*
X604500Y25500D02*
G03*
X602400Y29307I-4500J0D01*
G01*
X597600D02*
G03*
X604500Y25500I2400J-3807D01*
G01*
X562058Y18136D02*
G03*
X563200Y20894I-2758J2758D01*
G01*
X562058Y18136D02*
G03*
X563200Y20894I-2758J2758D01*
G01*
X639150Y20000D02*
G03*
X639150Y20000I-9650J0D01*
G01*
X604500Y15500D02*
G03*
X604500Y15500I-4500J0D01*
G01*
X554136Y11830D02*
G03*
X556893Y12972I0J3900D01*
G01*
X554136Y11830D02*
G03*
X556893Y12972I0J3900D01*
G01*
X554500Y55500D02*
G03*
X554500Y55500I-4500J0D01*
G01*
Y45500D02*
G03*
X554500Y45500I-4500J0D01*
G01*
Y35500D02*
G03*
X554500Y35500I-4500J0D01*
G01*
Y25500D02*
G03*
X554500Y25500I-4500J0D01*
G01*
X518262Y51500D02*
G03*
X518262Y51500I-3762J0D01*
G01*
X519864Y30911D02*
G03*
X510246Y29587I-4900J0D01*
G01*
X513640Y26193D02*
G03*
X519864Y30911I1324J4718D01*
G01*
X509864D02*
G03*
X507364Y35183I-4900J0D01*
G01*
X509313Y28655D02*
G03*
X509864Y30911I-4350J2256D01*
G01*
X502564Y35183D02*
G03*
X507220Y26561I2400J-4272D01*
G01*
X551788Y19630D02*
G03*
X552603Y11830I-1788J-4130D01*
G01*
X529864Y10911D02*
G03*
X529864Y10911I-4900J0D01*
G01*
X509864D02*
G03*
X502708Y15261I-4900J0D01*
G01*
X501003Y13796D02*
G03*
X509864Y10911I3960J-2885D01*
G01*
X486697Y107797D02*
G03*
X485000Y108500I-1697J-1697D01*
G01*
X486697Y107797D02*
G03*
X485000Y108500I-1697J-1697D01*
G01*
X483500Y102200D02*
G03*
X482973Y103700I-2400J0D01*
G01*
X483500Y102200D02*
G03*
X482973Y103700I-2400J0D01*
G01*
X469097Y96297D02*
G03*
X467400Y97000I-1697J-1697D01*
G01*
X469097Y96297D02*
G03*
X467400Y97000I-1697J-1697D01*
G01*
X373328Y108500D02*
G03*
X375000Y112000I-2828J3500D01*
G01*
D02*
G03*
X367672Y108500I-4500J0D01*
G01*
X365000Y112000D02*
G03*
X357672Y108500I-4500J0D01*
G01*
X355000Y112000D02*
G03*
X347672Y108500I-4500J0D01*
G01*
X345000Y112000D02*
G03*
X337672Y108500I-4500J0D01*
G01*
X334889Y111005D02*
G03*
X335000Y112000I-4389J995D01*
G01*
X363328Y108500D02*
G03*
X365000Y112000I-2828J3500D01*
G01*
X353328Y108500D02*
G03*
X355000Y112000I-2828J3500D01*
G01*
X343328Y108500D02*
G03*
X345000Y112000I-2828J3500D01*
G01*
X335000D02*
G03*
X331495Y107611I-4500J0D01*
G01*
X482797Y79403D02*
G03*
X483500Y81100I-1697J1697D01*
G01*
X482797Y79403D02*
G03*
X483500Y81100I-1697J1697D01*
G01*
X480500Y76000D02*
G03*
X480389Y76995I-4500J0D01*
G01*
X476995Y80389D02*
G03*
X480500Y76000I-995J-4389D01*
G01*
X478700Y89600D02*
G03*
X475005Y90389I-2700J-3600D01*
G01*
X478400Y62193D02*
G03*
X480500Y66000I-2400J3807D01*
G01*
Y26000D02*
G03*
X478400Y29807I-4500J0D01*
G01*
X480500Y66000D02*
G03*
X473600Y62193I-4500J0D01*
G01*
X480500Y56000D02*
G03*
X478400Y59807I-4500J0D01*
G01*
X473600D02*
G03*
X480500Y56000I2400J-3807D01*
G01*
Y46000D02*
G03*
X480500Y46000I-4500J0D01*
G01*
X478400Y32193D02*
G03*
X480500Y36000I-2400J3807D01*
G01*
D02*
G03*
X473600Y32193I-4500J0D01*
G01*
Y29807D02*
G03*
X480500Y26000I2400J-3807D01*
G01*
X471611Y86995D02*
G03*
X478700Y82400I4389J-995D01*
G01*
X500053Y13600D02*
G03*
X501003Y13796I0J2400D01*
G01*
X500053Y13600D02*
G03*
X501003Y13796I0J2400D01*
G01*
X479807Y18400D02*
G03*
X479807Y13600I-3807J-2400D01*
G01*
X430500Y76000D02*
G03*
X423755Y79900I-4500J0D01*
G01*
Y72100D02*
G03*
X430500Y76000I2245J3900D01*
G01*
Y86000D02*
G03*
X430500Y86000I-4500J0D01*
G01*
Y66000D02*
G03*
X430500Y66000I-4500J0D01*
G01*
Y46000D02*
G03*
X430500Y46000I-4500J0D01*
G01*
Y36000D02*
G03*
X430500Y36000I-4500J0D01*
G01*
Y56000D02*
G03*
X430500Y56000I-4500J0D01*
G01*
X420362Y79900D02*
G03*
X417604Y78758I0J-3900D01*
G01*
X420362Y79900D02*
G03*
X417604Y78758I0J-3900D01*
G01*
X411942Y73096D02*
G03*
X410800Y70338I2758J-2758D01*
G01*
X411942Y73096D02*
G03*
X410800Y70338I2758J-2758D01*
G01*
X430500Y26000D02*
G03*
X430500Y26000I-4500J0D01*
G01*
Y16000D02*
G03*
X424212Y20130I-4500J0D01*
G01*
X423396Y12330D02*
G03*
X430500Y16000I2603J3670D01*
G01*
X419051Y13472D02*
G03*
X421809Y12330I2758J2758D01*
G01*
X419051Y13472D02*
G03*
X421809Y12330I2758J2758D01*
G01*
X410800Y23338D02*
G03*
X411942Y20581I3900J0D01*
G01*
X410800Y23338D02*
G03*
X411942Y20581I3900J0D01*
G01*
X313353Y346500D02*
G03*
X313265Y347371I-4353J0D01*
G01*
X314000Y353900D02*
G03*
X312303Y353197I0J-2400D01*
G01*
X314000Y353900D02*
G03*
X312303Y353197I0J-2400D01*
G01*
X305697D02*
G03*
X304000Y353900I-1697J-1697D01*
G01*
X309871Y350765D02*
G03*
X308129Y350765I-871J-4265D01*
G01*
X305697Y353197D02*
G03*
X304000Y353900I-1697J-1697D01*
G01*
X285509Y349100D02*
G03*
X291069Y342671I3491J-2600D01*
G01*
X303353Y346500D02*
G03*
X302491Y349100I-4353J0D01*
G01*
X283353Y346500D02*
G03*
X282491Y349100I-4353J0D01*
G01*
X274000Y353900D02*
G03*
X271600Y351500I0J-2400D01*
G01*
X298755Y342154D02*
G03*
X303353Y346500I245J4346D01*
G01*
X295509Y349100D02*
G03*
X294654Y346255I3491J-2600D01*
G01*
X293353Y346500D02*
G03*
X292491Y349100I-4353J0D01*
G01*
X292829Y344431D02*
G03*
X293353Y346500I-3829J2069D01*
G01*
X304735Y347371D02*
G03*
X313353Y346500I4265J-871D01*
G01*
X276400Y343009D02*
G03*
X283353Y346500I2600J3491D01*
G01*
X278449Y330051D02*
G03*
X277600Y328000I2051J-2051D01*
G01*
X278449Y330051D02*
G03*
X277600Y328000I2051J-2051D01*
G01*
X275697Y328503D02*
G03*
X276400Y330200I-1697J1697D01*
G01*
X275697Y328503D02*
G03*
X276400Y330200I-1697J1697D01*
G01*
X274000Y353900D02*
G03*
X271600Y351500I0J-2400D01*
G01*
Y349991D02*
G03*
X271600Y343009I-2600J-3491D01*
G01*
X269703Y329297D02*
G03*
X269000Y327600I1697J-1697D01*
G01*
X269703Y329297D02*
G03*
X269000Y327600I1697J-1697D01*
G01*
X141569Y356169D02*
G03*
X141569Y356169I-8782J0D01*
G01*
X325000Y292000D02*
G03*
X325000Y292000I-4500J0D01*
G01*
X315000D02*
G03*
X315000Y292000I-4500J0D01*
G01*
X295000D02*
G03*
X295000Y292000I-4500J0D01*
G01*
X305000D02*
G03*
X305000Y292000I-4500J0D01*
G01*
X285000D02*
G03*
X283400Y295441I-4500J0D01*
G01*
X277600D02*
G03*
X276016Y291617I2900J-3441D01*
G01*
X280118Y287516D02*
G03*
X285000Y292000I383J4484D01*
G01*
X325000Y282000D02*
G03*
X325000Y282000I-4500J0D01*
G01*
X315000D02*
G03*
X315000Y282000I-4500J0D01*
G01*
X305000D02*
G03*
X305000Y282000I-4500J0D01*
G01*
X295000D02*
G03*
X295000Y282000I-4500J0D01*
G01*
X285000D02*
G03*
X278745Y286144I-4500J0D01*
G01*
X277800Y278400D02*
G03*
X285000Y282000I2700J3600D01*
G01*
X162400Y306200D02*
G03*
X161697Y307897I-2400J0D01*
G01*
X162400Y306200D02*
G03*
X161697Y307897I-2400J0D01*
G01*
X157600Y200437D02*
G03*
X160000Y198037I2400J0D01*
G01*
X157600Y200437D02*
G03*
X160000Y198037I2400J0D01*
G01*
X125260Y344334D02*
G03*
X125407Y345500I-4560J1166D01*
G01*
D02*
G03*
X121866Y340940I-4707J0D01*
G01*
X115565Y345500D02*
G03*
X106920Y348080I-4707J0D01*
G01*
Y342920D02*
G03*
X115565Y345500I3937J2580D01*
G01*
X106920Y348080D02*
G03*
X106920Y342920I-3937J-2580D01*
G01*
X97848Y345500D02*
G03*
X97848Y345500I-4707J0D01*
G01*
X89836Y356169D02*
G03*
X89836Y356169I-8782J0D01*
G01*
X123200Y295600D02*
G03*
X123200Y288400I-2700J-3600D01*
G01*
X115000Y292000D02*
G03*
X115000Y292000I-4500J0D01*
G01*
X105000D02*
G03*
X105000Y292000I-4500J0D01*
G01*
X85000D02*
G03*
X85000Y292000I-4500J0D01*
G01*
X95000D02*
G03*
X95000Y292000I-4500J0D01*
G01*
X75000D02*
G03*
X75000Y292000I-4500J0D01*
G01*
X29650Y354000D02*
G03*
X29650Y354000I-9650J0D01*
G01*
X65000Y292000D02*
G03*
X65000Y292000I-4500J0D01*
G01*
X55000D02*
G03*
X55000Y292000I-4500J0D01*
G01*
X45000D02*
G03*
X45000Y292000I-4500J0D01*
G01*
X35000D02*
G03*
X26016Y291617I-4500J0D01*
G01*
X30117Y287516D02*
G03*
X35000Y292000I383J4484D01*
G01*
X22849Y288451D02*
G03*
X22000Y286400I2051J-2051D01*
G01*
X22849Y288451D02*
G03*
X22000Y286400I2051J-2051D01*
G01*
X123200Y285600D02*
G03*
X123200Y278400I-2700J-3600D01*
G01*
X115000Y282000D02*
G03*
X115000Y282000I-4500J0D01*
G01*
X127297Y255303D02*
G03*
X128000Y257000I-1697J1697D01*
G01*
X127297Y255303D02*
G03*
X128000Y257000I-1697J1697D01*
G01*
X105000Y282000D02*
G03*
X105000Y282000I-4500J0D01*
G01*
X95000D02*
G03*
X95000Y282000I-4500J0D01*
G01*
X85000D02*
G03*
X85000Y282000I-4500J0D01*
G01*
X91535Y226329D02*
G03*
X90832Y224632I1697J-1697D01*
G01*
X91535Y226329D02*
G03*
X90832Y224632I1697J-1697D01*
G01*
X105000Y216900D02*
G03*
X104115Y216731I0J-2400D01*
G01*
X105000Y216900D02*
G03*
X104115Y216731I0J-2400D01*
G01*
X130700Y202992D02*
G03*
X131700Y205600I-2900J2608D01*
G01*
D02*
G03*
X124900Y202992I-3900J0D01*
G01*
X103197Y198603D02*
G03*
X103900Y200300I-1697J1697D01*
G01*
X103197Y198603D02*
G03*
X103900Y200300I-1697J1697D01*
G01*
X94929Y202235D02*
G03*
X95632Y203932I-1697J1697D01*
G01*
X94929Y202235D02*
G03*
X95632Y203932I-1697J1697D01*
G01*
X96303Y198497D02*
G03*
X95600Y196800I1697J-1697D01*
G01*
X96303Y198497D02*
G03*
X95600Y196800I1697J-1697D01*
G01*
X85000Y193300D02*
G03*
X86697Y194003I0J2400D01*
G01*
X85000Y193300D02*
G03*
X86697Y194003I0J2400D01*
G01*
X75000Y282000D02*
G03*
X75000Y282000I-4500J0D01*
G01*
X65000D02*
G03*
X65000Y282000I-4500J0D01*
G01*
X55000D02*
G03*
X55000Y282000I-4500J0D01*
G01*
X45000D02*
G03*
X45000Y282000I-4500J0D01*
G01*
X35000D02*
G03*
X28745Y286144I-4500J0D01*
G01*
X27800Y278400D02*
G03*
X35000Y282000I2700J3600D01*
G01*
X22000Y198600D02*
G03*
X22849Y196549I2900J0D01*
G01*
X22000Y198600D02*
G03*
X22849Y196549I2900J0D01*
G01*
X140289Y191472D02*
G03*
X140992Y189775I2400J0D01*
G01*
X140289Y191472D02*
G03*
X140992Y189775I2400J0D01*
G01*
X142900Y178706D02*
G03*
X143224Y178303I2021J1294D01*
G01*
X142900Y178706D02*
G03*
X143224Y178303I2021J1294D01*
G01*
X148287Y173240D02*
G03*
X149984Y172537I1697J1697D01*
G01*
X148287Y173240D02*
G03*
X149984Y172537I1697J1697D01*
G01*
X139324Y166019D02*
G03*
X142030Y164163I2706J1044D01*
G01*
X139326Y166015D02*
G03*
X142030Y164163I2704J1048D01*
G01*
X325000Y122000D02*
G03*
X325000Y122000I-4500J0D01*
G01*
X315000D02*
G03*
X315000Y122000I-4500J0D01*
G01*
X305000D02*
G03*
X305000Y122000I-4500J0D01*
G01*
X304889Y111005D02*
G03*
X305000Y112000I-4389J995D01*
G01*
X295000Y122000D02*
G03*
X290118Y126484I-4500J0D01*
G01*
X286016Y122382D02*
G03*
X295000Y122000I4484J-383D01*
G01*
X285000D02*
G03*
X284644Y123755I-4500J0D01*
G01*
X282255Y126144D02*
G03*
X285000Y122000I-1755J-4144D01*
G01*
X294889Y111005D02*
G03*
X295000Y112000I-4389J995D01*
G01*
X285000D02*
G03*
X279505Y116389I-4500J0D01*
G01*
X276111Y112995D02*
G03*
X276111Y111005I4389J-995D01*
G01*
X325000Y112000D02*
G03*
X325000Y112000I-4500J0D01*
G01*
X315000D02*
G03*
X315000Y112000I-4500J0D01*
G01*
X305000D02*
G03*
X301495Y107611I-4500J0D01*
G01*
X295000Y112000D02*
G03*
X291495Y107611I-4500J0D01*
G01*
X279505D02*
G03*
X285000Y112000I995J4389D01*
G01*
X308503Y100603D02*
G03*
X310200Y99900I1697J1697D01*
G01*
X308503Y100603D02*
G03*
X310200Y99900I1697J1697D01*
G01*
X306203Y92903D02*
G03*
X307900Y92200I1697J1697D01*
G01*
X306203Y92903D02*
G03*
X307900Y92200I1697J1697D01*
G01*
X269000Y121100D02*
G03*
X269703Y119403I2400J0D01*
G01*
X269000Y121100D02*
G03*
X269703Y119403I2400J0D01*
G01*
X268700Y96300D02*
G03*
X268671Y96777I-3900J0D01*
G01*
X265277Y100171D02*
G03*
X268700Y96300I-477J-3871D01*
G01*
X140000Y188400D02*
G03*
X138743Y188113I0J-2900D01*
G01*
X140000Y188400D02*
G03*
X138743Y188113I0J-2900D01*
G01*
X129851Y177556D02*
G03*
X130700Y179607I-2051J2051D01*
G01*
X129851Y177556D02*
G03*
X130700Y179607I-2051J2051D01*
G01*
X125000Y173907D02*
G03*
X127051Y174756I0J2900D01*
G01*
X125000Y173907D02*
G03*
X127051Y174756I0J2900D01*
G01*
X137893Y167293D02*
G03*
X138777Y167431I0J2900D01*
G01*
X137893Y167293D02*
G03*
X138777Y167431I0J2900D01*
G01*
X111154Y173093D02*
G03*
X109104Y172244I0J-2900D01*
G01*
X111154Y173093D02*
G03*
X109104Y172244I0J-2900D01*
G01*
X68100Y180000D02*
G03*
X68949Y177949I2900J0D01*
G01*
X68100Y180000D02*
G03*
X68949Y177949I2900J0D01*
G01*
X32949Y186449D02*
G03*
X35000Y185600I2051J2051D01*
G01*
X32949Y186449D02*
G03*
X35000Y185600I2051J2051D01*
G01*
X38449Y172051D02*
G03*
X37600Y170000I2051J-2051D01*
G01*
X38449Y172051D02*
G03*
X37600Y170000I2051J-2051D01*
G01*
X106300Y162439D02*
G03*
X108351Y163288I0J2900D01*
G01*
X106300Y162439D02*
G03*
X108351Y163288I0J2900D01*
G01*
X83611D02*
G03*
X85661Y162439I2051J2051D01*
G01*
X83611Y163288D02*
G03*
X85661Y162439I2051J2051D01*
G01*
X125000Y122000D02*
G03*
X125000Y122000I-4500J0D01*
G01*
X115000D02*
G03*
X115000Y122000I-4500J0D01*
G01*
X105000D02*
G03*
X105000Y122000I-4500J0D01*
G01*
X95000D02*
G03*
X95000Y122000I-4500J0D01*
G01*
X85000D02*
G03*
X85000Y122000I-4500J0D01*
G01*
X75000D02*
G03*
X75000Y122000I-4500J0D01*
G01*
X55000D02*
G03*
X55000Y122000I-4500J0D01*
G01*
X65000D02*
G03*
X65000Y122000I-4500J0D01*
G01*
X45000D02*
G03*
X43400Y125441I-4500J0D01*
G01*
X37600D02*
G03*
X45000Y122000I2900J-3441D01*
G01*
X125000Y112000D02*
G03*
X125000Y112000I-4500J0D01*
G01*
X115000D02*
G03*
X115000Y112000I-4500J0D01*
G01*
X105000D02*
G03*
X105000Y112000I-4500J0D01*
G01*
X95000D02*
G03*
X95000Y112000I-4500J0D01*
G01*
X75000D02*
G03*
X75000Y112000I-4500J0D01*
G01*
X85000D02*
G03*
X85000Y112000I-4500J0D01*
G01*
X55000D02*
G03*
X55000Y112000I-4500J0D01*
G01*
X65000D02*
G03*
X65000Y112000I-4500J0D01*
G01*
X45000D02*
G03*
X45000Y112000I-4500J0D01*
G01*
X35000Y122000D02*
G03*
X35000Y122000I-4500J0D01*
G01*
Y112000D02*
G03*
X35000Y112000I-4500J0D01*
G01*
X29650Y20000D02*
G03*
X29650Y20000I-9650J0D01*
G01*
X646937Y372116D02*
X647706Y371346D01*
X641280Y372116D02*
X647706Y365689D01*
X644108Y372116D02*
X647706Y368518D01*
X629522Y363650D02*
X637988Y372116D01*
X632017Y363316D02*
X640817Y372116D01*
X632795D02*
X647706Y357204D01*
X629966Y372116D02*
X647706Y354376D01*
X627138Y372116D02*
X647706Y351547D01*
X634043Y362514D02*
X643645Y372116D01*
X635623D02*
X647706Y360032D01*
X593196Y372116D02*
X647706Y317606D01*
X590368Y372116D02*
X647706Y314777D01*
X596025Y372116D02*
X647706Y320434D01*
X624309Y372116D02*
X633772Y362653D01*
X626060Y363016D02*
X635160Y372116D01*
X581883D02*
X647706Y306292D01*
X579054Y372116D02*
X647706Y303464D01*
X587540Y372116D02*
X647706Y311949D01*
X584711Y372116D02*
X647706Y309121D01*
X638923Y356080D02*
X647706Y364863D01*
X638197Y358182D02*
X647706Y367692D01*
X639135Y353464D02*
X647706Y362035D01*
X638451Y372116D02*
X647706Y362861D01*
X637114Y359928D02*
X647706Y370520D01*
X639139Y354457D02*
X647706Y345890D01*
X638909Y351859D02*
X647706Y343062D01*
X638172Y349767D02*
X647706Y340233D01*
X638076Y349577D02*
X647706Y359207D01*
X638153Y358272D02*
X647706Y348719D01*
X637081Y348030D02*
X647706Y337405D01*
X635688Y346595D02*
X647706Y334577D01*
X633994Y345460D02*
X647706Y331748D01*
X635729Y361371D02*
X646474Y372116D01*
X576226D02*
X647706Y300635D01*
X625938Y345032D02*
X647706Y323263D01*
X631958Y344668D02*
X647706Y328920D01*
X629448Y344350D02*
X647706Y326091D01*
X618652Y372116D02*
X627359Y363409D01*
X615824Y372116D02*
X625268Y362672D01*
X621481Y372116D02*
X629957Y363639D01*
X610167Y372116D02*
X622095Y360188D01*
X612995Y372116D02*
X623530Y361581D01*
X607339Y372116D02*
X620960Y358494D01*
X598853Y372116D02*
X620532Y350437D01*
X594999Y346097D02*
X621018Y372116D01*
X601682D02*
X619850Y353947D01*
X604510Y372116D02*
X620168Y356458D01*
X594370Y348296D02*
X618189Y372116D01*
X591980Y340250D02*
X623846Y372116D01*
X593711Y339153D02*
X626675Y372116D01*
X590899Y350482D02*
X612532Y372116D01*
X592992Y349747D02*
X615361Y372116D01*
X594779Y337392D02*
X629503Y372116D01*
X594757Y334542D02*
X632331Y372116D01*
X543388Y308628D02*
X606876Y372116D01*
X544802Y307214D02*
X609704Y372116D01*
X567741D02*
X589475Y350382D01*
X564912Y372116D02*
X587593Y349435D01*
X570569Y372116D02*
X592843Y349842D01*
X559255Y372116D02*
X586052Y345319D01*
X562084Y372116D02*
X586383Y347817D01*
X589819Y341552D02*
X590888Y340483D01*
X589214Y340312D02*
X590403Y341501D01*
X556427Y372116D02*
X588508Y340035D01*
X553598Y372116D02*
X586949Y338765D01*
X541973Y310042D02*
X604047Y372116D01*
X550770D02*
X586074Y336812D01*
X546216Y305799D02*
X586018Y345601D01*
X547630Y304385D02*
X586753Y343508D01*
X549044Y302971D02*
X588203Y342130D01*
X550459Y301557D02*
X586188Y337286D01*
X551873Y300143D02*
X586250Y334520D01*
X593935Y343093D02*
X647706Y289322D01*
X592317Y341883D02*
X647706Y286493D01*
X594983Y336388D02*
X647706Y283665D01*
X594342Y348343D02*
X647706Y294978D01*
X594882Y344975D02*
X647706Y292150D01*
X574400Y277415D02*
X647706Y350721D01*
X574400Y280243D02*
X647706Y353550D01*
X574400Y274586D02*
X647706Y347893D01*
X574400Y283072D02*
X647706Y356378D01*
X594535Y334008D02*
X647706Y280836D01*
X574400Y271758D02*
X647706Y345064D01*
X545113Y372116D02*
X647706Y269523D01*
X574400Y268930D02*
X647706Y342236D01*
X573397Y372116D02*
X647706Y297807D01*
X547942Y372116D02*
X647706Y272351D01*
X574400Y263273D02*
X647706Y336579D01*
X574400Y260444D02*
X647706Y333751D01*
X542285Y372116D02*
X647706Y266694D01*
X574400Y266101D02*
X647706Y339407D01*
X574400Y254787D02*
X647706Y328094D01*
X574400Y257616D02*
X647706Y330922D01*
X574400Y240645D02*
X647706Y313952D01*
X593265Y332450D02*
X647706Y278008D01*
X591312Y331574D02*
X647706Y275179D01*
X574400Y223675D02*
X647706Y296981D01*
X574988Y285672D02*
X647706Y212954D01*
X574400Y229331D02*
X647706Y302638D01*
X574400Y226503D02*
X647706Y299810D01*
X574400Y212361D02*
X647706Y285667D01*
X574400Y215189D02*
X647706Y288496D01*
X574400Y283432D02*
X647706Y210126D01*
X574400Y220846D02*
X647706Y294153D01*
X574400Y218018D02*
X647706Y291324D01*
X574400Y206704D02*
X647706Y280011D01*
X574400Y277775D02*
X647706Y204469D01*
X574400Y209532D02*
X647706Y282839D01*
X574400Y280604D02*
X647706Y207297D01*
X574975Y286475D02*
X633923Y345424D01*
X574213Y288542D02*
X630036Y344365D01*
X574400Y251959D02*
X647706Y325265D01*
X570514Y290500D02*
X625318Y345303D01*
X572744Y289901D02*
X627420Y344577D01*
X574400Y237817D02*
X647706Y311123D01*
X574400Y243474D02*
X647706Y316780D01*
X574400Y234988D02*
X647706Y308295D01*
X574400Y249131D02*
X647706Y322437D01*
X574400Y246302D02*
X647706Y319608D01*
X558944Y293072D02*
X619850Y353978D01*
X557530Y294486D02*
X620484Y357440D01*
X556115Y295900D02*
X591959Y331743D01*
X553287Y298728D02*
X587348Y332789D01*
X554701Y297314D02*
X589108Y331721D01*
X563610Y289252D02*
X622129Y347772D01*
X564728Y287542D02*
X623572Y346386D01*
X560358Y291657D02*
X620184Y351483D01*
X561829Y290299D02*
X620986Y349457D01*
X564778Y287398D02*
X566003Y286172D01*
X564846Y284831D02*
X566000Y285985D01*
X574400Y232160D02*
X647706Y305466D01*
X561950Y281740D02*
X566600Y277090D01*
X564769Y284577D02*
X566600Y282747D01*
X563691Y282827D02*
X566600Y279918D01*
X554998Y285863D02*
X556205Y284656D01*
X559156Y281705D02*
X566600Y274261D01*
X555000Y285985D02*
X556155Y284830D01*
X550862Y281515D02*
X566600Y265776D01*
X542755Y254255D02*
X566600Y278100D01*
X554355Y283678D02*
X566600Y271433D01*
X552968Y282237D02*
X566600Y268604D01*
X534906Y336916D02*
X570106Y372116D01*
X533996Y338834D02*
X567277Y372116D01*
X534039Y333220D02*
X572934Y372116D01*
X534578Y347902D02*
X558792Y372116D01*
X534968Y345463D02*
X561621Y372116D01*
X539145Y312871D02*
X598390Y372116D01*
X537731Y314285D02*
X595562Y372116D01*
X540559Y311456D02*
X601219Y372116D01*
X534902Y317113D02*
X589905Y372116D01*
X536316Y315699D02*
X592733Y372116D01*
X533339Y349491D02*
X555964Y372116D01*
X532409Y340075D02*
X564449Y372116D01*
X527831Y324184D02*
X575763Y372116D01*
X510400Y343523D02*
X538993Y372116D01*
X531424Y350404D02*
X553135Y372116D01*
X532074Y319942D02*
X584248Y372116D01*
X533488Y318527D02*
X587077Y372116D01*
X529245Y322770D02*
X578591Y372116D01*
X530660Y321356D02*
X581420Y372116D01*
X527763Y349572D02*
X550307Y372116D01*
X530474Y341500D02*
X531614Y340360D01*
X510964Y352572D02*
X530508Y372116D01*
X529974Y340469D02*
X531037Y341532D01*
X513689Y338326D02*
X547478Y372116D01*
X512275Y339741D02*
X544650Y372116D01*
X528845Y331815D02*
X570172Y290488D01*
X526417Y325599D02*
X533280Y332461D01*
X510861Y341155D02*
X541822Y372116D01*
X510400Y346351D02*
X536165Y372116D01*
X503742Y337242D02*
X550485Y290500D01*
X508344Y372116D02*
X529989Y350471D01*
X510400Y349180D02*
X533336Y372116D01*
X510400Y341775D02*
X561898Y290277D01*
X510400Y341615D02*
X561670Y290345D01*
X494100Y346761D02*
X550363Y290498D01*
X494100Y343933D02*
X548178Y289855D01*
X510169Y354605D02*
X527679Y372116D01*
X508675Y355940D02*
X524851Y372116D01*
X505515D02*
X527934Y349697D01*
X506406Y356499D02*
X522023Y372116D01*
X515103Y336912D02*
X526928Y348737D01*
X510573Y350087D02*
X526315Y334345D01*
X517932Y334084D02*
X527009Y343161D01*
X510970Y352519D02*
X526191Y337298D01*
X516517Y335498D02*
X526096Y345076D01*
X493870Y349620D02*
X516366Y372116D01*
X492719Y351297D02*
X513537Y372116D01*
X502687D02*
X526585Y348218D01*
X491304Y352711D02*
X510709Y372116D01*
X494202D02*
X527228Y339089D01*
X497030Y372116D02*
X528929Y340217D01*
X494100Y347022D02*
X519194Y372116D01*
X499858D02*
X526000Y345974D01*
X523589Y328427D02*
X527666Y332504D01*
X519346Y332669D02*
X528598Y341922D01*
X525003Y327013D02*
X529584Y331594D01*
X520760Y331255D02*
X526031Y336526D01*
X522174Y329841D02*
X526425Y334091D01*
X504571Y292439D02*
X526558Y314426D01*
X505985Y291024D02*
X527973Y313012D01*
X501742Y295267D02*
X523730Y317255D01*
X503157Y293853D02*
X525144Y315840D01*
X493257Y303752D02*
X515245Y325740D01*
X491843Y305167D02*
X513831Y327154D01*
X494671Y302338D02*
X516659Y324326D01*
X489014Y307995D02*
X511002Y329982D01*
X490429Y306581D02*
X512416Y328568D01*
X498914Y298095D02*
X520901Y320083D01*
X500328Y296681D02*
X522316Y318669D01*
X496086Y300924D02*
X518073Y322911D01*
X497500Y299510D02*
X519487Y321497D01*
X533800Y372116D02*
X647706Y258209D01*
X530971Y372116D02*
X647706Y255380D01*
X528143Y372116D02*
X647706Y252552D01*
X539456Y372116D02*
X647706Y263866D01*
X536628Y372116D02*
X647706Y261037D01*
X534860Y337114D02*
X647706Y224268D01*
X532718Y342085D02*
X647706Y227096D01*
X534717Y334429D02*
X647706Y221439D01*
X534971Y345489D02*
X647706Y232753D01*
X534197Y343434D02*
X647706Y229925D01*
X525314Y372116D02*
X647706Y249724D01*
X522486Y372116D02*
X647706Y246895D01*
X510400Y347432D02*
X568054Y289777D01*
X510400Y344603D02*
X566659Y288345D01*
X494100Y335448D02*
X566600Y262948D01*
X514001Y372116D02*
X647706Y238410D01*
X511172Y372116D02*
X647706Y235581D01*
X519657Y372116D02*
X647706Y244067D01*
X516829Y372116D02*
X647706Y241238D01*
X494100Y332619D02*
X566600Y260119D01*
X493566Y330325D02*
X566600Y257291D01*
X538512Y258497D02*
X561669Y281655D01*
X535683Y261326D02*
X557248Y282890D01*
X537098Y259912D02*
X558958Y281772D01*
X533589Y332728D02*
X647706Y218611D01*
X531798Y331691D02*
X647706Y215782D01*
X539926Y257083D02*
X566599Y283756D01*
X541340Y255669D02*
X566600Y280929D01*
X489414Y325992D02*
X566600Y248805D01*
X487999Y324578D02*
X566600Y245977D01*
X486585Y323164D02*
X566600Y243149D01*
X492242Y328820D02*
X566600Y254462D01*
X490828Y327406D02*
X566600Y251634D01*
X482342Y318921D02*
X566600Y234663D01*
X480928Y317507D02*
X566600Y231835D01*
X485171Y321749D02*
X566600Y240320D01*
X483757Y320335D02*
X566600Y237492D01*
X494100Y338276D02*
X546014Y286362D01*
X494100Y341105D02*
X546737Y288468D01*
X510228Y286782D02*
X532215Y308769D01*
X507399Y289610D02*
X529387Y311598D01*
X508813Y288196D02*
X530801Y310184D01*
X480215Y316794D02*
X549305Y247704D01*
X472878Y313100D02*
X542647Y243331D01*
X514470Y282539D02*
X536458Y304527D01*
X511642Y285367D02*
X533630Y307355D01*
X513056Y283953D02*
X535044Y305941D01*
X406520Y372116D02*
X542647Y235989D01*
X403692Y372116D02*
X542647Y233160D01*
X400863Y372116D02*
X542647Y230332D01*
X409348Y372116D02*
X542647Y238817D01*
X471427Y312866D02*
X542647Y241646D01*
X398035Y372116D02*
X542068Y228083D01*
X443400Y312609D02*
X529686Y226322D01*
X443400Y309780D02*
X528748Y224432D01*
X443400Y306952D02*
X522525Y227827D01*
X525784Y271225D02*
X547772Y293213D01*
X524370Y272639D02*
X546357Y294627D01*
X527198Y269811D02*
X549186Y291799D01*
X522956Y274054D02*
X544943Y296041D01*
X528612Y268397D02*
X546005Y285789D01*
X534269Y262740D02*
X556201Y284671D01*
X532855Y264154D02*
X550210Y281509D01*
X530027Y266983D02*
X546674Y283630D01*
X531441Y265568D02*
X548079Y282207D01*
X520127Y276882D02*
X542115Y298870D01*
X518713Y278296D02*
X540701Y300284D01*
X521541Y275468D02*
X543529Y297456D01*
X515884Y281125D02*
X537872Y303112D01*
X517299Y279711D02*
X539286Y301698D01*
X443400Y304123D02*
X520476Y227047D01*
X443400Y301295D02*
X519155Y225540D01*
X443400Y298466D02*
X514175Y227691D01*
X445032Y294005D02*
X511465Y227573D01*
X574400Y272118D02*
X647706Y198812D01*
X574400Y201047D02*
X647706Y274354D01*
X574400Y198219D02*
X647706Y271525D01*
X574400Y203876D02*
X647706Y277182D01*
X574400Y274947D02*
X647706Y201640D01*
X574400Y260805D02*
X647706Y187498D01*
X574400Y266461D02*
X647706Y193155D01*
X574400Y186905D02*
X647706Y260211D01*
X574400Y269290D02*
X647706Y195983D01*
X574400Y195390D02*
X647706Y268697D01*
X550447Y244977D02*
X566600Y261130D01*
X546997Y250012D02*
X566600Y269615D01*
X550447Y242148D02*
X566600Y258301D01*
X544169Y252840D02*
X566600Y275272D01*
X545583Y251426D02*
X566600Y272443D01*
X574400Y263633D02*
X647706Y190326D01*
X574400Y189734D02*
X647706Y263040D01*
X574400Y192562D02*
X647706Y265868D01*
X550447Y239320D02*
X566600Y255473D01*
X553122Y227853D02*
X566600Y241331D01*
X550447Y242331D02*
X566600Y226178D01*
X557353Y226427D02*
X566600Y235674D01*
X550447Y228006D02*
X566600Y244159D01*
X555951Y227853D02*
X566600Y238502D01*
X557353Y224112D02*
X566600Y214864D01*
X557353Y226940D02*
X566600Y217693D01*
X557353Y221283D02*
X566600Y212036D01*
X557353Y223598D02*
X566600Y232845D01*
X557353Y220770D02*
X566600Y230017D01*
X550447Y230835D02*
X566600Y246987D01*
X550441Y245165D02*
X566600Y229007D01*
X550447Y239502D02*
X566600Y223350D01*
X550447Y236491D02*
X566600Y252644D01*
X550447Y233663D02*
X566600Y249816D01*
X546900Y214765D02*
X566600Y195065D01*
X547050Y187839D02*
X566600Y207389D01*
X550447Y236674D02*
X566600Y220521D01*
X546900Y220422D02*
X566600Y200722D01*
X549776Y247134D02*
X566600Y263958D01*
X550447Y227853D02*
X557353D01*
X550447D02*
Y244947D01*
Y231017D02*
X553612Y227853D01*
X550447Y233845D02*
X556440Y227853D01*
X557353Y219147D02*
Y227853D01*
X550447Y228189D02*
X550783Y227853D01*
X548647Y219147D02*
Y223632D01*
X548411Y248598D02*
X566600Y266786D01*
X542647Y228663D02*
Y243331D01*
X547125Y222109D02*
X548647Y223632D01*
X541565Y227609D02*
X542647Y228692D01*
X541609Y227625D02*
X542647Y228663D01*
X546900Y207488D02*
X566600Y227188D01*
X546900Y204660D02*
X566600Y224360D01*
X546958Y221688D02*
X548647Y223378D01*
X547583Y222568D02*
X548647Y221503D01*
Y219147D02*
X557353D01*
X546900Y213145D02*
X552902Y219147D01*
X556660D02*
X566600Y209208D01*
X546900Y218802D02*
X548647Y220549D01*
X553832Y219147D02*
X566600Y206379D01*
X551003Y219147D02*
X566600Y203551D01*
X546900Y201919D02*
Y221567D01*
X549647Y187608D02*
X566600Y204561D01*
X546900Y210317D02*
X555730Y219147D01*
X546899Y201831D02*
X566600Y221532D01*
X546900Y215974D02*
X550073Y219147D01*
X546900Y217594D02*
X566600Y197894D01*
X546900Y211937D02*
X566600Y192237D01*
X546900Y209108D02*
X566600Y189409D01*
X541403Y194807D02*
X548402Y187808D01*
X574400Y241005D02*
X647706Y167699D01*
X574400Y169934D02*
X647706Y243241D01*
X574400Y167106D02*
X647706Y240412D01*
X574400Y172763D02*
X647706Y246069D01*
X574400Y243834D02*
X647706Y170528D01*
X574400Y161449D02*
X647706Y234756D01*
X574400Y235349D02*
X647706Y162042D01*
X574400Y232520D02*
X647706Y159214D01*
X574400Y238177D02*
X647706Y164871D01*
X574400Y164278D02*
X647706Y237584D01*
X574400Y181248D02*
X647706Y254555D01*
X574400Y255148D02*
X647706Y181841D01*
X574400Y252319D02*
X647706Y179013D01*
X574400Y257976D02*
X647706Y184670D01*
X574400Y184077D02*
X647706Y257383D01*
X574400Y175591D02*
X647706Y248898D01*
X574400Y246662D02*
X647706Y173356D01*
X574400Y178420D02*
X647706Y251726D01*
X574400Y249491D02*
X647706Y176184D01*
X574400Y127508D02*
X647706Y200815D01*
X574400Y201408D02*
X647706Y128101D01*
X574400Y198579D02*
X647706Y125273D01*
X574400Y204236D02*
X647706Y130930D01*
X574400Y130336D02*
X647706Y203643D01*
X574400Y190094D02*
X647706Y116787D01*
X574400Y116194D02*
X647706Y189501D01*
X574400Y192922D02*
X647706Y119616D01*
X574400Y119023D02*
X647706Y192329D01*
X574400Y226863D02*
X647706Y153557D01*
X574400Y155792D02*
X647706Y229099D01*
X574400Y152964D02*
X647706Y226270D01*
X574400Y158621D02*
X647706Y231927D01*
X574400Y229692D02*
X647706Y156385D01*
X574400Y207064D02*
X647706Y133758D01*
X574400Y133165D02*
X647706Y206471D01*
X574400Y224035D02*
X647706Y150728D01*
X574400Y150136D02*
X647706Y223442D01*
X574400Y144479D02*
X647706Y217785D01*
X574400Y218378D02*
X647706Y145072D01*
X574400Y215550D02*
X647706Y142243D01*
X574400Y221206D02*
X647706Y147900D01*
X574400Y147307D02*
X647706Y220614D01*
X574400Y209893D02*
X647706Y136586D01*
X574400Y138822D02*
X647706Y212128D01*
X574400Y124680D02*
X647706Y197986D01*
X574400Y141650D02*
X647706Y214957D01*
X574400Y212721D02*
X647706Y139415D01*
X546900Y203452D02*
X566600Y183752D01*
X546900Y206280D02*
X566600Y186580D01*
X553474Y185778D02*
X566600Y198904D01*
X543242Y186860D02*
X566600Y210218D01*
X551737Y186870D02*
X566600Y201732D01*
X574400Y135993D02*
X647706Y209300D01*
X544231Y197635D02*
X566600Y175266D01*
X546733Y200790D02*
X566600Y180923D01*
X545646Y199049D02*
X566600Y178095D01*
X557150Y178140D02*
X566600Y187590D01*
X556464Y174626D02*
X566600Y184762D01*
X557108Y179102D02*
X566600Y169609D01*
X556042Y182689D02*
X566600Y193247D01*
X556833Y180652D02*
X566600Y190419D01*
X574400Y195751D02*
X647706Y122444D01*
X574400Y121851D02*
X647706Y195158D01*
X556981Y176400D02*
X566600Y166781D01*
X556304Y174249D02*
X566600Y163953D01*
X555613Y183424D02*
X566600Y172438D01*
X555260Y172464D02*
X566600Y161124D01*
X553910Y170986D02*
X566600Y158296D01*
X542817Y196221D02*
X552725Y186313D01*
X554908Y184384D02*
X566600Y196076D01*
X544580Y169002D02*
X566600Y146982D01*
X547854Y168556D02*
X566600Y149811D01*
X552261Y169806D02*
X566600Y155467D01*
X550280Y168959D02*
X566600Y152639D01*
X527218Y224576D02*
X542647Y240005D01*
X526231Y226417D02*
X542647Y242834D01*
X536782Y225655D02*
X542647Y231520D01*
X533312Y227842D02*
X542647Y237177D01*
X535418Y227119D02*
X542647Y234348D01*
X537352Y223396D02*
X538891Y224935D01*
X537257Y224408D02*
X538678Y222988D01*
X521857Y227700D02*
X540068Y245911D01*
X513591Y253731D02*
X540361Y226961D01*
X524552Y227567D02*
X541482Y244497D01*
X513496Y227824D02*
X535825Y250153D01*
X515537Y227037D02*
X537239Y248739D01*
X513261Y251233D02*
X539087Y225407D01*
X516853Y225525D02*
X538653Y247325D01*
X507256Y224413D02*
X534411Y251568D01*
X517073Y221965D02*
X537302Y201736D01*
X539650Y188925D02*
X566600Y215875D01*
X539650Y191753D02*
X566600Y218703D01*
X539650Y193053D02*
X545758Y199161D01*
X537016Y221821D02*
X539100Y219737D01*
Y203534D02*
Y221567D01*
X539650Y186096D02*
X566600Y213046D01*
X539989Y193392D02*
X545700Y187681D01*
X539650Y190903D02*
X543549Y187004D01*
X539650Y188074D02*
X541764Y185960D01*
X530076Y220275D02*
X539100Y211252D01*
X526547Y220976D02*
X539100Y208423D01*
X525040Y219655D02*
X539100Y205595D01*
X535822Y220186D02*
X539100Y216909D01*
X533932Y219248D02*
X539100Y214080D01*
X522709Y219157D02*
X538716Y203150D01*
X532992Y197427D02*
X539100Y203534D01*
X515929Y220280D02*
X535887Y200322D01*
X514094Y219287D02*
X534473Y198908D01*
X512849Y255461D02*
X521683Y264296D01*
X511303Y256744D02*
X520269Y265710D01*
X513635Y253419D02*
X523097Y262881D01*
X508832Y257102D02*
X518854Y267124D01*
X506324Y226310D02*
X532997Y252982D01*
X504695Y227509D02*
X531582Y254396D01*
X511992Y249674D02*
X533908Y227757D01*
X502121Y227763D02*
X530168Y255810D01*
X509967Y248870D02*
X531321Y227516D01*
X495652Y226951D02*
X527340Y258639D01*
X493673Y227800D02*
X525925Y260053D01*
X496920Y225391D02*
X528754Y257225D01*
X462400Y224812D02*
X511783Y274195D01*
X487289Y224245D02*
X524511Y261467D01*
X462400Y216327D02*
X516026Y269953D01*
X462400Y213498D02*
X517440Y268538D01*
X462400Y221983D02*
X513198Y272781D01*
X462400Y219155D02*
X514612Y271367D01*
X526735Y221264D02*
X528658Y223188D01*
X527327Y223025D02*
X529775Y220576D01*
X517191Y224675D02*
X518657Y223209D01*
X517341Y223185D02*
X518800Y224643D01*
X510820Y219732D02*
X533059Y197494D01*
X506629Y221096D02*
X531996Y195728D01*
X505169Y219726D02*
X531850Y193046D01*
X502919Y219148D02*
X531850Y190217D01*
X487633Y187820D02*
X520083Y220269D01*
X490303Y187661D02*
X521924Y219282D01*
X497126Y222113D02*
X531850Y187389D01*
X494206Y185908D02*
X529381Y221082D01*
X483497Y186511D02*
X518933Y221948D01*
X492436Y186966D02*
X525236Y219765D01*
X539650Y163469D02*
X545048Y168867D01*
X539650Y166297D02*
X543011Y169658D01*
X539650Y160640D02*
X547560Y168550D01*
X539650Y171954D02*
X539922Y172226D01*
X539650Y169126D02*
X541316Y170792D01*
X539650Y168275D02*
X566600Y141325D01*
X539650Y143670D02*
X566600Y170620D01*
X539650Y140841D02*
X566600Y167791D01*
X539650Y171104D02*
X566600Y144154D01*
X539650Y157812D02*
X551075Y169236D01*
X539650Y154983D02*
X566600Y181933D01*
X539650Y183812D02*
Y193053D01*
Y185246D02*
X540286Y184610D01*
X539650Y152155D02*
X566600Y179105D01*
X539650Y149327D02*
X566600Y176277D01*
X462400Y131474D02*
X539100Y208174D01*
X539650Y146498D02*
X566600Y173448D01*
X539650Y148476D02*
X566600Y121526D01*
X539650Y123871D02*
X566600Y150821D01*
X539650Y121042D02*
X566600Y147992D01*
X539650Y126699D02*
X566600Y153649D01*
X539650Y151305D02*
X566600Y124355D01*
X539650Y142819D02*
X566600Y115869D01*
X539650Y115385D02*
X566600Y142335D01*
X539650Y145648D02*
X566600Y118698D01*
X539650Y118214D02*
X566600Y145164D01*
X539650Y135185D02*
X566600Y162135D01*
X539650Y162618D02*
X566600Y135668D01*
X539650Y159790D02*
X566600Y132840D01*
X539650Y165447D02*
X566600Y138497D01*
X539650Y138013D02*
X566600Y164963D01*
X539650Y129528D02*
X566600Y156478D01*
X539650Y154133D02*
X566600Y127183D01*
X539650Y132356D02*
X566600Y159306D01*
X539650Y156961D02*
X566600Y130011D01*
X497669Y180885D02*
X538880Y222096D01*
X496033Y220378D02*
X531850Y184561D01*
X496838Y182882D02*
X533104Y219148D01*
X495672Y184544D02*
X530845Y219718D01*
X494251Y219331D02*
X531850Y181732D01*
X491230Y219523D02*
X531850Y178904D01*
X486707Y221218D02*
X531850Y176075D01*
X498047Y178435D02*
X539100Y219487D01*
X485295Y219801D02*
X531850Y173247D01*
X483119Y219149D02*
X531850Y170418D01*
X464515Y234925D02*
X531850Y167590D01*
X463494Y233118D02*
X531850Y164761D01*
X462400Y231383D02*
X531850Y161933D01*
X462400Y171072D02*
X510975Y219647D01*
X462400Y168243D02*
X513315Y219159D01*
X462400Y222898D02*
X531850Y153448D01*
X462400Y220069D02*
X531850Y150619D01*
X462400Y228555D02*
X531850Y159105D01*
X462400Y225726D02*
X531850Y156276D01*
X497537Y175096D02*
X539100Y216659D01*
X496932Y182709D02*
X531850Y147791D01*
X498033Y178780D02*
X531850Y144962D01*
X497830Y176154D02*
X531850Y142134D01*
X497110Y174046D02*
X531850Y139306D01*
X492970Y169701D02*
X531850Y130820D01*
X490949Y168893D02*
X531850Y127992D01*
X496032Y172295D02*
X531850Y136477D01*
X494651Y170848D02*
X531850Y133649D01*
X462400Y134302D02*
X539100Y211002D01*
X462400Y137130D02*
X539100Y213830D01*
X462400Y128645D02*
X539100Y205345D01*
X463034Y126451D02*
X531905Y195322D01*
X488463Y168550D02*
X531850Y125163D01*
X462400Y188957D02*
X531850Y119507D01*
X462400Y186129D02*
X531850Y116679D01*
X463873Y124461D02*
X531850Y192438D01*
X485026Y169159D02*
X531850Y122335D01*
X488802Y355866D02*
X505052Y372116D01*
X488545D02*
X504587Y356073D01*
X491373Y372116D02*
X507019Y356470D01*
X486607Y356499D02*
X502224Y372116D01*
X485716D02*
X503002Y354830D01*
X482888Y372116D02*
X502093Y352910D01*
X480059Y372116D02*
X502600Y349575D01*
X490251Y354486D02*
X507880Y372116D01*
X477231D02*
X502600Y346747D01*
X471574Y372116D02*
X487253Y356436D01*
X474402Y372116D02*
X502600Y343918D01*
X454603Y372116D02*
X486300Y340419D01*
X451775Y372116D02*
X486300Y337591D01*
X444156Y319705D02*
X496567Y372116D01*
X445078Y317799D02*
X499395Y372116D01*
X439761Y320967D02*
X490910Y372116D01*
X442499Y320876D02*
X493738Y372116D01*
X510400Y341615D02*
Y349755D01*
X502600Y340000D02*
Y349755D01*
X494100Y338536D02*
X502600Y347036D01*
X494100Y344193D02*
X502001Y352094D01*
X494100Y341365D02*
X502560Y349825D01*
X494100Y335708D02*
X502600Y344208D01*
X494100Y332294D02*
Y348300D01*
Y332879D02*
X502600Y341379D01*
X490845Y353170D02*
X492958Y351058D01*
X485330Y347655D02*
X486300Y346685D01*
X493728Y349961D02*
X502600Y341090D01*
X473291Y320900D02*
X486300Y333909D01*
X468746Y372116D02*
X484726Y356136D01*
X465917Y372116D02*
X483093Y354940D01*
X457432Y372116D02*
X486300Y343248D01*
X463089Y372116D02*
X482130Y353074D01*
X460260Y372116D02*
X482572Y349804D01*
X446118Y372116D02*
X485312Y332922D01*
X443290Y372116D02*
X483898Y331507D01*
X448947Y372116D02*
X486300Y334762D01*
X437633Y372116D02*
X481070Y328679D01*
X440461Y372116D02*
X482484Y330093D01*
X431976Y372116D02*
X478241Y325851D01*
X429148Y372116D02*
X476827Y324436D01*
X434804Y372116D02*
X479656Y327265D01*
X401717Y328177D02*
X445655Y372116D01*
X403131Y326763D02*
X448483Y372116D01*
X423491D02*
X473999Y321608D01*
X426319Y372116D02*
X475413Y323022D01*
X405959Y323935D02*
X454140Y372116D01*
X420662D02*
X471678Y321100D01*
X486300Y333909D02*
Y346685D01*
X484304Y348072D02*
X486300Y346076D01*
X471062Y321155D02*
X486300Y336393D01*
X417834Y372116D02*
X469203Y320747D01*
X472436Y320900D02*
X473291D01*
X412177Y372116D02*
X466866Y317427D01*
X415005Y372116D02*
X467655Y319466D01*
X400302Y329592D02*
X442827Y372116D01*
X398888Y331006D02*
X439998Y372116D01*
X404545Y325349D02*
X451312Y372116D01*
X396060Y333834D02*
X434341Y372116D01*
X397474Y332420D02*
X437170Y372116D01*
X410202Y319692D02*
X462626Y372116D01*
X411616Y318278D02*
X465454Y372116D01*
X407374Y322521D02*
X456969Y372116D01*
X408788Y321106D02*
X459797Y372116D01*
X483357Y313652D02*
X505345Y335639D01*
X481943Y315066D02*
X503931Y337054D01*
X484772Y312238D02*
X506759Y334225D01*
X480529Y316480D02*
X502804Y338755D01*
X480215Y316794D02*
X492958Y329536D01*
X486186Y310823D02*
X508174Y332811D01*
X443441Y296363D02*
X486300Y339222D01*
X487600Y309409D02*
X509588Y331397D01*
X443400Y310464D02*
X482634Y349697D01*
X443400Y307635D02*
X484014Y348249D01*
X421516Y308379D02*
X485253Y372116D01*
X420101Y309793D02*
X482425Y372116D01*
X443400Y313292D02*
X482001Y351893D01*
X417273Y312621D02*
X476768Y372116D01*
X418687Y311207D02*
X479596Y372116D01*
X422930Y306964D02*
X488081Y372116D01*
X443400Y301978D02*
X486300Y344879D01*
X443400Y304807D02*
X485789Y347196D01*
X443400Y299150D02*
X486300Y342050D01*
X475031Y294011D02*
X483499Y302479D01*
X474033Y295842D02*
X482085Y303894D01*
X474218Y290370D02*
X484913Y301065D01*
X469347Y296813D02*
X479256Y306722D01*
X472307Y296945D02*
X480670Y305308D01*
X475085Y292237D02*
X510231Y257091D01*
X474175Y290319D02*
X507732Y256761D01*
X472530Y289136D02*
X506174Y255492D01*
X469823Y289014D02*
X505370Y253467D01*
X464864Y272530D02*
X489156Y296823D01*
X463449Y273945D02*
X487742Y298237D01*
X466278Y271116D02*
X490570Y295408D01*
X453550Y283844D02*
X477842Y308136D01*
X462035Y275359D02*
X486327Y299651D01*
X467700Y264053D02*
X494813Y291166D01*
X467700Y261225D02*
X496227Y289752D01*
X467543Y269553D02*
X491984Y293994D01*
X467700Y266881D02*
X493399Y292580D01*
X472436Y313100D02*
X472878D01*
X444733Y294826D02*
X466845Y316938D01*
X446479Y290915D02*
X468949Y313385D01*
X445108Y292373D02*
X467498Y314763D01*
X447893Y289501D02*
X471243Y312851D01*
X445130Y316535D02*
X467136Y294530D01*
X444327Y314510D02*
X467014Y291823D01*
X414445Y315450D02*
X471111Y372116D01*
X413030Y316864D02*
X468282Y372116D01*
X415859Y314035D02*
X473939Y372116D01*
X424344Y305550D02*
X437033Y318239D01*
X438600Y296393D02*
Y313607D01*
X443400Y296393D02*
Y313607D01*
X425758Y304136D02*
X437124Y315501D01*
X427173Y302722D02*
X438295Y313844D01*
X452136Y285258D02*
X476428Y309550D01*
X450722Y286673D02*
X475014Y310965D01*
X449307Y288087D02*
X473599Y312379D01*
X454964Y282430D02*
X467187Y294653D01*
X457793Y279602D02*
X468158Y289967D01*
X460621Y276773D02*
X473630Y289783D01*
X445096Y292298D02*
X466997Y270397D01*
X456378Y281016D02*
X467055Y291692D01*
X432829Y297065D02*
X438600Y302835D01*
X431415Y298479D02*
X438600Y305664D01*
X434244Y295651D02*
X438600Y300007D01*
X428587Y301307D02*
X438600Y311321D01*
X430001Y299893D02*
X438600Y308492D01*
X435658Y294236D02*
X438600Y297179D01*
X391817Y338077D02*
X425856Y372116D01*
X390403Y339491D02*
X423028Y372116D01*
X393231Y336663D02*
X428684Y372116D01*
X387575Y342320D02*
X417371Y372116D01*
X388989Y340905D02*
X420199Y372116D01*
X392378D02*
X468319Y296175D01*
X389549Y372116D02*
X440535Y321130D01*
X395206Y372116D02*
X470237Y297085D01*
X394646Y335248D02*
X431513Y372116D01*
X386721D02*
X438510Y320327D01*
X383893Y372116D02*
X437239Y318769D01*
X375407Y372116D02*
X438600Y308923D01*
X378236Y372116D02*
X438600Y311752D01*
X386160Y343734D02*
X414542Y372116D01*
X381064D02*
X436908Y316272D01*
X366922Y372116D02*
X438600Y300438D01*
X364094Y372116D02*
X438600Y297609D01*
X372579Y372116D02*
X438600Y306095D01*
X369750Y372116D02*
X438600Y303266D01*
X377675Y352219D02*
X397572Y372116D01*
X376204Y353576D02*
X394743Y372116D01*
X379089Y350805D02*
X400400Y372116D01*
X370871Y353900D02*
X389086Y372116D01*
X373699Y353900D02*
X391915Y372116D01*
X383332Y346562D02*
X408885Y372116D01*
X384746Y345148D02*
X411714Y372116D01*
X380503Y349391D02*
X403229Y372116D01*
X381918Y347976D02*
X406057Y372116D01*
X365214Y353900D02*
X383430Y372116D01*
X362385Y353900D02*
X380601Y372116D01*
X368042Y353900D02*
X386258Y372116D01*
X359557Y353900D02*
X377773Y372116D01*
X330441Y296500D02*
X378523Y344582D01*
X361452Y296398D02*
X394080Y329026D01*
X370013Y296474D02*
X398323Y324783D01*
X341615Y296360D02*
X384180Y338926D01*
X350232Y296492D02*
X388423Y334683D01*
X349952Y372116D02*
X368167Y353900D01*
X348243D02*
X366459Y372116D01*
X351072Y353900D02*
X369287Y372116D01*
X345415Y353900D02*
X363631Y372116D01*
X347123D02*
X365339Y353900D01*
X355608Y372116D02*
X373824Y353900D01*
X353900D02*
X372116Y372116D01*
X356728Y353900D02*
X374944Y372116D01*
X352780D02*
X370996Y353900D01*
X353900D02*
X372116Y372116D01*
X336929Y353900D02*
X355145Y372116D01*
X327324D02*
X345540Y353900D01*
X338638Y372116D02*
X356854Y353900D01*
X324496Y372116D02*
X342711Y353900D01*
X325616D02*
X343831Y372116D01*
X342586Y353900D02*
X360802Y372116D01*
X344295D02*
X362510Y353900D01*
X339758D02*
X357974Y372116D01*
X341466D02*
X359682Y353900D01*
X334101D02*
X352317Y372116D01*
X332981D02*
X351197Y353900D01*
X335809Y372116D02*
X354025Y353900D01*
X328444D02*
X346660Y372116D01*
X331273Y353900D02*
X349488Y372116D01*
X330153D02*
X348368Y353900D01*
X323353Y345980D02*
X326473Y349100D01*
X322787Y353900D02*
X341003Y372116D01*
X321667D02*
X339883Y353900D01*
X323353Y349100D02*
X374006D01*
X323353Y348809D02*
X323644Y349100D01*
X323353Y343152D02*
X329301Y349100D01*
X321772Y296316D02*
X374281Y348825D01*
X323353Y344974D02*
X372134Y296193D01*
X323353Y342147D02*
Y349100D01*
X323352Y342147D02*
X369193Y296306D01*
X372967Y349100D02*
X456354Y265713D01*
X361265Y372116D02*
X437768Y295613D01*
X374006Y349100D02*
X456404Y266702D01*
X358437Y372116D02*
X436896Y293656D01*
X376697Y353197D02*
X436844Y293050D01*
X367311Y349100D02*
X460158Y256252D01*
X364482Y349100D02*
X458744Y254838D01*
X370139Y349100D02*
X461572Y257666D01*
X355997Y349100D02*
X454501Y250595D01*
X361654Y349100D02*
X457330Y253424D01*
X350340Y349100D02*
X451673Y247767D01*
X347512Y349100D02*
X450259Y246353D01*
X353168Y349100D02*
X453087Y249181D01*
X341855Y349100D02*
X447430Y243524D01*
X344683Y349100D02*
X448844Y244939D01*
X336198Y349100D02*
X444602Y240696D01*
X339026Y349100D02*
X446016Y242110D01*
X330541Y349100D02*
X441773Y237867D01*
X333369Y349100D02*
X443188Y239282D01*
X374912Y292887D02*
X402565Y320541D01*
X373864Y289011D02*
X403979Y319127D01*
X373246Y285565D02*
X405394Y317712D01*
X372432Y296064D02*
X399737Y323369D01*
X374011Y294815D02*
X401151Y321955D01*
X374693Y293635D02*
X436117Y232211D01*
X374806Y290693D02*
X434702Y230796D01*
X374524Y284014D02*
X406808Y316298D01*
X374986Y281648D02*
X408222Y314884D01*
X363358Y295476D02*
X395494Y327612D01*
X357894Y295669D02*
X392666Y330440D01*
X364589Y293878D02*
X396908Y326198D01*
X352566Y295998D02*
X389837Y333269D01*
X354099Y294702D02*
X391251Y331854D01*
X327712Y349100D02*
X440359Y236453D01*
X358825Y349100D02*
X455915Y252010D01*
X324884Y349100D02*
X438945Y235039D01*
X323353Y347803D02*
X437531Y233625D01*
X343467Y295384D02*
X385595Y337511D01*
X338414Y295987D02*
X382766Y340340D01*
X344651Y293739D02*
X387009Y336097D01*
X354942Y292717D02*
X356831Y294606D01*
X354533Y293995D02*
X356028Y292501D01*
X364963Y291424D02*
X366026Y292487D01*
X332697Y295927D02*
X379938Y343168D01*
X324708Y293595D02*
X377109Y345997D01*
X334183Y294585D02*
X381352Y341754D01*
X323572Y295288D02*
X375695Y347411D01*
X320523Y342147D02*
X367404Y295266D01*
X334265Y294465D02*
X336051Y292678D01*
X334967Y292541D02*
X336513Y294087D01*
X324979Y292437D02*
X326044Y291372D01*
X365000Y292014D02*
X366144Y290869D01*
X351452Y286398D02*
X356102Y291048D01*
X354851Y290850D02*
X359350Y286350D01*
X344926Y291185D02*
X346008Y292268D01*
X344995Y292220D02*
X346085Y291130D01*
X362432Y286064D02*
X366436Y290068D01*
X364411Y289774D02*
X368274Y285911D01*
X353358Y285476D02*
X357024Y289142D01*
X353863Y289009D02*
X357509Y285363D01*
X334890Y291011D02*
X339511Y286390D01*
X331615Y286360D02*
X336140Y290885D01*
X342566Y285998D02*
X346502Y289934D01*
X324871Y290930D02*
X326000Y292059D01*
X324550Y290038D02*
X328538Y286050D01*
X344482Y289904D02*
X348404Y285982D01*
X333956Y289117D02*
X337617Y285455D01*
X322697Y285927D02*
X326573Y289803D01*
X333467Y285384D02*
X337117Y289033D01*
X480484Y257038D02*
X504712Y281266D01*
X467700Y258396D02*
X497641Y288337D01*
X482324Y256049D02*
X506126Y279852D01*
X467700Y268510D02*
X479075Y257134D01*
X467700Y265681D02*
X477035Y256346D01*
X483436Y254333D02*
X507541Y278438D01*
X483339Y251407D02*
X508955Y277024D01*
X467700Y262853D02*
X475754Y254799D01*
X467700Y260024D02*
X475399Y252325D01*
X460765Y240147D02*
X503298Y282680D01*
X459207Y278187D02*
X469989Y288969D01*
X462400Y227640D02*
X510369Y275609D01*
X467596Y257300D02*
X499226Y225669D01*
X466381Y255687D02*
X494471Y227597D01*
X464966Y254272D02*
X491613Y227626D01*
X463552Y252858D02*
X489878Y226533D01*
X483634Y252575D02*
X509780Y226429D01*
X482365Y227806D02*
X505756Y251197D01*
X484834Y227447D02*
X507039Y249651D01*
X481299Y249254D02*
X502710Y227843D01*
X478825Y248899D02*
X500596Y227129D01*
X486415Y226199D02*
X509081Y248865D01*
X482846Y250535D02*
X508787Y224594D01*
X497319Y222962D02*
X498737Y224379D01*
X497097Y224971D02*
X498648Y223419D01*
X487352Y223402D02*
X489023Y221730D01*
X462400Y230469D02*
X481093Y249161D01*
X460724Y250030D02*
X482902Y227852D01*
X464629Y235526D02*
X478167Y249064D01*
X462864Y239418D02*
X475462Y252016D01*
X464189Y237914D02*
X476451Y250176D01*
X462138Y251444D02*
X488831Y224751D01*
X459310Y248616D02*
X480718Y227207D01*
X457895Y247201D02*
X479302Y225795D01*
X463948Y238321D02*
X478649Y223619D01*
X452628Y277266D02*
X452984Y277622D01*
X451214Y278680D02*
X451570Y279036D01*
X454043Y275851D02*
X454398Y276207D01*
X448386Y281508D02*
X448742Y281864D01*
X449800Y280094D02*
X450156Y280450D01*
X459699Y270195D02*
X460055Y270550D01*
X458285Y271609D02*
X458641Y271965D01*
X455457Y274437D02*
X455813Y274793D01*
X456871Y273023D02*
X457227Y273379D01*
X444143Y285751D02*
X444499Y286107D01*
X442729Y287165D02*
X443085Y287521D01*
X445557Y284337D02*
X445913Y284693D01*
X441315Y288579D02*
X441627Y288892D01*
X441702Y288904D02*
X460450Y270156D01*
X441656Y288896D02*
X460398Y270155D01*
X441050Y288844D02*
X459798Y270096D01*
X446972Y282923D02*
X447327Y283278D01*
X462525Y262371D02*
X462900Y261996D01*
X460213Y261854D02*
X462900Y259167D01*
X467700Y258000D02*
Y268700D01*
X462900Y258994D02*
Y262607D01*
X456481Y245787D02*
X462821Y239448D01*
X455067Y244373D02*
X459425Y240015D01*
X453653Y242959D02*
X457618Y238994D01*
X452239Y241545D02*
X456536Y237247D01*
X450824Y240130D02*
X456754Y234201D01*
X446582Y235888D02*
X457600Y224869D01*
X445167Y234473D02*
X457600Y222041D01*
X449410Y238716D02*
X457600Y230526D01*
X447996Y237302D02*
X457600Y227698D01*
X462400Y210670D02*
X505398Y253668D01*
X507343Y223210D02*
X509232Y221320D01*
X462400Y185214D02*
X498991Y221805D01*
X462400Y176729D02*
X508676Y223004D01*
X462400Y173900D02*
X509463Y220963D01*
X462400Y196528D02*
X488700Y222827D01*
X462400Y205013D02*
X479053Y221666D01*
X462400Y190871D02*
X491109Y219580D01*
X462400Y193699D02*
X489549Y220848D01*
X462400Y188042D02*
X493538Y219181D01*
X462400Y202184D02*
X480301Y220085D01*
X462400Y199356D02*
X482255Y219211D01*
X462400Y182385D02*
X500190Y220176D01*
X462400Y179557D02*
X502087Y219244D01*
X462400Y217241D02*
X492909Y186732D01*
X462400Y214412D02*
X488980Y187833D01*
X462400Y208756D02*
X484246Y186910D01*
X462400Y211584D02*
X486353Y187630D01*
X462400Y205927D02*
X482495Y185832D01*
X462400Y203099D02*
X481048Y184451D01*
X462400Y200270D02*
X479901Y182770D01*
X462400Y165415D02*
X480089Y183104D01*
X462400Y197442D02*
X479093Y180749D01*
X462400Y191785D02*
X479359Y174826D01*
X462400Y154101D02*
X480692Y172394D01*
X462400Y156930D02*
X479635Y174164D01*
X462400Y151273D02*
X482056Y170929D01*
X462400Y162586D02*
X478781Y178967D01*
X462400Y159758D02*
X478939Y176297D01*
X462400Y139959D02*
X491504Y169063D01*
X462400Y142787D02*
X488165Y168553D01*
X462400Y148444D02*
X483718Y169762D01*
X462400Y145616D02*
X485715Y168931D01*
X440925Y230231D02*
X457600Y213556D01*
X439511Y228817D02*
X457600Y210727D01*
X438096Y227402D02*
X457600Y207899D01*
X443753Y233059D02*
X457600Y219212D01*
X442339Y231645D02*
X457600Y216384D01*
X462400Y127074D02*
Y232304D01*
X436682Y225988D02*
X457600Y205070D01*
X462400Y207841D02*
X478694Y224135D01*
X457600Y127074D02*
Y233023D01*
X435268Y224574D02*
X457600Y202242D01*
X431025Y220331D02*
X457600Y193757D01*
X429611Y218917D02*
X457600Y190929D01*
X428197Y217503D02*
X457600Y188100D01*
X433854Y223160D02*
X457600Y199413D01*
X432440Y221745D02*
X457600Y196585D01*
X423955Y213261D02*
X457600Y179615D01*
X422540Y211846D02*
X457600Y176787D01*
X426783Y216089D02*
X457600Y185272D01*
X425369Y214675D02*
X457600Y182443D01*
X421126Y210432D02*
X457600Y173958D01*
X419712Y209018D02*
X457600Y171130D01*
X462400Y194613D02*
X478750Y178263D01*
X418298Y207604D02*
X457600Y168301D01*
X416884Y206189D02*
X457600Y165473D01*
X415469Y204775D02*
X457600Y162645D01*
X414055Y203361D02*
X457600Y159816D01*
X409812Y199118D02*
X457600Y151331D01*
X408398Y197704D02*
X457600Y148502D01*
X406984Y196290D02*
X457600Y145674D01*
X412641Y201947D02*
X457600Y156988D01*
X411227Y200533D02*
X457600Y154159D01*
X402741Y192047D02*
X457600Y137189D01*
X401327Y190633D02*
X457600Y134360D01*
X405570Y194876D02*
X457600Y142845D01*
X404156Y193462D02*
X457600Y140017D01*
X373766Y288904D02*
X433288Y229382D01*
X372062Y287780D02*
X431874Y227968D01*
X375000Y282014D02*
X430460Y226554D01*
X371284Y286431D02*
X373489Y288636D01*
X372900Y157939D02*
X500469Y285509D01*
X372900Y160768D02*
X499055Y286923D01*
X372900Y155111D02*
X501884Y284095D01*
X364850Y280850D02*
X424803Y220897D01*
X374411Y279774D02*
X429045Y225140D01*
X363862Y279009D02*
X423389Y219483D01*
X354482Y279904D02*
X419146Y215240D01*
X353176Y278382D02*
X417732Y213826D01*
X344890Y281011D02*
X414904Y210998D01*
X343955Y279117D02*
X413489Y209583D01*
X334550Y280038D02*
X409247Y205341D01*
X333290Y278469D02*
X407832Y203927D01*
X324924Y281178D02*
X405004Y201098D01*
X324045Y279229D02*
X403590Y199684D01*
X372900Y152283D02*
X456353Y235735D01*
X372900Y162206D02*
X466997Y256303D01*
X372900Y149454D02*
X457082Y233636D01*
X373059Y278298D02*
X427631Y223725D01*
X371001Y277528D02*
X426217Y222311D01*
X372900Y140969D02*
X457600Y225669D01*
X372900Y138140D02*
X457600Y222840D01*
X372900Y146626D02*
X457600Y231326D01*
X372900Y143797D02*
X457600Y228497D01*
X362207Y277836D02*
X421975Y218069D01*
X359630Y277585D02*
X420561Y216655D01*
X351178Y277551D02*
X416318Y212412D01*
X342348Y277897D02*
X412075Y208169D01*
X339872Y277544D02*
X410661Y206755D01*
X331350Y277581D02*
X406418Y202512D01*
X368803Y164897D02*
X462900Y258994D01*
X322484Y277961D02*
X402176Y198270D01*
X320099Y277518D02*
X400762Y196856D01*
X369369Y287645D02*
X370514Y286500D01*
X364011Y284815D02*
X367685Y288489D01*
X349630Y287585D02*
X350721Y286495D01*
X344099Y284702D02*
X347798Y288401D01*
X347894Y285669D02*
X349783Y287558D01*
X363058Y288298D02*
X366798Y284559D01*
X354589Y283878D02*
X358622Y287911D01*
X364912Y282887D02*
X369613Y287588D01*
X343176Y288382D02*
X346882Y284676D01*
X352207Y287836D02*
X356336Y283707D01*
X341178Y287551D02*
X342965Y285765D01*
X340232Y286492D02*
X341315Y287574D01*
X329872Y287544D02*
X330937Y286479D01*
X323290Y288469D02*
X326969Y284790D01*
X320441Y286500D02*
X321570Y287629D01*
X332348Y287897D02*
X336397Y283848D01*
X334650Y283739D02*
X338761Y287849D01*
X324183Y284585D02*
X327915Y288317D01*
X321350Y287581D02*
X326081Y282850D01*
X361001Y287528D02*
X362495Y286033D01*
X360013Y286473D02*
X361076Y287537D01*
X364533Y283995D02*
X366028Y282501D01*
X354963Y281424D02*
X356027Y282487D01*
X354995Y282221D02*
X356085Y281130D01*
X363864Y279011D02*
X366069Y281216D01*
X344942Y282717D02*
X346831Y284606D01*
X344265Y284465D02*
X346051Y282678D01*
X334979Y282437D02*
X336044Y281372D01*
X328414Y285987D02*
X329959Y287533D01*
X324967Y282541D02*
X326513Y284086D01*
X334926Y281186D02*
X336008Y282268D01*
X372900Y129655D02*
X457600Y214355D01*
X372900Y132483D02*
X457600Y217183D01*
X399913Y189219D02*
X457600Y131532D01*
X398499Y187805D02*
X457600Y128703D01*
X397084Y186390D02*
X456992Y126483D01*
X374857Y123126D02*
X457600Y205870D01*
X373877Y124975D02*
X457600Y208698D01*
X373077Y115689D02*
X457600Y200213D01*
X374503Y119944D02*
X457600Y203041D01*
X395670Y184976D02*
X456134Y124513D01*
X330132Y126485D02*
X462900Y259253D01*
X321540Y126378D02*
X457911Y262749D01*
X372900Y135312D02*
X457600Y220012D01*
X372900Y126827D02*
X457600Y211527D01*
X332504Y126029D02*
X368100Y161625D01*
X324623Y123804D02*
X462900Y262082D01*
X323417Y125427D02*
X459881Y261891D01*
X368100Y125807D02*
Y163200D01*
X372900Y125807D02*
Y162206D01*
X364493Y124076D02*
X368100Y127683D01*
X361204Y126445D02*
X368100Y133340D01*
X363193Y125605D02*
X368100Y130512D01*
X371028Y116469D02*
X372556Y117997D01*
X369744Y117564D02*
X370820Y116489D01*
X364514Y119966D02*
X368466Y116014D01*
X363877Y114975D02*
X367525Y118623D01*
X352368Y126094D02*
X368100Y141826D01*
X343307Y125517D02*
X368100Y150311D01*
X353969Y124866D02*
X368100Y138997D01*
X341375Y126414D02*
X368100Y153139D01*
X349907Y126461D02*
X368100Y144654D01*
X334929Y122797D02*
X368100Y155968D01*
X354895Y122964D02*
X368100Y136169D01*
X334058Y124755D02*
X368100Y158796D01*
X344559Y123942D02*
X368100Y147483D01*
X364993Y121748D02*
X366078Y122833D01*
X354022Y124801D02*
X356064Y122759D01*
X364989Y122320D02*
X366064Y121244D01*
X344975Y121529D02*
X346039Y122593D01*
X344967Y122542D02*
X346030Y121479D01*
X354907Y121088D02*
X359588Y116407D01*
X362228Y116155D02*
X366345Y120272D01*
X354204Y119444D02*
X356055Y121296D01*
X334938Y121257D02*
X336914Y119282D01*
X324932Y122778D02*
X326010Y121700D01*
X324945Y121298D02*
X326015Y122368D01*
X342368Y116094D02*
X346406Y120132D01*
X344580Y120101D02*
X348601Y116080D01*
X331375Y116414D02*
X336086Y121125D01*
X324642Y120240D02*
X328740Y116142D01*
X361259Y117564D02*
X363301Y115522D01*
X353193Y115605D02*
X356895Y119307D01*
X359667Y116422D02*
X360752Y117507D01*
X351204Y116445D02*
X353056Y118297D01*
X349979Y117530D02*
X351042Y116467D01*
X353998Y119169D02*
X357669Y115498D01*
X363229Y118422D02*
X366922Y114729D01*
X343969Y114866D02*
X347634Y118531D01*
X343342Y118511D02*
X347011Y114842D01*
X339907Y116461D02*
X340971Y117525D01*
X337782Y118414D02*
X339757Y116438D01*
X330200Y117510D02*
X331278Y116432D01*
X322504Y116029D02*
X326471Y119996D01*
X320132Y116485D02*
X321202Y117555D01*
X334086Y119281D02*
X337781Y115586D01*
X333307Y115517D02*
X336982Y119193D01*
X323451Y118603D02*
X327103Y114951D01*
X324058Y114755D02*
X327745Y118442D01*
X574400Y110538D02*
X647706Y183844D01*
X574400Y184437D02*
X647706Y111130D01*
X574400Y181608D02*
X647706Y108302D01*
X574400Y187265D02*
X647706Y113959D01*
X574400Y113366D02*
X647706Y186672D01*
X574400Y173123D02*
X647706Y99817D01*
X574400Y175952D02*
X647706Y102645D01*
X574400Y167466D02*
X647706Y94160D01*
X574400Y107709D02*
X647706Y181016D01*
X574400Y178780D02*
X647706Y105474D01*
X574400Y164638D02*
X647706Y91331D01*
X552015Y79667D02*
X647706Y175359D01*
X574400Y161810D02*
X647706Y88503D01*
X574153Y104633D02*
X647706Y178187D01*
X574400Y170295D02*
X647706Y96988D01*
X557671Y76838D02*
X647706Y166873D01*
X559085Y75424D02*
X647706Y164045D01*
X554303Y79127D02*
X647706Y172530D01*
X556248Y78243D02*
X647706Y169702D01*
X604329Y86727D02*
X647706Y130104D01*
X603316Y88542D02*
X647706Y132932D01*
X604119Y83688D02*
X647706Y127275D01*
X599006Y89889D02*
X647706Y138589D01*
X601637Y89692D02*
X647706Y135761D01*
X604499Y75583D02*
X647706Y118790D01*
X601491Y69746D02*
X647706Y115962D01*
X603218Y68645D02*
X647706Y113133D01*
X602501Y79241D02*
X647706Y124447D01*
X603875Y77787D02*
X647706Y121618D01*
X574400Y150496D02*
X647706Y77189D01*
X574400Y153324D02*
X647706Y80018D01*
X574400Y147667D02*
X647706Y74361D01*
X574400Y158981D02*
X647706Y85675D01*
X574400Y156153D02*
X647706Y82846D01*
X563018Y70871D02*
X647706Y155560D01*
X574400Y144839D02*
X647706Y71532D01*
X560500Y74010D02*
X647706Y161216D01*
X561914Y72596D02*
X647706Y158388D01*
X574400Y113726D02*
X598415Y89711D01*
X574400Y116555D02*
X601088Y89867D01*
X574400Y110898D02*
X596719Y88579D01*
X574400Y106000D02*
Y283755D01*
Y142010D02*
X647706Y68704D01*
X573410Y103403D02*
X597543Y79270D01*
X574400Y108069D02*
X595687Y86783D01*
X574337Y105304D02*
X595828Y83812D01*
X566600Y107615D02*
Y283755D01*
X554345Y84330D02*
X573258Y103242D01*
X552576Y81810D02*
X555841Y78545D01*
X569171Y99156D02*
X598563Y69764D01*
X567757Y97742D02*
X596817Y68681D01*
X572000Y101984D02*
X596152Y77832D01*
X570585Y100570D02*
X595503Y75653D01*
X600412Y79981D02*
X601812Y81381D01*
X598313Y81328D02*
X599654Y79987D01*
X556481Y78028D02*
X562058Y72452D01*
X600153Y71003D02*
X601369Y69787D01*
X598735Y69819D02*
X599917Y71001D01*
X552603Y79170D02*
X553723D01*
X550636Y81045D02*
X552158Y79524D01*
X551788Y71370D02*
X552108D01*
X550767Y69934D02*
X552156Y71323D01*
X552735Y69073D02*
X553570Y69908D01*
X549167Y71078D02*
X550251Y69993D01*
X574400Y133525D02*
X647706Y60219D01*
X574400Y136354D02*
X647706Y63047D01*
X604249Y64019D02*
X647706Y107476D01*
X574400Y139182D02*
X647706Y65876D01*
X604283Y66881D02*
X647706Y110305D01*
Y1900D02*
Y372116D01*
X574400Y130697D02*
X647706Y57390D01*
X604492Y55776D02*
X647706Y98991D01*
X602400Y59341D02*
X647706Y104648D01*
X603799Y57912D02*
X647706Y101819D01*
X563200Y59740D02*
X647706Y144246D01*
X563200Y62568D02*
X647706Y147074D01*
X563200Y56911D02*
X647706Y141417D01*
X563200Y68225D02*
X647706Y152731D01*
X563200Y65396D02*
X647706Y149903D01*
X574400Y122211D02*
X647706Y48905D01*
X574400Y119383D02*
X647706Y46077D01*
X574400Y127868D02*
X647706Y54562D01*
X574400Y125040D02*
X647706Y51733D01*
X604366Y86588D02*
X647706Y43248D01*
X604212Y83915D02*
X647706Y40420D01*
X604487Y75154D02*
X647706Y31934D01*
X604232Y47031D02*
X647706Y90506D01*
X604340Y44311D02*
X647706Y87677D01*
X604287Y66869D02*
X647706Y23449D01*
X604264Y64063D02*
X647706Y20621D01*
X604176Y27176D02*
X647706Y70707D01*
X604404Y24576D02*
X647706Y67878D01*
X602253Y39395D02*
X647706Y84849D01*
X601283Y81187D02*
X647706Y34763D01*
X602400Y31057D02*
X647706Y76363D01*
X601340Y49796D02*
X647706Y96162D01*
X603118Y48745D02*
X647706Y93334D01*
X602332Y71652D02*
X647706Y26278D01*
X602124Y19467D02*
X647706Y65050D01*
X603013Y28842D02*
X647706Y73535D01*
X603770Y73043D02*
X647706Y29106D01*
X566343Y96327D02*
X595735Y66935D01*
X563514Y93499D02*
X597600Y59413D01*
X563200Y51254D02*
X595809Y83863D01*
X564929Y94913D02*
X595714Y64127D01*
X563200Y54083D02*
X595611Y86494D01*
X603719Y38033D02*
X647706Y82020D01*
X603079Y82218D02*
X647706Y37591D01*
X604476Y35962D02*
X647706Y79192D01*
X563200Y42769D02*
X595519Y75088D01*
X563200Y39940D02*
X596259Y72999D01*
X559272Y89257D02*
X598716Y49813D01*
X557858Y87843D02*
X596920Y48781D01*
X563200Y48426D02*
X596958Y82184D01*
X562100Y92085D02*
X596229Y57956D01*
X560686Y90671D02*
X595513Y55843D01*
X553922Y83293D02*
X597793Y39422D01*
X563200Y45597D02*
X598773Y81170D01*
X556444Y86428D02*
X595788Y47084D01*
X555029Y85014D02*
X595634Y44409D01*
X563200Y37112D02*
X597713Y71625D01*
X563200Y68358D02*
X595531Y36027D01*
X563200Y34284D02*
X595681Y66765D01*
X563200Y65530D02*
X597600Y31130D01*
X563200Y62701D02*
X597025Y28876D01*
X563200Y20894D02*
Y69694D01*
Y31455D02*
X595754Y64009D01*
X552108Y71370D02*
X555400Y68078D01*
X551728Y71345D02*
X555400Y67673D01*
X554493Y65751D02*
X555400Y64845D01*
X554017Y67527D02*
X554984Y68494D01*
X554488Y65169D02*
X555400Y66082D01*
X562575Y71812D02*
X596310Y38076D01*
X553992Y63424D02*
X555400Y62016D01*
Y22509D02*
Y68078D01*
X551780Y59633D02*
X555400Y63253D01*
X539650Y104072D02*
X566600Y131022D01*
X539650Y131506D02*
X565070Y106086D01*
X539650Y128677D02*
X563656Y104671D01*
X539650Y125849D02*
X562242Y103257D01*
X539650Y123020D02*
X560827Y101843D01*
X539650Y98415D02*
X566600Y125365D01*
X539650Y101243D02*
X566600Y128193D01*
X539650Y92758D02*
X566600Y119708D01*
X539650Y95587D02*
X566600Y122537D01*
X539650Y120192D02*
X559413Y100429D01*
X539650Y112557D02*
X566600Y139507D01*
X539650Y139991D02*
X566600Y113041D01*
X539650Y137162D02*
X566600Y110212D01*
X462054Y108500D02*
X531850Y178296D01*
X539650Y109729D02*
X566600Y136679D01*
X539650Y134334D02*
X566484Y107500D01*
X539650Y106900D02*
X566600Y133850D01*
X462400Y177644D02*
X531850Y108194D01*
X539650Y92032D02*
Y172588D01*
X540701Y90981D02*
X566600Y116880D01*
X539650Y114535D02*
X556585Y97600D01*
X548830Y89845D02*
X566600Y107615D01*
X539650Y111707D02*
X555171Y96186D01*
X539650Y108879D02*
X553757Y94772D01*
X542115Y89566D02*
X566600Y114051D01*
X547322Y89117D02*
X566600Y108394D01*
X543529Y88152D02*
X566600Y111223D01*
X544944Y86738D02*
X546383Y88178D01*
X539650Y106050D02*
X552343Y93358D01*
X539650Y117363D02*
X557999Y99014D01*
X539650Y103222D02*
X550928Y91944D01*
X539650Y100393D02*
X549514Y90530D01*
X539650Y97565D02*
X547793Y89422D01*
X539650Y94737D02*
X546310Y88076D01*
X539650Y92032D02*
X545545Y86136D01*
X476196Y108500D02*
X531850Y164154D01*
X473368Y108500D02*
X531850Y166982D01*
X479024Y108500D02*
X531850Y161326D01*
X462400Y183300D02*
X531850Y113850D01*
X462400Y180472D02*
X531850Y111022D01*
Y90416D02*
Y194669D01*
X467711Y108500D02*
X531850Y172639D01*
X462400Y160673D02*
X531850Y91223D01*
X464882Y108500D02*
X531850Y175468D01*
X470539Y108500D02*
X531850Y169811D01*
X453569Y108500D02*
X531850Y186782D01*
X450740Y108500D02*
X531850Y189610D01*
X462400Y174815D02*
X531850Y105365D01*
X456397Y108500D02*
X531850Y183953D01*
X459225Y108500D02*
X531850Y181125D01*
X462400Y166330D02*
X531850Y96880D01*
X462400Y163501D02*
X531850Y94051D01*
X462400Y171987D02*
X531850Y102537D01*
X462400Y169158D02*
X531850Y99708D01*
X499480Y95014D02*
X531850Y127384D01*
X498066Y96429D02*
X531850Y130213D01*
X500894Y93600D02*
X531850Y124556D01*
X495237Y99257D02*
X531850Y135870D01*
X496651Y97843D02*
X531850Y133041D01*
X505137Y89357D02*
X531850Y116071D01*
X506551Y87943D02*
X531850Y113242D01*
X502308Y92186D02*
X531850Y121728D01*
X503722Y90772D02*
X531850Y118899D01*
X488166Y106328D02*
X531850Y150012D01*
X486752Y107742D02*
X531850Y152840D01*
X489580Y104914D02*
X531850Y147184D01*
X481853Y108500D02*
X531850Y158497D01*
X484681Y108500D02*
X531850Y155669D01*
X490995Y103500D02*
X531850Y144355D01*
X492409Y102085D02*
X531850Y141527D01*
X493823Y100671D02*
X531850Y138698D01*
X486697Y107797D02*
X506661Y87833D01*
X532992Y87659D02*
X545515Y75136D01*
X513256Y55051D02*
X539428Y81223D01*
X507364Y60472D02*
X533771Y86879D01*
X507364Y57643D02*
X535186Y85465D01*
X517843Y79774D02*
X548058Y49559D01*
X507364Y81768D02*
X549203Y39929D01*
X507364Y78939D02*
X547245Y39058D01*
X518184Y82261D02*
X545539Y54906D01*
X515989Y54955D02*
X540842Y79808D01*
X462400Y152188D02*
X546395Y68193D01*
X462400Y155016D02*
X547924Y69492D01*
X462400Y146531D02*
X549035Y59895D01*
X462400Y157844D02*
X545578Y74667D01*
X462400Y149359D02*
X545555Y66204D01*
X462400Y143702D02*
X547133Y58969D01*
X462400Y140874D02*
X545906Y57368D01*
X507364Y54815D02*
X536600Y84051D01*
X507364Y51987D02*
X538014Y82637D01*
X517556Y53694D02*
X542257Y78394D01*
X518261Y51571D02*
X543671Y76980D01*
X516485Y78304D02*
X546482Y48306D01*
X518227Y34566D02*
X546426Y62765D01*
X514211Y77749D02*
X545586Y46374D01*
X516422Y35589D02*
X545566Y64733D01*
X507470Y35122D02*
X545929Y73582D01*
X507364Y76111D02*
X545971Y37504D01*
X513631Y35626D02*
X549096Y71092D01*
X507364Y37844D02*
X545085Y75566D01*
X507364Y73283D02*
X545515Y35131D01*
X508945Y33768D02*
X547174Y71998D01*
X507364Y70454D02*
X548196Y29622D01*
X507364Y67626D02*
X546573Y28416D01*
X507364Y64797D02*
X545622Y26539D01*
X517032Y84282D02*
X531850Y99100D01*
X507364Y83099D02*
X531850Y107586D01*
X518116Y82538D02*
X531850Y96272D01*
X507364Y85928D02*
X531850Y110414D01*
X515130Y85209D02*
X531850Y101929D01*
X507364Y68957D02*
X531850Y93443D01*
X507364Y80271D02*
X531850Y104757D01*
X507364Y63300D02*
X532431Y88368D01*
X507364Y66129D02*
X531850Y90615D01*
X507364Y35183D02*
Y86136D01*
X462400Y135217D02*
X512774Y84843D01*
X462400Y138046D02*
X515261Y85184D01*
X484006Y103700D02*
X502564Y85142D01*
X462400Y132389D02*
X511304Y83485D01*
X483392Y102911D02*
X502564Y83740D01*
X483500Y99975D02*
X502564Y80911D01*
X483500Y94318D02*
X502564Y75254D01*
X507364Y74614D02*
X511718Y78968D01*
X507364Y71786D02*
X513462Y77884D01*
X507364Y84596D02*
X510749Y81211D01*
X507364Y77442D02*
X510791Y80870D01*
X482121Y78727D02*
X502564Y58284D01*
X480707Y77312D02*
X502564Y55455D01*
X483500Y85833D02*
X502564Y66769D01*
X483366Y80310D02*
X502564Y61112D01*
X480494Y56230D02*
X502564Y78299D01*
X479142Y49221D02*
X502564Y72642D01*
X480244Y47495D02*
X502564Y69814D01*
X478409Y59801D02*
X502564Y83956D01*
X479818Y58382D02*
X502564Y81128D01*
X478284Y39877D02*
X502564Y64157D01*
X479979Y63898D02*
X502564Y41313D01*
X480321Y44743D02*
X502564Y66986D01*
X480495Y66210D02*
X502564Y44142D01*
X629275Y29647D02*
X647706Y48079D01*
X625645Y28847D02*
X647706Y50908D01*
X631822Y29366D02*
X647706Y45251D01*
X604497Y55345D02*
X630219Y29623D01*
X603847Y53166D02*
X627560Y29453D01*
X604454Y16141D02*
X647706Y59393D01*
X603636Y18151D02*
X647706Y62221D01*
X633882Y28598D02*
X647706Y42422D01*
X604173Y47183D02*
X623668Y27688D01*
X604313Y44216D02*
X622208Y26321D01*
X602400Y59307D02*
Y61693D01*
X600343Y51013D02*
X601683Y49673D01*
X603181Y62317D02*
X647706Y17792D01*
X602400Y60270D02*
X634297Y28373D01*
X602456Y51729D02*
X625434Y28751D01*
X603281Y42420D02*
X621046Y24654D01*
X638116Y24346D02*
X647706Y33937D01*
X637006Y26065D02*
X647706Y36766D01*
X638877Y22279D02*
X647706Y31109D01*
X635594Y27482D02*
X647706Y39594D01*
X639146Y19720D02*
X647706Y28280D01*
X638305Y16050D02*
X647706Y25452D01*
X637873Y24797D02*
X647706Y14964D01*
X604500Y35544D02*
X619852Y20192D01*
X603922Y33293D02*
X620386Y16829D01*
X602400Y29307D02*
Y31693D01*
X600029Y40000D02*
X601189Y41160D01*
X598909Y41134D02*
X600044Y40000D01*
X601584Y41288D02*
X620221Y22651D01*
X599825Y19997D02*
X600924Y21096D01*
X599167Y21078D02*
X600251Y19993D01*
X597600Y59307D02*
Y61693D01*
X563200Y25798D02*
X597600Y60198D01*
X598434Y49719D02*
X599724Y51008D01*
X563200Y28627D02*
X596855Y62282D01*
X563200Y59873D02*
X595845Y27228D01*
X563200Y54216D02*
X597924Y19492D01*
X563107Y20049D02*
X596180Y53121D01*
X563200Y51388D02*
X596395Y18193D01*
X563200Y57045D02*
X595578Y24667D01*
X563200Y22970D02*
X595506Y55275D01*
X554372Y56568D02*
X555400Y57596D01*
X553705Y58055D02*
X555400Y56359D01*
X554395Y54535D02*
X555400Y53531D01*
X552693Y61895D02*
X555400Y59188D01*
X553411Y58435D02*
X555400Y60425D01*
X552620Y49159D02*
X555400Y51939D01*
X553948Y47659D02*
X555400Y49111D01*
X553917Y53285D02*
X555400Y54768D01*
X553469Y52634D02*
X555400Y50702D01*
X554498Y45381D02*
X555400Y46283D01*
X554475Y45970D02*
X555400Y45046D01*
X597600Y29307D02*
Y31693D01*
X554429Y34703D02*
X555400Y33732D01*
X554499Y25583D02*
X555400Y26484D01*
X563200Y48559D02*
X595555Y16204D01*
X554445Y26202D02*
X555400Y25247D01*
X554329Y36727D02*
X555400Y37797D01*
X553316Y38542D02*
X555400Y40626D01*
X554119Y33688D02*
X555400Y34969D01*
X554059Y43558D02*
X555400Y42217D01*
X552806Y41982D02*
X555400Y39389D01*
X553558Y32745D02*
X555400Y30903D01*
X553875Y27787D02*
X555400Y29312D01*
X554122Y23696D02*
X555354Y22464D01*
X552916Y22073D02*
X553940Y21049D01*
X639123Y20719D02*
X647706Y12135D01*
X638953Y18060D02*
X647706Y9307D01*
X632640Y1900D02*
X647706Y16966D01*
X638251Y15934D02*
X647706Y6479D01*
X626983Y1900D02*
X647706Y22623D01*
X604357Y24373D02*
X626830Y1900D01*
X629811D02*
X647706Y19795D01*
X604493Y15752D02*
X618344Y1900D01*
X607184D02*
X620902Y15618D01*
X595870Y1900D02*
X647706Y53736D01*
X593042Y1900D02*
X647706Y56564D01*
X601728Y21345D02*
X621173Y1900D01*
X598699D02*
X620653Y23855D01*
X601527Y1900D02*
X619853Y20225D01*
X602576Y31810D02*
X632487Y1900D01*
X604003Y27555D02*
X629658Y1900D01*
X603376Y22525D02*
X624001Y1900D01*
X604356D02*
X620133Y17678D01*
X643954Y1900D02*
X647706Y5653D01*
X638297Y1900D02*
X647706Y11310D01*
X646782Y1900D02*
X647706Y2824D01*
X637188Y14168D02*
X647706Y3650D01*
X641125Y1900D02*
X647706Y8481D01*
X635468Y1900D02*
X647706Y14138D01*
X635821Y12708D02*
X646629Y1900D01*
X634154Y11546D02*
X643800Y1900D01*
X632151Y10721D02*
X640972Y1900D01*
X615669D02*
X625154Y11384D01*
X612841Y1900D02*
X623435Y12494D01*
X618498Y1900D02*
X627221Y10623D01*
X610012Y1900D02*
X622018Y13906D01*
X603992Y13424D02*
X615516Y1900D01*
X626329Y10886D02*
X635315Y1900D01*
X629692Y10352D02*
X638143Y1900D01*
X624155D02*
X633450Y11196D01*
X621326Y1900D02*
X629780Y10354D01*
X563200Y42902D02*
X604202Y1900D01*
X563200Y45731D02*
X607031Y1900D01*
X563200Y40074D02*
X601374Y1900D01*
X563200Y37246D02*
X598546Y1900D01*
X564758D02*
X596105Y33247D01*
X576071Y1900D02*
X596658Y22487D01*
X567586Y1900D02*
X597467Y31781D01*
X578900Y1900D02*
X598324Y21324D01*
X570414Y1900D02*
X595926Y27412D01*
X573243Y1900D02*
X595659Y24316D01*
X556272Y1900D02*
X596755Y42382D01*
X553444Y1900D02*
X595704Y44160D01*
X559101Y1900D02*
X598469Y41268D01*
X561929Y1900D02*
X595500Y35471D01*
X563200Y23103D02*
X584403Y1900D01*
X563200Y34417D02*
X595717Y1900D01*
X563200Y31589D02*
X592889Y1900D01*
X563200Y28760D02*
X590060Y1900D01*
X563200Y25932D02*
X587232Y1900D01*
X602693Y11895D02*
X612688Y1900D01*
X600704Y11055D02*
X609859Y1900D01*
X587385D02*
X597349Y11864D01*
X590213Y1900D02*
X599359Y11046D01*
X581728Y1900D02*
X595503Y15675D01*
X584557Y1900D02*
X596033Y13376D01*
X563157Y20318D02*
X581575Y1900D01*
X562275Y18372D02*
X578747Y1900D01*
X559456Y15534D02*
X573090Y1900D01*
X556893Y12972D02*
X562058Y18136D01*
X552603Y11830D02*
X554136D01*
X560870Y16948D02*
X575918Y1900D01*
X558041Y14120D02*
X570261Y1900D01*
X556614Y12719D02*
X567433Y1900D01*
X554642Y11863D02*
X564604Y1900D01*
X550704Y61055D02*
X552555Y59205D01*
X550593Y49961D02*
X552215Y51583D01*
X549257Y59938D02*
X550331Y61012D01*
X549406Y51039D02*
X550470Y49975D01*
X551868Y51406D02*
X555400Y47874D01*
X551637Y39691D02*
X555400Y43454D01*
X529864Y34888D02*
X547064Y52089D01*
X529864Y32060D02*
X548932Y51129D01*
X525129Y35811D02*
X545562Y56243D01*
X522301Y35811D02*
X547973Y61483D01*
X527958Y35811D02*
X545867Y53720D01*
X507364Y50655D02*
X522208Y35811D01*
X515731Y47945D02*
X527865Y35811D01*
X518240Y51093D02*
X546131Y23201D01*
X529864Y29232D02*
X545539Y44907D01*
X512587Y48260D02*
X525036Y35811D01*
X507364Y47827D02*
X520064Y35127D01*
X552501Y29241D02*
X555400Y32140D01*
X550874Y41086D02*
X555400Y36560D01*
X550412Y29981D02*
X551812Y31381D01*
X549006Y39889D02*
X550119Y41002D01*
X549631Y31015D02*
X550702Y29945D01*
X552004Y31471D02*
X555400Y28075D01*
X551491Y19746D02*
X555400Y23655D01*
X551040Y21122D02*
X552526Y19635D01*
X548735Y19818D02*
X549917Y21001D01*
X529864Y26403D02*
X546341Y42880D01*
X520064Y35811D02*
X529864D01*
Y26011D02*
Y35811D01*
X520064Y26011D02*
X529864D01*
X547701Y21631D02*
X549376Y19956D01*
X520064Y26641D02*
X520694Y26011D01*
X529471D02*
X529864Y26403D01*
X507364Y61969D02*
X514093Y55240D01*
X507364Y59140D02*
X512104Y54400D01*
X507364Y56312D02*
X510945Y52731D01*
X507364Y53484D02*
X511260Y49587D01*
X507364Y49158D02*
X510949Y52744D01*
X507364Y43501D02*
X512306Y48444D01*
X507364Y46330D02*
X511045Y50011D01*
X507364Y40673D02*
X514429Y47739D01*
X478670Y62378D02*
X502564Y38485D01*
X479739Y38504D02*
X502564Y61329D01*
X480480Y46427D02*
X503783Y23124D01*
X507364Y44998D02*
X516990Y35373D01*
X479039Y29319D02*
X502564Y52843D01*
X480190Y27641D02*
X502564Y50015D01*
X519426Y32936D02*
X520064Y33574D01*
X519425Y32937D02*
X520064Y32298D01*
X519849Y30531D02*
X520064Y30745D01*
X509786Y31781D02*
X510249Y32244D01*
X519736Y29798D02*
X520064Y29470D01*
X518819Y27886D02*
X520064Y26641D01*
Y26011D02*
Y35811D01*
X507364Y39342D02*
X511939Y34766D01*
X507364Y42170D02*
X513851Y35683D01*
X507364Y36513D02*
X510647Y33230D01*
X509313Y28655D02*
X510246Y29587D01*
X503500Y26235D02*
X505197Y24538D01*
X506352Y26212D02*
X506611Y25952D01*
X529714Y12112D02*
X548773Y31170D01*
X528770Y13996D02*
X546958Y32184D01*
X552520Y19630D02*
X555400Y22509D01*
X529864Y33812D02*
X546039Y17636D01*
X529864Y30984D02*
X545503Y15345D01*
X550615Y1900D02*
X595781Y47066D01*
X547787Y1900D02*
X597588Y51701D01*
X529864Y28155D02*
X556119Y1900D01*
X529180Y26011D02*
X553291Y1900D01*
X529507Y9076D02*
X545519Y25088D01*
X526351Y26011D02*
X550462Y1900D01*
X517401Y49104D02*
X547360Y19144D01*
X525160Y1900D02*
X546259Y22999D01*
X524928Y15811D02*
X545611Y36494D01*
X527211Y15265D02*
X545809Y33863D01*
X508189Y1900D02*
X547841Y41552D01*
X523523Y26011D02*
X547634Y1900D01*
X517282Y26594D02*
X541977Y1900D01*
X520694Y26011D02*
X544805Y1900D01*
X551788Y19630D02*
X552520D01*
X552136Y11540D02*
X561776Y1900D01*
X549845Y11003D02*
X558948Y1900D01*
X544959D02*
X554981Y11922D01*
X542130Y1900D02*
X551481Y11251D01*
X529856Y11193D02*
X539149Y1900D01*
X527988D02*
X547713Y21625D01*
X529397Y8823D02*
X536320Y1900D01*
X528179Y7213D02*
X533492Y1900D01*
X526352Y6212D02*
X530663Y1900D01*
X536473D02*
X546855Y12282D01*
X539302Y1900D02*
X548619Y11217D01*
X530816Y1900D02*
X545681Y16765D01*
X533645Y1900D02*
X545754Y14009D01*
X515037Y26011D02*
X525246Y15803D01*
X512833Y25387D02*
X522876Y15344D01*
X511419Y23972D02*
X521266Y14126D01*
X507342Y15195D02*
X520064Y27917D01*
X508859Y13884D02*
X520986Y26011D01*
X509753Y11949D02*
X523815Y26011D01*
X509341Y8709D02*
X526643Y26011D01*
X507177Y19730D02*
X525006Y1900D01*
X510005Y22558D02*
X520264Y12299D01*
X508591Y21144D02*
X520288Y9447D01*
X499059Y18400D02*
X507220Y26561D01*
X479657Y18623D02*
X502564Y41530D01*
X496405Y18400D02*
X504094Y26089D01*
X482263Y18400D02*
X502564Y38701D01*
X485091Y18400D02*
X502564Y35873D01*
X505361Y1900D02*
X529471Y26011D01*
X505762Y18316D02*
X522178Y1900D01*
X502708Y15261D02*
X513640Y26193D01*
X505127Y15808D02*
X515344Y26026D01*
X522331Y1900D02*
X526799Y6368D01*
X523500Y6235D02*
X527835Y1900D01*
X516674D02*
X521878Y7104D01*
X519503Y1900D02*
X523763Y6160D01*
X511017Y1900D02*
X520064Y10947D01*
X513846Y1900D02*
X520610Y8664D01*
X509838Y11411D02*
X519349Y1900D01*
X509459Y8962D02*
X516521Y1900D01*
X506505Y6260D02*
X510864Y1900D01*
X504348Y16901D02*
X505464Y15785D01*
X493507Y13600D02*
X505207Y1900D01*
X508285Y7308D02*
X513693Y1900D01*
X503779Y6156D02*
X508036Y1900D01*
X502532D02*
X507166Y6534D01*
X499704Y1900D02*
X503926Y6122D01*
X425284Y108500D02*
X457600Y140816D01*
X416799Y108500D02*
X457600Y149301D01*
X430941Y108500D02*
X457600Y135159D01*
X408314Y108500D02*
X457600Y157786D01*
X413970Y108500D02*
X457600Y152130D01*
X463577Y125555D02*
X480632Y108500D01*
X462400Y129560D02*
X483460Y108500D01*
X463657Y122646D02*
X477803Y108500D01*
X433769D02*
X457600Y132331D01*
X436598Y108500D02*
X457600Y129502D01*
X394256Y183562D02*
X469318Y108500D01*
X392842Y182148D02*
X466490Y108500D01*
X391428Y180734D02*
X463661Y108500D01*
X390013Y179319D02*
X460833Y108500D01*
X391343D02*
X457600Y174757D01*
X402657Y108500D02*
X457600Y163443D01*
X405485Y108500D02*
X457600Y160615D01*
X397000Y108500D02*
X457600Y169100D01*
X399828Y108500D02*
X457600Y166272D01*
X482973Y103700D02*
X484006D01*
X483500Y98834D02*
X486186Y101520D01*
X483500Y101662D02*
X484772Y102934D01*
X477918Y99900D02*
X478700Y99118D01*
X463776Y99900D02*
X466676Y97000D01*
X464696D02*
X467596Y99900D01*
X462483Y120992D02*
X474975Y108500D01*
X460513Y120134D02*
X472147Y108500D01*
X461868Y97000D02*
X464768Y99900D01*
X447912Y108500D02*
X459539Y120127D01*
X460948Y99900D02*
X463847Y97000D01*
X458119Y99900D02*
X461019Y97000D01*
X459039D02*
X461939Y99900D01*
X455291D02*
X458191Y97000D01*
X456211D02*
X459111Y99900D01*
X445083Y108500D02*
X457549Y120966D01*
X442255Y108500D02*
X456358Y122604D01*
X452462Y99900D02*
X455362Y97000D01*
X449634Y99900D02*
X452534Y97000D01*
X450554D02*
X453454Y99900D01*
X447725Y97000D02*
X450625Y99900D01*
X446805D02*
X449705Y97000D01*
X453382D02*
X456282Y99900D01*
X443977D02*
X446877Y97000D01*
X444897D02*
X447797Y99900D01*
X422456Y108500D02*
X457600Y143644D01*
X411142Y108500D02*
X457600Y154958D01*
X428113Y108500D02*
X457600Y137987D01*
X394171Y108500D02*
X457600Y171929D01*
X439426Y108500D02*
X456382Y125455D01*
X419627Y108500D02*
X457600Y146473D01*
X442068Y97000D02*
X444969Y99900D01*
X439240Y97000D02*
X442140Y99900D01*
X441149D02*
X444049Y97000D01*
X430755D02*
X433655Y99900D01*
X422269Y97000D02*
X425169Y99900D01*
X432663D02*
X435563Y97000D01*
X419441D02*
X422341Y99900D01*
X421349D02*
X424249Y97000D01*
X436412D02*
X439312Y99900D01*
X438320D02*
X441220Y97000D01*
X433583D02*
X436483Y99900D01*
X435492D02*
X438392Y97000D01*
X410956D02*
X413856Y99900D01*
X410036D02*
X412936Y97000D01*
X412864Y99900D02*
X415764Y97000D01*
X407207Y99900D02*
X410107Y97000D01*
X408127D02*
X411027Y99900D01*
X416613Y97000D02*
X419513Y99900D01*
X418521D02*
X421421Y97000D01*
X413784D02*
X416684Y99900D01*
X415693D02*
X418593Y97000D01*
X483500Y93177D02*
X489015Y98691D01*
X483500Y96005D02*
X487600Y100106D01*
X483500Y90348D02*
X490429Y97277D01*
X475090Y99900D02*
X478700Y96290D01*
X473616Y91778D02*
X478700Y96862D01*
X483500Y87520D02*
X491843Y95863D01*
X483500Y97146D02*
X502564Y78083D01*
X483500Y84691D02*
X493257Y94449D01*
X483500Y81100D02*
Y102200D01*
X478700Y89600D02*
Y99900D01*
X470788Y94607D02*
X476081Y99900D01*
X469373Y96021D02*
X473253Y99900D01*
X472261D02*
X478700Y93461D01*
X467521Y96997D02*
X470424Y99900D01*
X469433D02*
X478700Y90633D01*
X472202Y93192D02*
X478700Y99690D01*
X466604Y99900D02*
X476004Y90500D01*
X469097Y96297D02*
X475005Y90389D01*
X483500Y81863D02*
X494671Y93034D01*
X475069Y90403D02*
X478700Y94033D01*
X462991Y92200D02*
X474842Y80348D01*
X465819Y92200D02*
X471527Y86492D01*
X466406Y92200D02*
X471611Y86995D01*
X460162Y92200D02*
X473004Y79358D01*
X451677Y92200D02*
X473898Y69979D01*
X454505Y92200D02*
X471587Y75118D01*
X457334Y92200D02*
X471834Y77700D01*
X448848Y92200D02*
X472378Y68670D01*
X440363Y92200D02*
X473112Y59451D01*
X443192Y92200D02*
X473600Y61792D01*
X446020Y92200D02*
X471550Y66670D01*
X437535Y92200D02*
X471894Y57841D01*
X429049Y92200D02*
X472465Y48785D01*
X431878Y92200D02*
X474031Y50046D01*
X434706Y92200D02*
X471546Y55361D01*
X426221Y92200D02*
X471579Y46842D01*
X427926Y97000D02*
X430826Y99900D01*
X427006D02*
X429906Y97000D01*
X429835Y99900D02*
X432735Y97000D01*
X404379Y99900D02*
X407279Y97000D01*
X425098D02*
X427998Y99900D01*
X424178D02*
X427078Y97000D01*
X428763Y69552D02*
X451411Y92200D01*
X402470Y97000D02*
X405370Y99900D01*
X405299Y97000D02*
X408199Y99900D01*
X393985Y97000D02*
X396885Y99900D01*
X393065D02*
X395965Y97000D01*
X395894Y99900D02*
X398794Y97000D01*
X390237Y99900D02*
X393137Y97000D01*
X391157D02*
X394057Y99900D01*
X399642Y97000D02*
X402542Y99900D01*
X401550D02*
X404450Y97000D01*
X396814D02*
X399714Y99900D01*
X398722D02*
X401622Y97000D01*
X430458Y85390D02*
X437268Y92200D01*
X429524Y78799D02*
X442925Y92200D01*
X430416Y76863D02*
X445754Y92200D01*
X428874Y89463D02*
X431612Y92200D01*
X430098Y87858D02*
X434440Y92200D01*
X429433Y58909D02*
X462724Y92200D01*
X430381Y57028D02*
X465553Y92200D01*
X430034Y67995D02*
X454239Y92200D01*
X430484Y65616D02*
X457067Y92200D01*
X423393D02*
X425170Y90423D01*
X412079Y92200D02*
X424168Y80110D01*
X426976Y90393D02*
X428783Y92200D01*
X417736D02*
X421958Y87978D01*
X420564Y92200D02*
X423223Y89541D01*
X426809Y70427D02*
X448582Y92200D01*
X427814Y60118D02*
X459896Y92200D01*
X395108D02*
X413077Y74231D01*
X427952Y80055D02*
X440097Y92200D01*
X384357Y173662D02*
X449519Y108500D01*
X382858D02*
X457600Y183242D01*
X382942Y172248D02*
X446691Y108500D01*
X381528Y170834D02*
X443862Y108500D01*
X380114Y169420D02*
X441034Y108500D01*
X388599Y177905D02*
X458004Y108500D01*
X385686D02*
X457600Y180414D01*
X388515Y108500D02*
X457600Y177585D01*
X387185Y176491D02*
X455176Y108500D01*
X385771Y175077D02*
X452348Y108500D01*
X375000Y111956D02*
X457600Y194556D01*
X374422Y114206D02*
X457600Y197384D01*
X380029Y108500D02*
X457600Y186071D01*
X377286Y166591D02*
X435377Y108500D01*
X374457Y163763D02*
X429720Y108500D01*
X374372D02*
X457600Y191728D01*
X373043Y162349D02*
X426892Y108500D01*
X372900Y159663D02*
X424063Y108500D01*
X372900Y156835D02*
X421235Y108500D01*
X372900Y142693D02*
X407093Y108500D01*
X372900Y145521D02*
X409921Y108500D01*
X373328D02*
X485000D01*
X373906Y119059D02*
X384465Y108500D01*
X374430Y124192D02*
X390122Y108500D01*
X374869Y120924D02*
X387294Y108500D01*
X374989Y112320D02*
X378808Y108500D01*
X374514Y109966D02*
X375980Y108500D01*
X372900Y134207D02*
X398607Y108500D01*
X372900Y137036D02*
X401436Y108500D01*
X372900Y131379D02*
X395779Y108500D01*
X372900Y128550D02*
X392950Y108500D01*
X372273Y117864D02*
X381637Y108500D01*
X372900Y154006D02*
X418406Y108500D01*
X372900Y151178D02*
X415578Y108500D01*
X372900Y148349D02*
X412749Y108500D01*
X372900Y139864D02*
X404264Y108500D01*
X364857Y113127D02*
X369373Y117643D01*
X354492Y114076D02*
X358424Y118008D01*
X364022Y114801D02*
X366064Y112759D01*
X352412Y117926D02*
X356426Y113911D01*
X344896Y112964D02*
X349536Y117604D01*
X354993Y111748D02*
X356078Y112833D01*
X354967Y112542D02*
X356030Y111479D01*
X334559Y113942D02*
X338558Y117941D01*
X332546Y117992D02*
X336492Y114047D01*
X341427Y117597D02*
X346097Y112927D01*
X321591Y117634D02*
X326134Y113091D01*
X324929Y112797D02*
X329703Y117571D01*
X334975Y111529D02*
X336039Y112593D01*
X334932Y112778D02*
X336010Y111700D01*
X365887Y108500D02*
X366811Y109423D01*
X364907Y111088D02*
X367495Y108500D01*
X363328D02*
X367672D01*
X364503Y109944D02*
X366031Y111472D01*
X363998Y109169D02*
X364666Y108500D01*
X354573D02*
X356345Y110272D01*
X354580Y110101D02*
X356181Y108500D01*
X344938Y111257D02*
X346914Y109282D01*
X344203Y109444D02*
X346056Y111296D01*
X353328Y108500D02*
X357672D01*
X324964Y111433D02*
X326547Y109849D01*
X336084Y109810D02*
X336406Y110132D01*
X346088Y108500D02*
X346895Y109307D01*
X343328Y108500D02*
X347672D01*
X334889Y111005D02*
X337394Y108500D01*
X344086Y109281D02*
X344867Y108500D01*
X378700Y168006D02*
X438205Y108500D01*
X377201D02*
X457600Y188899D01*
X381751Y99900D02*
X384651Y97000D01*
X378923Y99900D02*
X381823Y97000D01*
X379843D02*
X382743Y99900D01*
X387408D02*
X390308Y97000D01*
X385500D02*
X388400Y99900D01*
X388328Y97000D02*
X391228Y99900D01*
X382671Y97000D02*
X385571Y99900D01*
X384580D02*
X387480Y97000D01*
X377015D02*
X379915Y99900D01*
X375871Y165177D02*
X432549Y108500D01*
X376095Y99900D02*
X378995Y97000D01*
X362872D02*
X365772Y99900D01*
X374186Y97000D02*
X377086Y99900D01*
X360044Y97000D02*
X362944Y99900D01*
X361952D02*
X364852Y97000D01*
X357216D02*
X360116Y99900D01*
X359124D02*
X362024Y97000D01*
X371358D02*
X374258Y99900D01*
X370438D02*
X373338Y97000D01*
X373266Y99900D02*
X376166Y97000D01*
X367609Y99900D02*
X370509Y97000D01*
X368529D02*
X371429Y99900D01*
X369652Y92200D02*
X410800Y51052D01*
X366824Y92200D02*
X410800Y48224D01*
X375309Y92200D02*
X410800Y56709D01*
X372481Y92200D02*
X410800Y53881D01*
X365701Y97000D02*
X368601Y99900D01*
X363996Y92200D02*
X410800Y45396D01*
X358339Y92200D02*
X410800Y39739D01*
X356296Y99900D02*
X359196Y97000D01*
X364781Y99900D02*
X367681Y97000D01*
X332883Y92200D02*
X423183Y1900D01*
X338540Y92200D02*
X428840Y1900D01*
X352682Y92200D02*
X410800Y34082D01*
X332826Y1900D02*
X423126Y92200D01*
X348730Y97000D02*
X351630Y99900D01*
X354387Y97000D02*
X357287Y99900D01*
X331495Y107611D02*
X334406Y104700D01*
X333803D02*
X334104Y105001D01*
X343073Y97000D02*
X345973Y99900D01*
X342153D02*
X345053Y97000D01*
X351559D02*
X354459Y99900D01*
X339325D02*
X342225Y97000D01*
X340245D02*
X343145Y99900D01*
X328349Y108047D02*
X331697Y104700D01*
X330974D02*
X332690Y106416D01*
X325318Y104700D02*
X328558Y107941D01*
X328146Y104700D02*
X330971Y107525D01*
X324171Y109397D02*
X328868Y104700D01*
X322489D02*
X326982Y109193D01*
X322678Y108062D02*
X326040Y104700D01*
X320410Y107501D02*
X323211Y104700D01*
X337417Y97000D02*
X340317Y99900D01*
X336496D02*
X339397Y97000D01*
X344982Y99900D02*
X347882Y97000D01*
X333668Y99900D02*
X336568Y97000D01*
X334588D02*
X337488Y99900D01*
X350639D02*
X353539Y97000D01*
X353467Y99900D02*
X356367Y97000D01*
X345902D02*
X348802Y99900D01*
X347810D02*
X350710Y97000D01*
X325183Y99900D02*
X328083Y97000D01*
X323274D02*
X326174Y99900D01*
X326103Y97000D02*
X329003Y99900D01*
X320446Y97000D02*
X323346Y99900D01*
X322354D02*
X325254Y97000D01*
X330840Y99900D02*
X333740Y97000D01*
X331760D02*
X334660Y99900D01*
X328011D02*
X330911Y97000D01*
X328931D02*
X331831Y99900D01*
X480500Y76034D02*
X496086Y91620D01*
X480389Y76995D02*
X482797Y79403D01*
X502564Y35183D02*
Y85142D01*
X483500Y83004D02*
X502564Y63941D01*
X480348Y74842D02*
X502564Y52627D01*
X483500Y91490D02*
X502564Y72426D01*
X483500Y88661D02*
X502564Y69597D01*
X479243Y69120D02*
X498914Y88792D01*
X477527Y70233D02*
X497500Y90206D01*
X476995Y80389D02*
X478700Y82094D01*
X477377Y50284D02*
X502564Y75471D01*
X479358Y73004D02*
X502564Y49798D01*
X480295Y67344D02*
X500328Y87378D01*
X480222Y64443D02*
X501743Y85963D01*
X480481Y36417D02*
X502564Y58500D01*
X479783Y58437D02*
X502564Y35656D01*
X480388Y55003D02*
X501266Y34126D01*
X479451Y53112D02*
X500264Y32299D01*
X480391Y25013D02*
X502564Y47187D01*
X478400Y31508D02*
X502564Y55672D01*
X480047Y44031D02*
X502368Y21710D01*
X478785Y42465D02*
X500954Y20295D01*
X477700Y71834D02*
X502564Y46970D01*
X477841Y51894D02*
X500288Y29447D01*
X477672Y90178D02*
X478700Y91205D01*
Y82094D02*
Y82400D01*
X476457Y80477D02*
X477902Y81922D01*
X476492Y81527D02*
X477313Y80707D01*
X430423Y85170D02*
X475170Y40423D01*
X430340Y37189D02*
X474812Y81660D01*
X430110Y74168D02*
X473600Y30679D01*
X430497Y45830D02*
X471597Y86931D01*
X430452Y76655D02*
X471519Y35588D01*
X429965Y48127D02*
X470222Y88384D01*
X427672Y40178D02*
X471822Y84328D01*
X429541Y83223D02*
X473223Y39541D01*
X429848Y53667D02*
X467393Y91212D01*
X428648Y49638D02*
X468808Y89798D01*
X429340Y39016D02*
X472984Y82661D01*
X428530Y29721D02*
X472279Y73470D01*
X427978Y81958D02*
X471958Y37978D01*
X430078Y34098D02*
X471523Y75543D01*
X478400Y59807D02*
Y62193D01*
X475118Y71587D02*
X476210Y70495D01*
X475361Y51546D02*
X476427Y50480D01*
X474803Y70338D02*
X475966Y71500D01*
X474511Y50247D02*
X475770Y51506D01*
X476078Y40499D02*
X477257Y41679D01*
X478400Y29807D02*
Y32193D01*
X473600Y22193D02*
X475342Y20452D01*
X475876Y20498D02*
X476987Y21610D01*
X473600Y59807D02*
Y62193D01*
X429893Y28256D02*
X473744Y72107D01*
X473600Y29807D02*
Y32193D01*
X428895Y72555D02*
X472555Y28895D01*
X426636Y50455D02*
X428334Y52152D01*
X430452Y65342D02*
X472193Y23600D01*
X427527Y20233D02*
X471767Y64473D01*
X427008Y71614D02*
X471614Y27008D01*
X430500Y26034D02*
X471662Y67197D01*
X490748Y18400D02*
X500753Y28405D01*
X487919Y18400D02*
X500077Y30557D01*
X493576Y18400D02*
X502107Y26930D01*
X480423Y35170D02*
X497193Y18400D01*
X480110Y24169D02*
X485879Y18400D01*
X490679Y13600D02*
X502379Y1900D01*
X480452Y26655D02*
X488707Y18400D01*
X488390Y1900D02*
X500090Y13600D01*
X478156Y19950D02*
X502564Y44358D01*
X476842Y41579D02*
X499540Y18881D01*
X479807Y18400D02*
X499059D01*
X479541Y33223D02*
X494364Y18400D01*
X478895Y22555D02*
X483050Y18400D01*
X478400Y31536D02*
X491536Y18400D01*
X479807Y13600D02*
X500053D01*
X430170Y54309D02*
X482580Y1900D01*
X477008Y21614D02*
X480222Y18400D01*
X499164Y13600D02*
X500312Y12452D01*
X494047Y1900D02*
X500680Y8533D01*
X496875Y1900D02*
X501991Y7016D01*
X496336Y13600D02*
X500209Y9727D01*
X491218Y1900D02*
X500067Y10748D01*
X485562Y1900D02*
X497261Y13600D01*
X487850D02*
X499550Y1900D01*
X482733D02*
X494433Y13600D01*
X485022D02*
X496722Y1900D01*
X477076D02*
X488776Y13600D01*
X474248Y1900D02*
X485948Y13600D01*
X475804Y11504D02*
X485408Y1900D01*
X468591D02*
X480291Y13600D01*
X471419Y1900D02*
X483119Y13600D01*
X479905Y1900D02*
X491605Y13600D01*
X482194D02*
X493894Y1900D01*
X479628Y13337D02*
X491065Y1900D01*
X478111Y12026D02*
X488237Y1900D01*
X434650D02*
X474505Y41756D01*
X430295Y17344D02*
X473600Y60649D01*
X440307Y1900D02*
X472123Y33716D01*
X430409Y56899D02*
X471504Y15804D01*
X430222Y14443D02*
X471508Y55729D01*
X431821Y1900D02*
X472779Y42858D01*
X430474Y45520D02*
X474095Y1900D01*
X437478D02*
X471501Y35922D01*
X430347Y37162D02*
X465609Y1900D01*
X430226Y34455D02*
X462781Y1900D01*
X429628Y63337D02*
X473337Y19628D01*
X429243Y19120D02*
X472880Y62757D01*
X428111Y62026D02*
X472026Y18111D01*
X429711Y43455D02*
X471266Y1900D01*
X429107Y32745D02*
X459952Y1900D01*
X429003Y52649D02*
X479751Y1900D01*
X427169Y51654D02*
X476923Y1900D01*
X428993D02*
X471716Y44623D01*
X428240Y42097D02*
X468438Y1900D01*
X462934D02*
X473377Y12343D01*
X465763Y1900D02*
X475402Y11540D01*
X457277Y1900D02*
X471502Y16125D01*
X460106Y1900D02*
X472050Y13844D01*
X451620Y1900D02*
X472681Y22961D01*
X454449Y1900D02*
X474359Y21810D01*
X445963Y1900D02*
X471885Y27822D01*
X448792Y1900D02*
X471669Y24777D01*
X429791Y23576D02*
X451467Y1900D01*
X427325Y31699D02*
X457124Y1900D01*
X428366Y22172D02*
X448639Y1900D01*
X429209Y12845D02*
X440153Y1900D01*
X427476Y11749D02*
X437325Y1900D01*
X443135D02*
X473496Y32261D01*
X430490Y25705D02*
X454296Y1900D01*
X430260Y17450D02*
X445810Y1900D01*
X430278Y14604D02*
X442982Y1900D01*
X425588Y81519D02*
X426655Y80452D01*
X425545Y80477D02*
X426610Y81542D01*
X423489Y89734D02*
X425955Y92200D01*
X422140Y79900D02*
X424142Y81902D01*
X423694Y72100D02*
X425342Y70452D01*
X420362Y79900D02*
X423755D01*
X421977Y72100D02*
X423755D01*
X419103Y79691D02*
X422537Y83126D01*
X421421Y71544D02*
X423337Y69628D01*
X418600Y65046D02*
X425137Y71583D01*
X418600Y67875D02*
X422825Y72100D01*
X418600Y65880D02*
X424309Y60170D01*
X425804Y61504D02*
X426899Y60409D01*
X425315Y60448D02*
X426384Y61516D01*
X424050Y51944D02*
X425520Y50474D01*
X425069Y40403D02*
X426170Y41503D01*
X426457Y30477D02*
X427902Y31922D01*
X426009Y41500D02*
X427162Y40347D01*
X424402Y31793D02*
X425705Y30490D01*
X418600Y56561D02*
X424005Y61966D01*
X418600Y54566D02*
X423455Y49711D01*
X418600Y63051D02*
X422648Y59003D01*
X418600Y48076D02*
X423091Y52567D01*
X418600Y45247D02*
X424972Y51619D01*
X418600Y46081D02*
X424455Y40226D01*
X418600Y43252D02*
X422745Y39107D01*
X418600Y36762D02*
X423873Y42035D01*
X414907Y92200D02*
X421519Y85588D01*
X409250Y92200D02*
X421550Y79900D01*
X406422Y92200D02*
X418976Y79646D01*
X403594Y92200D02*
X417320Y78474D01*
X400765Y92200D02*
X415906Y77060D01*
X411942Y73096D02*
X417604Y78758D01*
X397937Y92200D02*
X414492Y75645D01*
X389451Y92200D02*
X410830Y70821D01*
X386623Y92200D02*
X410800Y68023D01*
X392280Y92200D02*
X411677Y72803D01*
X383795Y92200D02*
X410800Y65195D01*
X380966Y92200D02*
X410800Y62366D01*
X355510Y92200D02*
X410800Y36910D01*
X349853Y92200D02*
X410800Y31253D01*
X378138Y92200D02*
X410800Y59538D01*
X361167Y92200D02*
X410800Y42567D01*
X420007Y70130D02*
X422026Y68111D01*
X418600Y68723D02*
X421977Y72100D01*
X418600Y59389D02*
X422448Y63237D01*
X418600Y68708D02*
X421504Y65804D01*
X418600Y62218D02*
X421573Y65191D01*
X418600Y57395D02*
X421944Y54050D01*
X418600Y50904D02*
X421882Y54186D01*
X418600Y60223D02*
X421654Y57169D01*
X418600Y53733D02*
X421552Y56685D01*
X418600Y42419D02*
X421545Y45364D01*
X418600Y51738D02*
X422097Y48240D01*
X418600Y39590D02*
X422362Y43352D01*
X418600Y48909D02*
X421500Y46009D01*
X418600Y37596D02*
X421793Y34402D01*
X418600Y31105D02*
X421822Y34328D01*
X418600Y40424D02*
X421699Y37325D01*
X418600Y33933D02*
X421597Y36931D01*
X418600Y28277D02*
X422984Y32660D01*
X418600Y34767D02*
X423576Y29791D01*
X419767Y23787D02*
X421523Y25543D01*
X421181Y22373D02*
X422279Y23470D01*
X423336Y1900D02*
X473618Y52182D01*
X420508Y1900D02*
X472199Y53591D01*
X426164Y1900D02*
X471754Y47489D01*
X418600Y26282D02*
X424604Y20278D01*
X422595Y20958D02*
X423744Y22107D01*
X418600Y25448D02*
X424812Y31660D01*
X418600Y31939D02*
X422172Y28366D01*
X418600Y24954D02*
X423424Y20130D01*
X338483Y1900D02*
X421607Y85024D01*
X418600Y29110D02*
X421505Y26206D01*
X335711Y92200D02*
X426011Y1900D01*
X335655D02*
X422266Y88511D01*
X329998Y1900D02*
X420298Y92200D01*
X330054D02*
X420354Y1900D01*
X426206Y21505D02*
X427450Y20260D01*
X424803Y20338D02*
X425966Y21500D01*
X423424Y20130D02*
X424212D01*
X424707Y11690D02*
X434497Y1900D01*
X421189Y12379D02*
X431668Y1900D01*
X421809Y12330D02*
X423396D01*
X411942Y20581D02*
X419051Y13472D01*
X417679Y1900D02*
X427557Y11778D01*
X414851Y1900D02*
X424656Y11705D01*
X409194Y1900D02*
X420045Y12751D01*
X412022Y1900D02*
X422452Y12330D01*
X347025Y92200D02*
X410800Y28425D01*
X344197Y92200D02*
X410800Y25596D01*
X418600Y24954D02*
Y68723D01*
X410800Y23338D02*
Y70338D01*
X358282Y1900D02*
X410800Y54418D01*
X352625Y1900D02*
X410800Y60075D01*
X346969Y1900D02*
X410800Y65732D01*
X355454Y1900D02*
X410800Y57246D01*
X349797Y1900D02*
X410800Y62903D01*
X361111Y1900D02*
X410800Y51589D01*
X327226Y92200D02*
X417526Y1900D01*
X327169D02*
X417469Y92200D01*
X341312Y1900D02*
X411009Y71597D01*
X341368Y92200D02*
X410850Y22719D01*
X344140Y1900D02*
X410800Y68560D01*
X324341Y1900D02*
X414641Y92200D01*
X324397D02*
X414698Y1900D01*
X321513D02*
X411813Y92200D01*
X321569D02*
X411869Y1900D01*
X403537D02*
X417080Y15443D01*
X400709Y1900D02*
X415666Y16857D01*
X406365Y1900D02*
X418494Y14029D01*
X395052Y1900D02*
X412837Y19686D01*
X397880Y1900D02*
X414252Y18271D01*
X389395Y1900D02*
X410800Y23305D01*
X392223Y1900D02*
X411472Y21149D01*
X372424Y1900D02*
X410800Y40276D01*
X369596Y1900D02*
X410800Y43104D01*
X375253Y1900D02*
X410800Y37447D01*
X363939Y1900D02*
X410800Y48761D01*
X366768Y1900D02*
X410800Y45932D01*
X383738Y1900D02*
X410800Y28962D01*
X386566Y1900D02*
X410800Y26133D01*
X378081Y1900D02*
X410800Y34619D01*
X380910Y1900D02*
X410800Y31790D01*
X316010Y372116D02*
X334226Y353900D01*
X314302D02*
X332518Y372116D01*
X317130Y353900D02*
X335346Y372116D01*
X310353D02*
X328569Y353900D01*
X313182Y372116D02*
X331398Y353900D01*
X307525Y372116D02*
X325741Y353900D01*
X306820Y352075D02*
X326861Y372116D01*
X308382Y350809D02*
X329689Y372116D01*
X304697D02*
X322912Y353900D01*
X305380Y353464D02*
X324032Y372116D01*
X301868D02*
X320084Y353900D01*
X300160D02*
X318376Y372116D01*
X302988Y353900D02*
X321204Y372116D01*
X297331Y353900D02*
X315547Y372116D01*
X299040D02*
X317256Y353900D01*
X293383Y372116D02*
X312302Y353196D01*
X294503Y353900D02*
X312719Y372116D01*
X288846Y353900D02*
X307062Y372116D01*
X290554D02*
X310888Y351782D01*
X319959Y353900D02*
X338175Y372116D01*
X318839D02*
X337055Y353900D01*
X314000D02*
X375000D01*
X313265Y347371D02*
X314647Y348753D01*
X314282Y348388D02*
X314647Y348023D01*
Y342147D02*
Y348753D01*
X313291Y347232D02*
X314647Y348588D01*
X313353Y346489D02*
X314647Y345195D01*
X312740Y344273D02*
X314647Y342366D01*
X296211Y372116D02*
X314427Y353900D01*
X291674D02*
X309890Y372116D01*
X309871Y350765D02*
X312303Y353197D01*
X287726Y372116D02*
X308989Y350853D01*
X305697Y353197D02*
X308129Y350765D01*
X286018Y353900D02*
X304234Y372116D01*
X284898D02*
X303113Y353900D01*
X283189D02*
X301405Y372116D01*
X282491Y349100D02*
X285509D01*
X302491D02*
X303006D01*
X283048Y348101D02*
X284046Y349100D01*
X280361Y353900D02*
X298577Y372116D01*
X279241D02*
X297457Y353900D01*
X282069Y372116D02*
X300285Y353900D01*
X276413Y372116D02*
X294629Y353900D01*
X277532D02*
X295748Y372116D01*
X274704Y353900D02*
X292920Y372116D01*
X274000Y353900D02*
X304000D01*
X273585Y372116D02*
X291800Y353900D01*
X303006Y349100D02*
X304735Y347371D01*
X302988Y348243D02*
X303426Y348680D01*
X302876Y348480D02*
X304652Y346705D01*
X303280Y345706D02*
X304691Y347118D01*
X293772Y349100D02*
X294903Y347969D01*
X293317Y347057D02*
X295360Y349100D01*
X292491D02*
X295509D01*
X282575Y348983D02*
X284665Y346893D01*
X293348Y346695D02*
X294221Y345822D01*
X292829Y344431D02*
X294654Y346255D01*
X283224Y345450D02*
X284665Y346890D01*
X310640Y296498D02*
X363242Y349100D01*
X301925Y296268D02*
X354757Y349100D01*
X318790Y296162D02*
X371727Y349100D01*
X303194Y345335D02*
X352495Y296033D01*
X302176Y343524D02*
X349350Y296351D01*
X312824Y295853D02*
X366071Y349100D01*
X304761Y293447D02*
X360414Y349100D01*
X314264Y294465D02*
X368899Y349100D01*
X303675Y295189D02*
X357585Y349100D01*
X311349Y342836D02*
X358274Y295911D01*
X292948Y295776D02*
X346272Y349100D01*
X290831Y296488D02*
X343443Y349100D01*
X299108Y296279D02*
X351928Y349100D01*
X283400Y300371D02*
X332129Y349100D01*
X283400Y297542D02*
X334958Y349100D01*
X294342Y294342D02*
X349100Y349100D01*
X294342Y294342D02*
X349100Y349100D01*
X283774Y295088D02*
X337786Y349100D01*
X284810Y293295D02*
X340615Y349100D01*
X314866Y342147D02*
X360513Y296500D01*
X300469Y342403D02*
X347509Y295362D01*
X296908Y340307D02*
X340721Y296495D01*
X314647Y342147D02*
X323353D01*
X295494Y338893D02*
X338404Y295982D01*
X309205Y342152D02*
X356798Y294559D01*
X317695Y342147D02*
X366280Y293562D01*
X298322Y341721D02*
X346336Y293707D01*
X294080Y337478D02*
X336882Y294676D01*
X291251Y334650D02*
X329511Y296390D01*
X283400Y303199D02*
X322348Y342147D01*
X287009Y330407D02*
X320937Y296479D01*
X283400Y306027D02*
X319520Y342147D01*
X285594Y328993D02*
X318538Y296050D01*
X292666Y336064D02*
X332965Y295765D01*
X289837Y333236D02*
X327617Y295456D01*
X288423Y331822D02*
X326397Y293848D01*
X284180Y327579D02*
X316969Y294790D01*
X314647Y342366D02*
X314866Y342147D01*
X283400Y325827D02*
X299794Y342220D01*
X283235Y345495D02*
X288564Y340165D01*
X282272Y343629D02*
X287150Y338751D01*
X283400Y311684D02*
X314647Y342932D01*
X283400Y314513D02*
X314647Y345760D01*
X283400Y317341D02*
X308268Y342209D01*
X283400Y322998D02*
X305057Y344655D01*
X283400Y320170D02*
X306309Y343079D01*
X280615Y342458D02*
X285736Y337337D01*
X277975Y342270D02*
X284322Y335923D01*
X276400Y341454D02*
X277399Y342453D01*
X276400Y338626D02*
X280050Y342276D01*
X276400Y332969D02*
X286423Y342992D01*
X278449Y330051D02*
X291069Y342671D01*
X276400Y335797D02*
X285123Y344520D01*
X276400Y330200D02*
Y343009D01*
X289393Y342165D02*
X289979Y341580D01*
X276400Y338188D02*
X281493Y333094D01*
X276400Y332531D02*
X278665Y330266D01*
X283400Y326799D02*
X298755Y342154D01*
X283400Y308856D02*
X316691Y342147D01*
X277600Y295441D02*
Y328000D01*
X283400Y295441D02*
Y326799D01*
X276400Y341016D02*
X282907Y334509D01*
X276399Y330139D02*
X288443Y342183D01*
X276400Y335359D02*
X280079Y331680D01*
X276357Y329746D02*
X277638Y328465D01*
X273800Y324712D02*
X277656Y328568D01*
X273800Y326606D02*
X275697Y328503D01*
X275234Y328040D02*
X277600Y325674D01*
X267928Y372116D02*
X286143Y353900D01*
X265099Y372116D02*
X283315Y353900D01*
X270756Y372116D02*
X288972Y353900D01*
X259442Y372116D02*
X277658Y353900D01*
X262271Y372116D02*
X280487Y353900D01*
X256614Y372116D02*
X274830Y353900D01*
X253786Y372116D02*
X272516Y353386D01*
X268825Y350849D02*
X290091Y372116D01*
X248129D02*
X269411Y350833D01*
X250957Y372116D02*
X271600Y351473D01*
X236815Y372116D02*
X271600Y337331D01*
X233986Y372116D02*
X271600Y334502D01*
X1900Y372116D02*
X647706D01*
X228330D02*
X270426Y330020D01*
X231158Y372116D02*
X271600Y331674D01*
X211359Y372116D02*
X269000Y314475D01*
X205702Y372116D02*
X269000Y308818D01*
X222673Y372116D02*
X269000Y325789D01*
X217016Y372116D02*
X269000Y320132D01*
X271111Y350307D02*
X271600Y350796D01*
X245300Y372116D02*
X267033Y350383D01*
X271600Y349991D02*
Y351500D01*
Y331194D02*
Y343009D01*
X269574Y342185D02*
X271600Y340159D01*
X269703Y329297D02*
X271600Y331194D01*
X219844Y372116D02*
X269000Y322960D01*
X214188Y372116D02*
X269000Y317303D01*
X225501Y372116D02*
X269159Y328458D01*
X239643Y372116D02*
X264685Y347074D01*
X242472Y372116D02*
X265500Y349088D01*
X161258Y308336D02*
X225037Y372116D01*
X208531D02*
X269000Y311647D01*
X158429Y311165D02*
X219381Y372116D01*
X159844Y309751D02*
X222209Y372116D01*
X148530Y321064D02*
X199582Y372116D01*
X147116Y322478D02*
X196753Y372116D01*
X149944Y319650D02*
X202410Y372116D01*
X144287Y325307D02*
X191096Y372116D01*
X145702Y323893D02*
X193925Y372116D01*
X155601Y313993D02*
X213724Y372116D01*
X154187Y315407D02*
X210895Y372116D01*
X157015Y312579D02*
X216552Y372116D01*
X151358Y318236D02*
X205238Y372116D01*
X152773Y316822D02*
X208067Y372116D01*
X135802Y333792D02*
X174126Y372116D01*
X134388Y335206D02*
X171297Y372116D01*
X137216Y332378D02*
X176954Y372116D01*
X131559Y338035D02*
X165640Y372116D01*
X132974Y336620D02*
X168469Y372116D01*
X141459Y328135D02*
X185439Y372116D01*
X142873Y326721D02*
X188268Y372116D01*
X138630Y330964D02*
X179783Y372116D01*
X140045Y329550D02*
X182611Y372116D01*
X138965Y362410D02*
X148670Y372116D01*
X137380Y363654D02*
X145841Y372116D01*
X140223Y360841D02*
X151498Y372116D01*
X133017Y364948D02*
X140184Y372116D01*
X135438Y364541D02*
X143013Y372116D01*
X141042Y353174D02*
X159984Y372116D01*
X130145Y339449D02*
X162812Y372116D01*
X141128Y358917D02*
X154327Y372116D01*
X141561Y356522D02*
X157155Y372116D01*
X129588Y364348D02*
X137356Y372116D01*
X112370Y349958D02*
X134528Y372116D01*
X126506D02*
X133721Y364901D01*
X127317Y342277D02*
X132434Y347394D01*
X128731Y340863D02*
X135782Y347914D01*
X128000Y320333D02*
X135236Y327570D01*
X128000Y325990D02*
X132408Y330398D01*
X128000Y323162D02*
X133822Y328984D01*
X188732Y372116D02*
X269000Y291847D01*
X183075Y372116D02*
X269000Y286191D01*
X180246Y372116D02*
X269000Y283362D01*
X194388Y372116D02*
X269000Y297504D01*
X191560Y372116D02*
X269000Y294676D01*
X163276Y372116D02*
X269000Y266392D01*
X162400Y255738D02*
X278778Y372116D01*
X162400Y252910D02*
X281606Y372116D01*
X168933D02*
X269000Y272048D01*
X166104Y372116D02*
X269000Y269220D01*
X162400Y261395D02*
X273121Y372116D01*
X162400Y264224D02*
X270292Y372116D01*
X162400Y258567D02*
X275949Y372116D01*
X157619D02*
X269000Y260735D01*
X160447Y372116D02*
X269000Y263563D01*
X162400Y250081D02*
X284435Y372116D01*
X162400Y247253D02*
X287263Y372116D01*
X154790D02*
X269000Y257906D01*
X151962Y372116D02*
X269000Y255078D01*
X197217Y372116D02*
X269000Y300333D01*
X185903Y372116D02*
X269000Y289019D01*
X177418Y372116D02*
X269000Y280534D01*
X202874Y372116D02*
X269000Y305990D01*
X200045Y372116D02*
X269000Y303161D01*
X162400Y224625D02*
X271600Y333825D01*
X162400Y221797D02*
X269232Y328629D01*
X171761Y372116D02*
X269000Y274877D01*
X174590Y372116D02*
X269000Y277705D01*
X162400Y230282D02*
X271600Y339482D01*
X162400Y233111D02*
X271600Y342311D01*
X162400Y227454D02*
X271600Y336654D01*
X129335Y372116D02*
X269000Y232450D01*
X141519Y357103D02*
X269000Y229622D01*
X139559Y350578D02*
X269000Y221137D01*
X125376Y344962D02*
X269000Y201338D01*
X141389Y354404D02*
X269000Y226794D01*
X140668Y352297D02*
X269000Y223965D01*
X162400Y295336D02*
X239180Y372116D01*
X162400Y298165D02*
X236351Y372116D01*
X162400Y281194D02*
X253322Y372116D01*
X162364Y306614D02*
X227866Y372116D01*
X162400Y300993D02*
X233523Y372116D01*
X162400Y269880D02*
X264635Y372116D01*
X162400Y272709D02*
X261807Y372116D01*
X162400Y267052D02*
X267464Y372116D01*
X162400Y278366D02*
X256150Y372116D01*
X162400Y275537D02*
X258979Y372116D01*
X143477D02*
X269000Y246593D01*
X140648Y372116D02*
X269000Y243764D01*
X137820Y372116D02*
X269000Y240936D01*
X149134Y372116D02*
X269000Y252249D01*
X146305Y372116D02*
X269000Y249421D01*
X103879Y372116D02*
X269000Y206995D01*
X101050Y372116D02*
X269000Y204166D01*
X134992Y372116D02*
X269000Y238107D01*
X132163Y372116D02*
X269000Y235279D01*
X162400Y286851D02*
X247665Y372116D01*
X162400Y289679D02*
X244836Y372116D01*
X162400Y284022D02*
X250493Y372116D01*
X162400Y303821D02*
X230694Y372116D01*
X162400Y292508D02*
X242008Y372116D01*
X162400Y238768D02*
X266541Y342909D01*
X162400Y235939D02*
X268624Y342163D01*
X162400Y244425D02*
X264651Y346675D01*
X162400Y241596D02*
X265193Y344389D01*
X128000Y334806D02*
X157600Y305206D01*
X127297Y342297D02*
X161697Y307897D01*
X128000Y333852D02*
X157600Y304252D01*
X128000Y331024D02*
X157600Y301424D01*
X128000Y328196D02*
X157600Y298596D01*
X131311Y347512D02*
X269000Y209823D01*
X134157Y347495D02*
X269000Y212651D01*
X138118Y349191D02*
X269000Y218308D01*
X136341Y348139D02*
X269000Y215480D01*
X283400Y314217D02*
X301167Y296450D01*
X283400Y317045D02*
X306461Y293984D01*
X314986Y292358D02*
X316338Y293710D01*
X294997Y292168D02*
X296221Y293392D01*
X284907Y292911D02*
X286004Y291814D01*
X304950Y292667D02*
X306018Y291599D01*
X283400Y319874D02*
X307729Y295545D01*
X283400Y322702D02*
X309678Y296424D01*
X283400Y311389D02*
X298675Y296113D01*
X283400Y302903D02*
X289850Y296453D01*
X283400Y300075D02*
X287843Y295632D01*
X283400Y325531D02*
X316081Y292850D01*
X283400Y308560D02*
X297060Y294901D01*
X283400Y305732D02*
X296116Y293016D01*
X283400Y297247D02*
X286529Y294117D01*
X314924Y291178D02*
X319678Y286424D01*
X311772Y286316D02*
X316184Y290728D01*
X310099Y287518D02*
X311167Y286450D01*
X304793Y290651D02*
X306002Y291860D01*
X300640Y286498D02*
X301849Y287707D01*
X314045Y289229D02*
X317729Y285545D01*
X313572Y285288D02*
X317212Y288928D01*
X308790Y286162D02*
X310142Y287514D01*
X304613Y290175D02*
X308675Y286113D01*
X302824Y285853D02*
X306647Y289676D01*
X298127Y288177D02*
X299851Y286453D01*
X294953Y291351D02*
X296677Y289627D01*
X290314Y287504D02*
X291411Y286407D01*
X284682Y290339D02*
X286012Y291669D01*
X289108Y286279D02*
X290332Y287503D01*
X291925Y286268D02*
X296232Y290575D01*
X294132Y289343D02*
X297843Y285632D01*
X284673Y290316D02*
X288816Y286173D01*
X282948Y285776D02*
X286724Y289552D01*
X273800Y319055D02*
X277600Y322855D01*
X273800Y323817D02*
X277600Y320017D01*
X273800Y320989D02*
X277600Y317189D01*
X273820Y326626D02*
X277600Y322846D01*
X273800Y321883D02*
X277600Y325683D01*
X273800Y318160D02*
X277600Y314360D01*
X273800Y316227D02*
X277600Y320026D01*
X273800Y313398D02*
X277600Y317198D01*
X273800Y289401D02*
Y326606D01*
Y315332D02*
X277600Y311532D01*
X273800Y309675D02*
X277600Y305875D01*
X273800Y307741D02*
X277600Y311541D01*
X273800Y304913D02*
X277600Y308713D01*
X273800Y310570D02*
X277600Y314370D01*
X273800Y312503D02*
X277600Y308703D01*
X273800Y304018D02*
X277600Y300218D01*
X273800Y299256D02*
X277600Y303056D01*
X273800Y306846D02*
X277600Y303046D01*
X273800Y302084D02*
X277600Y305884D01*
X280831Y286488D02*
X282161Y287818D01*
X278745Y286144D02*
X280118Y287516D01*
X279553Y286952D02*
X280029Y286475D01*
X273800Y296427D02*
X277600Y300227D01*
X273800Y301190D02*
X277600Y297390D01*
X273800Y293599D02*
X277600Y297399D01*
X273800Y298361D02*
X277153Y295008D01*
X273800Y295533D02*
X276156Y293176D01*
X273800Y290771D02*
X276139Y293109D01*
X273800Y289401D02*
X276016Y291617D01*
X273800Y292704D02*
X275452Y291053D01*
X273800Y289876D02*
X274037Y289639D01*
X314708Y283595D02*
X318905Y287792D01*
X312484Y287961D02*
X316461Y283984D01*
X314950Y282667D02*
X316018Y281599D01*
X304264Y284466D02*
X308034Y288235D01*
X304986Y282358D02*
X306338Y283710D01*
X314871Y280930D02*
X316000Y282059D01*
X314613Y280175D02*
X399347Y195441D01*
X304953Y281350D02*
X306677Y279626D01*
X303401Y288560D02*
X307060Y284901D01*
X301516Y287616D02*
X306116Y283016D01*
X277800Y252344D02*
X306184Y280728D01*
X294761Y283447D02*
X299053Y287739D01*
X277800Y212746D02*
X346102Y281048D01*
X277800Y201432D02*
X356436Y280068D01*
X277800Y232545D02*
X326140Y280885D01*
X277800Y221231D02*
X336502Y279934D01*
X277800Y218403D02*
X337798Y278401D01*
X277800Y229717D02*
X327116Y279033D01*
X277800Y238202D02*
X317915Y278317D01*
X277800Y241030D02*
X316573Y279803D01*
X277800Y249516D02*
X307212Y278928D01*
X313401Y278560D02*
X397933Y194027D01*
X277800Y198604D02*
X357685Y278489D01*
X277800Y209918D02*
X347024Y279142D01*
X277800Y207089D02*
X348622Y277911D01*
X277800Y243859D02*
X311570Y277629D01*
X277800Y226888D02*
X328761Y277850D01*
X277800Y235373D02*
X319959Y277533D01*
X277800Y246687D02*
X308905Y277792D01*
X277800Y255173D02*
X300142Y277514D01*
X277800Y195775D02*
X359613Y277588D01*
X277800Y204261D02*
X351076Y277537D01*
X277800Y224060D02*
X331314Y277574D01*
X277800Y215575D02*
X339783Y277557D01*
X293675Y285189D02*
X297311Y288825D01*
X284342Y284342D02*
X288158Y288158D01*
X292617Y288029D02*
X296529Y284117D01*
X283508Y288653D02*
X287153Y285008D01*
X284342Y284342D02*
X288158Y288158D01*
X281676Y287656D02*
X286157Y283176D01*
X168754Y202695D02*
X269000Y302941D01*
X168754Y199867D02*
X269000Y300113D01*
X162400Y210483D02*
X269000Y317083D01*
X162400Y216140D02*
X269000Y322740D01*
X164109Y203707D02*
X269000Y308598D01*
X162400Y203707D02*
Y306200D01*
X166937Y203707D02*
X269000Y305770D01*
X162400Y302281D02*
X269000Y195681D01*
X168754Y194210D02*
X269000Y294456D01*
X162400Y305109D02*
X269000Y198509D01*
X167549Y195833D02*
X269000Y297284D01*
X294907Y282911D02*
X296004Y281814D01*
X294793Y280651D02*
X296002Y281860D01*
X284975Y281529D02*
X286435Y280069D01*
X284997Y282168D02*
X286221Y283392D01*
X277800Y260829D02*
X296647Y279676D01*
X277800Y258001D02*
X298035Y278236D01*
X277800Y272143D02*
X286232Y280575D01*
X277800Y269315D02*
X287311Y278825D01*
X277800Y263658D02*
X291849Y277707D01*
X277800Y266486D02*
X289053Y277739D01*
X277800Y274972D02*
X280332Y277503D01*
X277800Y277800D02*
X278158Y278158D01*
X277800Y277800D02*
X278158Y278158D01*
X168754Y197167D02*
Y203707D01*
X165691Y197167D02*
X167024Y195833D01*
X162862Y197167D02*
X164196Y195833D01*
X164720D02*
X166054Y197167D01*
X128000Y325367D02*
X157600Y295767D01*
X128000Y319710D02*
X157600Y290110D01*
X128000Y316882D02*
X157600Y287282D01*
X162400Y218969D02*
X269000Y325569D01*
X128000Y308397D02*
X157600Y278797D01*
X128000Y294254D02*
X157600Y264654D01*
X128000Y314053D02*
X157600Y284453D01*
X128000Y311225D02*
X157600Y281625D01*
X128000Y302740D02*
X157600Y273140D01*
X128000Y275078D02*
X157600Y304678D01*
X128000Y272250D02*
X157600Y301850D01*
X128000Y322539D02*
X157600Y292939D01*
X128000Y305568D02*
X157600Y275968D01*
X128000Y297083D02*
X157600Y267483D01*
X128000Y266593D02*
X157600Y296193D01*
X128000Y299911D02*
X157600Y270311D01*
X128000Y269422D02*
X157600Y299022D01*
X128000Y285769D02*
X157600Y256169D01*
X128000Y258108D02*
X157600Y287708D01*
X136612Y218636D02*
X157600Y239625D01*
X128000Y263765D02*
X157600Y293365D01*
X128000Y288597D02*
X157600Y258998D01*
X129219Y216900D02*
X157600Y245281D01*
X133783Y218636D02*
X157600Y242453D01*
X139440Y218636D02*
X157600Y236796D01*
X145097Y218636D02*
X157600Y231139D01*
X128000Y280112D02*
X157600Y250512D01*
X128000Y282941D02*
X157600Y253341D01*
X128000Y277284D02*
X157600Y247684D01*
X128000Y291426D02*
X157600Y261826D01*
X128000Y260936D02*
X157600Y290536D01*
X109420Y216900D02*
X157600Y265080D01*
X123562Y216900D02*
X157600Y250938D01*
X128000Y274455D02*
X157600Y244855D01*
X128000Y271627D02*
X157600Y242027D01*
X128000Y309019D02*
X140893Y321913D01*
X128000Y311848D02*
X139479Y323327D01*
X128000Y306191D02*
X142307Y320498D01*
X128000Y317505D02*
X136651Y326155D01*
X128000Y314676D02*
X138065Y324741D01*
X128000Y294877D02*
X147964Y314842D01*
X128000Y297706D02*
X146550Y316256D01*
X128000Y292049D02*
X149379Y313427D01*
X128000Y303363D02*
X143722Y319084D01*
X128000Y300534D02*
X145136Y317670D01*
X128000Y280735D02*
X155035Y307771D01*
X128000Y283564D02*
X153621Y309185D01*
X128000Y277907D02*
X156449Y306356D01*
X128000Y289220D02*
X150793Y312013D01*
X128000Y286392D02*
X152207Y310599D01*
X95632Y220083D02*
X157600Y282051D01*
X95632Y217255D02*
X157600Y279222D01*
X95632Y222912D02*
X157600Y284879D01*
X128000Y268798D02*
X157600Y239198D01*
X128000Y260313D02*
X157600Y230713D01*
X128000Y265970D02*
X157600Y236370D01*
X128000Y257485D02*
X157600Y227885D01*
X133021Y218636D02*
X139399D01*
X139601D02*
X145979D01*
X142269D02*
X157600Y233968D01*
X133021Y217874D02*
X133783Y218636D01*
X133021Y216900D02*
Y218636D01*
X132047Y216900D02*
X133021Y217874D01*
X128000Y263142D02*
X157600Y233542D01*
X127325Y255331D02*
X157600Y225056D01*
X125911Y253917D02*
X157600Y222228D01*
X124497Y252503D02*
X157600Y219399D01*
X117426Y245432D02*
X144221Y218636D01*
X116012Y244017D02*
X141393Y218636D01*
X114597Y242603D02*
X138564Y218636D01*
X113183Y241189D02*
X135736Y218636D01*
X111769Y239775D02*
X133021Y218522D01*
X162400Y213312D02*
X269000Y319912D01*
X123083Y251089D02*
X157600Y216571D01*
X145979Y213861D02*
X157600Y225482D01*
X126390Y216900D02*
X157600Y248110D01*
X145979Y216689D02*
X157600Y228311D01*
X162400Y204826D02*
X269000Y311426D01*
X162400Y207655D02*
X269000Y314255D01*
X145979Y211033D02*
X157600Y222654D01*
Y200437D02*
Y305206D01*
X145089Y207314D02*
X157600Y219826D01*
X112248Y216900D02*
X157600Y262252D01*
X106591Y216900D02*
X157600Y267909D01*
X120733Y216900D02*
X157600Y253767D01*
X115076Y216900D02*
X157600Y259423D01*
X117905Y216900D02*
X157600Y256595D01*
X120254Y248260D02*
X157600Y210914D01*
X118840Y246846D02*
X157600Y208086D01*
X97937Y216731D02*
X157600Y276394D01*
X121668Y249674D02*
X157600Y213743D01*
X162400Y203707D02*
X168754D01*
X162400Y208943D02*
X167636Y203707D01*
X160246Y197167D02*
X168754D01*
X162400Y206114D02*
X164807Y203707D01*
X161892Y195833D02*
X163226Y197167D01*
X160246Y195833D02*
X168754D01*
X158893Y198308D02*
X161367Y195833D01*
X160246Y197167D02*
Y198037D01*
X145979Y214050D02*
X157600Y202429D01*
X145089Y201658D02*
X157600Y214169D01*
X145979Y211222D02*
X157871Y199330D01*
X145089Y204486D02*
X157600Y216997D01*
X145979Y216879D02*
X157600Y205257D01*
X145089Y209283D02*
X160246Y194126D01*
X145089Y196001D02*
X157600Y208512D01*
X145089Y193172D02*
X157600Y205683D01*
X145979Y210364D02*
Y218636D01*
X145310Y210364D02*
X145979Y211033D01*
X145089Y210364D02*
X145979D01*
X138711D02*
X139399D01*
X139601D02*
X140289D01*
X145089Y210143D02*
X145310Y210364D01*
X145089Y198829D02*
X157600Y211340D01*
X138711Y210004D02*
X140289Y208426D01*
X133021Y210364D02*
Y212100D01*
X138711Y209422D02*
X139653Y210364D01*
X103594Y216731D02*
X157600Y270737D01*
X100765Y216731D02*
X157600Y273566D01*
X133021Y210364D02*
X133911D01*
X105000Y216900D02*
X133021D01*
X105994Y212100D02*
X133021D01*
X130958D02*
X133911Y209147D01*
X131179Y207547D02*
X133911Y210279D01*
X129770Y208966D02*
X132904Y212100D01*
X128130D02*
X133911Y206319D01*
X138711Y204347D02*
X140289Y202769D01*
X138711Y203765D02*
X140289Y205343D01*
X138711Y200937D02*
X140289Y202515D01*
X138711Y206593D02*
X140289Y208171D01*
X138711Y207176D02*
X140289Y205598D01*
X138711Y198690D02*
X140289Y197113D01*
X138711Y195280D02*
X140289Y196858D01*
X138711Y201519D02*
X140289Y199941D01*
X138711Y198108D02*
X140289Y199686D01*
X131081Y203492D02*
X133911Y200662D01*
X130700Y201411D02*
X133911Y204622D01*
X130700Y198582D02*
X133911Y201793D01*
X131682Y205221D02*
X133911Y207450D01*
X131699Y205703D02*
X133911Y203490D01*
X130700Y198216D02*
X133911Y195005D01*
X138711Y195862D02*
X140289Y194284D01*
X130700Y201045D02*
X133911Y197834D01*
X130700Y195754D02*
X133911Y198965D01*
X120849Y372116D02*
X128914Y364051D01*
X118021Y372116D02*
X127196Y362941D01*
X123678Y372116D02*
X131022Y364772D01*
X112364Y372116D02*
X124756Y359724D01*
X115192Y372116D02*
X125808Y361500D01*
X114127Y348886D02*
X124608Y359367D01*
X109627Y350043D02*
X131699Y372116D01*
X121088Y350191D02*
X124415Y353518D01*
X109536Y372116D02*
X124112Y357539D01*
X115253Y347184D02*
X124008Y355939D01*
X106707Y372116D02*
X124130Y354693D01*
X100732Y349634D02*
X123214Y372116D01*
X104018Y350092D02*
X126042Y372116D01*
X95183Y349741D02*
X117557Y372116D01*
X98222D02*
X120161Y350176D01*
X96769Y348499D02*
X120386Y372116D01*
X105928Y349173D02*
X128871Y372116D01*
X92565D02*
X116700Y347981D01*
X95394Y372116D02*
X118091Y349418D01*
X125381Y345998D02*
X128115Y348733D01*
X124636Y348082D02*
X126545Y349991D01*
X125902Y343692D02*
X130039Y347828D01*
X123208Y349483D02*
X125302Y351576D01*
X128000Y331647D02*
X129579Y333226D01*
X125260Y344334D02*
X127297Y342297D01*
X128000Y328818D02*
X130994Y331812D01*
X121866Y340940D02*
X123200Y339606D01*
X121047Y340806D02*
X123200Y338652D01*
X115484Y346369D02*
X116006Y345847D01*
X115473Y344576D02*
X116009Y345112D01*
X112336Y341031D02*
X123200Y330167D01*
X109565Y340974D02*
X123200Y327339D01*
X115240Y343784D02*
X123200Y335824D01*
X114104Y342092D02*
X123200Y332996D01*
X88793Y360322D02*
X100586Y372116D01*
X87631Y361989D02*
X97758Y372116D01*
X89579Y358280D02*
X103415Y372116D01*
X84311Y364325D02*
X92101Y372116D01*
X86142Y363328D02*
X94930Y372116D01*
X89737D02*
X111726Y350126D01*
X86908Y372116D02*
X109141Y349883D01*
X92808Y350195D02*
X114729Y372116D01*
X89824Y355696D02*
X106243Y372116D01*
X88551Y351595D02*
X109072Y372116D01*
X79047Y364719D02*
X86444Y372116D01*
X75595D02*
X82971Y364739D01*
X82051Y364894D02*
X89273Y372116D01*
X67109D02*
X75927Y363299D01*
X72766Y372116D02*
X79995Y364887D01*
X81251Y372116D02*
X103164Y350204D01*
X84080Y372116D02*
X107449Y348746D01*
X64281Y372116D02*
X74445Y361952D01*
X78423Y372116D02*
X100845Y349693D01*
X97714Y346616D02*
X98850Y347752D01*
X97420Y347462D02*
X98383Y346498D01*
X89772Y355110D02*
X95103Y349779D01*
X97705Y344348D02*
X98907Y343146D01*
X97380Y343453D02*
X98391Y344465D01*
X89625Y358086D02*
X99291Y348419D01*
X89190Y352863D02*
X91989Y350064D01*
X88184Y351041D02*
X90117Y349108D01*
X69938Y372116D02*
X77748Y364305D01*
X86837Y349560D02*
X88885Y347511D01*
X85161Y348407D02*
X88449Y345119D01*
X100630Y341424D02*
X123200Y318853D01*
X96749Y342476D02*
X123200Y316025D01*
X95152Y341244D02*
X123200Y313196D01*
X105903Y341808D02*
X123200Y324510D01*
X103982Y340900D02*
X123200Y321682D01*
X128000Y257000D02*
Y334806D01*
X123200Y295600D02*
Y339606D01*
X84585Y293888D02*
X123200Y332504D01*
X92760Y340808D02*
X123200Y310368D01*
X89996Y296472D02*
X123200Y329675D01*
X83109Y347631D02*
X123200Y307540D01*
X76292Y348791D02*
X123200Y301883D01*
X80507Y347404D02*
X123200Y304711D01*
X70217Y296491D02*
X116717Y342991D01*
X81440Y296401D02*
X123200Y338161D01*
X77842Y295631D02*
X122508Y340298D01*
X83350Y295482D02*
X123200Y335332D01*
X72557Y296003D02*
X118118Y341564D01*
X74093Y294710D02*
X120202Y340819D01*
X114873Y293064D02*
X123200Y301391D01*
X113913Y294933D02*
X123200Y304220D01*
X121098Y296460D02*
X123200Y298563D01*
X114806Y293306D02*
X116001Y292111D01*
X114410Y289773D02*
X116040Y291403D01*
X123200Y285600D02*
Y288400D01*
X114753Y290530D02*
X119030Y286253D01*
X113660Y288796D02*
X117296Y285160D01*
X103238Y295571D02*
X123200Y315533D01*
X92422Y296069D02*
X123200Y326847D01*
X112284Y296131D02*
X123200Y307048D01*
X101272Y296433D02*
X123200Y318362D01*
X109763Y296439D02*
X123200Y309876D01*
X94004Y294823D02*
X123200Y324019D01*
X104519Y294024D02*
X123200Y312705D01*
X94909Y292899D02*
X123200Y321190D01*
X113123Y285657D02*
X116843Y289377D01*
X104987Y291664D02*
X106061Y292737D01*
X94701Y293612D02*
X96010Y292303D01*
X104996Y291803D02*
X106236Y290563D01*
X84965Y291441D02*
X86028Y292504D01*
X85000Y292000D02*
X86149Y290850D01*
X93954Y289116D02*
X96067Y291228D01*
X64646Y293749D02*
X111782Y340885D01*
X63459Y295390D02*
X109173Y341105D01*
X74941Y292730D02*
X76869Y294658D01*
X74547Y293967D02*
X76026Y292488D01*
X64929Y291203D02*
X66009Y292283D01*
X71440Y286401D02*
X76099Y291060D01*
X74848Y290838D02*
X79338Y286348D01*
X64995Y292205D02*
X66088Y291112D01*
X102284Y286132D02*
X106369Y290216D01*
X94803Y290682D02*
X99182Y286303D01*
X104331Y289639D02*
X108139Y285831D01*
X84406Y289765D02*
X88265Y285906D01*
X91272Y286433D02*
X93384Y288545D01*
X103913Y284933D02*
X107567Y288587D01*
X102929Y288212D02*
X106712Y284430D01*
X93238Y285571D02*
X96929Y289262D01*
X93759Y288897D02*
X97397Y285259D01*
X82422Y286069D02*
X86431Y290078D01*
X73350Y285482D02*
X77018Y289150D01*
X73856Y289002D02*
X77502Y285356D01*
X62557Y286003D02*
X66497Y289943D01*
X64477Y289895D02*
X68395Y285977D01*
X84004Y284823D02*
X87677Y288496D01*
X83050Y288292D02*
X86792Y284550D01*
X64092Y284710D02*
X67790Y288407D01*
X63168Y288376D02*
X66876Y284668D01*
X61452Y372116D02*
X73292Y360276D01*
X52967Y372116D02*
X73676Y351407D01*
X50139Y372116D02*
X123200Y299054D01*
X55796Y372116D02*
X72290Y355622D01*
X58624Y372116D02*
X72516Y358224D01*
X44482Y372116D02*
X120114Y296483D01*
X35996Y372116D02*
X111806Y296306D01*
X47310Y372116D02*
X123200Y296226D01*
X24683Y372116D02*
X100303Y296496D01*
X33168Y372116D02*
X109030Y296253D01*
X1900Y313027D02*
X60988Y372116D01*
X1900Y315856D02*
X58160Y372116D01*
X1900Y310199D02*
X63817Y372116D01*
X1900Y321513D02*
X52503Y372116D01*
X1900Y318684D02*
X55332Y372116D01*
X1900Y296057D02*
X77959Y372116D01*
X16197D02*
X92112Y296201D01*
X1900Y301714D02*
X72302Y372116D01*
X1900Y298885D02*
X75131Y372116D01*
X61603Y296363D02*
X107471Y342231D01*
X41761Y296320D02*
X88900Y343458D01*
X50426Y296499D02*
X95188Y341261D01*
X29610Y354879D02*
X46846Y372116D01*
X30626Y296498D02*
X81528Y347400D01*
X52688Y295933D02*
X99311Y342556D01*
X58383Y295971D02*
X103210Y340798D01*
X29428Y356056D02*
X89182Y296303D01*
X38765Y296152D02*
X88446Y345833D01*
X1900Y304542D02*
X69474Y372116D01*
X1900Y307370D02*
X66645Y372116D01*
X28157Y348843D02*
X80500Y296500D01*
X29407Y351848D02*
X49675Y372116D01*
X1900Y355300D02*
X60705Y296495D01*
X23505Y345009D02*
X72467Y296047D01*
X21254Y344432D02*
X69338Y296347D01*
X1900Y352472D02*
X58395Y295977D01*
X1900Y343987D02*
X49499Y296387D01*
X18458Y363526D02*
X27047Y372116D01*
X13369D02*
X22057Y363428D01*
X21319Y363559D02*
X29876Y372116D01*
X7712D02*
X16744Y363084D01*
X10541Y372116D02*
X19053Y363603D01*
X28185Y359111D02*
X41190Y372116D01*
X26945Y360700D02*
X38361Y372116D01*
X29103Y357201D02*
X44018Y372116D01*
X23558Y362970D02*
X32704Y372116D01*
X25409Y361992D02*
X35533Y372116D01*
X1900Y361111D02*
X12905Y372116D01*
X1900Y363939D02*
X10077Y372116D01*
X4884D02*
X14843Y362157D01*
X1900Y369596D02*
X4420Y372116D01*
X1900Y366768D02*
X7248Y372116D01*
X1900Y352625D02*
X21391Y372116D01*
X1900Y349797D02*
X24219Y372116D01*
X1900Y358282D02*
X15734Y372116D01*
X1900Y355454D02*
X18562Y372116D01*
X2055D02*
X13262Y360909D01*
X1900Y369443D02*
X11978Y359364D01*
X1900Y366614D02*
X11009Y357505D01*
X1900Y363786D02*
X10432Y355254D01*
X1900Y360957D02*
X10489Y352368D01*
X1900Y341312D02*
X11030Y350442D01*
X1900Y346969D02*
X10474Y355542D01*
X1900Y344140D02*
X10441Y352681D01*
X1900Y329998D02*
X16799Y344897D01*
X1900Y332826D02*
X14889Y345815D01*
X1900Y327169D02*
X19121Y344390D01*
X1900Y338483D02*
X12008Y348591D01*
X1900Y335655D02*
X13300Y347055D01*
X1900Y335502D02*
X40921Y296480D01*
X1900Y332673D02*
X38528Y296045D01*
X1900Y324341D02*
X22152Y344593D01*
X1900Y324188D02*
X29666Y296422D01*
X30340Y372116D02*
X107296Y295160D01*
X21854Y372116D02*
X98139Y295831D01*
X41653Y372116D02*
X118017Y295753D01*
X29603Y353053D02*
X87397Y295259D01*
X32815Y295859D02*
X85629Y348673D01*
X34259Y294474D02*
X111900Y372116D01*
X27511D02*
X106224Y293403D01*
X38825Y372116D02*
X116635Y294305D01*
X19026Y372116D02*
X96712Y294429D01*
X29084Y350744D02*
X86276Y293552D01*
X1900Y293228D02*
X80787Y372116D01*
X1900Y290400D02*
X83616Y372116D01*
X1900Y287571D02*
X72505Y358176D01*
X1900Y358129D02*
X66332Y293697D01*
X1900Y349644D02*
X56876Y294668D01*
X1900Y279086D02*
X73896Y351082D01*
X1900Y276258D02*
X75235Y349592D01*
X1900Y284743D02*
X72329Y355172D01*
X1900Y281915D02*
X72899Y352913D01*
X54177Y294594D02*
X100875Y341291D01*
X54966Y292554D02*
X56529Y294117D01*
X54291Y294424D02*
X56050Y292666D01*
X54887Y290999D02*
X59499Y286387D01*
X53949Y289109D02*
X57609Y285449D01*
X51603Y286363D02*
X56137Y290897D01*
X53459Y285390D02*
X57110Y289041D01*
X26909Y347263D02*
X78265Y295906D01*
X25364Y345978D02*
X76792Y294550D01*
X43565Y295295D02*
X90142Y341872D01*
X1900Y346815D02*
X52924Y295792D01*
X18368Y344489D02*
X67502Y295356D01*
X1900Y270601D02*
X78944Y347645D01*
X44704Y293606D02*
X92025Y340927D01*
X1900Y273429D02*
X76902Y348431D01*
X44545Y290028D02*
X48528Y286045D01*
X1900Y338330D02*
X46392Y293838D01*
X1900Y341158D02*
X47609Y295449D01*
X1900Y327016D02*
X36079Y292838D01*
X1900Y321359D02*
X27720Y295539D01*
X1900Y318531D02*
X26456Y293975D01*
X34985Y292372D02*
X36348Y293735D01*
X1900Y315703D02*
X26001Y291602D01*
X1900Y312874D02*
X24586Y290188D01*
X1900Y329845D02*
X36963Y294782D01*
X1900Y310046D02*
X23172Y288773D01*
X1900Y307217D02*
X22073Y287045D01*
X1900Y304389D02*
X22000Y284289D01*
X1900Y295903D02*
X22000Y275803D01*
X1900Y293075D02*
X22000Y272975D01*
X1900Y301560D02*
X22000Y281460D01*
X1900Y298732D02*
X22000Y278632D01*
X44980Y292421D02*
X46047Y291355D01*
X44875Y290949D02*
X46001Y292074D01*
X42687Y285932D02*
X46567Y289812D01*
X34922Y291166D02*
X39666Y286422D01*
X31761Y286320D02*
X36180Y290739D01*
X43282Y288463D02*
X46963Y284782D01*
X44177Y284594D02*
X47906Y288323D01*
X34039Y289220D02*
X37720Y285539D01*
X33565Y285295D02*
X37205Y288935D01*
X22849Y288451D02*
X26016Y291617D01*
X1900Y267772D02*
X26002Y291874D01*
X1900Y290247D02*
X22000Y270147D01*
X122805Y288135D02*
X123200Y287741D01*
X120611Y287501D02*
X121806Y286306D01*
X122141Y286190D02*
X123200Y287249D01*
X114450Y284156D02*
X118344Y288050D01*
X119513Y286390D02*
X120624Y287502D01*
X114331Y279639D02*
X123200Y270770D01*
Y257994D02*
Y278400D01*
X114998Y281876D02*
X116110Y282987D01*
X114996Y281803D02*
X116236Y280563D01*
X111903Y287724D02*
X116224Y283403D01*
X104803Y280682D02*
X123200Y262285D01*
X103759Y278897D02*
X123200Y259456D01*
X111098Y286460D02*
X112727Y288090D01*
X94406Y279765D02*
X119688Y254483D01*
X93050Y278292D02*
X118274Y253068D01*
X84847Y280838D02*
X115446Y250240D01*
X83856Y279002D02*
X114032Y248826D01*
X112929Y278212D02*
X123200Y267942D01*
X110803Y277510D02*
X123200Y265113D01*
X119063Y277736D02*
X123200Y273599D01*
X121903Y277724D02*
X123200Y276427D01*
X110355Y238361D02*
X131815Y216900D01*
X108940Y236946D02*
X128987Y216900D01*
X107526Y235532D02*
X126158Y216900D01*
X106112Y234118D02*
X123330Y216900D01*
X102052Y277776D02*
X122517Y257311D01*
X99350Y277649D02*
X121103Y255897D01*
X91535Y226329D02*
X123200Y257994D01*
X82197Y277832D02*
X112617Y247411D01*
X90988Y277526D02*
X116860Y251654D01*
X95632Y223638D02*
X127297Y255303D01*
X104698Y232704D02*
X120501Y216900D01*
X103284Y231290D02*
X117673Y216900D01*
X101869Y229875D02*
X114845Y216900D01*
X109063Y287736D02*
X110303Y286496D01*
X99763Y286439D02*
X100836Y287513D01*
X100803Y287510D02*
X102112Y286201D01*
X94519Y284024D02*
X98476Y287981D01*
X89350Y287649D02*
X90500Y286500D01*
X104873Y283064D02*
X109436Y287628D01*
X104701Y283612D02*
X106010Y282303D01*
X92052Y287776D02*
X96276Y283552D01*
X94987Y281664D02*
X96061Y282737D01*
X79996Y286472D02*
X81059Y287535D01*
X74585Y283888D02*
X78612Y287915D01*
X80988Y287526D02*
X82467Y286047D01*
X72197Y287832D02*
X76332Y283697D01*
X69612Y287589D02*
X70705Y286495D01*
X84909Y282899D02*
X89601Y287591D01*
X84547Y283967D02*
X86027Y282488D01*
X104410Y279773D02*
X106040Y281402D01*
X99041Y227047D02*
X109188Y216900D01*
X97627Y225633D02*
X106359Y216900D01*
X95000Y281999D02*
X96149Y280850D01*
X100455Y228461D02*
X112016Y216900D01*
X97541Y216731D02*
X104115D01*
X95632Y221970D02*
X100872Y216731D01*
X95632Y219142D02*
X98043Y216731D01*
X83955Y279116D02*
X86067Y281228D01*
X74477Y279895D02*
X109789Y244583D01*
X79612Y277589D02*
X111203Y245997D01*
X74965Y281440D02*
X76028Y282504D01*
X74995Y282205D02*
X76089Y281112D01*
X73168Y278376D02*
X108375Y243169D01*
X71166Y277550D02*
X106960Y241755D01*
X89273Y216731D02*
X90832D01*
X125302Y212100D02*
X127903Y209499D01*
X122473Y212100D02*
X125692Y208881D01*
X127461Y209485D02*
X130076Y212100D01*
X105459Y211565D02*
X105994Y212100D01*
X105459Y210111D02*
X107448Y212100D01*
X111159D02*
X124900Y198359D01*
X108331Y212100D02*
X124900Y195531D01*
X113988Y212100D02*
X124900Y201188D01*
X116816Y212100D02*
X123952Y204964D01*
X119645Y212100D02*
X124342Y207403D01*
X105459Y207282D02*
X110276Y212100D01*
X96213Y224218D02*
X103700Y216731D01*
X97541Y216335D02*
X97937Y216731D01*
X103887Y200054D02*
X115933Y212100D01*
X100400Y193738D02*
X118762Y212100D01*
X97541Y205269D02*
Y216731D01*
X103900Y202895D02*
X113105Y212100D01*
X103900Y205269D02*
X105459D01*
Y211565D01*
X99100Y201294D02*
Y205269D01*
X103900Y200300D02*
Y205269D01*
X100400Y195806D02*
X103197Y198603D01*
X98191Y205269D02*
X99100Y204360D01*
X97541Y205919D02*
X98191Y205269D01*
X97541D02*
X99100D01*
X97192Y209097D02*
X97541Y208748D01*
X97192Y207500D02*
X97541Y207850D01*
X95632Y204999D02*
X99100Y201532D01*
X96303Y198497D02*
X99100Y201294D01*
X95379Y202860D02*
X97789Y205269D01*
X95218Y202585D02*
X97805Y199999D01*
X97192Y214754D02*
X97541Y214405D01*
X97192Y215985D02*
X97541Y216335D01*
X97192Y213157D02*
X97541Y213507D01*
X95632Y216731D02*
Y223638D01*
Y216731D02*
X97192D01*
Y210329D02*
X97541Y210678D01*
X97192Y211926D02*
X97541Y211576D01*
X97192Y206269D02*
X97541Y205919D01*
X97192Y205269D02*
Y216731D01*
X95632Y203932D02*
Y205269D01*
X90832Y216731D02*
Y224632D01*
X89451Y216731D02*
X90832Y218112D01*
X89273Y205702D02*
X89706Y205269D01*
X89273D02*
Y216731D01*
X74849Y199300D02*
X89273Y213724D01*
X79306Y198100D02*
X89273Y208067D01*
X82134Y198100D02*
X89304Y205269D01*
X72021Y199300D02*
X89273Y216553D01*
X76477Y198100D02*
X89273Y210896D01*
X95632Y205269D02*
X97192D01*
X93835Y201140D02*
X96390Y198585D01*
X90832Y204926D02*
Y205269D01*
X92420Y199726D02*
X95600Y196547D01*
X91006Y198312D02*
X95600Y193718D01*
X89706Y205269D02*
X90440Y204535D01*
X89273Y205269D02*
X90832D01*
X84006Y198100D02*
X90832Y204926D01*
X75250Y198100D02*
Y199300D01*
Y198100D02*
X84006D01*
X86697Y194003D02*
X94929Y202235D01*
X75250Y193300D02*
X85000D01*
X67842Y285631D02*
X69770Y287560D01*
X61166Y287549D02*
X62924Y285791D01*
X64941Y282730D02*
X66869Y284658D01*
X54646Y283749D02*
X58751Y287854D01*
X60217Y286491D02*
X61297Y287571D01*
X64292Y284424D02*
X66049Y282666D01*
X54980Y282421D02*
X56046Y281355D01*
X54929Y281203D02*
X56009Y282283D01*
X52338Y287892D02*
X56392Y283838D01*
X49855Y287546D02*
X50921Y286480D01*
X48383Y285971D02*
X49946Y287534D01*
X34704Y283606D02*
X38894Y287796D01*
X40426Y286499D02*
X41551Y287625D01*
X44966Y282554D02*
X46529Y284117D01*
X41338Y287579D02*
X46079Y282838D01*
X64887Y280999D02*
X105546Y240340D01*
X63949Y279110D02*
X104132Y238926D01*
X62338Y277892D02*
X102718Y237512D01*
X27800Y251246D02*
X56497Y279943D01*
X27800Y239932D02*
X67018Y279150D01*
X54545Y280028D02*
X99889Y234684D01*
X59855Y277547D02*
X101304Y236098D01*
X53282Y278463D02*
X98475Y233269D01*
X27800Y234275D02*
X71060Y277535D01*
X27800Y256903D02*
X48751Y277854D01*
X27800Y259731D02*
X47110Y279041D01*
X27800Y254074D02*
X51297Y277571D01*
X27800Y262560D02*
X46137Y280897D01*
X27800Y265388D02*
X39946Y277534D01*
X27800Y242761D02*
X66099Y281060D01*
X27800Y237104D02*
X68612Y277915D01*
X27800Y248417D02*
X57790Y278408D01*
X27800Y245589D02*
X59770Y277559D01*
X32475Y287956D02*
X36456Y283975D01*
X30102Y287501D02*
X31150Y286453D01*
X28745Y286144D02*
X30117Y287516D01*
X28765Y286152D02*
X30128Y287515D01*
X34953Y282650D02*
X36019Y281583D01*
X34876Y280949D02*
X36001Y282074D01*
X27800Y271045D02*
X36568Y279813D01*
X27800Y276702D02*
X28894Y277796D01*
X27800Y273873D02*
X31551Y277625D01*
X1900Y287418D02*
X22000Y267318D01*
X27800Y268217D02*
X37906Y278323D01*
X1900Y264944D02*
X22000Y285044D01*
X1900Y284590D02*
X22000Y264490D01*
X1900Y259287D02*
X22000Y279387D01*
X1900Y278933D02*
X22000Y258833D01*
X1900Y262116D02*
X22000Y282216D01*
X1900Y281761D02*
X22000Y261661D01*
X1900Y239488D02*
X22000Y259588D01*
X1900Y261962D02*
X22000Y241862D01*
X1900Y259134D02*
X22000Y239034D01*
X1900Y264791D02*
X22000Y244691D01*
X1900Y242317D02*
X22000Y262417D01*
X1900Y233831D02*
X22000Y253931D01*
X1900Y253477D02*
X22000Y233377D01*
X1900Y236660D02*
X22000Y256760D01*
X1900Y256306D02*
X22000Y236206D01*
X1900Y273276D02*
X22000Y253176D01*
X1900Y253630D02*
X22000Y273730D01*
X1900Y250802D02*
X22000Y270902D01*
X1900Y256459D02*
X22000Y276559D01*
X1900Y276104D02*
X22000Y256005D01*
X1900Y267619D02*
X22000Y247519D01*
X1900Y245145D02*
X22000Y265245D01*
X1900Y270448D02*
X22000Y250348D01*
X1900Y247973D02*
X22000Y268073D01*
X44922Y281166D02*
X95647Y230441D01*
X44039Y279220D02*
X94233Y229027D01*
X42475Y277956D02*
X92818Y227612D01*
X34609Y280165D02*
X90832Y223942D01*
X33393Y278553D02*
X90832Y221113D01*
X33190Y194411D02*
X117461Y278681D01*
X31776Y195825D02*
X116310Y280359D01*
X34605Y192997D02*
X119277Y277669D01*
X28087Y278202D02*
X89558Y216731D01*
X28948Y198653D02*
X108344Y278050D01*
X27800Y220133D02*
X86929Y279262D01*
X27800Y211648D02*
X96368Y280217D01*
X27800Y217305D02*
X88476Y277981D01*
X27800Y222962D02*
X83384Y278545D01*
X27800Y228619D02*
X77677Y278496D01*
X27800Y200334D02*
X106843Y279377D01*
X27800Y203163D02*
X102727Y278090D01*
X27800Y208820D02*
X97567Y278587D01*
X27800Y205991D02*
X99436Y277627D01*
X51338Y277579D02*
X97061Y231855D01*
X40083Y277519D02*
X91409Y226193D01*
X27800Y214476D02*
X90836Y277513D01*
X31504Y277613D02*
X90832Y218285D01*
X27800Y225790D02*
X79601Y277591D01*
X30362Y197239D02*
X110624Y277502D01*
X69192Y199300D02*
X90832Y220940D01*
X27800Y275660D02*
X89273Y214187D01*
X27800Y272832D02*
X89273Y211359D01*
X27800Y267175D02*
X89273Y205702D01*
X27800Y270004D02*
X89273Y208530D01*
X27800Y264347D02*
X89026Y203120D01*
X27800Y261518D02*
X87612Y201706D01*
X27800Y258690D02*
X86198Y200292D01*
X27800Y255861D02*
X84784Y198878D01*
X27800Y253033D02*
X82733Y198100D01*
X27800Y250204D02*
X79905Y198100D01*
X27800Y247376D02*
X77076Y198100D01*
X27800Y199801D02*
Y278400D01*
Y231447D02*
X76431Y280078D01*
X1900Y250649D02*
X22000Y230549D01*
X1900Y228174D02*
X22000Y248274D01*
X1900Y247820D02*
X22000Y227720D01*
X27800Y241719D02*
X70219Y199300D01*
X27800Y244548D02*
X73048Y199300D01*
X27800Y238891D02*
X67391Y199300D01*
X22000Y198600D02*
Y286400D01*
X27800Y236062D02*
X66750Y197112D01*
X1900Y222517D02*
X22000Y242618D01*
X1900Y244992D02*
X22000Y224892D01*
X1900Y242163D02*
X22000Y222063D01*
X1900Y231003D02*
X22000Y251103D01*
X1900Y225346D02*
X22000Y245446D01*
X1900Y216861D02*
X22000Y236961D01*
X1900Y236506D02*
X22000Y216406D01*
X1900Y219689D02*
X22000Y239789D01*
X1900Y239335D02*
X22000Y219235D01*
X1900Y208375D02*
X22000Y228475D01*
X1900Y230850D02*
X22000Y210750D01*
X1900Y228021D02*
X22000Y207921D01*
X1900Y214032D02*
X22000Y234132D01*
X1900Y233678D02*
X22000Y213578D01*
X27800Y233234D02*
X66750Y194284D01*
Y199300D02*
X75250D01*
X1900Y202718D02*
X22000Y222818D01*
X1900Y225193D02*
X22000Y205093D01*
X1900Y222364D02*
X22000Y202264D01*
X1900Y211204D02*
X22000Y231304D01*
X1900Y205547D02*
X22000Y225647D01*
X1900Y197062D02*
X22000Y217162D01*
X1900Y194233D02*
X22000Y214333D01*
X1900Y199890D02*
X22000Y219990D01*
X1900Y219536D02*
X22000Y199436D01*
X304132Y279343D02*
X393690Y189785D01*
X277800Y181633D02*
X409636Y313470D01*
X308126Y278177D02*
X395105Y191199D01*
X294673Y280316D02*
X389448Y185542D01*
X293508Y278653D02*
X388034Y184128D01*
X277800Y170320D02*
X415293Y307813D01*
X277800Y173148D02*
X413879Y309227D01*
X277800Y167491D02*
X416707Y306399D01*
X284215Y279461D02*
X383791Y179885D01*
X282747Y278101D02*
X382377Y178471D01*
X277800Y161834D02*
X419536Y303570D01*
X277800Y164663D02*
X418121Y304984D01*
X277800Y159006D02*
X420950Y302156D01*
X277800Y178805D02*
X411051Y312055D01*
X277800Y175977D02*
X412465Y310641D01*
X277800Y150521D02*
X425193Y297913D01*
X277800Y147692D02*
X426607Y296499D01*
X277800Y156177D02*
X422364Y300742D01*
X277800Y153349D02*
X423778Y299327D01*
X311516Y277616D02*
X396519Y192613D01*
X302617Y278029D02*
X392276Y188370D01*
X300314Y277504D02*
X390862Y186956D01*
X277800Y187290D02*
X368486Y277976D01*
X277800Y184462D02*
X370852Y277514D01*
X291676Y277657D02*
X386619Y182713D01*
X288569Y277935D02*
X385205Y181299D01*
X280519Y277500D02*
X380962Y177057D01*
X277800Y277391D02*
X379548Y175642D01*
X277800Y274562D02*
X378134Y174228D01*
X277800Y268905D02*
X375306Y171400D01*
X277800Y271734D02*
X376720Y172814D01*
X277800Y266077D02*
X373891Y169985D01*
X277800Y263248D02*
X372477Y168571D01*
X277800Y260420D02*
X371063Y167157D01*
X277800Y257592D02*
X369649Y165743D01*
X277800Y254763D02*
X368333Y164231D01*
X277800Y249106D02*
X368100Y158806D01*
X277800Y246278D02*
X368100Y155978D01*
X277800Y190119D02*
X366935Y279254D01*
X168754Y191382D02*
X269000Y291627D01*
X277800Y192947D02*
X363489Y278636D01*
X166900Y186699D02*
X269000Y288799D01*
X168754Y177240D02*
X269000Y277485D01*
X168754Y168754D02*
X269000Y269000D01*
X168754Y168754D02*
X269000Y269000D01*
X168754Y165926D02*
X269000Y266172D01*
X168754Y174411D02*
X269000Y274657D01*
X167505Y170333D02*
X269000Y271828D01*
X166900Y181042D02*
X269000Y283142D01*
X166900Y183871D02*
X269000Y285971D01*
X166900Y178214D02*
X269000Y280314D01*
X162400Y296624D02*
X269000Y190024D01*
X162400Y293796D02*
X269000Y187196D01*
X162400Y262683D02*
X269000Y156083D01*
X162400Y259854D02*
X269000Y153254D01*
X162400Y282482D02*
X269000Y175882D01*
X162400Y271168D02*
X269000Y164568D01*
X168754Y189293D02*
Y195833D01*
X166900Y189293D02*
X168754D01*
Y163793D02*
Y170333D01*
X166900Y178207D02*
Y189293D01*
X168754Y171667D02*
Y178207D01*
X277800Y240621D02*
X368100Y150321D01*
X277800Y237793D02*
X368100Y147493D01*
X277800Y251935D02*
X368100Y161635D01*
X277800Y243449D02*
X368100Y153149D01*
X166900Y178207D02*
X168754D01*
X166900Y178987D02*
X167680Y178207D01*
X165735Y171667D02*
X167068Y170333D01*
X162906Y171667D02*
X164240Y170333D01*
X164676D02*
X166010Y171667D01*
X162400Y257026D02*
X269000Y150426D01*
X301700Y126337D02*
X449234Y273872D01*
X290549Y126500D02*
X443577Y279528D01*
X310345Y126497D02*
X453477Y269629D01*
X287497Y129105D02*
X440749Y282357D01*
X288911Y127690D02*
X442163Y280943D01*
X303524Y125333D02*
X450648Y272457D01*
X298625Y126091D02*
X447820Y275286D01*
X304682Y123662D02*
X452063Y271043D01*
X292765Y125888D02*
X444992Y278114D01*
X294227Y124521D02*
X446406Y276700D01*
X279011Y137590D02*
X432264Y290842D01*
X277800Y139207D02*
X430850Y292256D01*
X280426Y136176D02*
X433678Y289428D01*
X277800Y144864D02*
X428021Y295085D01*
X277800Y142035D02*
X429435Y293671D01*
X284668Y131933D02*
X437921Y285185D01*
X286082Y130519D02*
X439335Y283771D01*
X281840Y134761D02*
X435092Y288014D01*
X283254Y133347D02*
X436506Y286599D01*
X277800Y226479D02*
X368100Y136179D01*
X277800Y229307D02*
X368100Y139007D01*
X277800Y223650D02*
X368100Y133350D01*
X277800Y234964D02*
X368100Y144664D01*
X277800Y232136D02*
X368100Y141836D01*
X314144Y124640D02*
X456305Y266800D01*
X318203Y125869D02*
X456685Y264352D01*
X312637Y125960D02*
X454891Y268215D01*
X277800Y220822D02*
X368100Y130522D01*
X277800Y215165D02*
X367559Y125406D01*
X277800Y217994D02*
X368100Y127694D01*
X277800Y209508D02*
X360820Y126489D01*
X277800Y206680D02*
X358466Y126014D01*
X277800Y201023D02*
X353301Y125522D01*
X277800Y212337D02*
X366364Y123773D01*
X277800Y203851D02*
X356922Y124729D01*
X166900Y187472D02*
X352472Y1900D01*
X166900Y184644D02*
X349644Y1900D01*
X277800Y195366D02*
X347669Y125498D01*
X277800Y198195D02*
X349588Y126407D01*
X277800Y192538D02*
X346426Y123911D01*
X277800Y138801D02*
Y278400D01*
X162400Y245712D02*
X269000Y139112D01*
Y121100D02*
Y327600D01*
X168754Y202588D02*
X268224Y103118D01*
X168754Y199760D02*
X266810Y101704D01*
X168519Y197167D02*
X265396Y100290D01*
X168754Y194103D02*
X263065Y99793D01*
X162400Y228742D02*
X269000Y122142D01*
X162400Y231570D02*
X269000Y124970D01*
X162400Y225913D02*
X276010Y112303D01*
X162400Y251369D02*
X269000Y144769D01*
X162400Y248541D02*
X269000Y141941D01*
X162400Y223085D02*
X275295Y110189D01*
X162400Y220256D02*
X273881Y108775D01*
X162400Y217428D02*
X272467Y107361D01*
X162400Y214599D02*
X271053Y105947D01*
X277800Y178396D02*
X329757Y126438D01*
X277800Y186881D02*
X338601Y126080D01*
X277800Y175567D02*
X327781Y125586D01*
X277800Y169910D02*
X321278Y126432D01*
X277800Y167082D02*
X318740Y126142D01*
X277800Y184052D02*
X337011Y124842D01*
X277800Y181224D02*
X336097Y122927D01*
X277800Y172739D02*
X326492Y124047D01*
X277800Y164253D02*
X317103Y124951D01*
X277800Y189709D02*
X341042Y126467D01*
X168754Y174304D02*
X341158Y1900D01*
X168754Y168647D02*
X335502Y1900D01*
X168754Y191275D02*
X261559Y98470D01*
X167908Y189293D02*
X260900Y96301D01*
X166900Y181815D02*
X346815Y1900D01*
X168754Y177132D02*
X343987Y1900D01*
X168563Y171667D02*
X338330Y1900D01*
X168754Y165819D02*
X332673Y1900D01*
X162400Y290967D02*
X269000Y184367D01*
X162400Y299452D02*
X269000Y192852D01*
X162400Y288139D02*
X269000Y181539D01*
X160246Y189293D02*
Y195833D01*
Y189293D02*
X162100D01*
X162400Y279653D02*
X269000Y173053D01*
X162400Y285310D02*
X269000Y178710D01*
X162400Y276825D02*
X269000Y170225D01*
X150015Y178300D02*
X161009Y189293D01*
X162100Y178207D02*
Y189293D01*
X145089Y200798D02*
X162100Y183787D01*
X145089Y203626D02*
X162100Y186615D01*
X148585Y185355D02*
X160397Y197167D01*
X145089Y206455D02*
X160246Y191298D01*
X148585Y188183D02*
X158775Y198373D01*
X145089Y197969D02*
X162100Y180958D01*
X148585Y191645D02*
X162023Y178207D01*
X148585Y182526D02*
X160246Y194187D01*
X148601Y179714D02*
X160246Y191358D01*
X161237Y178207D02*
X162100Y179071D01*
X160246Y178207D02*
X162100D01*
X160246Y171667D02*
X168754D01*
X160246Y177337D02*
Y178207D01*
Y171667D02*
Y172537D01*
X161848Y170333D02*
X163182Y171667D01*
X160246Y170333D02*
X168754D01*
X159208Y172537D02*
X161412Y170333D01*
X160246Y169963D02*
Y170333D01*
X154710Y177337D02*
X162100Y184727D01*
X151881Y177337D02*
X162100Y187556D01*
X157538Y177337D02*
X162100Y181899D01*
X148585Y188816D02*
X160064Y177337D01*
X150978D02*
X160246D01*
X149984Y172537D02*
X160246D01*
X158649Y169963D02*
X160353Y171667D01*
X155821Y169963D02*
X158395Y172537D01*
X156379D02*
X158953Y169963D01*
X148585Y191011D02*
X157630Y200057D01*
X146566Y191821D02*
X157600Y202855D01*
X145734Y191821D02*
X148585D01*
X145089Y192466D02*
X145734Y191821D01*
X148585Y188081D02*
Y191821D01*
Y185988D02*
X157236Y177337D01*
X148585Y184341D02*
Y186659D01*
Y182919D02*
Y184341D01*
Y186659D02*
Y188081D01*
Y186659D02*
Y188081D01*
X145089Y195141D02*
X148409Y191821D01*
X145089Y192466D02*
Y210364D01*
X140992Y189775D02*
X141257Y189510D01*
Y188400D02*
Y189510D01*
X140317Y188400D02*
X141257Y189341D01*
X140000Y188400D02*
X141257D01*
X148585Y180331D02*
X151579Y177337D01*
X148585Y183160D02*
X154408Y177337D01*
X148585Y179730D02*
X150978Y177337D01*
X148585Y182919D02*
Y184341D01*
Y179730D02*
Y182919D01*
X152992Y169963D02*
X155566Y172537D01*
X153551D02*
X156125Y169963D01*
X150164D02*
X152738Y172537D01*
X150722D02*
X153296Y169963D01*
X143224Y178303D02*
X148287Y173240D01*
X142900Y176841D02*
X143793Y177734D01*
X142900Y174013D02*
X145207Y176320D01*
X142900Y172842D02*
Y178706D01*
X143363Y171648D02*
X146621Y174906D01*
X162400Y254198D02*
X269000Y147598D01*
X162400Y265511D02*
X269000Y158911D01*
X162400Y242884D02*
X269000Y136284D01*
X162400Y273996D02*
X269000Y167397D01*
X162400Y268340D02*
X269000Y161740D01*
X162400Y234399D02*
X269000Y127798D01*
X124793Y110651D02*
X269000Y254858D01*
X162400Y211771D02*
X269638Y104533D01*
X162400Y240055D02*
X269000Y133455D01*
X162400Y237227D02*
X269000Y130627D01*
X124761Y113447D02*
X269000Y257686D01*
X61297Y1900D02*
X269000Y209603D01*
X64126Y1900D02*
X269000Y206774D01*
X121925Y116268D02*
X269000Y263343D01*
X123675Y115189D02*
X269000Y260515D01*
X55640Y1900D02*
X269000Y215260D01*
X58469Y1900D02*
X269000Y212431D01*
X49983Y1900D02*
X269000Y220917D01*
X52812Y1900D02*
X269000Y218088D01*
X136167Y167293D02*
X301560Y1900D01*
X133339Y167293D02*
X298732Y1900D01*
X142126Y164163D02*
X304389Y1900D01*
X127682Y167293D02*
X293075Y1900D01*
X130510Y167293D02*
X295903Y1900D01*
X156268Y164163D02*
X318531Y1900D01*
X159096Y164163D02*
X321359Y1900D01*
X144954Y164163D02*
X307217Y1900D01*
X153439Y164163D02*
X315703Y1900D01*
X113540Y167293D02*
X278933Y1900D01*
X111533Y166471D02*
X276104Y1900D01*
X110119Y165057D02*
X273276Y1900D01*
X75439D02*
X269000Y195461D01*
X78268Y1900D02*
X269000Y192632D01*
X124854Y167293D02*
X290247Y1900D01*
X122415Y166903D02*
X287418Y1900D01*
X116758Y166903D02*
X281761Y1900D01*
X119587Y166903D02*
X284590Y1900D01*
X69782D02*
X269000Y201118D01*
X66954Y1900D02*
X269000Y203946D01*
X72611Y1900D02*
X269000Y198289D01*
X44326Y1900D02*
X269000Y226573D01*
X47155Y1900D02*
X269000Y223745D01*
X89581Y1900D02*
X269000Y181319D01*
X86753Y1900D02*
X269000Y184147D01*
X92410Y1900D02*
X269000Y178490D01*
X81096Y1900D02*
X269000Y189804D01*
X83925Y1900D02*
X269000Y186976D01*
X27356Y1900D02*
X269000Y243544D01*
X24527Y1900D02*
X269000Y246373D01*
X30184Y1900D02*
X269000Y240716D01*
X18871Y1900D02*
X269000Y252029D01*
X21699Y1900D02*
X269000Y249201D01*
X38670Y1900D02*
X269000Y232230D01*
X41498Y1900D02*
X269000Y229402D01*
X33013Y1900D02*
X269000Y237887D01*
X35841Y1900D02*
X269000Y235059D01*
X147336Y169963D02*
X149911Y172538D01*
X144507Y169963D02*
X148036Y173492D01*
X144016Y169963D02*
X160246D01*
X142900Y172842D02*
X144016Y169963D01*
X143513Y171261D02*
X144811Y169963D01*
X142900Y177531D02*
X150468Y169963D01*
X142900Y174703D02*
X147640Y169963D01*
X120831Y126488D02*
X158506Y164163D01*
X106552Y1900D02*
X269000Y164348D01*
X114810Y123295D02*
X155678Y164163D01*
X103068Y125695D02*
X141572Y164199D01*
X112074Y126216D02*
X150021Y164163D01*
X100895Y1900D02*
X269000Y170005D01*
X103724Y1900D02*
X269000Y167176D01*
X95238Y1900D02*
X269000Y175662D01*
X98067Y1900D02*
X269000Y172833D01*
X314957Y122623D02*
X316631Y124297D01*
X314964Y121432D02*
X316547Y119849D01*
X304880Y123031D02*
X306001Y121910D01*
X304899Y121051D02*
X306003Y122155D01*
X311540Y116378D02*
X316122Y120960D01*
X314171Y119397D02*
X317897Y115671D01*
X304699Y120383D02*
X308883Y116200D01*
X302637Y115960D02*
X306540Y119863D01*
X277800Y155768D02*
X307897Y125671D01*
X277800Y158597D02*
X309932Y126464D01*
X277800Y150111D02*
X301531Y126380D01*
X277800Y147283D02*
X298883Y126199D01*
X277800Y144454D02*
X297198Y125057D01*
X277800Y161425D02*
X316134Y123091D01*
X277800Y152940D02*
X306562Y124178D01*
X294253Y119517D02*
X298017Y115753D01*
X313417Y115427D02*
X317073Y119083D01*
X312678Y118062D02*
X316562Y114178D01*
X318349Y118047D02*
X319933Y116464D01*
X308203Y115869D02*
X309877Y117543D01*
X310410Y117501D02*
X311531Y116380D01*
X314880Y113031D02*
X316001Y111910D01*
X314623Y113804D02*
X318696Y117877D01*
X314945Y111298D02*
X316015Y112368D01*
X304957Y112623D02*
X306631Y114297D01*
X305528Y110366D02*
X306122Y110960D01*
X304145Y114640D02*
X307860Y118356D01*
X303557Y118698D02*
X307198Y115057D01*
X300345Y116497D02*
X301449Y117601D01*
X293524Y115333D02*
X297167Y118976D01*
X298738Y117859D02*
X300114Y116483D01*
X301749Y117677D02*
X306177Y113249D01*
X292805Y118135D02*
X296635Y114305D01*
X294682Y113662D02*
X298838Y117818D01*
X294978Y122444D02*
X296409Y123875D01*
X294983Y121614D02*
X296359Y120238D01*
X291700Y116337D02*
X296163Y120800D01*
X284833Y120783D02*
X286000Y121951D01*
X277800Y138801D02*
X290118Y126484D01*
X277800Y141626D02*
X296177Y123249D01*
X284644Y123755D02*
X286016Y122382D01*
X273800Y128655D02*
X277296Y125160D01*
X278965Y126230D02*
X280567Y127832D01*
X284806Y123306D02*
X286001Y122111D01*
X274315Y121579D02*
X276270Y123535D01*
X288625Y116091D02*
X290056Y117522D01*
X284753Y120530D02*
X289031Y116253D01*
X290611Y117501D02*
X291806Y116306D01*
X284227Y114521D02*
X287979Y118273D01*
X284978Y112444D02*
X286409Y113875D01*
X294806Y113306D02*
X296001Y112111D01*
X294899Y111051D02*
X296003Y112155D01*
X284996Y111803D02*
X286236Y110563D01*
X282766Y115888D02*
X286612Y119735D01*
X279063Y117736D02*
X280303Y116496D01*
X280549Y116500D02*
X281716Y117668D01*
X275729Y120165D02*
X276209Y120645D01*
X278557Y117337D02*
X278984Y117763D01*
X283660Y118796D02*
X287296Y115160D01*
X281903Y117724D02*
X286224Y113403D01*
X319661Y104700D02*
X326086Y111125D01*
X311194Y104700D02*
X334406D01*
X310200Y99900D02*
X478700D01*
X317618Y97000D02*
X320517Y99900D01*
X313027Y1900D02*
X403327Y92200D01*
X308894Y97000D02*
X467400D01*
X310255Y92200D02*
X400555Y1900D01*
X319526Y99900D02*
X322426Y97000D01*
X310199Y1900D02*
X400499Y92200D01*
X280803Y107510D02*
X386413Y1900D01*
X278690Y106795D02*
X383585Y1900D01*
X277275Y105381D02*
X380756Y1900D01*
X275861Y103967D02*
X377928Y1900D01*
X274447Y102553D02*
X375099Y1900D01*
X289063Y107736D02*
X394899Y1900D01*
X307367Y92260D02*
X397727Y1900D01*
X284331Y109639D02*
X392070Y1900D01*
X282929Y108212D02*
X389242Y1900D01*
X318741Y92200D02*
X409041Y1900D01*
X318684D02*
X408984Y92200D01*
X307900D02*
X466406D01*
X315856Y1900D02*
X406156Y92200D01*
X315912D02*
X406212Y1900D01*
X307370D02*
X397670Y92200D01*
X313084D02*
X403384Y1900D01*
X301714D02*
X392014Y92200D01*
X304542Y1900D02*
X394842Y92200D01*
X284743Y1900D02*
X375043Y92200D01*
X281915Y1900D02*
X372215Y92200D01*
X287571Y1900D02*
X377871Y92200D01*
X276258Y1900D02*
X366558Y92200D01*
X279086Y1900D02*
X369386Y92200D01*
X296057Y1900D02*
X386357Y92200D01*
X298885Y1900D02*
X389185Y92200D01*
X290400Y1900D02*
X380700Y92200D01*
X293228Y1900D02*
X383528Y92200D01*
X311185Y104709D02*
X316471Y109996D01*
X314004Y104700D02*
X317745Y108442D01*
X308356Y107538D02*
X308696Y107877D01*
X309770Y106124D02*
X311202Y107555D01*
X314700Y110383D02*
X320383Y104700D01*
X313557Y108698D02*
X317554Y104700D01*
X316832D02*
X319703Y107571D01*
X308738Y107859D02*
X311897Y104700D01*
X311749Y107677D02*
X314726Y104700D01*
X304983Y111614D02*
X306359Y110238D01*
X296285Y109609D02*
X296540Y109863D01*
X294889Y111005D02*
X308894Y97000D01*
X304889Y111005D02*
X311194Y104700D01*
X291495Y107611D02*
X306203Y92903D01*
X301495Y107611D02*
X308503Y100603D01*
X313869Y99900D02*
X316769Y97000D01*
X314789D02*
X317689Y99900D01*
X307599Y98295D02*
X309357Y100053D01*
X311961Y97000D02*
X314861Y99900D01*
X316698D02*
X319598Y97000D01*
X309132D02*
X312032Y99900D01*
X311041D02*
X313941Y97000D01*
X303356Y102538D02*
X304962Y104144D01*
X301942Y103952D02*
X303548Y105558D01*
X304770Y101124D02*
X306376Y102729D01*
X299114Y106780D02*
X299877Y107543D01*
X300528Y105366D02*
X302134Y106972D01*
X300611Y107501D02*
X311112Y97000D01*
X306185Y99709D02*
X307791Y101315D01*
X211204Y1900D02*
X304205Y94901D01*
X208375Y1900D02*
X302791Y96315D01*
X214032Y1900D02*
X305619Y93487D01*
X202718Y1900D02*
X299962Y99144D01*
X205547Y1900D02*
X301376Y97729D01*
X273033Y101138D02*
X372271Y1900D01*
X271618Y99724D02*
X369443Y1900D01*
X270204Y98310D02*
X366614Y1900D01*
X268790Y96896D02*
X363786Y1900D01*
X268293Y94565D02*
X360957Y1900D01*
X167952Y163793D02*
X329845Y1900D01*
X165123Y163793D02*
X327016Y1900D01*
X188576D02*
X292891Y106215D01*
X182920Y1900D02*
X288838Y107818D01*
X185748Y1900D02*
X291449Y107601D01*
X197062Y1900D02*
X297134Y101972D01*
X199890Y1900D02*
X298548Y100558D01*
X191405Y1900D02*
X294305Y104800D01*
X194233Y1900D02*
X295720Y103386D01*
X264944Y1900D02*
X355244Y92200D01*
X264801Y92400D02*
X355300Y1900D01*
X262116D02*
X352416Y92200D01*
X256459Y1900D02*
X346759Y92200D01*
X259287Y1900D02*
X349587Y92200D01*
X270601Y1900D02*
X360901Y92200D01*
X273429Y1900D02*
X363729Y92200D01*
X266970Y93059D02*
X358129Y1900D01*
X267772D02*
X358072Y92200D01*
X225346Y1900D02*
X315646Y92200D01*
X222517Y1900D02*
X312818Y92200D01*
X228174Y1900D02*
X318474Y92200D01*
X216861Y1900D02*
X307250Y92290D01*
X219689Y1900D02*
X309989Y92200D01*
X236660Y1900D02*
X326960Y92200D01*
X247973Y1900D02*
X338273Y92200D01*
X231003Y1900D02*
X321303Y92200D01*
X233831Y1900D02*
X324131Y92200D01*
X273800Y129550D02*
X276324Y132074D01*
X273800Y134312D02*
X281806Y126306D01*
X273800Y126722D02*
X277739Y130660D01*
X160246Y163793D02*
X168754D01*
X273800Y132378D02*
X274910Y133489D01*
X273800Y131484D02*
X279030Y126253D01*
X273800Y134599D02*
X282255Y126144D01*
X273800Y123893D02*
X279153Y129246D01*
X273800Y122094D02*
Y134599D01*
Y125827D02*
X276224Y123403D01*
X160246Y163793D02*
Y164163D01*
X142030D02*
X160246D01*
X122948Y125776D02*
X160965Y163793D01*
X109390Y126361D02*
X147192Y164163D01*
X113774Y125087D02*
X152849Y164163D01*
X124342Y124342D02*
X163793Y163793D01*
X124997Y122168D02*
X166621Y163793D01*
X104417Y124216D02*
X144364Y164163D01*
X124342Y124342D02*
X163793Y163793D01*
X273800Y122094D02*
X279505Y116389D01*
X273800Y122998D02*
X276236Y120563D01*
X269703Y119403D02*
X276111Y112995D01*
X268671Y96777D02*
X279505Y107611D01*
X268698Y96163D02*
X280056Y107522D01*
X265277Y100171D02*
X276111Y111005D01*
X264203Y100154D02*
X276000Y111951D01*
X177263Y1900D02*
X286163Y110800D01*
X180091Y1900D02*
X287167Y108976D01*
X174434Y1900D02*
X264937Y92402D01*
X163120Y1900D02*
X275163Y113943D01*
X171606Y1900D02*
X262712Y93006D01*
X165949Y1900D02*
X260946Y96897D01*
X168777Y1900D02*
X261353Y94476D01*
X117866Y1900D02*
X269000Y153034D01*
X115037Y1900D02*
X269000Y155863D01*
X120694Y1900D02*
X269000Y150206D01*
X109380Y1900D02*
X269000Y161520D01*
X112209Y1900D02*
X269000Y158691D01*
X150611Y164163D02*
X312874Y1900D01*
X147783Y164163D02*
X310046Y1900D01*
X162295Y163793D02*
X324188Y1900D01*
X123522D02*
X269000Y147378D01*
X126351Y1900D02*
X269000Y144549D01*
X98598Y159608D02*
X256306Y1900D01*
X95769Y159608D02*
X253477Y1900D01*
X101426Y159608D02*
X259134Y1900D01*
X87282Y162439D02*
X247820Y1900D01*
X92941Y159608D02*
X250649Y1900D01*
X108705Y163643D02*
X270448Y1900D01*
X106996Y162523D02*
X267619Y1900D01*
X104252Y162439D02*
X264791Y1900D01*
X103632Y160230D02*
X261962Y1900D01*
X160292D02*
X273749Y115357D01*
X157464Y1900D02*
X272335Y116771D01*
X239488Y1900D02*
X329788Y92200D01*
X151807Y1900D02*
X269518Y119611D01*
X154635Y1900D02*
X270921Y118185D01*
X250802Y1900D02*
X341102Y92200D01*
X253630Y1900D02*
X343930Y92200D01*
X242317Y1900D02*
X332617Y92200D01*
X245145Y1900D02*
X335445Y92200D01*
X132008Y1900D02*
X269000Y138892D01*
X129179Y1900D02*
X269000Y141721D01*
X1900Y1900D02*
X647706D01*
X134836D02*
X269000Y136064D01*
X137665Y1900D02*
X269000Y133235D01*
X146150Y1900D02*
X269000Y124750D01*
X148978Y1900D02*
X269000Y121922D01*
X140493Y1900D02*
X269000Y130407D01*
X143322Y1900D02*
X269000Y127578D01*
X122986Y118249D02*
X239335Y1900D01*
X104867Y110912D02*
X213879Y1900D01*
X114439Y109825D02*
X222364Y1900D01*
X94509Y109956D02*
X202565Y1900D01*
X103899Y109051D02*
X211051Y1900D01*
X124999Y121893D02*
X244992Y1900D01*
X124366Y119697D02*
X242163Y1900D01*
X124638Y113769D02*
X236506Y1900D01*
X124824Y110754D02*
X233678Y1900D01*
X123804Y108945D02*
X230850Y1900D01*
X64080Y109273D02*
X171453Y1900D01*
X54637Y110230D02*
X162967Y1900D01*
X53443Y108596D02*
X160139Y1900D01*
X34696Y110373D02*
X143168Y1900D01*
X44165Y109389D02*
X151654Y1900D01*
X84904Y111076D02*
X194080Y1900D01*
X83991Y109160D02*
X191252Y1900D01*
X74575Y110091D02*
X182766Y1900D01*
X73334Y108504D02*
X179938Y1900D01*
X102263Y107860D02*
X208222Y1900D01*
X93221Y108416D02*
X199737Y1900D01*
X99727Y107567D02*
X205394Y1900D01*
X82402Y107922D02*
X188423Y1900D01*
X91246Y107562D02*
X196908Y1900D01*
X122120Y107802D02*
X228021Y1900D01*
X119474Y107618D02*
X225193Y1900D01*
X113105Y108331D02*
X219536Y1900D01*
X111071Y107536D02*
X216707Y1900D01*
X51579Y107631D02*
X157310Y1900D01*
X48317Y108065D02*
X154482Y1900D01*
X60185Y107511D02*
X165796Y1900D01*
X42668Y108057D02*
X148825Y1900D01*
X40396Y107501D02*
X145997Y1900D01*
X71415Y107594D02*
X177109Y1900D01*
X79962Y107532D02*
X185595Y1900D01*
X67718Y108463D02*
X174281Y1900D01*
X62537Y107987D02*
X168624Y1900D01*
X138711Y192451D02*
X140289Y194029D01*
X138711Y191821D02*
Y210364D01*
X132424Y191821D02*
X133911Y193308D01*
Y191821D02*
Y210364D01*
X131415Y191821D02*
X133911D01*
X140289Y191472D02*
Y210364D01*
X138711Y193034D02*
X140289Y191456D01*
X138743Y189654D02*
X140303Y191215D01*
X131415Y188400D02*
Y191821D01*
X138743Y188113D02*
Y191821D01*
X130700Y195388D02*
X133911Y192177D01*
X130700Y192926D02*
X133911Y196136D01*
X130700Y192559D02*
X131438Y191821D01*
X105459Y209315D02*
X124900Y189874D01*
X130700Y188400D02*
Y202992D01*
X103539Y188392D02*
X127247Y212100D01*
X105459Y206487D02*
X124900Y187046D01*
Y186308D02*
Y202992D01*
X103632Y180000D02*
X124900Y201268D01*
X138743Y190174D02*
X140516Y188400D01*
X130700Y190097D02*
X131415Y190812D01*
X130700Y179607D02*
Y182600D01*
X137100Y174917D02*
Y179179D01*
X131415D02*
X137100D01*
X135595D02*
X137100Y177674D01*
X131415Y179179D02*
Y182600D01*
X132767Y179179D02*
X137035Y174910D01*
X130700Y181612D02*
X131415Y182327D01*
X130700Y182600D02*
X131415D01*
X130700Y181246D02*
X131415Y180531D01*
X130700Y189731D02*
X131415Y189016D01*
X130700Y188400D02*
X131415D01*
X130521Y178604D02*
X131415Y179498D01*
X127051Y174756D02*
X129851Y177556D01*
X105748Y211854D02*
X124900Y192702D01*
X100711Y188392D02*
X124419Y212100D01*
X103632Y185657D02*
X123915Y205939D01*
X103900Y205217D02*
X123854Y185263D01*
X103900Y202389D02*
X122440Y183849D01*
X103810Y199650D02*
X121026Y182434D01*
X103632Y182828D02*
X124434Y203630D01*
X103632Y177172D02*
X124900Y198439D01*
X102613Y198019D02*
X119612Y181020D01*
X101199Y196605D02*
X117707Y180097D01*
X100400Y190910D02*
X121590Y212100D01*
X89592Y196898D02*
X95600Y190890D01*
X100400Y188392D02*
Y195806D01*
X95600Y188392D02*
Y196800D01*
X88178Y195484D02*
X95269Y188392D01*
X76639Y178462D02*
X95717Y197541D01*
X100400Y194575D02*
X115167Y179808D01*
X78053Y177048D02*
X95600Y194595D01*
X86764Y194069D02*
X92441Y188392D01*
X117871Y180097D02*
X124900Y187126D01*
X100400Y188392D02*
X103632D01*
X115167Y180097D02*
X118689D01*
X95054Y188392D02*
X95600Y188938D01*
X100400Y188918D02*
X100926Y188392D01*
X100400Y191747D02*
X115167Y176980D01*
X118689Y180097D02*
X124900Y186308D01*
X103632Y176931D02*
Y188392D01*
X103392Y176931D02*
X103632Y177172D01*
X84705Y193300D02*
X92368Y185637D01*
X81876Y193300D02*
X92368Y182808D01*
Y188392D02*
X95600D01*
X79048Y193300D02*
X92368Y179980D01*
X76219Y193300D02*
X92368Y177152D01*
X79467Y175634D02*
X95600Y191767D01*
X92368Y176931D02*
X103632D01*
X92368D02*
Y188392D01*
Y177152D02*
X92589Y176931D01*
X131963Y174389D02*
X136752Y179179D01*
X130519Y178598D02*
X134470Y174647D01*
X135115Y174713D02*
X137100Y176698D01*
X129291Y176997D02*
X131905Y174383D01*
X127877Y175583D02*
X129341Y174120D01*
X128810Y174065D02*
X133924Y179179D01*
X126377Y174255D02*
X126776Y173856D01*
X125658Y173741D02*
X126003Y174086D01*
X123833Y173907D02*
X125000D01*
X123833Y173554D02*
X137100Y174917D01*
X123897Y173907D02*
X124211Y173592D01*
X123833Y173554D02*
Y173907D01*
X123479Y173517D02*
X123833Y173554D01*
X103187Y171069D02*
X124900Y192782D01*
X103632Y168686D02*
X124900Y189954D01*
X100359Y171069D02*
X124900Y195611D01*
X115167Y173517D02*
X123479D01*
X123833Y167293D02*
X137893D01*
X123144Y173483D02*
X123479Y173517D01*
X138777Y167431D02*
X139324Y166019D01*
X123833Y166903D02*
Y167293D01*
X115167Y166903D02*
X123833D01*
X92218Y126159D02*
X133352Y167293D01*
X89649Y126419D02*
X130523Y167293D01*
X101015Y126470D02*
X139779Y165235D01*
X115167Y173483D02*
X123144D01*
X81192Y126446D02*
X121648Y166903D01*
X93870Y124982D02*
X136180Y167293D01*
X94854Y123138D02*
X138880Y167165D01*
X83185Y125611D02*
X124867Y167293D01*
X84487Y124086D02*
X127695Y167293D01*
X115167Y173517D02*
Y180097D01*
X103632Y185686D02*
X115167Y174151D01*
X110852Y173077D02*
X115167Y177392D01*
X103632Y182858D02*
X113397Y173093D01*
X113696D02*
X115167Y174564D01*
X103632Y177201D02*
X108846Y171986D01*
X103632Y180029D02*
X110618Y173043D01*
X101074Y176931D02*
X107432Y170572D01*
X97530Y171069D02*
X103392Y176931D01*
X98245D02*
X106018Y169158D01*
X94702Y171069D02*
X100563Y176931D01*
X83710Y171391D02*
X92368Y180049D01*
X95417Y176931D02*
X101278Y171069D01*
X80882Y174220D02*
X92368Y185706D01*
X82296Y172806D02*
X92368Y182878D01*
X89043Y168239D02*
X97735Y176931D01*
X92589D02*
X98450Y171069D01*
X85124Y169977D02*
X92368Y177221D01*
X86538Y168563D02*
X94906Y176931D01*
X115167Y173093D02*
Y173483D01*
Y174151D02*
X115801Y173517D01*
X111154Y173093D02*
X115167D01*
Y166903D02*
Y167293D01*
X112356D02*
X115167D01*
X105099Y168239D02*
X109104Y172244D01*
X108351Y163288D02*
X112356Y167293D01*
X103632Y168715D02*
X104109Y168239D01*
X92368Y171069D02*
X103632D01*
Y168239D02*
X105099D01*
X103632D02*
Y171069D01*
X86863Y168239D02*
X92368D01*
Y171069D01*
X91871Y168239D02*
X92368Y168735D01*
X66750Y192100D02*
Y199300D01*
X58464Y191400D02*
X90832Y223769D01*
X75250Y192100D02*
Y193300D01*
X61292Y191400D02*
X66750Y196858D01*
X64121Y191400D02*
X66750Y194029D01*
X75225Y179877D02*
X99100Y203752D01*
X73900Y181380D02*
X86073Y193553D01*
X75250Y185559D02*
X82991Y193300D01*
X75250Y191216D02*
X77334Y193300D01*
X75250Y188387D02*
X80163Y193300D01*
X52807Y191400D02*
X123200Y261793D01*
X49979Y191400D02*
X123200Y264621D01*
X55635Y191400D02*
X123200Y258965D01*
X36019Y191582D02*
X122321Y277885D01*
X27800Y230405D02*
X66750Y191455D01*
X41493Y191400D02*
X123200Y273107D01*
X44322Y191400D02*
X123200Y270278D01*
X38665Y191400D02*
X123200Y275935D01*
X47150Y191400D02*
X123200Y267450D01*
X75250Y184900D02*
Y192100D01*
X74591D02*
X75250Y191441D01*
X73900Y184900D02*
X75250D01*
X74591D02*
X75250Y185559D01*
X73900Y184209D02*
X74591Y184900D01*
X68100Y180000D02*
Y184900D01*
X73900Y181201D02*
Y184900D01*
X66750Y192100D02*
X75250D01*
X66750D02*
X75250D01*
X66750Y184900D02*
X68100D01*
X66750Y191400D02*
Y192100D01*
X59000Y191400D02*
X66750D01*
X64120Y185600D02*
X68100Y181620D01*
X67649Y184900D02*
X68100Y184449D01*
X27800Y224749D02*
X61149Y191400D01*
X27800Y227577D02*
X63977Y191400D01*
X27800Y221920D02*
X58320Y191400D01*
X27800Y204950D02*
X41350Y191400D01*
X27800Y202121D02*
X38521Y191400D01*
X27800Y216263D02*
X52663Y191400D01*
X27800Y219092D02*
X55492Y191400D01*
X27800Y213435D02*
X49835Y191400D01*
X27800Y210606D02*
X47006Y191400D01*
X27800Y207778D02*
X44178Y191400D01*
X1900Y182920D02*
X22000Y203019D01*
X1900Y185748D02*
X22000Y205848D01*
X1900Y180091D02*
X22000Y200191D01*
X1900Y191405D02*
X22000Y211505D01*
X1900Y188576D02*
X22000Y208676D01*
X1900Y216707D02*
X42503Y176104D01*
X1900Y213879D02*
X41089Y174690D01*
X1900Y211051D02*
X39675Y173276D01*
X1900Y208222D02*
X38269Y171853D01*
X60201Y185600D02*
X66750D01*
X36201Y191400D02*
X59000D01*
X66750Y184900D02*
Y185600D01*
X47150D02*
X49574Y183175D01*
X49978Y185600D02*
X50988Y184590D01*
X44321Y185600D02*
X48160Y181761D01*
X38449Y172051D02*
X51999Y185600D01*
X38664D02*
X45331Y178933D01*
X41493Y185600D02*
X46746Y180347D01*
X27800Y199801D02*
X36201Y191400D01*
X35000Y185600D02*
X51999D01*
X22849Y196549D02*
X32949Y186449D01*
X1900Y171606D02*
X24847Y194552D01*
X35836Y185600D02*
X43917Y177519D01*
X1900Y177263D02*
X22194Y197557D01*
X1900Y174434D02*
X23432Y195966D01*
X75250Y188612D02*
X92793Y171069D01*
X75250Y191441D02*
X95621Y171069D01*
X75250Y185784D02*
X92368Y168666D01*
X73900Y181477D02*
X87138Y168239D01*
X73900Y181201D02*
X86863Y168239D01*
X61292Y185600D02*
X120393Y126499D01*
X59332Y184731D02*
X118197Y125866D01*
X57918Y183317D02*
X116749Y124486D01*
X73900Y184306D02*
X89967Y168239D01*
X68949Y177949D02*
X83611Y163288D01*
X43400Y153709D02*
X68402Y178711D01*
X43400Y156537D02*
X68100Y181237D01*
X43400Y150880D02*
X69709Y177190D01*
X43400Y162194D02*
X66750Y185544D01*
X43400Y159366D02*
X68100Y184066D01*
X56504Y181903D02*
X112269Y126138D01*
X55090Y180488D02*
X109254Y126324D01*
X53675Y179074D02*
X107445Y125304D01*
X52261Y177660D02*
X106302Y123620D01*
X50847Y176246D02*
X100594Y126499D01*
X49433Y174831D02*
X98325Y125939D01*
X72358Y126098D02*
X113553Y167293D01*
X46604Y172003D02*
X92659Y125948D01*
X45190Y170589D02*
X89412Y126367D01*
X73962Y124874D02*
X115991Y166903D01*
X74893Y122976D02*
X118820Y166903D01*
X48019Y173417D02*
X96831Y124605D01*
X43776Y169175D02*
X87551Y125399D01*
X43400Y139567D02*
X75366Y171533D01*
X43400Y142395D02*
X73952Y172947D01*
X43400Y136738D02*
X76780Y170118D01*
X43400Y148052D02*
X71123Y175775D01*
X43400Y145223D02*
X72538Y174361D01*
X43400Y166722D02*
X86360Y123763D01*
X43400Y128253D02*
X81023Y165876D01*
X43400Y133910D02*
X78194Y168704D01*
X43400Y131081D02*
X79609Y167290D01*
X1900Y202565D02*
X37600Y166865D01*
X1900Y205394D02*
X37600Y169694D01*
X43400Y168799D02*
X60201Y185600D01*
X1900Y168777D02*
X26261Y193138D01*
X1900Y165949D02*
X27675Y191724D01*
X1900Y196908D02*
X37600Y161208D01*
X1900Y199737D02*
X37600Y164037D01*
X1900Y194080D02*
X37600Y158380D01*
X1900Y1900D02*
Y372116D01*
Y191252D02*
X37600Y155552D01*
X1900Y157464D02*
X31918Y187481D01*
X1900Y188423D02*
X37600Y152723D01*
X1900Y154635D02*
X33368Y186103D01*
X1900Y163120D02*
X29089Y190310D01*
X1900Y160292D02*
X30503Y188895D01*
X1900Y140493D02*
X47007Y185600D01*
X1900Y137665D02*
X49835Y185600D01*
X1900Y148978D02*
X38522Y185600D01*
X1900Y146150D02*
X41350Y185600D01*
X43400Y167851D02*
X61149Y185600D01*
X43400Y165023D02*
X63977Y185600D01*
X1900Y182766D02*
X37600Y147066D01*
X1900Y143322D02*
X44179Y185600D01*
X43400Y125441D02*
Y168799D01*
X1900Y179938D02*
X37600Y144238D01*
Y125441D02*
Y170000D01*
X1900Y174281D02*
X37600Y138581D01*
X1900Y177109D02*
X37600Y141409D01*
X1900Y171453D02*
X37600Y135753D01*
X1900Y151807D02*
X35693Y185600D01*
X1900Y185595D02*
X37600Y149895D01*
X1900Y134836D02*
X37663Y170599D01*
X1900Y168624D02*
X37600Y132924D01*
X1900Y132008D02*
X37600Y167708D01*
X1900Y165796D02*
X37600Y130096D01*
X103632Y162439D02*
X106300D01*
X90110D02*
X92368Y160181D01*
X103632Y160201D02*
X105870Y162439D01*
X103632Y159608D02*
Y162439D01*
X103039Y159608D02*
X103632Y160201D01*
X92368Y159608D02*
X103632D01*
X92368D02*
Y162439D01*
Y160181D02*
X92941Y159608D01*
X85661Y162439D02*
X92368D01*
X50116Y126484D02*
X86071Y162439D01*
X69890Y126458D02*
X103039Y159608D01*
X54927Y122809D02*
X92368Y160250D01*
X64555Y123952D02*
X100211Y159608D01*
X52495Y126034D02*
X88899Y162439D01*
X54052Y124763D02*
X91728Y162439D01*
X114638Y123769D02*
X116017Y122390D01*
X105000Y121970D02*
X106139Y123109D01*
X114682Y120339D02*
X116012Y121669D01*
X104999Y122094D02*
X106119Y120974D01*
X94518Y119974D02*
X96030Y121485D01*
X110831Y116488D02*
X112161Y117818D01*
X109474Y117619D02*
X110594Y116499D01*
X63298Y125524D02*
X97382Y159608D01*
X61363Y126417D02*
X94554Y159608D01*
X94448Y124159D02*
X96036Y122571D01*
X84994Y121763D02*
X86081Y122851D01*
X84990Y122304D02*
X86067Y121227D01*
X91015Y116471D02*
X92526Y117982D01*
X89727Y117567D02*
X90804Y116490D01*
X43400Y161065D02*
X78456Y126009D01*
X43400Y163894D02*
X80804Y126490D01*
X43400Y155408D02*
X73235Y125574D01*
X43400Y152580D02*
X69576Y126404D01*
X43400Y149752D02*
X67660Y125491D01*
X44618Y123814D02*
X83865Y163062D01*
X43409Y125433D02*
X82437Y164462D01*
X43400Y141266D02*
X58591Y126075D01*
X43400Y144095D02*
X61026Y126469D01*
X43400Y138438D02*
X57004Y124834D01*
X43400Y132781D02*
X49745Y126436D01*
X43400Y129953D02*
X47773Y125580D01*
X43400Y158237D02*
X76916Y124721D01*
X43400Y146923D02*
X66422Y123902D01*
X43400Y135609D02*
X56094Y122915D01*
X43400Y127124D02*
X46487Y124037D01*
X74074Y124735D02*
X76062Y122746D01*
X64977Y121546D02*
X66042Y122610D01*
X74235Y119490D02*
X76054Y121308D01*
X64969Y122526D02*
X66032Y121463D01*
X54936Y121245D02*
X56963Y119218D01*
X71192Y116446D02*
X73010Y118265D01*
X69963Y117532D02*
X71026Y116469D01*
X57718Y118463D02*
X59745Y116436D01*
X59890Y116458D02*
X60954Y117523D01*
X44935Y122760D02*
X46011Y121685D01*
X44948Y121315D02*
X46016Y122384D01*
X40116Y116484D02*
X41185Y117552D01*
X38317Y118065D02*
X39920Y116462D01*
X114824Y120754D02*
X119254Y116324D01*
X112948Y115776D02*
X116724Y119552D01*
X113804Y118945D02*
X117445Y115304D01*
X102074Y116216D02*
X106284Y120426D01*
X104439Y119825D02*
X108325Y115939D01*
X114342Y114342D02*
X118158Y118158D01*
X114342Y114342D02*
X118158Y118158D01*
X112120Y117802D02*
X116302Y113620D01*
X103774Y115087D02*
X107413Y118726D01*
X103105Y118331D02*
X106831Y114605D01*
X94867Y120912D02*
X99412Y116367D01*
X93068Y115695D02*
X96805Y119432D01*
X93899Y119051D02*
X97551Y115399D01*
X82218Y116159D02*
X86341Y120282D01*
X84509Y119956D02*
X88456Y116009D01*
X94417Y114216D02*
X98284Y118083D01*
X92263Y117860D02*
X96360Y113763D01*
X83870Y114982D02*
X87518Y118630D01*
X83221Y118416D02*
X86916Y114721D01*
X120890Y117517D02*
X122269Y116138D01*
X119108Y116279D02*
X120332Y117503D01*
X114997Y112168D02*
X116221Y113392D01*
X104810Y113295D02*
X109205Y117690D01*
X104448Y114159D02*
X106036Y112571D01*
X114999Y112094D02*
X116119Y110974D01*
X104682Y110339D02*
X106012Y111669D01*
X101071Y117536D02*
X102659Y115948D01*
X99391Y116361D02*
X100530Y117500D01*
X95000Y111970D02*
X96139Y113110D01*
X84854Y113138D02*
X89362Y117646D01*
X84074Y114735D02*
X86062Y112746D01*
X94990Y112304D02*
X96067Y111227D01*
X84518Y109974D02*
X86029Y111485D01*
X74904Y121076D02*
X79576Y116404D01*
X73185Y115611D02*
X76889Y119315D01*
X73991Y119160D02*
X77661Y115491D01*
X62358Y116098D02*
X66402Y120142D01*
X64575Y120091D02*
X68591Y116075D01*
X74488Y114086D02*
X78414Y118012D01*
X63963Y114874D02*
X67626Y118537D01*
X72402Y117921D02*
X76421Y113902D01*
X63334Y118504D02*
X67004Y114834D01*
X54555Y113952D02*
X58548Y117945D01*
X54080Y119273D02*
X57773Y115580D01*
X51363Y116417D02*
X56084Y121137D01*
X53298Y115524D02*
X56976Y119202D01*
X44637Y120230D02*
X48730Y116137D01*
X42495Y116034D02*
X46466Y120005D01*
X44052Y114763D02*
X47737Y118448D01*
X52537Y117987D02*
X56487Y114037D01*
X43443Y118596D02*
X47096Y114943D01*
X41579Y117631D02*
X46131Y113079D01*
X81246Y117562D02*
X83235Y115574D01*
X79649Y116419D02*
X80737Y117506D01*
X74994Y111763D02*
X76081Y112851D01*
X64893Y112976D02*
X69524Y117607D01*
X74969Y112525D02*
X76032Y111462D01*
X64235Y109490D02*
X66053Y111308D01*
X64936Y111245D02*
X66963Y109218D01*
X61415Y117594D02*
X66094Y112915D01*
X54935Y112760D02*
X56011Y111685D01*
X54977Y111546D02*
X56042Y112610D01*
X44927Y112809D02*
X49691Y117573D01*
X50185Y117511D02*
X51260Y116435D01*
X44962Y111420D02*
X46565Y109817D01*
X32627Y125965D02*
X37600Y130938D01*
X1900Y123522D02*
X37600Y159222D01*
X34138Y124648D02*
X37600Y128110D01*
X1900Y129179D02*
X37600Y164879D01*
X30330Y126497D02*
X37600Y133767D01*
X34618Y113814D02*
X38686Y117882D01*
X34165Y119389D02*
X37889Y115665D01*
X25261Y28090D02*
X106724Y109552D01*
X1900Y120694D02*
X37600Y156394D01*
X1900Y117866D02*
X37600Y153566D01*
X1900Y112209D02*
X37600Y147909D01*
X1900Y115037D02*
X37600Y150737D01*
X1900Y109380D02*
X37600Y145080D01*
X1900Y162967D02*
X37600Y127267D01*
X1900Y126351D02*
X37600Y162051D01*
X1900Y35841D02*
X76341Y110282D01*
X1900Y55640D02*
X56402Y110142D01*
X1900Y106552D02*
X37600Y142252D01*
X1900Y66954D02*
X46084Y111137D01*
X1900Y33013D02*
X77518Y108630D01*
X1900Y44326D02*
X66889Y109315D01*
X1900Y47155D02*
X63011Y108265D01*
X1900Y52812D02*
X57626Y108537D01*
X1900Y72611D02*
X37737Y108448D01*
X26824Y26824D02*
X108158Y108158D01*
X23381Y29038D02*
X102161Y107818D01*
X18159Y29473D02*
X97413Y108726D01*
X21102Y29587D02*
X99205Y107690D01*
X1900Y49983D02*
X59524Y107607D01*
X1900Y61297D02*
X48548Y107945D01*
X1900Y58469D02*
X50954Y107523D01*
X1900Y64126D02*
X46976Y109202D01*
X1900Y69782D02*
X39691Y107573D01*
X1900Y27356D02*
X82526Y107982D01*
X1900Y30184D02*
X79362Y107646D01*
X1900Y41498D02*
X68414Y108012D01*
X1900Y38670D02*
X70737Y107506D01*
X1900Y151654D02*
X27889Y125665D01*
X1900Y157310D02*
X36131Y123079D01*
X34955Y122636D02*
X36652Y124334D01*
X1900Y148825D02*
X26557Y124168D01*
X1900Y145997D02*
X26001Y121896D01*
X34962Y121420D02*
X36565Y119817D01*
X31528Y116381D02*
X36119Y120972D01*
X33409Y115433D02*
X37067Y119091D01*
X1900Y143168D02*
X28873Y116195D01*
X1900Y154482D02*
X29920Y126462D01*
X1900Y160139D02*
X37096Y124943D01*
X1900Y140340D02*
X27191Y115049D01*
X1900Y137511D02*
X26174Y113238D01*
X1900Y134683D02*
X26370Y110213D01*
X1900Y103724D02*
X37600Y139424D01*
X1900Y100895D02*
X37600Y136595D01*
X1900Y98067D02*
X26003Y122170D01*
X1900Y95238D02*
X26535Y119873D01*
X34885Y113012D02*
X36001Y111896D01*
X32668Y118057D02*
X36557Y114168D01*
X34948Y111315D02*
X36016Y112384D01*
X28166Y115848D02*
X29864Y117545D01*
X30395Y117501D02*
X31512Y116385D01*
X1900Y92410D02*
X27852Y118362D01*
X1900Y89581D02*
X26653Y114334D01*
X1900Y86753D02*
X26119Y110972D01*
X1900Y81096D02*
X28686Y107882D01*
X1900Y75439D02*
X36466Y110005D01*
X1900Y78268D02*
X31185Y107552D01*
X1900Y83925D02*
X27067Y109091D01*
X1900Y47002D02*
X19279Y29623D01*
X1900Y49830D02*
X22377Y29353D01*
X1900Y44173D02*
X16926Y29147D01*
X1900Y41345D02*
X14995Y28250D01*
X1900Y38516D02*
X13388Y27029D01*
X33549Y108691D02*
X140340Y1900D01*
X29587Y21102D02*
X117311Y108825D01*
X29473Y18159D02*
X119053Y107739D01*
X29038Y23381D02*
X116232Y110575D01*
X26824Y26824D02*
X108158Y108158D01*
X28713Y107870D02*
X134683Y1900D01*
X1900Y123369D02*
X123369Y1900D01*
X16042D02*
X121849Y107707D01*
X1900Y120541D02*
X120541Y1900D01*
X1900Y117712D02*
X117712Y1900D01*
X1900Y126198D02*
X126198Y1900D01*
X1900Y129026D02*
X129026Y1900D01*
X1900Y16042D02*
X96284Y110426D01*
X1900Y24527D02*
X86805Y109432D01*
X1900Y21699D02*
X88284Y108083D01*
X1900Y131854D02*
X131854Y1900D01*
X1900Y114884D02*
X114884Y1900D01*
X1900Y112056D02*
X112056Y1900D01*
X1900Y109227D02*
X109227Y1900D01*
X31738Y107674D02*
X137511Y1900D01*
X28090Y25261D02*
X110332Y107503D01*
X1900Y97913D02*
X97913Y1900D01*
X1900Y18871D02*
X90530Y107500D01*
X1900Y95085D02*
X95085Y1900D01*
X1900Y106399D02*
X106399Y1900D01*
X1900Y103570D02*
X103570Y1900D01*
X1900Y100742D02*
X100742Y1900D01*
X1900Y92256D02*
X92256Y1900D01*
X1900Y86600D02*
X86600Y1900D01*
X1900Y89428D02*
X89428Y1900D01*
X1900Y83771D02*
X83771Y1900D01*
X1900Y80943D02*
X80943Y1900D01*
X1900Y78114D02*
X78114Y1900D01*
X1900Y75286D02*
X75286Y1900D01*
X1900Y72457D02*
X72457Y1900D01*
X1900Y69629D02*
X69629Y1900D01*
X1900Y66801D02*
X66801Y1900D01*
X29353Y22377D02*
X49830Y1900D01*
X29147Y16926D02*
X44173Y1900D01*
X1900Y35688D02*
X12078Y25510D01*
X1900Y32860D02*
X11079Y23680D01*
X1900Y61144D02*
X61144Y1900D01*
X1900Y63972D02*
X63972Y1900D01*
X1900Y55487D02*
X55487Y1900D01*
X1900Y52658D02*
X52658Y1900D01*
X29623Y19279D02*
X47002Y1900D01*
X1900Y13214D02*
X10527Y21841D01*
X1900Y30031D02*
X10462Y21469D01*
X1900Y7557D02*
X10962Y16619D01*
X1900Y27203D02*
X10444Y18659D01*
X1900Y10385D02*
X10413Y18898D01*
X1900Y58315D02*
X58315Y1900D01*
X1900Y24374D02*
X24374Y1900D01*
X1900Y21546D02*
X21546Y1900D01*
X1900Y18717D02*
X18717Y1900D01*
X21469Y10462D02*
X30031Y1900D01*
X13214D02*
X21841Y10527D01*
X18659Y10444D02*
X27203Y1900D01*
X7557D02*
X16619Y10962D01*
X10385Y1900D02*
X18898Y10413D01*
X28250Y14995D02*
X41345Y1900D01*
X27029Y13388D02*
X38516Y1900D01*
X25510Y12078D02*
X35688Y1900D01*
X23680Y11079D02*
X32860Y1900D01*
X1900Y4728D02*
X11910Y14739D01*
X1900Y15889D02*
X15889Y1900D01*
X4728D02*
X14739Y11910D01*
X1900Y7404D02*
X7404Y1900D01*
X1900Y4575D02*
X4575Y1900D01*
X1900D02*
X13176Y13176D01*
X1900Y1900D02*
X13176Y13176D01*
X1900Y13060D02*
X13060Y1900D01*
X1900Y10232D02*
X10232Y1900D01*
D41*
X420362Y76000D02*
X426000D01*
X414700Y23338D02*
Y70338D01*
X420362Y76000D01*
X550230Y75270D02*
X553723D01*
X550000Y15500D02*
X550230Y15730D01*
X535750Y90416D02*
X549400Y76766D01*
X474494Y317000D02*
X546547Y244947D01*
X554136Y15730D02*
X559300Y20894D01*
X535750Y194669D02*
X543000Y201919D01*
X549400Y76425D02*
X550000Y75825D01*
X490200Y332294D02*
Y348300D01*
X486500Y352000D02*
X490200Y348300D01*
X543000Y223500D02*
X546547Y227047D01*
X550000Y75500D02*
X550230Y75270D01*
X543000Y201919D02*
Y223500D01*
X471000Y317000D02*
X474906D01*
X550230Y15730D02*
X554136D01*
X546547Y227047D02*
Y244947D01*
X474906Y317000D02*
X490200Y332294D01*
X535750Y90416D02*
Y194669D01*
X549400Y76425D02*
Y76766D01*
X506500Y340000D02*
X560500Y286000D01*
X506500Y340000D02*
Y352000D01*
X570500Y106000D02*
Y286000D01*
X550000Y85500D02*
X570500Y106000D01*
X559300Y20894D02*
Y69694D01*
X553723Y75270D02*
X559300Y69694D01*
X550000Y75500D02*
Y75825D01*
X414700Y23338D02*
X421809Y16230D01*
X425770D02*
X426000Y16000D01*
X421809Y16230D02*
X425770D01*
D42*
X125600Y340600D02*
X160000Y306200D01*
X120700Y345500D02*
X125600Y340600D01*
X304000Y351500D02*
X309000Y346500D01*
X274000Y351500D02*
X304000D01*
X274000Y330200D02*
Y351500D01*
X271400Y327600D02*
X274000Y330200D01*
X271400Y121100D02*
Y327600D01*
Y121100D02*
X280500Y112000D01*
X160000Y200437D02*
Y306200D01*
Y200437D02*
X164500D01*
X441000Y293000D02*
X465300Y268700D01*
Y258000D02*
Y268700D01*
X370500Y163200D02*
X465300Y258000D01*
X370500Y122000D02*
Y163200D01*
X330500Y112000D02*
X336400Y106100D01*
X485000D01*
X504964Y86136D01*
Y30911D02*
Y86136D01*
X136311Y190472D02*
Y214500D01*
X135079Y189240D02*
X136311Y190472D01*
X105000Y214500D02*
X136311D01*
X101500Y211000D02*
X105000Y214500D01*
X101500Y200300D02*
Y211000D01*
X98000Y196800D02*
X101500Y200300D01*
X98000Y182661D02*
Y196800D01*
X142689Y191472D02*
Y214500D01*
Y191472D02*
X144921Y189240D01*
X309000Y346500D02*
X314000Y351500D01*
X375000D01*
X460500Y266000D01*
X476000Y16000D02*
X500053D01*
X514964Y30911D01*
X467400Y94600D02*
X476000Y86000D01*
X307900Y94600D02*
X467400D01*
X290500Y112000D02*
X307900Y94600D01*
X300500Y112000D02*
X310200Y102300D01*
X481000D01*
X481100Y102200D01*
Y81100D02*
Y102200D01*
X476000Y76000D02*
X481100Y81100D01*
X264800Y96300D02*
X280500Y112000D01*
X460000Y124000D02*
Y235500D01*
X460500Y236000D01*
X93232Y211000D02*
Y224632D01*
X125600Y257000D01*
Y340600D01*
X93232Y203932D02*
Y211000D01*
X85000Y195700D02*
X93232Y203932D01*
X71000Y195700D02*
X85000D01*
X144921Y180000D02*
Y181760D01*
Y180000D02*
X149984Y174937D01*
X164500D01*
X476000Y26000D02*
Y36000D01*
X600000Y25500D02*
Y35500D01*
X441000Y293000D02*
Y317000D01*
X164500Y174937D02*
Y192563D01*
X476000Y56000D02*
Y66000D01*
X600000Y55500D02*
Y65500D01*
D43*
X127800Y185107D02*
Y205600D01*
Y179607D02*
Y185107D01*
X128193Y185500D01*
X119500Y176807D02*
X127800Y185107D01*
X59000Y188500D02*
X71000D01*
X35000D02*
X59000D01*
X280500Y328000D02*
X299000Y346500D01*
X280500Y292000D02*
Y328000D01*
X274900Y286400D02*
X280500Y292000D01*
X274900Y137600D02*
Y286400D01*
Y137600D02*
X290500Y122000D01*
X119500Y170193D02*
X140000Y172300D01*
X142030Y167063D01*
X164500D01*
X119500Y176807D02*
X125000D01*
X127800Y179607D01*
X71000Y180000D02*
Y188500D01*
Y180000D02*
X85661Y165339D01*
X98000D01*
X119500Y170193D02*
X137893D01*
X140000Y172300D01*
Y185500D01*
X144921D01*
X128193D02*
X135079D01*
X40500Y122000D02*
Y170000D01*
X59000Y188500D01*
X24900Y286400D02*
X30500Y292000D01*
X24900Y198600D02*
Y286400D01*
Y198600D02*
X35000Y188500D01*
X111154Y170193D02*
X119500D01*
X106300Y165339D02*
X111154Y170193D01*
X98000Y165339D02*
X106300D01*
D44*
X524964Y30911D02*
D03*
D45*
X426000Y36000D02*
D03*
Y86000D02*
D03*
Y76000D02*
D03*
Y66000D02*
D03*
Y56000D02*
D03*
Y46000D02*
D03*
Y26000D02*
D03*
Y16000D02*
D03*
X476000Y36000D02*
D03*
Y86000D02*
D03*
Y76000D02*
D03*
Y66000D02*
D03*
Y56000D02*
D03*
Y46000D02*
D03*
Y26000D02*
D03*
Y16000D02*
D03*
X550500Y286000D02*
D03*
X560500D02*
D03*
X570500D02*
D03*
X530500Y336000D02*
D03*
X590500D02*
D03*
X530500Y346000D02*
D03*
X590500D02*
D03*
X486500Y352000D02*
D03*
X506500D02*
D03*
X280500Y282000D02*
D03*
X290500D02*
D03*
X310500D02*
D03*
X320500D02*
D03*
X330500D02*
D03*
X340500D02*
D03*
X350500D02*
D03*
X360500D02*
D03*
X370500D02*
D03*
X300500D02*
D03*
X280500Y292000D02*
D03*
X290500D02*
D03*
X310500D02*
D03*
X320500D02*
D03*
X330500D02*
D03*
X340500D02*
D03*
X350500D02*
D03*
X360500D02*
D03*
X370500D02*
D03*
X300500D02*
D03*
X280500Y112000D02*
D03*
X290500D02*
D03*
X310500D02*
D03*
X320500D02*
D03*
X330500D02*
D03*
X340500D02*
D03*
X350500D02*
D03*
X360500D02*
D03*
X370500D02*
D03*
X300500D02*
D03*
X280500Y122000D02*
D03*
X290500D02*
D03*
X310500D02*
D03*
X320500D02*
D03*
X330500D02*
D03*
X340500D02*
D03*
X350500D02*
D03*
X360500D02*
D03*
X370500D02*
D03*
X300500D02*
D03*
X30500Y282000D02*
D03*
X40500D02*
D03*
X60500D02*
D03*
X70500D02*
D03*
X80500D02*
D03*
X90500D02*
D03*
X100500D02*
D03*
X110500D02*
D03*
X120500D02*
D03*
X50500D02*
D03*
X30500Y292000D02*
D03*
X40500D02*
D03*
X60500D02*
D03*
X70500D02*
D03*
X80500D02*
D03*
X90500D02*
D03*
X100500D02*
D03*
X110500D02*
D03*
X120500D02*
D03*
X50500D02*
D03*
X30500Y112000D02*
D03*
X40500D02*
D03*
X60500D02*
D03*
X70500D02*
D03*
X80500D02*
D03*
X90500D02*
D03*
X100500D02*
D03*
X110500D02*
D03*
X120500D02*
D03*
X50500D02*
D03*
X30500Y122000D02*
D03*
X40500D02*
D03*
X60500D02*
D03*
X70500D02*
D03*
X80500D02*
D03*
X90500D02*
D03*
X100500D02*
D03*
X110500D02*
D03*
X120500D02*
D03*
X50500D02*
D03*
X550000Y35500D02*
D03*
Y85500D02*
D03*
Y75500D02*
D03*
Y65500D02*
D03*
Y55500D02*
D03*
Y45500D02*
D03*
Y25500D02*
D03*
Y15500D02*
D03*
X600000Y35500D02*
D03*
Y85500D02*
D03*
Y75500D02*
D03*
Y65500D02*
D03*
Y55500D02*
D03*
Y45500D02*
D03*
Y25500D02*
D03*
Y15500D02*
D03*
D46*
X547500Y178200D02*
D03*
X488400D02*
D03*
X629500Y354000D02*
D03*
X20000Y20000D02*
D03*
Y354000D02*
D03*
X629500Y20000D02*
D03*
D47*
X319000Y346500D02*
D03*
X553000Y223500D02*
D03*
D48*
X309000Y346500D02*
D03*
X299000D02*
D03*
X289000D02*
D03*
X279000D02*
D03*
X269000D02*
D03*
X543000Y223500D02*
D03*
X533000D02*
D03*
X523000D02*
D03*
X513000D02*
D03*
X503000D02*
D03*
X493000D02*
D03*
X483000D02*
D03*
D49*
X509500Y253000D02*
D03*
X479500D02*
D03*
X460500Y236000D02*
D03*
Y266000D02*
D03*
X471000Y293000D02*
D03*
X441000D02*
D03*
Y317000D02*
D03*
X471000D02*
D03*
D50*
X120700Y345500D02*
D03*
X110857D02*
D03*
X102983D02*
D03*
X93141D02*
D03*
D51*
X132787Y356169D02*
D03*
X81054D02*
D03*
D52*
X514500Y81500D02*
D03*
Y51500D02*
D03*
D53*
X264800Y96300D02*
D03*
X460000Y124000D02*
D03*
X127800Y205600D02*
D03*
M02*
