M48
;Layer_Color=9474304
;FILE_FORMAT=2:5
INCH,LZ
;TYPE=PLATED
T1F00S00C0.02756
T2F00S00C0.02800
T3F00S00C0.03346
T4F00S00C0.03543
T5F00S00C0.03940
T6F00S00C0.04016
T7F00S00C0.04500
T8F00S00C0.09843
T9F00S00C0.11811
%
T01
X05145Y00515
Y00815
T02
X046Y0124
X02648Y00963
X01278Y02056
T03
X04605Y0236
Y0266
X04795Y0253
X05095
X0471Y0293
Y0317
X0441
Y0293
T04
X0269Y03465
X0279
X0289
X0299
X0309
X0319
X0483Y02235
X0493
X0503
X0513
X0523
X0533
X0543
X0553
T05
X0426Y0016
Y0026
Y0036
Y0046
Y0056
X0476
Y0046
Y0036
Y0026
Y0016
X055Y00155
Y00255
Y00355
Y00455
Y00555
X06
Y00455
Y00355
Y00255
Y00155
Y00655
Y00755
Y00855
X055
Y00755
Y00655
X0476Y0066
Y0076
Y0086
X0426
Y0076
Y0066
X03705Y0112
Y0122
X03605
Y0112
X03505
X03405
X03305
X03205
X03105
X03005
X02905
X02805
Y0122
X02905
X03005
X03105
X03205
X03305
X03405
X03505
X01205
Y0112
X01105
X01005
X00905
X00805
X00705
X00605
Y0122
X00705
X00805
X00905
X01005
X01105
X00505
Y0112
X00405
X00305
Y0122
X00405
Y0282
X00305
Y0292
X00405
X00505
Y0282
X00605
X00705
X00805
X00905
X01005
X01105
X01205
Y0292
X01105
X01005
X00905
X00805
X00705
X00605
X02805
Y0282
X02905
X03005
X03105
X03205
X03305
X03405
X03505
X03605
Y0292
X03505
X03405
X03305
X03205
X03105
X03005
X02905
X03705
Y0282
X04865Y0352
X05065
X05305Y0346
Y0336
X05905
Y0346
X05705Y0286
X05605
X05505
T06
X0093141Y03455
X0102983
X0110857
X01207
T07
X0504964Y0010911
X0524964
Y0030911
X0514964
X0504964
T08
X0081054Y0356169
X0132787
T09
X002Y002
X06295
X05475Y01782
X04884
X002Y0354
X06295
M30
