G04*
G04 #@! TF.GenerationSoftware,Altium Limited,Altium Designer,20.0.9 (164)*
G04*
G04 Layer_Physical_Order=2*
G04 Layer_Color=16711680*
%FSLAX25Y25*%
%MOIN*%
G70*
G01*
G75*
%ADD12C,0.01000*%
%ADD31C,0.07000*%
%ADD40C,0.00800*%
%ADD41C,0.05000*%
%ADD42C,0.02000*%
%ADD43C,0.03000*%
%ADD44R,0.07000X0.07000*%
%ADD45C,0.06200*%
%ADD46C,0.16500*%
%ADD47R,0.05906X0.05906*%
%ADD48C,0.05906*%
%ADD49C,0.05512*%
%ADD50C,0.06614*%
%ADD51C,0.14764*%
%ADD52C,0.04724*%
%ADD53C,0.05000*%
D12*
X570500Y286000D02*
Y290100D01*
X566400Y286000D02*
X570500D01*
X574600D01*
X570500Y281900D02*
Y286000D01*
X471000Y289244D02*
Y293000D01*
Y296756D01*
X467244Y293000D02*
X471000D01*
X550000Y85500D02*
X554100D01*
X550000D02*
Y89600D01*
Y81400D02*
Y85500D01*
X514500Y78138D02*
Y81500D01*
X421900Y86000D02*
X426000D01*
X127800Y205600D02*
X131300D01*
X124300D02*
X127800D01*
Y209100D01*
Y202100D02*
Y205600D01*
D31*
X504964Y10911D02*
D03*
X524964D02*
D03*
X504964Y30911D02*
D03*
X514964D02*
D03*
D40*
X639150Y354000D02*
G03*
X639150Y354000I-9650J0D01*
G01*
X595000Y346000D02*
G03*
X595000Y346000I-4500J0D01*
G01*
Y336000D02*
G03*
X595000Y336000I-4500J0D01*
G01*
X575000Y286000D02*
G03*
X570118Y290484I-4500J0D01*
G01*
X565551Y295051D02*
G03*
X563500Y295900I-2051J-2051D01*
G01*
X565551Y295051D02*
G03*
X563500Y295900I-2051J-2051D01*
G01*
X565000Y286000D02*
G03*
X564644Y287755I-4500J0D01*
G01*
X566016Y286383D02*
G03*
X575000Y286000I4484J-383D01*
G01*
X558645Y290100D02*
G03*
X565000Y286000I1855J-4100D01*
G01*
X548645Y290100D02*
G03*
X555000Y286000I1855J-4100D01*
G01*
D02*
G03*
X552355Y290100I-4500J0D01*
G01*
X535000Y346000D02*
G03*
X535000Y346000I-4500J0D01*
G01*
Y336000D02*
G03*
X535000Y336000I-4500J0D01*
G01*
X511000Y352000D02*
G03*
X511000Y352000I-4500J0D01*
G01*
X537353Y223500D02*
G03*
X532129Y227765I-4353J0D01*
G01*
X547353Y223500D02*
G03*
X547353Y223500I-4353J0D01*
G01*
X535400Y219869D02*
G03*
X537353Y223500I-2400J3631D01*
G01*
X525197Y254697D02*
G03*
X523500Y255400I-1697J-1697D01*
G01*
X525197Y254697D02*
G03*
X523500Y255400I-1697J-1697D01*
G01*
X523797Y236097D02*
G03*
X522100Y236800I-1697J-1697D01*
G01*
X523797Y236097D02*
G03*
X522100Y236800I-1697J-1697D01*
G01*
X527353Y223500D02*
G03*
X522129Y227765I-4353J0D01*
G01*
X528735Y224371D02*
G03*
X530600Y219869I4265J-871D01*
G01*
X518735Y224371D02*
G03*
X527353Y223500I4265J-871D01*
G01*
X557150Y178200D02*
G03*
X557150Y178200I-9650J0D01*
G01*
X534697Y190203D02*
G03*
X535400Y191900I-1697J1697D01*
G01*
X534697Y190203D02*
G03*
X535400Y191900I-1697J1697D01*
G01*
X512893Y255400D02*
G03*
X508798Y257096I-3393J-2400D01*
G01*
X505404Y253702D02*
G03*
X512893Y250600I4096J-702D01*
G01*
X517353Y223500D02*
G03*
X517353Y223500I-4353J0D01*
G01*
X498197Y267697D02*
G03*
X496500Y268400I-1697J-1697D01*
G01*
X498197Y267697D02*
G03*
X496500Y268400I-1697J-1697D01*
G01*
X507353Y223500D02*
G03*
X507353Y223500I-4353J0D01*
G01*
X497353D02*
G03*
X497353Y223500I-4353J0D01*
G01*
X498050Y178200D02*
G03*
X498050Y178200I-9650J0D01*
G01*
X491000Y352000D02*
G03*
X491000Y352000I-4500J0D01*
G01*
X475156Y317000D02*
G03*
X466844Y316946I-4156J0D01*
G01*
X470946Y312844D02*
G03*
X475156Y317000I54J4156D01*
G01*
X445156D02*
G03*
X445156Y317000I-4156J0D01*
G01*
X458100Y301200D02*
G03*
X460151Y302049I0J2900D01*
G01*
X458100Y301200D02*
G03*
X460151Y302049I0J2900D01*
G01*
X473977Y295900D02*
G03*
X466844Y292946I-2977J-2900D01*
G01*
X445156Y293000D02*
G03*
X445156Y293000I-4156J0D01*
G01*
X470946Y288844D02*
G03*
X473977Y290100I54J4156D01*
G01*
X375000Y292000D02*
G03*
X375000Y292000I-4500J0D01*
G01*
X365000D02*
G03*
X365000Y292000I-4500J0D01*
G01*
X355000D02*
G03*
X355000Y292000I-4500J0D01*
G01*
X345000D02*
G03*
X345000Y292000I-4500J0D01*
G01*
X335000D02*
G03*
X335000Y292000I-4500J0D01*
G01*
X483596Y252298D02*
G03*
X483656Y253000I-4096J702D01*
G01*
D02*
G03*
X480202Y248904I-4156J0D01*
G01*
X487353Y223500D02*
G03*
X487353Y223500I-4353J0D01*
G01*
X463893Y268400D02*
G03*
X463893Y263600I-3393J-2400D01*
G01*
X464596Y235298D02*
G03*
X464656Y236000I-4096J702D01*
G01*
X464003Y229103D02*
G03*
X465700Y228400I1697J1697D01*
G01*
X464003Y229103D02*
G03*
X465700Y228400I1697J1697D01*
G01*
X421000Y240100D02*
G03*
X423051Y240949I0J2900D01*
G01*
X421000Y240100D02*
G03*
X423051Y240949I0J2900D01*
G01*
X464656Y236000D02*
G03*
X461202Y231904I-4156J0D01*
G01*
X471200Y127700D02*
G03*
X472897Y128403I0J2400D01*
G01*
X471200Y127700D02*
G03*
X472897Y128403I0J2400D01*
G01*
X463900Y124000D02*
G03*
X461233Y127700I-3900J0D01*
G01*
X456129Y124477D02*
G03*
X463900Y124000I3871J-477D01*
G01*
X375000Y282000D02*
G03*
X375000Y282000I-4500J0D01*
G01*
X365000D02*
G03*
X365000Y282000I-4500J0D01*
G01*
X355000D02*
G03*
X355000Y282000I-4500J0D01*
G01*
X345000D02*
G03*
X345000Y282000I-4500J0D01*
G01*
X335000D02*
G03*
X335000Y282000I-4500J0D01*
G01*
X375000Y122000D02*
G03*
X374100Y124700I-4500J0D01*
G01*
X366900D02*
G03*
X375000Y122000I3600J-2700D01*
G01*
X356900Y124700D02*
G03*
X365000Y122000I3600J-2700D01*
G01*
D02*
G03*
X364100Y124700I-4500J0D01*
G01*
X355000Y122000D02*
G03*
X354100Y124700I-4500J0D01*
G01*
X346900D02*
G03*
X355000Y122000I3600J-2700D01*
G01*
X336900Y124700D02*
G03*
X345000Y122000I3600J-2700D01*
G01*
D02*
G03*
X344100Y124700I-4500J0D01*
G01*
X335000Y122000D02*
G03*
X334100Y124700I-4500J0D01*
G01*
X326900D02*
G03*
X335000Y122000I3600J-2700D01*
G01*
X325000D02*
G03*
X324100Y124700I-4500J0D01*
G01*
X604500Y75500D02*
G03*
X599005Y79889I-4500J0D01*
G01*
X604500Y85500D02*
G03*
X599005Y89889I-4500J0D01*
G01*
X595611Y86495D02*
G03*
X604500Y85500I4389J-995D01*
G01*
X595611Y76495D02*
G03*
X604500Y75500I4389J-995D01*
G01*
X575197Y113697D02*
G03*
X573500Y114400I-1697J-1697D01*
G01*
X575197Y113697D02*
G03*
X573500Y114400I-1697J-1697D01*
G01*
X604500Y65500D02*
G03*
X604500Y65500I-4500J0D01*
G01*
Y55500D02*
G03*
X604500Y55500I-4500J0D01*
G01*
X554500Y85500D02*
G03*
X547755Y89400I-4500J0D01*
G01*
X549679Y81011D02*
G03*
X554500Y85500I321J4489D01*
G01*
Y75500D02*
G03*
X550754Y79936I-4500J0D01*
G01*
X518500Y89400D02*
G03*
X515742Y88258I0J-3900D01*
G01*
X518500Y89400D02*
G03*
X515742Y88258I0J-3900D01*
G01*
X511742Y78742D02*
G03*
X517258Y78742I2758J2758D01*
G01*
X511742D02*
G03*
X517258Y78742I2758J2758D01*
G01*
X545816Y73844D02*
G03*
X554500Y75500I4184J1656D01*
G01*
Y65500D02*
G03*
X554500Y65500I-4500J0D01*
G01*
Y55500D02*
G03*
X554500Y55500I-4500J0D01*
G01*
X604500Y45500D02*
G03*
X604500Y45500I-4500J0D01*
G01*
Y35500D02*
G03*
X604500Y35500I-4500J0D01*
G01*
X639150Y20000D02*
G03*
X639150Y20000I-9650J0D01*
G01*
X596193Y23100D02*
G03*
X604500Y25500I3807J2400D01*
G01*
D02*
G03*
X596193Y27900I-4500J0D01*
G01*
X604500Y15500D02*
G03*
X595611Y14505I-4500J0D01*
G01*
X599005Y11111D02*
G03*
X604500Y15500I995J4389D01*
G01*
X589900Y3000D02*
G03*
X591597Y3703I0J2400D01*
G01*
X589900Y3000D02*
G03*
X591597Y3703I0J2400D01*
G01*
X554500Y45500D02*
G03*
X554500Y45500I-4500J0D01*
G01*
Y35500D02*
G03*
X554500Y35500I-4500J0D01*
G01*
X553807Y27900D02*
G03*
X546193Y27900I-3807J-2400D01*
G01*
Y23100D02*
G03*
X553807Y23100I3807J2400D01*
G01*
X519313Y28655D02*
G03*
X519864Y30911I-4350J2256D01*
G01*
X510600Y51500D02*
G03*
X518400Y51500I3900J0D01*
G01*
X519864Y30911D02*
G03*
X517220Y26561I-4900J0D01*
G01*
X528678Y23803D02*
G03*
X530375Y23100I1697J1697D01*
G01*
X528678Y23803D02*
G03*
X530375Y23100I1697J1697D01*
G01*
X515553Y19100D02*
G03*
X517250Y19803I0J2400D01*
G01*
X515553Y19100D02*
G03*
X517250Y19803I0J2400D01*
G01*
X554500Y15500D02*
G03*
X554500Y15500I-4500J0D01*
G01*
X528750Y7800D02*
G03*
X529864Y10911I-3786J3111D01*
G01*
D02*
G03*
X521178Y7800I-4900J0D01*
G01*
X496758Y104758D02*
G03*
X494000Y105900I-2758J-2758D01*
G01*
X496758Y104758D02*
G03*
X494000Y105900I-2758J-2758D01*
G01*
X479291Y97558D02*
G03*
X478612Y98100I-2758J-2758D01*
G01*
X479291Y97558D02*
G03*
X478612Y98100I-2758J-2758D01*
G01*
X442000Y105900D02*
G03*
X439242Y104758I0J-3900D01*
G01*
X442000Y105900D02*
G03*
X439242Y104758I0J-3900D01*
G01*
X486499Y88816D02*
G03*
X485358Y91492I-3899J-82D01*
G01*
X486499Y88816D02*
G03*
X485358Y91492I-3899J-82D01*
G01*
X475364Y90455D02*
G03*
X480112Y84172I636J-4455D01*
G01*
X480500Y76000D02*
G03*
X480500Y76000I-4500J0D01*
G01*
X423688Y79861D02*
G03*
X430485Y75636I2312J-3861D01*
G01*
X424830Y90345D02*
G03*
X425364Y81545I1170J-4345D01*
G01*
X377712Y114400D02*
G03*
X376015Y113697I0J-2400D01*
G01*
X377712Y114400D02*
G03*
X376015Y113697I0J-2400D01*
G01*
X374955Y112636D02*
G03*
X366900Y109300I-4455J-636D01*
G01*
X355831Y112893D02*
G03*
X354736Y113520I-1697J-1697D01*
G01*
X355831Y112893D02*
G03*
X354736Y113520I-1697J-1697D01*
G01*
X365000Y112000D02*
G03*
X356051Y112674I-4500J0D01*
G01*
X364100Y109300D02*
G03*
X365000Y112000I-3600J2700D01*
G01*
X354736Y113520D02*
G03*
X353387Y108549I-4236J-1520D01*
G01*
X345000Y112000D02*
G03*
X345000Y112000I-4500J0D01*
G01*
X335000D02*
G03*
X335000Y112000I-4500J0D01*
G01*
X353456Y108480D02*
G03*
X353703Y108191I1944J1408D01*
G01*
X353456Y108480D02*
G03*
X353703Y108191I1944J1408D01*
G01*
X324889Y111005D02*
G03*
X325000Y112000I-4389J995D01*
G01*
X373855Y101500D02*
G03*
X375552Y102203I0J2400D01*
G01*
X373855Y101500D02*
G03*
X375552Y102203I0J2400D01*
G01*
X326903D02*
G03*
X328600Y101500I1697J1697D01*
G01*
X326903Y102203D02*
G03*
X328600Y101500I1697J1697D01*
G01*
X509864Y30911D02*
G03*
X509864Y30911I-4900J0D01*
G01*
X480500Y66000D02*
G03*
X480500Y66000I-4500J0D01*
G01*
Y46000D02*
G03*
X480500Y46000I-4500J0D01*
G01*
Y56000D02*
G03*
X480500Y56000I-4500J0D01*
G01*
X480389Y25005D02*
G03*
X480500Y26000I-4389J995D01*
G01*
X478803Y19803D02*
G03*
X480500Y19100I1697J1697D01*
G01*
X478803Y19803D02*
G03*
X480500Y19100I1697J1697D01*
G01*
Y36000D02*
G03*
X480500Y36000I-4500J0D01*
G01*
Y26000D02*
G03*
X472193Y28400I-4500J0D01*
G01*
Y23600D02*
G03*
X476995Y21611I3807J2400D01*
G01*
X509864Y10911D02*
G03*
X501178Y7800I-4900J0D01*
G01*
X508749D02*
G03*
X509864Y10911I-3786J3111D01*
G01*
X480500Y16000D02*
G03*
X476995Y11611I-4500J0D01*
G01*
X484903Y3703D02*
G03*
X486600Y3000I1697J1697D01*
G01*
X480389Y15005D02*
G03*
X480500Y16000I-4389J995D01*
G01*
X484903Y3703D02*
G03*
X486600Y3000I1697J1697D01*
G01*
X430500Y46000D02*
G03*
X430500Y46000I-4500J0D01*
G01*
Y66000D02*
G03*
X430500Y66000I-4500J0D01*
G01*
Y56000D02*
G03*
X430500Y56000I-4500J0D01*
G01*
Y36000D02*
G03*
X430500Y36000I-4500J0D01*
G01*
X422193Y23600D02*
G03*
X429807Y23600I3807J2400D01*
G01*
X430500Y16000D02*
G03*
X430500Y16000I-4500J0D01*
G01*
X429807Y28400D02*
G03*
X422193Y28400I-3807J-2400D01*
G01*
X313353Y346500D02*
G03*
X313353Y346500I-4353J0D01*
G01*
X303353D02*
G03*
X298755Y350846I-4353J0D01*
G01*
X294654Y346745D02*
G03*
X303353Y346500I4346J-245D01*
G01*
X285697Y353197D02*
G03*
X284000Y353900I-1697J-1697D01*
G01*
X285697Y353197D02*
G03*
X284000Y353900I-1697J-1697D01*
G01*
X280651Y368951D02*
G03*
X278600Y369800I-2051J-2051D01*
G01*
X280651Y368951D02*
G03*
X278600Y369800I-2051J-2051D01*
G01*
X291069Y350329D02*
G03*
X288129Y350765I-2069J-3829D01*
G01*
X293353Y346500D02*
G03*
X292829Y348569I-4353J0D01*
G01*
X284735Y347371D02*
G03*
X293353Y346500I4265J-871D01*
G01*
X275509Y349100D02*
G03*
X275302Y348796I3491J-2600D01*
G01*
D02*
G03*
X273600Y346500I698J-2296D01*
G01*
X283353D02*
G03*
X282491Y349100I-4353J0D01*
G01*
X278400Y342189D02*
G03*
X283353Y346500I600J4311D01*
G01*
X275302Y348796D02*
G03*
X273600Y346500I698J-2296D01*
G01*
X292600Y307000D02*
G03*
X290549Y306151I0J-2900D01*
G01*
X292600Y307000D02*
G03*
X290549Y306151I0J-2900D01*
G01*
X277800Y318513D02*
G03*
X278400Y320100I-1800J1587D01*
G01*
X277800Y318513D02*
G03*
X278400Y320100I-1800J1587D01*
G01*
X273353Y346500D02*
G03*
X272491Y349100I-4353J0D01*
G01*
X266400Y343009D02*
G03*
X273353Y346500I2600J3491D01*
G01*
X264000Y353900D02*
G03*
X261600Y351500I0J-2400D01*
G01*
X264000Y353900D02*
G03*
X261600Y351500I0J-2400D01*
G01*
X273600Y321087D02*
G03*
X273000Y319500I1800J-1587D01*
G01*
X273600Y321087D02*
G03*
X273000Y319500I1800J-1587D01*
G01*
X325000Y292000D02*
G03*
X325000Y292000I-4500J0D01*
G01*
X315000D02*
G03*
X315000Y292000I-4500J0D01*
G01*
X305000D02*
G03*
X305000Y292000I-4500J0D01*
G01*
X315000Y282000D02*
G03*
X306111Y281005I-4500J0D01*
G01*
X305000Y282000D02*
G03*
X296111Y281005I-4500J0D01*
G01*
X295000Y292000D02*
G03*
X288745Y296144I-4500J0D01*
G01*
X286356Y293755D02*
G03*
X295000Y292000I4144J-1755D01*
G01*
X285000D02*
G03*
X284984Y292383I-4500J0D01*
G01*
X280883Y296484D02*
G03*
X277800Y295600I-383J-4484D01*
G01*
Y288400D02*
G03*
X285000Y292000I2700J3600D01*
G01*
Y282000D02*
G03*
X277800Y285600I-4500J0D01*
G01*
X309505Y277611D02*
G03*
X315000Y282000I995J4389D01*
G01*
X294100Y279300D02*
G03*
X295000Y282000I-3600J2700D01*
G01*
X325000D02*
G03*
X325000Y282000I-4500J0D01*
G01*
X299505Y277611D02*
G03*
X305000Y282000I995J4389D01*
G01*
X295000D02*
G03*
X286900Y279300I-4500J0D01*
G01*
X284100D02*
G03*
X285000Y282000I-3600J2700D01*
G01*
X302400Y271500D02*
G03*
X304097Y272203I0J2400D01*
G01*
X302400Y271500D02*
G03*
X304097Y272203I0J2400D01*
G01*
X261600Y282300D02*
G03*
X262303Y280603I2400J0D01*
G01*
X261600Y282300D02*
G03*
X262303Y280603I2400J0D01*
G01*
X270703Y272203D02*
G03*
X272400Y271500I1697J1697D01*
G01*
X270703Y272203D02*
G03*
X272400Y271500I1697J1697D01*
G01*
X141569Y356169D02*
G03*
X136761Y364000I-8782J0D01*
G01*
X128812D02*
G03*
X141569Y356169I3975J-7831D01*
G01*
X114541Y369800D02*
G03*
X112490Y368951I0J-2900D01*
G01*
X114541Y369800D02*
G03*
X112490Y368951I0J-2900D01*
G01*
X125407Y345500D02*
G03*
X125407Y345500I-4707J0D01*
G01*
X106920Y342920D02*
G03*
X115565Y345500I3937J2580D01*
G01*
X106920Y348080D02*
G03*
X101797Y350055I-3937J-2580D01*
G01*
X115565Y345500D02*
G03*
X106920Y348080I-4707J0D01*
G01*
X93712Y350172D02*
G03*
X89433Y348400I-571J-4672D01*
G01*
X97848Y345500D02*
G03*
X97813Y346071I-4707J0D01*
G01*
X85148Y348400D02*
G03*
X89836Y356169I-4094J7769D01*
G01*
D02*
G03*
X81819Y347421I-8782J0D01*
G01*
X29650Y354000D02*
G03*
X29650Y354000I-9650J0D01*
G01*
X98428Y346686D02*
G03*
X106920Y342920I4555J-1186D01*
G01*
X89433Y342600D02*
G03*
X97848Y345500I3708J2900D01*
G01*
X125000Y292000D02*
G03*
X125000Y292000I-4500J0D01*
G01*
X115000D02*
G03*
X115000Y292000I-4500J0D01*
G01*
X105000D02*
G03*
X105000Y292000I-4500J0D01*
G01*
X95000D02*
G03*
X95000Y292000I-4500J0D01*
G01*
X85000D02*
G03*
X85000Y292000I-4500J0D01*
G01*
X75000D02*
G03*
X75000Y292000I-4500J0D01*
G01*
X165200Y245900D02*
G03*
X163149Y245051I0J-2900D01*
G01*
X165200Y245900D02*
G03*
X163149Y245051I0J-2900D01*
G01*
X125000Y282000D02*
G03*
X125000Y282000I-4500J0D01*
G01*
X105000D02*
G03*
X105000Y282000I-4500J0D01*
G01*
X115000D02*
G03*
X115000Y282000I-4500J0D01*
G01*
X95000D02*
G03*
X95000Y282000I-4500J0D01*
G01*
X85000D02*
G03*
X85000Y282000I-4500J0D01*
G01*
X75000D02*
G03*
X75000Y282000I-4500J0D01*
G01*
X127593Y209494D02*
G03*
X131694Y205393I207J-3895D01*
G01*
X65000Y292000D02*
G03*
X65000Y292000I-4500J0D01*
G01*
X55000D02*
G03*
X55000Y292000I-4500J0D01*
G01*
X45000D02*
G03*
X38745Y296144I-4500J0D01*
G01*
X30882Y296484D02*
G03*
X35000Y292000I-383J-4484D01*
G01*
X36356Y293755D02*
G03*
X45000Y292000I4144J-1755D01*
G01*
X35000D02*
G03*
X34984Y292383I-4500J0D01*
G01*
X55000Y282000D02*
G03*
X55000Y282000I-4500J0D01*
G01*
X45000D02*
G03*
X45000Y282000I-4500J0D01*
G01*
X65000D02*
G03*
X65000Y282000I-4500J0D01*
G01*
X35000D02*
G03*
X35000Y282000I-4500J0D01*
G01*
X315000Y122000D02*
G03*
X314100Y124700I-4500J0D01*
G01*
X316900D02*
G03*
X325000Y122000I3600J-2700D01*
G01*
X306900Y124700D02*
G03*
X315000Y122000I3600J-2700D01*
G01*
X305000D02*
G03*
X304100Y124700I-4500J0D01*
G01*
X296900D02*
G03*
X305000Y122000I3600J-2700D01*
G01*
X286900Y124700D02*
G03*
X295000Y122000I3600J-2700D01*
G01*
X285000D02*
G03*
X284100Y124700I-4500J0D01*
G01*
X295000Y122000D02*
G03*
X294100Y124700I-4500J0D01*
G01*
X276900D02*
G03*
X276111Y121005I3600J-2700D01*
G01*
X279505Y117611D02*
G03*
X285000Y122000I995J4389D01*
G01*
X269403Y114297D02*
G03*
X268700Y112600I1697J-1697D01*
G01*
X269403Y114297D02*
G03*
X268700Y112600I1697J-1697D01*
G01*
X325000Y112000D02*
G03*
X321495Y107611I-4500J0D01*
G01*
X315000Y112000D02*
G03*
X315000Y112000I-4500J0D01*
G01*
X305000D02*
G03*
X305000Y112000I-4500J0D01*
G01*
X295000D02*
G03*
X295000Y112000I-4500J0D01*
G01*
X285000D02*
G03*
X285000Y112000I-4500J0D01*
G01*
X253600Y102900D02*
G03*
X255297Y103603I0J2400D01*
G01*
X253600Y102900D02*
G03*
X255297Y103603I0J2400D01*
G01*
X268700Y96300D02*
G03*
X261726Y98700I-3900J0D01*
G01*
Y93900D02*
G03*
X268700Y96300I3074J2400D01*
G01*
Y60000D02*
G03*
X269403Y58303I2400J0D01*
G01*
X268700Y60000D02*
G03*
X269403Y58303I2400J0D01*
G01*
X138600Y132500D02*
G03*
X136903Y131797I0J-2400D01*
G01*
X138600Y132500D02*
G03*
X136903Y131797I0J-2400D01*
G01*
X125000Y122000D02*
G03*
X125000Y122000I-4500J0D01*
G01*
X115000D02*
G03*
X115000Y122000I-4500J0D01*
G01*
X105000D02*
G03*
X105000Y122000I-4500J0D01*
G01*
X125000Y112000D02*
G03*
X124889Y112995I-4500J0D01*
G01*
X95000Y122000D02*
G03*
X95000Y122000I-4500J0D01*
G01*
X85000D02*
G03*
X85000Y122000I-4500J0D01*
G01*
X75000D02*
G03*
X75000Y122000I-4500J0D01*
G01*
X121495Y116389D02*
G03*
X119173Y107700I-995J-4389D01*
G01*
X115000Y112000D02*
G03*
X108100Y108193I-4500J0D01*
G01*
X121827Y107700D02*
G03*
X125000Y112000I-1327J4300D01*
G01*
X112900Y108193D02*
G03*
X115000Y112000I-2400J3807D01*
G01*
X95000D02*
G03*
X95000Y112000I-4500J0D01*
G01*
X105000D02*
G03*
X105000Y112000I-4500J0D01*
G01*
X85000D02*
G03*
X85000Y112000I-4500J0D01*
G01*
X75000D02*
G03*
X75000Y112000I-4500J0D01*
G01*
X65000Y122000D02*
G03*
X65000Y122000I-4500J0D01*
G01*
X55000D02*
G03*
X55000Y122000I-4500J0D01*
G01*
X45000D02*
G03*
X45000Y122000I-4500J0D01*
G01*
X35000D02*
G03*
X26111Y121005I-4500J0D01*
G01*
X29505Y117611D02*
G03*
X35000Y122000I995J4389D01*
G01*
X23703Y118597D02*
G03*
X23000Y116900I1697J-1697D01*
G01*
X23703Y118597D02*
G03*
X23000Y116900I1697J-1697D01*
G01*
X65000Y112000D02*
G03*
X65000Y112000I-4500J0D01*
G01*
X55000D02*
G03*
X55000Y112000I-4500J0D01*
G01*
X45000D02*
G03*
X45000Y112000I-4500J0D01*
G01*
X35000D02*
G03*
X27800Y115600I-4500J0D01*
G01*
X34889Y111005D02*
G03*
X35000Y112000I-4389J995D01*
G01*
X27800Y108400D02*
G03*
X31495Y107611I2700J3600D01*
G01*
X108100Y105300D02*
G03*
X110500Y102900I2400J0D01*
G01*
X108100Y105300D02*
G03*
X110500Y102900I2400J0D01*
G01*
X100303Y24303D02*
G03*
X102000Y23600I1697J1697D01*
G01*
X100303Y24303D02*
G03*
X102000Y23600I1697J1697D01*
G01*
X44503Y94603D02*
G03*
X46200Y93900I1697J1697D01*
G01*
X23000Y102600D02*
G03*
X23703Y100903I2400J0D01*
G01*
X23000Y102600D02*
G03*
X23703Y100903I2400J0D01*
G01*
X44503Y94603D02*
G03*
X46200Y93900I1697J1697D01*
G01*
X29650Y20000D02*
G03*
X29650Y20000I-9650J0D01*
G01*
X646937Y372116D02*
X647706Y371346D01*
X641280Y372116D02*
X647706Y365689D01*
X644108Y372116D02*
X647706Y368518D01*
X632017Y363316D02*
X640817Y372116D01*
X638451D02*
X647706Y362861D01*
X635623Y372116D02*
X647706Y360032D01*
X632795Y372116D02*
X647706Y357204D01*
X629966Y372116D02*
X647706Y354376D01*
X634043Y362514D02*
X643645Y372116D01*
X635729Y361371D02*
X646474Y372116D01*
X629522Y363650D02*
X637988Y372116D01*
X593196D02*
X647706Y317606D01*
X627138Y372116D02*
X647706Y351547D01*
X624309Y372116D02*
X633772Y362653D01*
X626060Y363016D02*
X635160Y372116D01*
X584711D02*
X647706Y309121D01*
X581883Y372116D02*
X647706Y306292D01*
X573397Y372116D02*
X647706Y297807D01*
X590368Y372116D02*
X647706Y314777D01*
X587540Y372116D02*
X647706Y311949D01*
X639135Y353464D02*
X647706Y362035D01*
X638923Y356080D02*
X647706Y364863D01*
X638076Y349577D02*
X647706Y359207D01*
X637114Y359928D02*
X647706Y370520D01*
X638197Y358182D02*
X647706Y367692D01*
X638909Y351859D02*
X647706Y343062D01*
X638172Y349767D02*
X647706Y340233D01*
X637081Y348030D02*
X647706Y337405D01*
X638153Y358272D02*
X647706Y348719D01*
X639139Y354457D02*
X647706Y345890D01*
X633994Y345460D02*
X647706Y331748D01*
X631958Y344668D02*
X647706Y328920D01*
X629448Y344350D02*
X647706Y326091D01*
X635688Y346595D02*
X647706Y334577D01*
X579054Y372116D02*
X647706Y303464D01*
X576226Y372116D02*
X647706Y300635D01*
X596025Y372116D02*
X647706Y320434D01*
X625938Y345032D02*
X647706Y323263D01*
X618652Y372116D02*
X627359Y363409D01*
X615824Y372116D02*
X625268Y362672D01*
X621481Y372116D02*
X629957Y363639D01*
X610167Y372116D02*
X622095Y360188D01*
X612995Y372116D02*
X623530Y361581D01*
X607339Y372116D02*
X620960Y358494D01*
X598853Y372116D02*
X620532Y350437D01*
X594999Y346097D02*
X621018Y372116D01*
X601682D02*
X619850Y353947D01*
X604510Y372116D02*
X620168Y356458D01*
X594370Y348296D02*
X618189Y372116D01*
X592992Y349747D02*
X615361Y372116D01*
X591980Y340250D02*
X623846Y372116D01*
X556427D02*
X588508Y340035D01*
X590899Y350482D02*
X612532Y372116D01*
X594779Y337392D02*
X629503Y372116D01*
X594757Y334542D02*
X632331Y372116D01*
X550770D02*
X586074Y336812D01*
X593711Y339153D02*
X626675Y372116D01*
X567741D02*
X589475Y350382D01*
X564912Y372116D02*
X587593Y349435D01*
X570569Y372116D02*
X592843Y349842D01*
X559255Y372116D02*
X586052Y345319D01*
X562084Y372116D02*
X586383Y347817D01*
X561772Y295900D02*
X619850Y353978D01*
X589819Y341552D02*
X590888Y340483D01*
X589214Y340312D02*
X590403Y341501D01*
X558944Y295900D02*
X620484Y357440D01*
X553598Y372116D02*
X586949Y338765D01*
X556116Y295900D02*
X591959Y331743D01*
X534968Y345463D02*
X561621Y372116D01*
X534906Y336916D02*
X570106Y372116D01*
X539145Y295900D02*
X586753Y343508D01*
X541973Y295900D02*
X588203Y342130D01*
X536317Y295900D02*
X586018Y345601D01*
X544802Y295900D02*
X586188Y337286D01*
X593935Y343093D02*
X647706Y289322D01*
X547942Y372116D02*
X647706Y272351D01*
X592317Y341883D02*
X647706Y286493D01*
X594342Y348343D02*
X647706Y294978D01*
X594882Y344975D02*
X647706Y292150D01*
X544097Y235798D02*
X647706Y339407D01*
X542682Y237212D02*
X647706Y342236D01*
X545511Y234383D02*
X647706Y336579D01*
X545113Y372116D02*
X647706Y269523D01*
X542285Y372116D02*
X647706Y266694D01*
X537025Y242869D02*
X647706Y353550D01*
X535611Y244283D02*
X647706Y356378D01*
X538440Y241455D02*
X647706Y350721D01*
X539456Y372116D02*
X647706Y263866D01*
X536628Y372116D02*
X647706Y261037D01*
X534971Y345489D02*
X647706Y232753D01*
X534860Y337114D02*
X647706Y224268D01*
X539854Y240040D02*
X647706Y347893D01*
X541268Y238626D02*
X647706Y345064D01*
X593265Y332450D02*
X647706Y278008D01*
X591312Y331574D02*
X647706Y275179D01*
X553122Y227853D02*
X647706Y322437D01*
X594983Y336388D02*
X647706Y283665D01*
X594535Y334008D02*
X647706Y280836D01*
X557353Y220770D02*
X647706Y311123D01*
X557353Y223598D02*
X647706Y313952D01*
X574988Y285672D02*
X647706Y212954D01*
X555951Y227853D02*
X647706Y319608D01*
X557353Y226427D02*
X647706Y316780D01*
X549753Y230141D02*
X647706Y328094D01*
X535400Y195988D02*
X647706Y308295D01*
X535400Y193160D02*
X647706Y305466D01*
X546925Y232969D02*
X647706Y333751D01*
X548339Y231555D02*
X647706Y330922D01*
X539448Y290100D02*
X647706Y181841D01*
X536619Y290100D02*
X647706Y179013D01*
X543242Y186860D02*
X647706Y291324D01*
X547050Y187839D02*
X647706Y288496D01*
X568894Y291707D02*
X623572Y346386D01*
X567480Y293122D02*
X622129Y347772D01*
X570514Y290500D02*
X625318Y345303D01*
X566065Y294536D02*
X620986Y349457D01*
X565551Y295051D02*
X570118Y290484D01*
X574975Y286475D02*
X633923Y345424D01*
X572744Y289901D02*
X627420Y344577D01*
X574213Y288542D02*
X630036Y344365D01*
X564443Y295742D02*
X620184Y351483D01*
X550459Y295900D02*
X587348Y332789D01*
X553287Y295900D02*
X589108Y331721D01*
X547630Y295900D02*
X586250Y334520D01*
X551168Y228727D02*
X647706Y325265D01*
X554293Y288421D02*
X555972Y290100D01*
X556418D02*
X557327Y289191D01*
X564644Y287755D02*
X566016Y286383D01*
X564778Y287398D02*
X566003Y286172D01*
X564846Y284831D02*
X566000Y285985D01*
X554998Y285863D02*
X556205Y284656D01*
X553590Y290100D02*
X556240Y287450D01*
X552870Y289826D02*
X553144Y290100D01*
X552355D02*
X558645D01*
X545105D02*
X546737Y288468D01*
X547933Y290100D02*
X548178Y289855D01*
X554991Y286290D02*
X556290Y287589D01*
X542276Y290100D02*
X546014Y286362D01*
X534578Y347902D02*
X558792Y372116D01*
X532409Y340075D02*
X564449Y372116D01*
X533996Y338834D02*
X567277Y372116D01*
X531424Y350404D02*
X553135Y372116D01*
X533339Y349491D02*
X555964Y372116D01*
X527831Y295900D02*
X604047Y372116D01*
X525003Y295900D02*
X601219Y372116D01*
X533488Y295900D02*
X609704Y372116D01*
X534039Y333220D02*
X572934Y372116D01*
X522174Y295900D02*
X598390Y372116D01*
X516517Y295900D02*
X592733Y372116D01*
X513689Y295900D02*
X589905Y372116D01*
X519346Y295900D02*
X595562Y372116D01*
X497030D02*
X528929Y340217D01*
X505204Y295900D02*
X581420Y372116D01*
X499547Y295900D02*
X575763Y372116D01*
X477231D02*
X553447Y295900D01*
X502375D02*
X578591Y372116D01*
X457432D02*
X533648Y295900D01*
X474402Y372116D02*
X550618Y295900D01*
X527763Y349572D02*
X550307Y372116D01*
X529974Y340469D02*
X531037Y341532D01*
X508344Y372116D02*
X529989Y350471D01*
X510964Y352572D02*
X530508Y372116D01*
X509330Y348502D02*
X561932Y295900D01*
X503690Y348485D02*
X556275Y295900D01*
X507410Y347593D02*
X559103Y295900D01*
X530474Y341500D02*
X531614Y340360D01*
X472307Y296945D02*
X547478Y372116D01*
X469347Y296813D02*
X544650Y372116D01*
X490937Y352753D02*
X547790Y295900D01*
X496719D02*
X533280Y332461D01*
X493890Y295900D02*
X529584Y331594D01*
X490635Y350226D02*
X544961Y295900D01*
X473977D02*
X563500D01*
X454603Y372116D02*
X530819Y295900D01*
X482576D02*
X528598Y341922D01*
X508675Y355940D02*
X524851Y372116D01*
X506406Y356499D02*
X522023Y372116D01*
X510169Y354605D02*
X527679Y372116D01*
X485716D02*
X503002Y354830D01*
X490983Y352390D02*
X510709Y372116D01*
X502687D02*
X526585Y348218D01*
X494202Y372116D02*
X527228Y339089D01*
X505515Y372116D02*
X527934Y349697D01*
X480059Y372116D02*
X502985Y349190D01*
X499858Y372116D02*
X526000Y345974D01*
X454078Y307000D02*
X519194Y372116D01*
X451250Y307000D02*
X516366Y372116D01*
X451775D02*
X527991Y295900D01*
X445078Y317799D02*
X499395Y372116D01*
X448421Y307000D02*
X513537Y372116D01*
X446118D02*
X522334Y295900D01*
X448947Y372116D02*
X525162Y295900D01*
X440461Y372116D02*
X516677Y295900D01*
X443290Y372116D02*
X519506Y295900D01*
X491373Y372116D02*
X507019Y356470D01*
X488802Y355866D02*
X505052Y372116D01*
X490251Y354486D02*
X507880Y372116D01*
X486607Y356499D02*
X502224Y372116D01*
X488545D02*
X504587Y356073D01*
X510970Y352519D02*
X526191Y337298D01*
X510573Y350087D02*
X526315Y334345D01*
X491062Y295900D02*
X527666Y332504D01*
X482888Y372116D02*
X502093Y352910D01*
X474615Y319051D02*
X503895Y348331D01*
X473237Y320502D02*
X502560Y349825D01*
X475149Y316757D02*
X505929Y347536D01*
X444156Y319705D02*
X496567Y372116D01*
X471062Y321155D02*
X502001Y352094D01*
X474091Y295900D02*
X526928Y348737D01*
X479748Y295900D02*
X527009Y343161D01*
X476920Y295900D02*
X526096Y345076D01*
X475100Y317678D02*
X496878Y295900D01*
X530971Y372116D02*
X647706Y255380D01*
X528143Y372116D02*
X647706Y252552D01*
X533800Y372116D02*
X647706Y258209D01*
X530660Y295900D02*
X606876Y372116D01*
X528845Y331815D02*
X570172Y290488D01*
X534717Y334429D02*
X647706Y221439D01*
X533589Y332728D02*
X647706Y218611D01*
X531798Y331691D02*
X647706Y215782D01*
X534197Y343434D02*
X647706Y229925D01*
X532718Y342085D02*
X647706Y227096D01*
X522486Y372116D02*
X647706Y246895D01*
X519657Y372116D02*
X647706Y244067D01*
X525314Y372116D02*
X647706Y249724D01*
X508032Y295900D02*
X584248Y372116D01*
X510861Y295900D02*
X587077Y372116D01*
X511172D02*
X647706Y235581D01*
X513992Y290100D02*
X647706Y156385D01*
X516829Y372116D02*
X647706Y241238D01*
X514001Y372116D02*
X647706Y238410D01*
X530962Y290100D02*
X647706Y173356D01*
X512849Y255461D02*
X547487Y290100D01*
X533791D02*
X647706Y176184D01*
X511303Y256744D02*
X544659Y290100D01*
X515616Y255400D02*
X546005Y285789D01*
X522477Y290100D02*
X647706Y164871D01*
X519649Y290100D02*
X647706Y162042D01*
X516820Y290100D02*
X647706Y159214D01*
X528134Y290100D02*
X647706Y170528D01*
X525306Y290100D02*
X647706Y167699D01*
X508335Y290100D02*
X647706Y150728D01*
X494193Y290100D02*
X556440Y227853D01*
X511163Y290100D02*
X647706Y153557D01*
X473977Y290100D02*
X548645D01*
X491364D02*
X553612Y227853D01*
X499850Y290100D02*
X647706Y142243D01*
X497021Y290100D02*
X647706Y139415D01*
X505507Y290100D02*
X647706Y147900D01*
X502678Y290100D02*
X647706Y145072D01*
X487574Y347630D02*
X539304Y295900D01*
X484304Y348072D02*
X536476Y295900D01*
X488233D02*
X526425Y334091D01*
X437633Y372116D02*
X513849Y295900D01*
X485405D02*
X526031Y336526D01*
X507398Y258496D02*
X539002Y290100D01*
X489440Y348593D02*
X542133Y295900D01*
X503155Y262739D02*
X530517Y290100D01*
X500327Y265567D02*
X524860Y290100D01*
X501741Y264153D02*
X527688Y290100D01*
X431976Y372116D02*
X508192Y295900D01*
X429148Y372116D02*
X505363Y295900D01*
X434804Y372116D02*
X511020Y295900D01*
X423491Y372116D02*
X499707Y295900D01*
X426319Y372116D02*
X502535Y295900D01*
X412777Y245900D02*
X538993Y372116D01*
X415606Y245900D02*
X541822Y372116D01*
X407121Y245900D02*
X533336Y372116D01*
X409949Y245900D02*
X536165Y372116D01*
X494674Y268400D02*
X516374Y290100D01*
X491846Y268400D02*
X513546Y290100D01*
X497348Y268245D02*
X519203Y290100D01*
X486189Y268400D02*
X507889Y290100D01*
X489017Y268400D02*
X510717Y290100D01*
X505984Y259910D02*
X536173Y290100D01*
X504569Y261325D02*
X533345Y290100D01*
X508832Y257102D02*
X541830Y290100D01*
X498913Y266981D02*
X522031Y290100D01*
X488536D02*
X523236Y255400D01*
X480532Y268400D02*
X502232Y290100D01*
X477704Y268400D02*
X499404Y290100D01*
X483361Y268400D02*
X505061Y290100D01*
X474394D02*
X496094Y268400D01*
X474875D02*
X496575Y290100D01*
X482879D02*
X517579Y255400D01*
X485708Y290100D02*
X520407Y255400D01*
X477222Y290100D02*
X510231Y257091D01*
X480051Y290100D02*
X514751Y255400D01*
X532783Y247111D02*
X567958Y282287D01*
X531369Y248526D02*
X566599Y283756D01*
X529954Y249940D02*
X561669Y281655D01*
X527126Y252768D02*
X557248Y282890D01*
X528540Y251354D02*
X558958Y281772D01*
X534197Y245697D02*
X570025Y281525D01*
X531268Y228626D02*
X537874Y235232D01*
X533312Y227842D02*
X539288Y233818D01*
X528440Y231454D02*
X535045Y238060D01*
X529854Y230040D02*
X536460Y236646D01*
X525712Y254182D02*
X556201Y284671D01*
X524039Y255339D02*
X550210Y281509D01*
X525197Y254697D02*
X552041Y227853D01*
X518444Y255400D02*
X546674Y283630D01*
X521272Y255400D02*
X548079Y282207D01*
X522379Y250600D02*
X548647Y224332D01*
X519551Y250600D02*
X542347Y227803D01*
X522506Y250600D02*
X548647Y224459D01*
X513894Y250600D02*
X539087Y225407D01*
X516722Y250600D02*
X540361Y226961D01*
X552041Y227853D02*
X557353D01*
X546134Y226521D02*
X546359Y226747D01*
X547174Y224733D02*
X547773Y225332D01*
X541565Y227609D02*
X543531Y229575D01*
X544404Y227620D02*
X544945Y228161D01*
X557353Y219147D02*
Y227853D01*
X546958Y221688D02*
X548647Y223378D01*
Y219147D02*
X557353D01*
X548647D02*
Y224459D01*
X547303Y222847D02*
X548647Y221503D01*
X536782Y225655D02*
X542117Y230989D01*
X535418Y227119D02*
X540702Y232403D01*
X537352Y223396D02*
X538891Y224935D01*
X537257Y224408D02*
X538678Y222988D01*
X535400Y215787D02*
X539979Y220366D01*
X535400Y218616D02*
X538880Y222096D01*
X522446Y236775D02*
X529389Y243717D01*
X527025Y232869D02*
X533631Y239475D01*
X525611Y234283D02*
X532217Y240889D01*
X523797Y236097D02*
X532129Y227765D01*
X524197Y235697D02*
X530803Y242303D01*
X521106Y232000D02*
X528735Y224371D01*
X516815Y236800D02*
X526560Y246546D01*
X513986Y236800D02*
X525146Y247960D01*
X519643Y236800D02*
X527974Y245131D01*
X512893Y255400D02*
X523500D01*
X512893Y250600D02*
X522506D01*
X517894Y232000D02*
X522129Y227765D01*
X518352Y232000D02*
X522525Y227827D01*
X519197Y230697D02*
X520500Y232000D01*
X517894D02*
X521106D01*
X526231Y226417D02*
X526460Y226646D01*
X527218Y224576D02*
X527874Y225232D01*
X522025Y227869D02*
X523631Y229475D01*
X524552Y227567D02*
X525045Y228060D01*
X526547Y220976D02*
X530600Y216923D01*
X530076Y220275D02*
X530600Y219752D01*
X526735Y221264D02*
X528658Y223188D01*
X527327Y223025D02*
X529775Y220576D01*
X520611Y229283D02*
X522217Y230889D01*
X515537Y227037D02*
X515803Y227303D01*
X516853Y225525D02*
X517217Y225889D01*
X513496Y227824D02*
X514071Y228400D01*
X513466D02*
X514175Y227691D01*
X514706Y228400D02*
X518735Y224371D01*
X517191Y224675D02*
X518657Y223209D01*
X517341Y223185D02*
X518631Y224475D01*
X564769Y284577D02*
X647706Y201640D01*
X563691Y282827D02*
X647706Y198812D01*
X570672Y281503D02*
X647706Y204469D01*
X574277Y283555D02*
X647706Y210126D01*
X572845Y282159D02*
X647706Y207297D01*
X557150Y178140D02*
X647706Y268697D01*
X556833Y180652D02*
X647706Y271525D01*
X556464Y174626D02*
X647706Y265868D01*
X561950Y281740D02*
X647706Y195983D01*
X559156Y281705D02*
X647706Y193155D01*
X552968Y282237D02*
X647706Y187498D01*
X551737Y186870D02*
X647706Y282839D01*
X553474Y185778D02*
X647706Y280011D01*
X549647Y187608D02*
X647706Y285667D01*
X554355Y283678D02*
X647706Y190326D01*
X556042Y182689D02*
X647706Y274354D01*
X527351Y114400D02*
X647706Y234756D01*
X550862Y281515D02*
X647706Y184670D01*
X554908Y184384D02*
X647706Y277182D01*
X557353Y221283D02*
X647706Y130930D01*
X556660Y219147D02*
X647706Y128101D01*
X553832Y219147D02*
X647706Y125273D01*
X557353Y226940D02*
X647706Y136586D01*
X557353Y224112D02*
X647706Y133758D01*
X555635Y114400D02*
X647706Y206471D01*
X552807Y114400D02*
X647706Y209300D01*
X569777Y114400D02*
X647706Y192329D01*
X551003Y219147D02*
X647706Y122444D01*
X558463Y114400D02*
X647706Y203643D01*
X547150Y114400D02*
X647706Y214957D01*
X541493Y114400D02*
X647706Y220614D01*
X549978Y114400D02*
X647706Y212128D01*
X546461Y220861D02*
X647706Y119616D01*
X544321Y114400D02*
X647706Y217785D01*
X535836Y114400D02*
X647706Y226270D01*
X538664Y114400D02*
X647706Y223442D01*
X530179Y114400D02*
X647706Y231927D01*
X533008Y114400D02*
X647706Y229099D01*
X535400Y210131D02*
X544812Y219542D01*
X535400Y207302D02*
X548647Y220549D01*
X535400Y204474D02*
X550073Y219147D01*
X525040Y219655D02*
X530600Y214095D01*
X535400Y212959D02*
X541767Y219326D01*
X544907Y219587D02*
X647706Y116787D01*
X535400Y198817D02*
X555730Y219147D01*
X535400Y201645D02*
X552902Y219147D01*
X530600Y192894D02*
Y219869D01*
X535400Y191900D02*
Y219869D01*
X515929Y220280D02*
X530600Y205609D01*
X513209Y114400D02*
X647706Y248898D01*
X514094Y219287D02*
X530600Y202781D01*
X517073Y221965D02*
X530600Y208438D01*
X522709Y219157D02*
X530600Y211266D01*
X516037Y114400D02*
X647706Y246069D01*
X518865Y114400D02*
X647706Y243241D01*
X521694Y114400D02*
X647706Y240412D01*
X524522Y114400D02*
X647706Y237584D01*
X535400Y200810D02*
X548402Y187808D01*
X535400Y203638D02*
X552725Y186313D01*
X535400Y197981D02*
X545700Y187681D01*
X535400Y195153D02*
X543549Y187004D01*
X535400Y192324D02*
X541764Y185960D01*
X564120Y114400D02*
X647706Y197986D01*
X561292Y114400D02*
X647706Y200815D01*
X572606Y114400D02*
X647706Y189501D01*
X566949Y114400D02*
X647706Y195158D01*
X534695Y190201D02*
X540286Y184610D01*
X533281Y188787D02*
X539106Y182961D01*
X531867Y187372D02*
X538259Y180980D01*
X514896Y170402D02*
X570898Y114400D01*
X513482Y168988D02*
X568069Y114400D01*
X530452Y185958D02*
X537856Y178554D01*
X529038Y184544D02*
X538303Y175279D01*
X511158Y236800D02*
X523732Y249374D01*
X505501Y236800D02*
X519301Y250600D01*
X509967Y248870D02*
X522037Y236800D01*
X511992Y249674D02*
X533908Y227757D01*
X508329Y236800D02*
X522129Y250600D01*
X510638Y228400D02*
X511465Y227573D01*
X507809Y228400D02*
X509780Y226429D01*
X507256Y224413D02*
X511243Y228400D01*
X502672Y236800D02*
X516472Y250600D01*
X499844Y236800D02*
X513644Y250600D01*
X499094Y236800D02*
X522100D01*
X498197Y267697D02*
X508798Y257096D01*
X498055Y237839D02*
X509081Y248865D01*
X492409Y263600D02*
X519208Y236800D01*
X489580Y263600D02*
X516380Y236800D01*
X465700Y228400D02*
X514706D01*
X483923Y263600D02*
X510723Y236800D01*
X486752Y263600D02*
X513552Y236800D01*
X510820Y219732D02*
X530600Y199953D01*
X506629Y221096D02*
X530600Y197124D01*
X505169Y219726D02*
X530600Y194296D01*
X507343Y223210D02*
X509232Y221320D01*
X502919Y219148D02*
X529887Y192181D01*
X495672Y184544D02*
X530600Y219473D01*
X496838Y182882D02*
X530600Y216644D01*
X497126Y222113D02*
X528472Y190767D01*
X496033Y220378D02*
X527058Y189352D01*
X492436Y186966D02*
X525236Y219765D01*
X491230Y219523D02*
X524230Y186524D01*
X494251Y219331D02*
X525644Y187938D01*
X487633Y187820D02*
X520083Y220269D01*
X490303Y187661D02*
X521924Y219282D01*
X486707Y221218D02*
X522816Y185110D01*
X494206Y185908D02*
X529381Y221082D01*
X483497Y186511D02*
X518933Y221948D01*
X485295Y219801D02*
X521401Y183695D01*
X495506Y263600D02*
X505404Y253702D01*
X495237Y263600D02*
X505370Y253467D01*
X486741Y249153D02*
X498347Y260759D01*
X492398Y243496D02*
X504004Y255102D01*
X490984Y244910D02*
X502590Y256516D01*
X493812Y242082D02*
X505398Y253668D01*
X488155Y247739D02*
X499761Y259345D01*
X489570Y246325D02*
X501175Y257930D01*
X485327Y250567D02*
X496933Y262173D01*
X463893Y268400D02*
X496500D01*
X483634Y252575D02*
X499409Y236800D01*
X463893Y263600D02*
X495506D01*
X483913Y251981D02*
X495519Y263587D01*
X478266Y263600D02*
X505066Y236800D01*
X481095Y263600D02*
X507895Y236800D01*
X475438Y263600D02*
X502238Y236800D01*
X483596Y252298D02*
X499094Y236800D01*
X504695Y227509D02*
X505586Y228400D01*
X502121Y227763D02*
X502758Y228400D01*
X506324Y226310D02*
X508415Y228400D01*
X499324D02*
X500596Y227129D01*
X502153Y228400D02*
X502710Y227843D01*
X504981Y228400D02*
X508787Y224594D01*
X496920Y225391D02*
X499929Y228400D01*
X497097Y224971D02*
X498648Y223419D01*
X497319Y222962D02*
X498737Y224379D01*
X496641Y239253D02*
X507039Y249651D01*
X495226Y240668D02*
X505756Y251197D01*
X480202Y248904D02*
X495906Y233200D01*
X478825Y248899D02*
X494524Y233200D01*
X493416D02*
X494661Y234445D01*
X496496Y228400D02*
X499226Y225669D01*
X466694Y233200D02*
X495906D01*
X495652Y226951D02*
X497101Y228400D01*
X507552Y114400D02*
X647706Y254555D01*
X504723Y114400D02*
X647706Y257383D01*
X497537Y175096D02*
X530600Y208159D01*
X497669Y180885D02*
X530600Y213816D01*
X498047Y178435D02*
X530600Y210987D01*
X501895Y114400D02*
X647706Y260211D01*
X499066Y114400D02*
X647706Y263040D01*
X510380Y114400D02*
X647706Y251726D01*
X476439Y114400D02*
X538092Y176053D01*
X482096Y114400D02*
X539922Y172226D01*
X460598Y132500D02*
X530600Y202502D01*
X457769Y132500D02*
X530600Y205330D01*
X470206Y132500D02*
X530600Y192894D01*
X466255Y132500D02*
X530600Y196845D01*
X469083Y132500D02*
X530600Y194017D01*
X470782Y114400D02*
X538840Y182458D01*
X473611Y114400D02*
X537860Y178650D01*
X463426Y132500D02*
X530600Y199674D01*
X472897Y128403D02*
X534697Y190203D01*
X504996Y160502D02*
X551099Y114400D01*
X503582Y159088D02*
X548270Y114400D01*
X502168Y157674D02*
X545442Y114400D01*
X500754Y156260D02*
X542613Y114400D01*
X499340Y154845D02*
X539785Y114400D01*
X512068Y167573D02*
X565241Y114400D01*
X510653Y166159D02*
X562412Y114400D01*
X509239Y164745D02*
X559584Y114400D01*
X507825Y163331D02*
X556756Y114400D01*
X506411Y161916D02*
X553927Y114400D01*
X490581D02*
X545048Y168867D01*
X487753Y114400D02*
X543011Y169658D01*
X493410Y114400D02*
X547560Y168550D01*
X484924Y114400D02*
X541316Y170792D01*
X493683Y149189D02*
X528472Y114400D01*
X496238D02*
X551075Y169236D01*
X497925Y153431D02*
X536957Y114400D01*
X496512Y152017D02*
X534129Y114400D01*
X495097Y150603D02*
X531300Y114400D01*
X471040Y228400D02*
X518573Y180867D01*
X468211Y228400D02*
X517159Y179453D01*
X483119Y219149D02*
X519987Y182281D01*
X458701Y232254D02*
X514330Y176624D01*
X465359Y228424D02*
X515744Y178039D01*
X435114Y253012D02*
X512916Y175210D01*
X433700Y251598D02*
X511502Y173796D01*
X496932Y182709D02*
X508673Y170967D01*
X498033Y178780D02*
X507259Y169553D01*
X432285Y250184D02*
X510088Y172382D01*
X423828Y132500D02*
X510975Y219647D01*
X426657Y132500D02*
X513315Y219159D01*
X411257Y240100D02*
X494531Y156825D01*
X421000Y132500D02*
X509463Y220963D01*
X418171Y132500D02*
X508676Y223004D01*
X415343Y132500D02*
X502087Y219244D01*
X409686Y132500D02*
X498991Y221805D01*
X412515Y132500D02*
X500190Y220176D01*
X497830Y176154D02*
X505845Y168139D01*
X497110Y174046D02*
X504431Y166725D01*
X496032Y172295D02*
X503017Y165311D01*
X494651Y170848D02*
X501602Y163896D01*
X492970Y169701D02*
X500188Y162482D01*
X492269Y147775D02*
X525643Y114400D01*
X490855Y146361D02*
X522815Y114400D01*
X489440Y144946D02*
X519987Y114400D01*
X490949Y168893D02*
X498774Y161068D01*
X488463Y168550D02*
X497360Y159654D01*
X488026Y143532D02*
X517158Y114400D01*
X486612Y142118D02*
X514330Y114400D01*
X485198Y140704D02*
X511501Y114400D01*
X485026Y169159D02*
X495945Y158240D01*
X483783Y139289D02*
X508673Y114400D01*
X482369Y137875D02*
X505844Y114400D01*
X480955Y136461D02*
X503016Y114400D01*
X478127Y133633D02*
X497359Y114400D01*
X476712Y132218D02*
X494531Y114400D01*
X468746Y372116D02*
X484726Y356136D01*
X465917Y372116D02*
X483093Y354940D01*
X471574Y372116D02*
X487253Y356436D01*
X463089Y372116D02*
X482130Y353074D01*
X460260Y372116D02*
X482572Y349804D01*
X439761Y320967D02*
X490910Y372116D01*
X422966Y307000D02*
X488081Y372116D01*
X442499Y320876D02*
X493738Y372116D01*
X420662D02*
X471678Y321100D01*
X420137Y307000D02*
X485253Y372116D01*
X415005D02*
X467655Y319466D01*
X414480Y307000D02*
X479596Y372116D01*
X417309Y307000D02*
X482425Y372116D01*
X409348D02*
X465682Y315783D01*
X412177Y372116D02*
X466866Y317427D01*
X408823Y307000D02*
X473939Y372116D01*
X405995Y307000D02*
X471111Y372116D01*
X411652Y307000D02*
X476768Y372116D01*
X400338Y307000D02*
X465454Y372116D01*
X403167Y307000D02*
X468282Y372116D01*
X474747Y315202D02*
X494050Y295900D01*
X473466Y313655D02*
X491221Y295900D01*
X471427Y312866D02*
X488393Y295900D01*
X469783Y311682D02*
X485564Y295900D01*
X468369Y310267D02*
X482736Y295900D01*
X466954Y308853D02*
X479908Y295900D01*
X464126Y306025D02*
X474251Y295900D01*
X442765Y307000D02*
X484014Y348249D01*
X437108Y307000D02*
X482001Y351893D01*
X445593Y307000D02*
X486110Y347517D01*
X417834Y372116D02*
X469203Y320747D01*
X456899Y307000D02*
X466844Y316946D01*
X439936Y307000D02*
X482634Y349697D01*
X460151Y302049D02*
X470946Y312844D01*
X462712Y304610D02*
X470237Y297085D01*
X461298Y303196D02*
X468319Y296175D01*
X403692Y372116D02*
X462853Y312954D01*
X400863Y372116D02*
X461439Y311540D01*
X406520Y372116D02*
X464267Y314369D01*
X395206Y372116D02*
X458610Y308712D01*
X398035Y372116D02*
X460025Y310126D01*
X394681Y307000D02*
X459797Y372116D01*
X392378D02*
X457196Y307297D01*
X397510Y307000D02*
X462626Y372116D01*
X389024Y307000D02*
X454140Y372116D01*
X391853Y307000D02*
X456969Y372116D01*
X386721D02*
X438510Y320327D01*
X377711Y307000D02*
X442827Y372116D01*
X386196Y307000D02*
X451312Y372116D01*
X381064D02*
X436908Y316272D01*
X383893Y372116D02*
X437239Y318769D01*
X380539Y307000D02*
X445655Y372116D01*
X383368Y307000D02*
X448483Y372116D01*
X372579D02*
X437695Y307000D01*
X378236Y372116D02*
X443352Y307000D01*
X445130Y316535D02*
X454665Y307000D01*
X444327Y314510D02*
X451837Y307000D01*
X442769Y313239D02*
X449009Y307000D01*
X440272Y312908D02*
X446180Y307000D01*
X443441Y296363D02*
X448278Y301200D01*
X437838D02*
X442005Y297032D01*
X441388Y297138D02*
X445450Y301200D01*
X431451Y307000D02*
X438295Y313844D01*
X389549Y372116D02*
X440535Y321130D01*
X434279Y307000D02*
X440201Y312922D01*
X425794Y307000D02*
X437033Y318239D01*
X428622Y307000D02*
X437124Y315501D01*
X374882Y307000D02*
X439998Y372116D01*
X375407D02*
X440523Y307000D01*
X372432Y296064D02*
X377568Y301200D01*
X435009D02*
X439382Y296828D01*
X465540Y307439D02*
X477079Y295900D01*
X459866Y301800D02*
X467136Y294530D01*
X444733Y294826D02*
X451107Y301200D01*
X457637D02*
X466368Y292469D01*
X451980Y301200D02*
X463539Y289641D01*
X449152Y301200D02*
X462125Y288226D01*
X454809Y301200D02*
X464954Y291055D01*
X445108Y292373D02*
X453935Y301200D01*
X446323D02*
X460711Y286812D01*
X440666Y301200D02*
X457883Y283984D01*
X426524Y301200D02*
X450811Y276913D01*
X443495Y301200D02*
X459297Y285398D01*
X423696Y301200D02*
X449397Y275499D01*
X404292Y245900D02*
X471243Y312851D01*
X401464Y245900D02*
X456764Y301200D01*
X418039D02*
X446569Y272670D01*
X420867Y301200D02*
X447983Y274084D01*
X463751Y268589D02*
X485262Y290100D01*
X472047Y268400D02*
X493747Y290100D01*
X469218Y268400D02*
X490918Y290100D01*
X472530Y289136D02*
X493265Y268400D01*
X466390D02*
X488090Y290100D01*
X470469Y288368D02*
X490437Y268400D01*
X445032Y294005D02*
X456468Y282570D01*
X444828Y291382D02*
X455054Y281155D01*
X459551Y270046D02*
X479605Y290100D01*
X443613Y289768D02*
X453640Y279741D01*
X441656Y288896D02*
X452226Y278327D01*
X462148Y269815D02*
X482433Y290100D01*
X423051Y240949D02*
X470946Y288844D01*
X418434Y245900D02*
X467187Y294653D01*
X419799Y245900D02*
X466844Y292946D01*
X412382Y301200D02*
X443740Y269842D01*
X409554Y301200D02*
X442326Y268427D01*
X415210Y301200D02*
X445155Y271256D01*
X429353Y301200D02*
X436896Y293656D01*
X432181Y301200D02*
X437768Y295613D01*
X403897Y301200D02*
X439498Y265599D01*
X401068Y301200D02*
X438084Y264185D01*
X406725Y301200D02*
X440912Y267013D01*
X395411Y301200D02*
X435255Y261356D01*
X398240Y301200D02*
X436669Y262771D01*
X392583Y301200D02*
X433841Y259942D01*
X389755Y301200D02*
X432427Y258528D01*
X387321Y245900D02*
X442622Y301200D01*
X374011Y294815D02*
X380396Y301200D01*
X374912Y292887D02*
X383225Y301200D01*
X381665Y245900D02*
X436965Y301200D01*
X384493Y245900D02*
X439793Y301200D01*
X376008Y245900D02*
X431308Y301200D01*
X378836Y245900D02*
X434136Y301200D01*
X384098D02*
X429598Y255699D01*
X381269Y301200D02*
X428184Y254285D01*
X386926Y301200D02*
X431012Y257114D01*
X374986Y281648D02*
X394538Y301200D01*
X378441D02*
X426770Y252871D01*
X395807Y245900D02*
X439174Y289267D01*
X392978Y245900D02*
X437637Y290559D01*
X398635Y245900D02*
X441627Y288892D01*
X375612Y301200D02*
X425356Y251457D01*
X390150Y245900D02*
X436862Y292612D01*
X374524Y284014D02*
X391710Y301200D01*
X372784D02*
X423941Y250043D01*
X374693Y293635D02*
X421113Y247214D01*
X373864Y289011D02*
X386053Y301200D01*
X373246Y285565D02*
X388881Y301200D01*
X373179Y245900D02*
X428479Y301200D01*
X374806Y290693D02*
X419599Y245900D01*
X373766Y288904D02*
X416770Y245900D01*
X372062Y287780D02*
X413942Y245900D01*
X335809Y372116D02*
X400925Y307000D01*
X335284D02*
X400400Y372116D01*
X338113Y307000D02*
X403229Y372116D01*
X332456Y307000D02*
X397572Y372116D01*
X332981D02*
X398097Y307000D01*
X343770D02*
X408885Y372116D01*
X341466D02*
X406582Y307000D01*
X344295Y372116D02*
X409410Y307000D01*
X338638Y372116D02*
X403754Y307000D01*
X340941D02*
X406057Y372116D01*
X321667D02*
X386783Y307000D01*
X321142D02*
X386258Y372116D01*
X323971Y307000D02*
X389086Y372116D01*
X318314Y307000D02*
X383430Y372116D01*
X318839D02*
X383955Y307000D01*
X329627D02*
X394743Y372116D01*
X327324D02*
X392440Y307000D01*
X330153Y372116D02*
X395268Y307000D01*
X324496Y372116D02*
X389612Y307000D01*
X326799D02*
X391915Y372116D01*
X363569Y307000D02*
X428684Y372116D01*
X361265D02*
X426381Y307000D01*
X364094Y372116D02*
X429210Y307000D01*
X358437Y372116D02*
X423553Y307000D01*
X360740D02*
X425856Y372116D01*
X369750D02*
X434866Y307000D01*
X369226D02*
X434341Y372116D01*
X372054Y307000D02*
X437170Y372116D01*
X366397Y307000D02*
X431513Y372116D01*
X366922D02*
X432038Y307000D01*
X349952Y372116D02*
X415067Y307000D01*
X349427D02*
X414542Y372116D01*
X352255Y307000D02*
X417371Y372116D01*
X346598Y307000D02*
X411714Y372116D01*
X347123D02*
X412239Y307000D01*
X355608Y372116D02*
X420724Y307000D01*
X357912D02*
X423028Y372116D01*
X352780D02*
X417896Y307000D01*
X355083D02*
X420199Y372116D01*
X323353Y343152D02*
X352317Y372116D01*
X323353Y345980D02*
X349488Y372116D01*
X323353Y350631D02*
X366984Y307000D01*
X323353Y348809D02*
X346660Y372116D01*
X323353Y342147D02*
Y350853D01*
X352985Y301200D02*
X358274Y295911D01*
X332697Y295927D02*
X337970Y301200D01*
X357894Y295669D02*
X363425Y301200D01*
X327530D02*
X332965Y295765D01*
X330441Y296500D02*
X335141Y301200D01*
X322568Y350853D02*
X343831Y372116D01*
X319740Y350853D02*
X341003Y372116D01*
X323353Y347803D02*
X364156Y307000D01*
X316912Y350853D02*
X338175Y372116D01*
X323131Y350853D02*
X323353Y350631D01*
Y344974D02*
X361327Y307000D01*
X323352Y342147D02*
X358499Y307000D01*
X317695Y342147D02*
X352842Y307000D01*
X320523Y342147D02*
X355670Y307000D01*
X361452Y296398D02*
X366254Y301200D01*
X355813D02*
X360513Y296500D01*
X370013Y296474D02*
X374739Y301200D01*
X344500D02*
X349350Y296351D01*
X350232Y296492D02*
X354940Y301200D01*
X364299D02*
X369193Y296306D01*
X363358Y295476D02*
X369082Y301200D01*
X367127D02*
X372134Y296193D01*
X347329Y301200D02*
X352495Y296033D01*
X352566Y295998D02*
X357769Y301200D01*
X336015D02*
X340721Y296495D01*
X324701Y301200D02*
X329511Y296390D01*
X341615Y296360D02*
X346455Y301200D01*
X316216D02*
X320937Y296479D01*
X321772Y296316D02*
X326656Y301200D01*
X333187D02*
X338404Y295982D01*
X338414Y295987D02*
X343626Y301200D01*
X318790Y296162D02*
X323827Y301200D01*
X321873D02*
X327617Y295456D01*
X369956Y301200D02*
X422527Y248628D01*
X364589Y293878D02*
X371911Y301200D01*
X358642D02*
X366280Y293562D01*
X361470Y301200D02*
X367404Y295266D01*
X367523Y245900D02*
X422823Y301200D01*
X364694Y245900D02*
X419994Y301200D01*
X370351Y245900D02*
X425651Y301200D01*
X359037Y245900D02*
X414337Y301200D01*
X361866Y245900D02*
X417166Y301200D01*
X356209Y245900D02*
X411509Y301200D01*
X353380Y245900D02*
X408680Y301200D01*
X350157D02*
X356798Y294559D01*
X354099Y294702D02*
X360597Y301200D01*
X347724Y245900D02*
X403023Y301200D01*
X350552Y245900D02*
X405852Y301200D01*
X342067Y245900D02*
X397367Y301200D01*
X344895Y245900D02*
X400195Y301200D01*
X371284Y286431D02*
X373489Y288636D01*
X365000Y292014D02*
X366144Y290869D01*
X369369Y287645D02*
X370514Y286500D01*
X354942Y292717D02*
X356831Y294606D01*
X364963Y291424D02*
X366026Y292487D01*
X364411Y289774D02*
X368274Y285911D01*
X364011Y284815D02*
X367685Y288489D01*
X364912Y282887D02*
X369613Y287588D01*
X362432Y286064D02*
X366436Y290068D01*
X363058Y288298D02*
X366798Y284559D01*
X354851Y290850D02*
X359350Y286350D01*
X353358Y285476D02*
X357024Y289142D01*
X353863Y289009D02*
X357509Y285363D01*
X354533Y293995D02*
X356028Y292501D01*
X351452Y286398D02*
X356102Y291048D01*
X319176Y132500D02*
X476776Y290100D01*
X316348Y132500D02*
X473630Y289783D01*
X354589Y283878D02*
X358622Y287911D01*
X352207Y287836D02*
X356336Y283707D01*
X343467Y295384D02*
X349283Y301200D01*
X341672D02*
X347509Y295362D01*
X344651Y293739D02*
X352112Y301200D01*
X338843D02*
X346336Y293707D01*
X334967Y292541D02*
X336513Y294087D01*
X344926Y291185D02*
X346008Y292268D01*
X344995Y292220D02*
X346085Y291130D01*
X334890Y291011D02*
X339511Y286390D01*
X330358Y301200D02*
X336882Y294676D01*
X324708Y293595D02*
X332313Y301200D01*
X334183Y294585D02*
X340798Y301200D01*
X319044D02*
X326397Y293848D01*
X323572Y295288D02*
X329484Y301200D01*
X334265Y294465D02*
X336051Y292678D01*
X324979Y292437D02*
X326044Y291372D01*
X324871Y290930D02*
X326000Y292059D01*
X344482Y289904D02*
X348404Y285982D01*
X342566Y285998D02*
X346502Y289934D01*
X349630Y287585D02*
X350721Y286495D01*
X340232Y286492D02*
X341315Y287574D01*
X341178Y287551D02*
X342965Y285765D01*
X344099Y284702D02*
X347798Y288401D01*
X343176Y288382D02*
X346882Y284676D01*
X347894Y285669D02*
X349783Y287558D01*
X333956Y289117D02*
X337617Y285455D01*
X334650Y283739D02*
X338761Y287849D01*
X331615Y286360D02*
X336140Y290885D01*
X324550Y290038D02*
X328538Y286050D01*
X333467Y285384D02*
X337117Y289033D01*
X322697Y285927D02*
X326573Y289803D01*
X320441Y286500D02*
X321570Y287629D01*
X324183Y284585D02*
X327915Y288317D01*
X332348Y287897D02*
X336397Y283848D01*
X323290Y288469D02*
X326969Y284790D01*
X321350Y287581D02*
X326081Y282850D01*
X482324Y256049D02*
X489874Y263600D01*
X469055Y286954D02*
X487608Y268400D01*
X483436Y254333D02*
X492703Y263600D01*
X467641Y285539D02*
X484780Y268400D01*
X480484Y257038D02*
X487046Y263600D01*
X473617Y233200D02*
X484761Y244345D01*
X467960Y233200D02*
X481933Y247173D01*
X470788Y233200D02*
X483347Y245759D01*
X462525Y262371D02*
X491696Y233200D01*
X460765Y240147D02*
X484218Y263600D01*
X460213Y261854D02*
X488867Y233200D01*
X466226Y284125D02*
X481952Y268400D01*
X465913Y233981D02*
X480519Y248587D01*
X450670Y268569D02*
X486039Y233200D01*
X429457Y247356D02*
X488980Y187833D01*
X428043Y245941D02*
X486353Y187630D01*
X449256Y267155D02*
X483211Y233200D01*
X447842Y265740D02*
X480382Y233200D01*
X493673Y227800D02*
X494272Y228400D01*
X490587Y233200D02*
X493247Y235859D01*
X493667Y228400D02*
X494471Y227597D01*
X487759Y233200D02*
X491832Y237274D01*
X490839Y228400D02*
X491613Y227626D01*
X488011Y228400D02*
X489878Y226533D01*
X487289Y224245D02*
X491444Y228400D01*
X487352Y223402D02*
X489023Y221730D01*
X486415Y226199D02*
X488616Y228400D01*
X485182D02*
X488831Y224751D01*
X482102Y233200D02*
X489004Y240102D01*
X479273Y233200D02*
X487590Y241516D01*
X484930Y233200D02*
X490418Y238688D01*
X476445Y233200D02*
X486175Y242931D01*
X482354Y228400D02*
X482902Y227852D01*
X484834Y227447D02*
X485787Y228400D01*
X479525D02*
X480718Y227207D01*
X482365Y227806D02*
X482959Y228400D01*
X464812Y282711D02*
X479123Y268400D01*
X463398Y281297D02*
X476295Y268400D01*
X461984Y279883D02*
X473466Y268400D01*
X459155Y277054D02*
X467809Y268400D01*
X457741Y275640D02*
X464981Y268400D01*
X469781Y263600D02*
X477035Y256346D01*
X466953Y263600D02*
X475754Y254799D01*
X472610Y263600D02*
X479075Y257134D01*
X460570Y278468D02*
X470638Y268400D01*
X464124Y263600D02*
X475399Y252325D01*
X456327Y274226D02*
X460398Y270155D01*
X454913Y272812D02*
X458238Y269486D01*
X453499Y271397D02*
X456871Y268025D01*
X452084Y269983D02*
X456354Y265713D01*
X446427Y264326D02*
X477554Y233200D01*
X445013Y262912D02*
X474725Y233200D01*
X375000Y282014D02*
X411113Y245900D01*
X443599Y261498D02*
X471897Y233200D01*
X464189Y237914D02*
X476451Y250176D01*
X462864Y239418D02*
X475462Y252016D01*
X464629Y235526D02*
X478167Y249064D01*
X464596Y235298D02*
X466694Y233200D01*
X473868Y228400D02*
X478649Y223619D01*
X463948Y238321D02*
X469068Y233200D01*
X476697Y228400D02*
X479302Y225795D01*
X442185Y260084D02*
X462821Y239448D01*
X440771Y258669D02*
X459425Y240015D01*
X439356Y257255D02*
X457618Y238994D01*
X461202Y231904D02*
X464003Y229103D01*
X437942Y255841D02*
X456536Y237247D01*
X436528Y254427D02*
X456754Y234201D01*
X430871Y248770D02*
X492909Y186732D01*
X426628Y244527D02*
X484246Y186910D01*
X425214Y243113D02*
X482495Y185832D01*
X423800Y241699D02*
X481048Y184451D01*
X422275Y240395D02*
X479901Y182770D01*
X405600Y240100D02*
X491703Y153997D01*
X402772Y240100D02*
X490289Y152583D01*
X408429Y240100D02*
X493117Y155412D01*
X419742Y240100D02*
X479093Y180749D01*
X414085Y240100D02*
X479359Y174826D01*
X397115Y240100D02*
X487461Y149755D01*
X394287Y240100D02*
X486046Y148340D01*
X399943Y240100D02*
X488875Y151169D01*
X388630Y240100D02*
X483218Y145512D01*
X391458Y240100D02*
X484632Y146926D01*
X382973Y240100D02*
X480389Y142683D01*
X385801Y240100D02*
X481804Y144098D01*
X380145Y240100D02*
X478975Y141269D01*
X384230Y132500D02*
X480130Y228400D01*
X449284Y132500D02*
X485715Y168931D01*
X446456Y132500D02*
X483718Y169762D01*
X452113Y132500D02*
X488165Y168553D01*
X440799Y132500D02*
X480692Y172394D01*
X443627Y132500D02*
X482056Y170929D01*
X475298Y130804D02*
X491702Y114400D01*
X454941Y132500D02*
X491504Y169063D01*
X473884Y129390D02*
X488874Y114400D01*
X472415Y128030D02*
X486046Y114400D01*
X469917Y127700D02*
X483217Y114400D01*
X401201Y132500D02*
X489549Y220848D01*
X398372Y132500D02*
X488700Y222827D01*
X395544Y132500D02*
X482255Y219211D01*
X389887Y132500D02*
X479053Y221666D01*
X392716Y132500D02*
X480301Y220085D01*
X404029Y132500D02*
X491109Y219580D01*
X406858Y132500D02*
X493538Y219181D01*
X429485Y132500D02*
X480089Y183104D01*
X437970Y132500D02*
X479635Y174164D01*
X461233Y127700D02*
X471200D01*
X463034Y126451D02*
X464283Y127700D01*
X463873Y124461D02*
X467112Y127700D01*
X456640Y114400D02*
X469940Y127700D01*
X453118Y124700D02*
X463418Y114400D01*
X447461Y124700D02*
X457761Y114400D01*
X450290Y124700D02*
X460590Y114400D01*
X432314Y132500D02*
X478781Y178967D01*
X416913Y240100D02*
X478750Y178263D01*
X435142Y132500D02*
X478939Y176297D01*
X377316Y240100D02*
X477561Y139855D01*
X387059Y132500D02*
X478694Y224135D01*
X378573Y132500D02*
X474473Y228400D01*
X381402Y132500D02*
X477302Y228400D01*
X375745Y132500D02*
X471645Y228400D01*
X434013Y114400D02*
X444313Y124700D01*
X450983Y114400D02*
X457549Y120966D01*
X453812Y114400D02*
X459539Y120127D01*
X455906Y124700D02*
X456129Y124477D01*
X448155Y114400D02*
X456358Y122604D01*
X444633Y124700D02*
X454933Y114400D01*
X442498D02*
X452798Y124700D01*
X445326Y114400D02*
X455626Y124700D01*
X439669Y114400D02*
X449969Y124700D01*
X441804D02*
X452104Y114400D01*
X436841D02*
X447141Y124700D01*
X436147D02*
X446448Y114400D01*
X438976Y124700D02*
X449276Y114400D01*
X374857Y123126D02*
X376430Y124700D01*
X374503Y119944D02*
X379259Y124700D01*
X431184Y114400D02*
X441484Y124700D01*
X433319D02*
X443619Y114400D01*
X428356D02*
X438656Y124700D01*
X430491D02*
X440791Y114400D01*
X374411Y279774D02*
X408285Y245900D01*
X373059Y278298D02*
X405457Y245900D01*
X371001Y277528D02*
X402629Y245900D01*
X364850Y280850D02*
X399800Y245900D01*
X362207Y277836D02*
X394144Y245900D01*
X368831Y240100D02*
X473318Y135612D01*
X366002Y240100D02*
X471904Y134198D01*
X374488Y240100D02*
X476147Y138441D01*
X363862Y279009D02*
X396972Y245900D01*
X363174Y240100D02*
X470490Y132784D01*
X359630Y277585D02*
X391315Y245900D01*
X354482Y279904D02*
X388487Y245900D01*
X350289Y132500D02*
X481389Y263600D01*
X353176Y278382D02*
X385658Y245900D01*
X351178Y277551D02*
X382830Y245900D01*
X344632Y132500D02*
X475732Y263600D01*
X336147Y132500D02*
X467247Y263600D01*
X347461Y132500D02*
X478561Y263600D01*
X333318Y132500D02*
X464419Y263600D01*
X330490Y132500D02*
X459881Y261891D01*
X371659Y240100D02*
X474732Y137027D01*
X367260Y132500D02*
X463933Y229173D01*
X370088Y132500D02*
X465988Y228400D01*
X361603Y132500D02*
X460974Y231871D01*
X364431Y132500D02*
X462519Y230587D01*
X357517Y240100D02*
X465117Y132500D01*
X354689Y240100D02*
X462289Y132500D01*
X360346Y240100D02*
X467945Y132500D01*
X355946D02*
X457082Y233636D01*
X358774Y132500D02*
X458586Y232311D01*
X337718Y240100D02*
X445318Y132500D01*
X334890Y240100D02*
X442490Y132500D01*
X343375Y240100D02*
X450975Y132500D01*
X317919Y240100D02*
X425519Y132500D01*
X332061Y240100D02*
X439661Y132500D01*
X349032Y240100D02*
X456632Y132500D01*
X351860Y240100D02*
X459460Y132500D01*
X346203Y240100D02*
X453803Y132500D01*
X353117D02*
X456353Y235735D01*
X361001Y287528D02*
X362495Y286033D01*
X360013Y286473D02*
X361076Y287537D01*
X364533Y283995D02*
X366028Y282501D01*
X344942Y282717D02*
X346831Y284606D01*
X354963Y281424D02*
X356027Y282487D01*
X363864Y279011D02*
X366069Y281216D01*
X354995Y282221D02*
X356085Y281130D01*
X344265Y284465D02*
X346051Y282678D01*
X329872Y287544D02*
X330937Y286479D01*
X334979Y282437D02*
X336044Y281372D01*
X328414Y285987D02*
X329959Y287533D01*
X324967Y282541D02*
X326513Y284086D01*
X324924Y281178D02*
X360202Y245900D01*
X334926Y281186D02*
X336008Y282268D01*
X334550Y280038D02*
X368688Y245900D01*
X333581D02*
X366935Y279254D01*
X336410Y245900D02*
X368486Y277976D01*
X333290Y278469D02*
X365859Y245900D01*
X331350Y277581D02*
X363031Y245900D01*
X344890Y281011D02*
X380001Y245900D01*
X343955Y279117D02*
X377173Y245900D01*
X342348Y277897D02*
X374344Y245900D01*
X339872Y277544D02*
X371516Y245900D01*
X339238D02*
X370852Y277514D01*
X322484Y277961D02*
X354545Y245900D01*
X322268D02*
X356436Y280068D01*
X320099Y277518D02*
X351717Y245900D01*
X316611D02*
X348622Y277911D01*
X319439Y245900D02*
X351076Y277537D01*
X330753Y245900D02*
X363489Y278636D01*
X327924Y245900D02*
X359613Y277588D01*
X324045Y279229D02*
X357374Y245900D01*
X325096D02*
X357685Y278489D01*
X372917Y132500D02*
X468817Y228400D01*
X341804Y132500D02*
X472904Y263600D01*
X374100Y124700D02*
X455906D01*
X365437D02*
X366364Y123773D01*
X364100Y124700D02*
X366900D01*
X373077Y115689D02*
X382087Y124700D01*
X324833Y132500D02*
X456685Y264352D01*
X322005Y132500D02*
X456454Y266949D01*
X326404Y240100D02*
X434004Y132500D01*
X320747Y240100D02*
X428347Y132500D01*
X323576Y240100D02*
X431176Y132500D01*
X338975D02*
X470075Y263600D01*
X327662Y132500D02*
X457911Y262749D01*
X329233Y240100D02*
X436833Y132500D01*
X340546Y240100D02*
X448146Y132500D01*
X371028Y116469D02*
X372556Y117997D01*
X364993Y121748D02*
X366078Y122833D01*
X369744Y117564D02*
X370820Y116489D01*
X364493Y124076D02*
X365117Y124700D01*
X364989Y122320D02*
X366064Y121244D01*
X364514Y119966D02*
X368466Y116014D01*
X363877Y114975D02*
X367525Y118623D01*
X363229Y118422D02*
X366922Y114729D01*
X362228Y116155D02*
X366345Y120272D01*
X361259Y117564D02*
X363301Y115522D01*
X354895Y122964D02*
X356631Y124700D01*
X354123D02*
X356064Y122759D01*
X354100Y124700D02*
X356900D01*
X354204Y119444D02*
X356055Y121296D01*
X354907Y121088D02*
X359588Y116407D01*
X359667Y116422D02*
X360752Y117507D01*
X353193Y115605D02*
X356895Y119307D01*
X353998Y119169D02*
X357669Y115498D01*
X345638Y124700D02*
X346426Y123911D01*
X344559Y123942D02*
X345318Y124700D01*
X344100D02*
X346900D01*
X334324D02*
X336097Y122927D01*
X334929Y122797D02*
X336832Y124700D01*
X344975Y121529D02*
X346039Y122593D01*
X344967Y122542D02*
X346030Y121479D01*
X324100Y124700D02*
X326900D01*
X334100D02*
X336900D01*
X324623Y123804D02*
X325518Y124700D01*
X325839D02*
X326492Y124047D01*
X324945Y121298D02*
X326015Y122368D01*
X324932Y122778D02*
X326010Y121700D01*
X351204Y116445D02*
X353056Y118297D01*
X349979Y117530D02*
X351042Y116467D01*
X339907Y116461D02*
X340971Y117525D01*
X334938Y121257D02*
X336914Y119282D01*
X337782Y118414D02*
X339757Y116438D01*
X344580Y120101D02*
X348601Y116080D01*
X343969Y114866D02*
X347634Y118531D01*
X343342Y118511D02*
X347011Y114842D01*
X342368Y116094D02*
X346406Y120132D01*
X334086Y119281D02*
X337781Y115586D01*
X331375Y116414D02*
X336086Y121125D01*
X324642Y120240D02*
X328740Y116142D01*
X330200Y117510D02*
X331278Y116432D01*
X318349Y118047D02*
X319933Y116464D01*
X320132Y116485D02*
X321202Y117555D01*
X333307Y115517D02*
X336982Y119193D01*
X324058Y114755D02*
X327745Y118442D01*
X322504Y116029D02*
X326471Y119996D01*
X323451Y118603D02*
X327103Y114951D01*
X583449Y105445D02*
X647706Y169702D01*
X582035Y106859D02*
X647706Y172530D01*
X584864Y104031D02*
X647706Y166873D01*
X579207Y109687D02*
X647706Y178187D01*
X580621Y108273D02*
X647706Y175359D01*
X590520Y98374D02*
X647706Y155560D01*
X589106Y99788D02*
X647706Y158388D01*
X591935Y96959D02*
X647706Y152731D01*
X586278Y102616D02*
X647706Y164045D01*
X587692Y101202D02*
X647706Y161216D01*
X577793Y111102D02*
X647706Y181016D01*
X555613Y183424D02*
X647706Y91331D01*
X557108Y179102D02*
X647706Y88503D01*
X574948Y113914D02*
X647706Y186672D01*
X576378Y112516D02*
X647706Y183844D01*
X555260Y172464D02*
X647706Y80018D01*
X553910Y170986D02*
X647706Y77189D01*
X552261Y169806D02*
X647706Y74361D01*
X556981Y176400D02*
X647706Y85675D01*
X556304Y174249D02*
X647706Y82846D01*
X604329Y86727D02*
X647706Y130104D01*
X603316Y88542D02*
X647706Y132932D01*
X604119Y83688D02*
X647706Y127275D01*
X599006Y89889D02*
X647706Y138589D01*
X601637Y89692D02*
X647706Y135761D01*
X603875Y77787D02*
X647706Y121618D01*
X602501Y79241D02*
X647706Y124447D01*
X604499Y75583D02*
X647706Y118790D01*
X600412Y79981D02*
X601812Y81381D01*
X594763Y94131D02*
X647706Y147074D01*
X593349Y95545D02*
X647706Y149903D01*
X596177Y92717D02*
X647706Y144246D01*
X597591Y91303D02*
X647706Y141417D01*
X598313Y81328D02*
X599654Y79987D01*
X598735Y69819D02*
X599917Y71001D01*
X574207Y104687D02*
X575813Y106293D01*
X571378Y107516D02*
X572984Y109122D01*
X572792Y106102D02*
X574398Y107708D01*
X575197Y113697D02*
X599005Y89889D01*
X572506Y109600D02*
X595611Y86495D01*
X578449Y100445D02*
X580055Y102051D01*
X575621Y103273D02*
X577227Y104879D01*
X577035Y101859D02*
X578641Y103465D01*
X569964Y108930D02*
X570634Y109600D01*
X569294D02*
X572506D01*
X554083Y87392D02*
X569398Y102708D01*
X550936Y89902D02*
X566570Y105536D01*
X552847Y88985D02*
X567984Y104122D01*
X570041Y109600D02*
X595828Y83812D01*
X569294Y109600D02*
X599005Y79889D01*
X564556Y106600D02*
X595503Y75653D01*
X565506Y106600D02*
X595611Y76495D01*
X588349Y90545D02*
X589955Y92151D01*
X586935Y91959D02*
X588541Y93565D01*
X589763Y89131D02*
X591369Y90737D01*
X584106Y94788D02*
X585712Y96394D01*
X585521Y93374D02*
X587126Y94980D01*
X595420Y83474D02*
X595809Y83863D01*
X594006Y84888D02*
X595611Y86494D01*
X598248Y80646D02*
X598773Y81170D01*
X591177Y87717D02*
X592783Y89323D01*
X592591Y86303D02*
X594197Y87909D01*
X581278Y97616D02*
X582884Y99222D01*
X579864Y99031D02*
X581469Y100636D01*
X582692Y96202D02*
X584298Y97808D01*
X554466Y84946D02*
X570813Y101293D01*
X551918Y79571D02*
X572227Y99879D01*
X554408Y76404D02*
X575055Y97051D01*
X553479Y72646D02*
X576470Y95636D01*
X553502Y78326D02*
X573641Y98465D01*
X550767Y69934D02*
X552854Y72021D01*
X604492Y55776D02*
X647706Y98991D01*
X603799Y57912D02*
X647706Y101819D01*
X604232Y47031D02*
X647706Y90506D01*
X604283Y66881D02*
X647706Y110305D01*
X604249Y64019D02*
X647706Y107476D01*
Y1900D02*
Y372116D01*
X604212Y83915D02*
X647706Y40420D01*
X604476Y35962D02*
X647706Y79192D01*
X604340Y44311D02*
X647706Y87677D01*
X604366Y86588D02*
X647706Y43248D01*
X602379Y59320D02*
X647706Y104648D01*
X601340Y49796D02*
X647706Y96162D01*
X603118Y48745D02*
X647706Y93334D01*
X601491Y69746D02*
X647706Y115962D01*
X603218Y68645D02*
X647706Y113133D01*
X603079Y82218D02*
X647706Y37591D01*
X601283Y81187D02*
X647706Y34763D01*
X602253Y39395D02*
X647706Y84849D01*
X603719Y38033D02*
X647706Y82020D01*
X604487Y75154D02*
X647706Y31934D01*
X603770Y73043D02*
X647706Y29106D01*
X604404Y24576D02*
X647706Y67878D01*
X604176Y27176D02*
X647706Y70707D01*
X604497Y55345D02*
X630219Y29623D01*
X603636Y18151D02*
X647706Y62221D01*
X603181Y62317D02*
X647706Y17792D01*
X604454Y16141D02*
X647706Y59393D01*
X604287Y66869D02*
X647706Y23449D01*
X604264Y64063D02*
X647706Y20621D01*
X603013Y28842D02*
X647706Y73535D01*
X601184Y29841D02*
X647706Y76363D01*
X600224Y59994D02*
X601481Y61251D01*
X602124Y19467D02*
X647706Y65050D01*
X593042Y1900D02*
X647706Y56564D01*
X602332Y71652D02*
X647706Y26278D01*
X601435Y61235D02*
X634297Y28373D01*
X558899Y106600D02*
X596817Y68681D01*
X556070Y106600D02*
X595735Y66935D01*
X561727Y106600D02*
X598563Y69764D01*
X554017Y67527D02*
X579298Y92808D01*
X554488Y65169D02*
X580712Y91394D01*
X554500Y85544D02*
X595634Y44409D01*
X553922Y83293D02*
X597793Y39422D01*
X554498Y45381D02*
X590612Y81494D01*
X554372Y56568D02*
X584955Y87151D01*
X553948Y47659D02*
X589197Y82908D01*
X553411Y58435D02*
X583541Y88565D01*
X553242Y106600D02*
X595714Y64127D01*
X553917Y53285D02*
X586369Y85737D01*
X552735Y69073D02*
X577884Y94222D01*
X551780Y59633D02*
X582126Y89979D01*
X552576Y81810D02*
X596310Y38076D01*
X553316Y38542D02*
X593440Y78666D01*
X552620Y49159D02*
X587783Y84323D01*
X551637Y39691D02*
X592026Y80080D01*
X600153Y71003D02*
X601369Y69787D01*
X554357Y74373D02*
X598873Y29857D01*
X598627Y61214D02*
X599845Y59997D01*
X554329Y36727D02*
X594854Y77252D01*
X565302Y27900D02*
X598619Y61217D01*
X559645Y27900D02*
X595754Y64009D01*
X556816Y27900D02*
X595681Y66765D01*
X562473Y27900D02*
X596855Y62282D01*
X554493Y65751D02*
X592345Y27900D01*
X568130D02*
X595506Y55275D01*
X554003Y77555D02*
X595531Y36027D01*
X552501Y29241D02*
X596259Y72999D01*
X553376Y72525D02*
X597025Y28876D01*
X554119Y33688D02*
X595519Y75088D01*
X553992Y63424D02*
X589516Y27900D01*
X553988D02*
X597713Y71625D01*
X551728Y71345D02*
X595173Y27900D01*
X552693Y61895D02*
X586688Y27900D01*
X553705Y58055D02*
X583859Y27900D01*
X535822Y220186D02*
X647706Y108302D01*
X535400Y217780D02*
X647706Y105474D01*
X535400Y214952D02*
X647706Y102645D01*
X537016Y221821D02*
X647706Y111130D01*
X542488Y219178D02*
X647706Y113959D01*
X547606Y89400D02*
X564806Y106600D01*
X535400Y212123D02*
X647706Y99817D01*
X544777Y89400D02*
X561977Y106600D01*
X539120Y89400D02*
X556320Y106600D01*
X541949Y89400D02*
X559149Y106600D01*
X465125Y114400D02*
X647706Y296981D01*
X462297Y114400D02*
X647706Y299810D01*
X467954Y114400D02*
X647706Y294153D01*
X459469Y114400D02*
X647706Y302638D01*
X377712Y114400D02*
X573500D01*
X535400Y206466D02*
X647706Y94160D01*
X535400Y209295D02*
X647706Y96988D01*
X517724Y173230D02*
X601088Y89867D01*
X516310Y171816D02*
X573738Y114388D01*
X379949Y106600D02*
X565506D01*
X550527Y81031D02*
X552055Y79504D01*
X549679Y81011D02*
X550754Y79936D01*
X550105Y80586D02*
X550554Y81034D01*
X540715Y74800D02*
X544860D01*
X533463Y89400D02*
X550664Y106600D01*
X533443D02*
X550044Y90000D01*
X536292Y89400D02*
X553492Y106600D01*
X530615D02*
X547793Y89422D01*
X518500Y89400D02*
X547755D01*
X527807D02*
X545007Y106600D01*
X530635Y89400D02*
X547835Y106600D01*
X524978Y89400D02*
X542178Y106600D01*
X527787D02*
X544987Y89400D01*
X522150D02*
X539350Y106600D01*
X522130D02*
X539330Y89400D01*
X524958Y106600D02*
X542158Y89400D01*
X511476Y90040D02*
X528036Y106600D01*
X519321Y89400D02*
X536521Y106600D01*
X516473D02*
X533673Y89400D01*
X514304Y87211D02*
X533693Y106600D01*
X519301D02*
X536501Y89400D01*
X513645Y106600D02*
X530844Y89400D01*
X512890Y88626D02*
X530864Y106600D01*
X510816D02*
X528016Y89400D01*
X479268Y114400D02*
X538830Y173963D01*
X510062Y91454D02*
X525208Y106600D01*
X505819Y95697D02*
X516722Y106600D01*
X508647Y92868D02*
X522379Y106600D01*
X505159D02*
X522359Y89400D01*
X507988Y106600D02*
X525188Y89400D01*
X496674Y106600D02*
X515379Y87895D01*
X499502Y106600D02*
X517002Y89101D01*
X535816Y81600D02*
X536150Y81266D01*
X520115Y81600D02*
X536492D01*
X514500Y87015D02*
X515742Y88258D01*
X530159Y81600D02*
X533322Y78437D01*
X527331Y81600D02*
X531908Y77023D01*
X532988Y81600D02*
X534736Y79852D01*
X517258Y78742D02*
X520115Y81600D01*
X524502D02*
X530493Y75609D01*
X507233Y94282D02*
X519551Y106600D01*
X502331D02*
X519531Y89400D01*
X496758Y104758D02*
X514500Y87015D01*
X502990Y98525D02*
X511065Y106600D01*
X504405Y97111D02*
X513894Y106600D01*
X492385Y98100D02*
X511742Y78742D01*
X550280Y168959D02*
X647706Y71532D01*
X547854Y168556D02*
X647706Y68704D01*
X542616Y74800D02*
X547924Y69492D01*
X540251Y74336D02*
X546395Y68193D01*
X544580Y169002D02*
X647706Y65876D01*
X541929Y106600D02*
X598716Y49813D01*
X550413Y106600D02*
X597666Y59347D01*
X544757Y106600D02*
X595513Y55843D01*
X547585Y106600D02*
X596229Y57956D01*
X524795Y180301D02*
X647706Y57390D01*
X523381Y178887D02*
X647706Y54562D01*
X521967Y177473D02*
X647706Y51733D01*
X527624Y183130D02*
X647706Y63047D01*
X526210Y181716D02*
X647706Y60219D01*
X520553Y176059D02*
X647706Y48905D01*
X519139Y174644D02*
X647706Y46077D01*
X536272Y106600D02*
X595788Y47084D01*
X539100Y106600D02*
X596920Y48781D01*
X550704Y61055D02*
X552555Y59205D01*
X549257Y59938D02*
X550331Y61012D01*
X537423Y71508D02*
X549035Y59895D01*
X549167Y71078D02*
X550251Y69993D01*
X531766Y65851D02*
X548058Y49559D01*
X527524Y61608D02*
X549203Y39929D01*
X536009Y70094D02*
X547133Y58969D01*
X530352Y64437D02*
X546482Y48306D01*
X522301Y35811D02*
X547973Y61483D01*
X513631Y35626D02*
X549096Y71092D01*
X526109Y60194D02*
X547245Y39058D01*
X507470Y35122D02*
X545929Y73582D01*
X524695Y58780D02*
X545971Y37504D01*
X508945Y33768D02*
X547174Y71998D01*
X521867Y55951D02*
X548196Y29622D01*
X518227Y34566D02*
X546426Y62765D01*
X520452Y54537D02*
X546573Y28416D01*
X521674Y81600D02*
X529079Y74195D01*
X519481Y80965D02*
X527665Y72781D01*
X518066Y79551D02*
X526251Y71366D01*
X508275Y67040D02*
X522835Y81600D01*
X516585Y78204D02*
X524837Y69952D01*
X513932Y61383D02*
X534149Y81600D01*
X512518Y62797D02*
X531320Y81600D01*
X515100Y60215D02*
X536342Y81458D01*
X509690Y65626D02*
X525664Y81600D01*
X511104Y64212D02*
X528492Y81600D01*
X488203Y98100D02*
X520594Y65709D01*
X485375Y98100D02*
X519180Y64295D01*
X491032Y98100D02*
X522008Y67124D01*
X504033Y71283D02*
X511617Y78867D01*
X506861Y68454D02*
X516658Y78252D01*
X479718Y98100D02*
X516351Y61467D01*
X482547Y98100D02*
X517766Y62881D01*
X486499Y88816D02*
X515100Y60215D01*
X478553Y82294D02*
X510940Y49907D01*
X544860Y74800D02*
X545816Y73844D01*
X538837Y72922D02*
X545555Y66204D01*
X534595Y68679D02*
X545906Y57368D01*
X518400Y52485D02*
X540715Y74800D01*
X533181Y67265D02*
X545539Y54906D01*
X528938Y63022D02*
X545586Y46374D01*
X516422Y35589D02*
X545566Y64733D01*
X525129Y35811D02*
X545562Y56243D01*
X518400Y51709D02*
X541491Y74800D01*
X523281Y57366D02*
X545515Y35131D01*
X514358Y77603D02*
X523422Y68538D01*
X480043Y77976D02*
X522208Y35811D01*
X505318Y35798D02*
X544319Y74800D01*
X505447Y69869D02*
X513351Y77773D01*
X477700Y71834D02*
X513851Y35683D01*
X480348Y74842D02*
X520064Y35127D01*
X479358Y73004D02*
X516990Y35373D01*
X480495Y66210D02*
X511939Y34766D01*
X479979Y63898D02*
X510647Y33230D01*
X631822Y29366D02*
X647706Y45251D01*
X629275Y29647D02*
X647706Y48079D01*
X633882Y28598D02*
X647706Y42422D01*
X603847Y53166D02*
X627560Y29453D01*
X625645Y28847D02*
X647706Y50908D01*
X635594Y27482D02*
X647706Y39594D01*
X604173Y47183D02*
X623668Y27688D01*
X637006Y26065D02*
X647706Y36766D01*
X604313Y44216D02*
X622208Y26321D01*
X604500Y35544D02*
X619852Y20192D01*
X600343Y51013D02*
X601683Y49673D01*
X600029Y40000D02*
X601189Y41160D01*
X598434Y49719D02*
X599724Y51008D01*
X598909Y41134D02*
X600044Y40000D01*
X603281Y42420D02*
X621046Y24654D01*
X602456Y51729D02*
X625434Y28751D01*
X601584Y41288D02*
X620221Y22651D01*
X585101Y27900D02*
X598469Y41268D01*
X638877Y22279D02*
X647706Y31109D01*
X638116Y24346D02*
X647706Y33937D01*
X639146Y19720D02*
X647706Y28280D01*
X603922Y33293D02*
X620386Y16829D01*
X600527Y31031D02*
X602055Y29504D01*
X638305Y16050D02*
X647706Y25452D01*
X637873Y24797D02*
X647706Y14964D01*
X639123Y20719D02*
X647706Y12135D01*
X638953Y18060D02*
X647706Y9307D01*
X599825Y19997D02*
X600924Y21096D01*
X598088Y29574D02*
X599538Y31024D01*
X599167Y21078D02*
X600251Y19993D01*
X594316Y23100D02*
X597924Y19492D01*
X584800Y7800D02*
X598324Y21324D01*
X590758Y27900D02*
X596105Y33247D01*
X582272Y27900D02*
X596755Y42382D01*
X593586Y27900D02*
X597467Y31781D01*
X579444Y27900D02*
X595704Y44160D01*
X587929Y27900D02*
X595500Y35471D01*
X588659Y23100D02*
X595555Y16204D01*
X585831Y23100D02*
X595018Y13913D01*
X591488Y23100D02*
X596395Y18193D01*
X580174Y23100D02*
X592190Y11084D01*
X583002Y23100D02*
X593604Y12498D01*
X573787Y27900D02*
X597588Y51701D01*
X570959Y27900D02*
X596180Y53121D01*
X576615Y27900D02*
X595781Y47066D01*
X554475Y45970D02*
X572545Y27900D01*
X554059Y43558D02*
X569717Y27900D01*
X553807D02*
X596193D01*
X576314Y7800D02*
X591614Y23100D01*
X554395Y54535D02*
X581031Y27900D01*
X554429Y34703D02*
X561232Y27900D01*
X577346Y23100D02*
X590776Y9670D01*
X574517Y23100D02*
X589361Y8256D01*
X587628Y7800D02*
X595503Y15675D01*
X571689Y23100D02*
X586989Y7800D01*
X573486D02*
X588786Y23100D01*
X567829Y7800D02*
X583129Y23100D01*
X566032D02*
X581332Y7800D01*
X568860Y23100D02*
X584160Y7800D01*
X562172D02*
X577472Y23100D01*
X565001Y7800D02*
X580301Y23100D01*
X557547D02*
X572847Y7800D01*
X556515D02*
X571815Y23100D01*
X553807D02*
X596193D01*
X554283Y16881D02*
X560502Y23100D01*
X554249Y14019D02*
X563330Y23100D01*
X554718D02*
X570018Y7800D01*
X559344D02*
X574644Y23100D01*
X553687Y7800D02*
X568987Y23100D01*
X554457Y14876D02*
X561533Y7800D01*
X632640Y1900D02*
X647706Y16966D01*
X629811Y1900D02*
X647706Y19795D01*
X635468Y1900D02*
X647706Y14138D01*
X638251Y15934D02*
X647706Y6479D01*
X637188Y14168D02*
X647706Y3650D01*
X626983Y1900D02*
X647706Y22623D01*
X604357Y24373D02*
X626830Y1900D01*
X610012D02*
X622018Y13906D01*
X604493Y15752D02*
X618344Y1900D01*
X607184D02*
X620902Y15618D01*
X602576Y31810D02*
X632487Y1900D01*
X595870D02*
X647706Y53736D01*
X601728Y21345D02*
X621173Y1900D01*
X598699D02*
X620653Y23855D01*
X601527Y1900D02*
X619853Y20225D01*
X604003Y27555D02*
X629658Y1900D01*
X603376Y22525D02*
X624001Y1900D01*
X604356D02*
X620133Y17678D01*
X603992Y13424D02*
X615516Y1900D01*
X634154Y11546D02*
X643800Y1900D01*
X632151Y10721D02*
X640972Y1900D01*
X629692Y10352D02*
X638143Y1900D01*
X624155D02*
X633450Y11196D01*
X626329Y10886D02*
X635315Y1900D01*
X643954D02*
X647706Y5653D01*
X641125Y1900D02*
X647706Y8481D01*
X646782Y1900D02*
X647706Y2824D01*
X635821Y12708D02*
X646629Y1900D01*
X638297D02*
X647706Y11310D01*
X602693Y11895D02*
X612688Y1900D01*
X600704Y11055D02*
X609859Y1900D01*
X598412Y10518D02*
X607031Y1900D01*
X596998Y9104D02*
X604202Y1900D01*
X595584Y7690D02*
X601374Y1900D01*
X618498D02*
X627221Y10623D01*
X621326Y1900D02*
X629780Y10354D01*
X612841Y1900D02*
X623435Y12494D01*
X615669Y1900D02*
X625154Y11384D01*
X591597Y3703D02*
X599005Y11111D01*
X588906Y7800D02*
X595611Y14505D01*
X594170Y6276D02*
X598546Y1900D01*
X592756Y4862D02*
X595717Y1900D01*
X590213D02*
X599359Y11046D01*
X591322Y3467D02*
X592889Y1900D01*
X587385D02*
X588485Y3000D01*
X588960D02*
X590060Y1900D01*
X579143Y7800D02*
X594443Y23100D01*
X570658Y7800D02*
X585958Y23100D01*
X581971Y7800D02*
X596658Y22487D01*
X560375Y23100D02*
X575675Y7800D01*
X563203Y23100D02*
X578503Y7800D01*
X583303Y3000D02*
X584403Y1900D01*
X584557D02*
X585657Y3000D01*
X580475D02*
X581575Y1900D01*
X581728D02*
X582828Y3000D01*
X571990D02*
X573090Y1900D01*
X570414D02*
X571514Y3000D01*
X573243Y1900D02*
X574343Y3000D01*
X567586Y1900D02*
X568686Y3000D01*
X569161D02*
X570261Y1900D01*
X578900D02*
X580000Y3000D01*
X577646D02*
X578747Y1900D01*
X586132Y3000D02*
X587232Y1900D01*
X574818Y3000D02*
X575918Y1900D01*
X576071D02*
X577171Y3000D01*
X559101Y1900D02*
X560201Y3000D01*
X557847D02*
X558948Y1900D01*
X560676Y3000D02*
X561776Y1900D01*
X555019Y3000D02*
X556119Y1900D01*
X556272D02*
X557372Y3000D01*
X564758Y1900D02*
X565858Y3000D01*
X566333D02*
X567433Y1900D01*
X561929D02*
X563029Y3000D01*
X563504D02*
X564604Y1900D01*
X550593Y49961D02*
X552215Y51583D01*
X549406Y51039D02*
X550470Y49975D01*
X549006Y39889D02*
X550119Y41002D01*
X553469Y52634D02*
X578202Y27900D01*
X551868Y51406D02*
X575374Y27900D01*
X552806Y41982D02*
X566889Y27900D01*
X550874Y41086D02*
X564060Y27900D01*
X539846D02*
X545809Y33863D01*
X529864Y32060D02*
X548932Y51129D01*
X529864Y34888D02*
X547064Y52089D01*
X531365Y27904D02*
X546341Y42880D01*
X527958Y35811D02*
X545867Y53720D01*
X529951Y29318D02*
X545539Y44907D01*
X534189Y27900D02*
X547841Y41552D01*
X519038Y53123D02*
X544261Y27900D01*
X537017D02*
X545611Y36494D01*
X518364Y50969D02*
X541433Y27900D01*
X517498Y49006D02*
X538604Y27900D01*
X553558Y32745D02*
X558403Y27900D01*
X552004Y31471D02*
X555575Y27900D01*
X550412Y29981D02*
X551812Y31381D01*
X549631Y31015D02*
X550702Y29945D01*
X551491Y19746D02*
X554845Y23100D01*
X553218Y18645D02*
X557673Y23100D01*
X547701Y21631D02*
X549376Y19956D01*
X548735Y19818D02*
X549917Y21001D01*
X545503Y27900D02*
X548773Y31170D01*
X542674Y27900D02*
X546958Y32184D01*
X531369Y27900D02*
X546193D01*
X529864Y33812D02*
X535776Y27900D01*
X530375Y23100D02*
X546193D01*
X540576D02*
X546039Y17636D01*
X543404Y23100D02*
X547360Y19144D01*
X527211Y15265D02*
X535046Y23100D01*
X537747D02*
X545503Y15345D01*
X520064Y35811D02*
X529864D01*
X519426Y32936D02*
X520064Y33574D01*
X519425Y32937D02*
X520064Y32298D01*
X519849Y30531D02*
X520064Y30745D01*
X519736Y29798D02*
X520064Y29470D01*
X529864Y30984D02*
X532947Y27900D01*
X529864Y29405D02*
Y35811D01*
Y29405D02*
X531369Y27900D01*
X520064Y29405D02*
Y35811D01*
X515839Y47837D02*
X527865Y35811D01*
X512908Y47940D02*
X525036Y35811D01*
X519313Y28655D02*
X520064Y29405D01*
X518400Y51500D02*
Y52485D01*
X490591Y23900D02*
X514296Y47605D01*
X484934Y23900D02*
X510941Y49906D01*
X487762Y23900D02*
X512208Y48345D01*
X526470Y26011D02*
X528678Y23803D01*
X517250Y19803D02*
X523458Y26011D01*
X526470D01*
X524928Y15811D02*
X532217Y23100D01*
X519248Y21801D02*
X525246Y15803D01*
X517834Y20387D02*
X522876Y15344D01*
X514559Y23900D02*
X517220Y26561D01*
X513218Y23900D02*
X515344Y26026D01*
X515037Y26011D02*
X515854Y25195D01*
X509397Y28823D02*
X514320Y23900D01*
X510390D02*
X512939Y26449D01*
X481494Y23900D02*
X514559D01*
X480500Y19100D02*
X515553D01*
X507561Y23900D02*
X511309Y27647D01*
X508179Y27213D02*
X511492Y23900D01*
X552916Y22073D02*
X567190Y7800D01*
X551040Y21122D02*
X564361Y7800D01*
X553644Y12860D02*
X558704Y7800D01*
X552136Y11540D02*
X555876Y7800D01*
X550859D02*
X566159Y23100D01*
X534919D02*
X550219Y7800D01*
X542373D02*
X546855Y12282D01*
X536716Y7800D02*
X545681Y16765D01*
X539545Y7800D02*
X545754Y14009D01*
X532091Y23100D02*
X547391Y7800D01*
X529507Y9076D02*
X543531Y23100D01*
X531060Y7800D02*
X546259Y22999D01*
X528770Y13996D02*
X537874Y23100D01*
X529714Y12112D02*
X540703Y23100D01*
X526351Y26011D02*
X544562Y7800D01*
X533888D02*
X547713Y21625D01*
X523523Y26011D02*
X541734Y7800D01*
X522076Y24629D02*
X538905Y7800D01*
X553444Y1900D02*
X554544Y3000D01*
X549845Y11003D02*
X553048Y7800D01*
X550615Y1900D02*
X551715Y3000D01*
X548030Y7800D02*
X551481Y11251D01*
X545202Y7800D02*
X548619Y11217D01*
X549362Y3000D02*
X550462Y1900D01*
X547787D02*
X548887Y3000D01*
X552191D02*
X553291Y1900D01*
X544959D02*
X546059Y3000D01*
X546534D02*
X547634Y1900D01*
X528750Y7800D02*
X588906D01*
X486600Y3000D02*
X589900D01*
X543705D02*
X544805Y1900D01*
X540877Y3000D02*
X541977Y1900D01*
X542130D02*
X543230Y3000D01*
X538049D02*
X539149Y1900D01*
X539302D02*
X540402Y3000D01*
X535220D02*
X536320Y1900D01*
X536473D02*
X537573Y3000D01*
X529856Y11193D02*
X533249Y7800D01*
X520662Y23215D02*
X536077Y7800D01*
X516202Y19189D02*
X521266Y14126D01*
X513463Y19100D02*
X520264Y12299D01*
X514089Y7800D02*
X529539Y23250D01*
X529397Y8823D02*
X530420Y7800D01*
X516917D02*
X520064Y10947D01*
X519746Y7800D02*
X520610Y8664D01*
X509753Y11949D02*
X523815Y26011D01*
X509341Y8709D02*
X526556Y25924D01*
X510635Y19100D02*
X520288Y9447D01*
X507342Y15195D02*
X511247Y19100D01*
X508859Y13884D02*
X514075Y19100D01*
X511261Y7800D02*
X527971Y24510D01*
X507806Y19100D02*
X519106Y7800D01*
X504978Y19100D02*
X516278Y7800D01*
X509838Y11411D02*
X513449Y7800D01*
X525160Y1900D02*
X526260Y3000D01*
X523906D02*
X525006Y1900D01*
X526735Y3000D02*
X527835Y1900D01*
X521078Y3000D02*
X522178Y1900D01*
X522331D02*
X523431Y3000D01*
X532392D02*
X533492Y1900D01*
X530816D02*
X531916Y3000D01*
X533645Y1900D02*
X534745Y3000D01*
X527988Y1900D02*
X529088Y3000D01*
X529563D02*
X530663Y1900D01*
X513846D02*
X514946Y3000D01*
X508749Y7800D02*
X521178D01*
X512593Y3000D02*
X513693Y1900D01*
X509764Y3000D02*
X510864Y1900D01*
X511017D02*
X512117Y3000D01*
X518249D02*
X519349Y1900D01*
X519503D02*
X520603Y3000D01*
X515421D02*
X516521Y1900D01*
X516674D02*
X517774Y3000D01*
X493395Y105900D02*
X494095Y106600D01*
X491017D02*
X491717Y105900D01*
X493846Y106600D02*
X494590Y105855D01*
X488189Y106600D02*
X488889Y105900D01*
X490566D02*
X491266Y106600D01*
X500162Y101353D02*
X505409Y106600D01*
X498748Y102768D02*
X502580Y106600D01*
X501576Y99939D02*
X508237Y106600D01*
X495789Y105465D02*
X496923Y106600D01*
X497334Y104182D02*
X499752Y106600D01*
X467089Y127700D02*
X480389Y114400D01*
X464260Y127700D02*
X477560Y114400D01*
X463577Y125555D02*
X474732Y114400D01*
X463657Y122646D02*
X471903Y114400D01*
X462483Y120992D02*
X469075Y114400D01*
X487738Y105900D02*
X488438Y106600D01*
X479541Y135047D02*
X500188Y114400D01*
X485360Y106600D02*
X486060Y105900D01*
X482532Y106600D02*
X483232Y105900D01*
X484910D02*
X485610Y106600D01*
X482081Y105900D02*
X482781Y106600D01*
X479253Y105900D02*
X479953Y106600D01*
X479703D02*
X480403Y105900D01*
X480758Y96091D02*
X482766Y98100D01*
X479344Y97506D02*
X479938Y98100D01*
X478612D02*
X492385D01*
X471218Y106600D02*
X471918Y105900D01*
X470767D02*
X471467Y106600D01*
X442000Y105900D02*
X494000D01*
X467939D02*
X468639Y106600D01*
X468390D02*
X469090Y105900D01*
X476424D02*
X477124Y106600D01*
X476875D02*
X477575Y105900D01*
X473596D02*
X474296Y106600D01*
X474047D02*
X474747Y105900D01*
X465561Y106600D02*
X466261Y105900D01*
X460513Y120134D02*
X466247Y114400D01*
X462733Y106600D02*
X463433Y105900D01*
X456625D02*
X457325Y106600D01*
X462282Y105900D02*
X462982Y106600D01*
X453797Y105900D02*
X454497Y106600D01*
X451419D02*
X452119Y105900D01*
X454248Y106600D02*
X454948Y105900D01*
X448591Y106600D02*
X449291Y105900D01*
X450969D02*
X451669Y106600D01*
X422005Y124700D02*
X432305Y114400D01*
X419870D02*
X430170Y124700D01*
X422699Y114400D02*
X432999Y124700D01*
X417042Y114400D02*
X427342Y124700D01*
X419177D02*
X429477Y114400D01*
X427662Y124700D02*
X437962Y114400D01*
X448140Y105900D02*
X448840Y106600D01*
X424834Y124700D02*
X435134Y114400D01*
X425527D02*
X435827Y124700D01*
X459904Y106600D02*
X460604Y105900D01*
X459454D02*
X460154Y106600D01*
X465111Y105900D02*
X465811Y106600D01*
X445762D02*
X446462Y105900D01*
X457076Y106600D02*
X457776Y105900D01*
X442934Y106600D02*
X443634Y105900D01*
X442483D02*
X443183Y106600D01*
X445312Y105900D02*
X446012Y106600D01*
X440105D02*
X440949Y105756D01*
X437277Y106600D02*
X439181Y104696D01*
X434448Y106600D02*
X437767Y103282D01*
X428792Y106600D02*
X434938Y100453D01*
X431620Y106600D02*
X436352Y101868D01*
X423135Y106600D02*
X432110Y97625D01*
X425963Y106600D02*
X433524Y99039D01*
X417478Y106600D02*
X429281Y94797D01*
X420306Y106600D02*
X430695Y96211D01*
X487062Y88253D02*
X494647Y95838D01*
X486204Y90224D02*
X493232Y97252D01*
X488476Y86839D02*
X496061Y94424D01*
X494133Y81182D02*
X501718Y88767D01*
X492719Y82596D02*
X500303Y90181D01*
X495547Y79768D02*
X503132Y87353D01*
X489890Y85425D02*
X497475Y93010D01*
X491305Y84011D02*
X498889Y91595D01*
X483586Y93263D02*
X488423Y98100D01*
X482172Y94677D02*
X485595Y98100D01*
X485001Y91849D02*
X491252Y98100D01*
X479291Y97558D02*
X485358Y91492D01*
X445749Y90900D02*
X474918D01*
X475364Y90455D01*
X464291Y90900D02*
X474842Y80348D01*
X445120Y90271D02*
X475003Y60388D01*
X498376Y76940D02*
X505960Y84524D01*
X496961Y78354D02*
X504546Y85939D01*
X499790Y75525D02*
X507374Y83110D01*
X479893Y78256D02*
X482961Y81324D01*
X480500Y76034D02*
X484375Y79909D01*
X480112Y84172D02*
X510600Y53685D01*
X479908Y83768D02*
X510600Y53076D01*
X502618Y72697D02*
X510203Y80282D01*
X501204Y74111D02*
X508789Y81696D01*
X480295Y67344D02*
X488618Y75667D01*
X478530Y79721D02*
X481547Y82738D01*
X477527Y70233D02*
X485789Y78495D01*
X476457Y80477D02*
X477902Y81922D01*
X476492Y81527D02*
X477976Y80043D01*
X435221Y80372D02*
X475170Y40423D01*
X479243Y69120D02*
X487203Y77081D01*
X439464Y84614D02*
X474031Y50046D01*
X430340Y37189D02*
X474812Y81660D01*
X469947Y90900D02*
X472294Y88553D01*
X461462Y90900D02*
X473004Y79358D01*
X472776Y90900D02*
X473768Y89908D01*
X467119Y90900D02*
X471527Y86492D01*
X458634Y90900D02*
X471834Y77700D01*
X455805Y90900D02*
X471587Y75118D01*
X450148Y90900D02*
X472378Y68670D01*
X452977Y90900D02*
X473898Y69979D01*
X430485Y75636D02*
X445749Y90900D01*
X447320D02*
X471550Y66670D01*
X428763Y69552D02*
X450111Y90900D01*
X426809Y70427D02*
X447282Y90900D01*
X427814Y60118D02*
X458596Y90900D01*
X423489Y89734D02*
X440355Y106600D01*
X424830Y90345D02*
X439242Y104758D01*
X428648Y49638D02*
X469910Y90900D01*
X429965Y48127D02*
X472738Y90900D01*
X430381Y57028D02*
X464253Y90900D01*
X429848Y53667D02*
X467081Y90900D01*
X443706Y88857D02*
X473112Y59451D01*
X442292Y87443D02*
X471894Y57841D01*
X438049Y83200D02*
X472465Y48785D01*
X430484Y65616D02*
X455767Y90900D01*
X440878Y86028D02*
X471546Y55361D01*
X433807Y78957D02*
X473223Y39541D01*
X430497Y45830D02*
X471597Y86931D01*
X432393Y77543D02*
X471958Y37978D01*
X436635Y81786D02*
X471579Y46842D01*
X430978Y76129D02*
X471519Y35588D01*
X430034Y67995D02*
X452939Y90900D01*
X423842Y80024D02*
X425364Y81545D01*
X427672Y40178D02*
X471822Y84328D01*
X429340Y39016D02*
X472984Y82661D01*
X429433Y58909D02*
X461424Y90900D01*
X430078Y34098D02*
X471523Y75543D01*
X407863Y124700D02*
X418163Y114400D01*
X405728D02*
X416028Y124700D01*
X408557Y114400D02*
X418857Y124700D01*
X402900Y114400D02*
X413200Y124700D01*
X405035D02*
X415335Y114400D01*
X414214D02*
X424514Y124700D01*
X413520D02*
X423820Y114400D01*
X416349Y124700D02*
X426649Y114400D01*
X410692Y124700D02*
X420992Y114400D01*
X411385D02*
X421685Y124700D01*
X393721D02*
X404021Y114400D01*
X391586D02*
X401886Y124700D01*
X394415Y114400D02*
X404715Y124700D01*
X388758Y114400D02*
X399058Y124700D01*
X390893D02*
X401193Y114400D01*
X400071D02*
X410371Y124700D01*
X399378D02*
X409678Y114400D01*
X402206Y124700D02*
X412506Y114400D01*
X396549Y124700D02*
X406849Y114400D01*
X397243D02*
X407543Y124700D01*
X385929Y114400D02*
X396229Y124700D01*
X385236D02*
X395536Y114400D01*
X388064Y124700D02*
X398364Y114400D01*
X382407Y124700D02*
X392707Y114400D01*
X383101D02*
X393401Y124700D01*
X379579D02*
X389879Y114400D01*
X377427Y114383D02*
X387744Y124700D01*
X380272Y114400D02*
X390572Y124700D01*
X376750D02*
X387050Y114400D01*
X374430Y124192D02*
X384222Y114400D01*
X374422Y114206D02*
X384916Y124700D01*
X374869Y120924D02*
X381394Y114400D01*
X373906Y119059D02*
X378565Y114400D01*
X372273Y117864D02*
X376241Y113896D01*
X374955Y112636D02*
X376015Y113697D01*
X364857Y113127D02*
X369373Y117643D01*
X354492Y114076D02*
X358424Y118008D01*
X352412Y117926D02*
X356426Y113911D01*
X344896Y112964D02*
X349536Y117604D01*
X364022Y114801D02*
X366064Y112759D01*
X355831Y112893D02*
X356051Y112674D01*
X334559Y113942D02*
X338558Y117941D01*
X332546Y117992D02*
X336492Y114047D01*
X341427Y117597D02*
X346097Y112927D01*
X321591Y117634D02*
X326134Y113091D01*
X324929Y112797D02*
X329703Y117571D01*
X334975Y111529D02*
X336039Y112593D01*
X334932Y112778D02*
X336010Y111700D01*
X364907Y111088D02*
X366695Y109300D01*
X364503Y109944D02*
X366031Y111472D01*
X364100Y109300D02*
X366900D01*
X344203Y109444D02*
X346056Y111296D01*
X344938Y111257D02*
X346914Y109282D01*
X353703Y108191D02*
X355593Y106300D01*
X343888D02*
X346895Y109307D01*
X342547Y107992D02*
X344239Y106300D01*
X328256Y107638D02*
X328558Y107941D01*
X324964Y111433D02*
X326547Y109849D01*
X340200Y107510D02*
X341410Y106300D01*
X325427Y110467D02*
X326086Y111125D01*
X341060Y106300D02*
X343056Y108297D01*
X338231Y106300D02*
X339536Y107605D01*
X334642Y110240D02*
X338582Y106300D01*
X335403D02*
X337634Y108531D01*
X411821Y106600D02*
X426453Y91968D01*
X408993Y106600D02*
X425039Y90554D01*
X414649Y106600D02*
X427867Y93382D01*
X403336Y106600D02*
X421958Y87978D01*
X406164Y106600D02*
X423223Y89541D01*
X394850Y106600D02*
X422555Y78895D01*
X386365Y106600D02*
X423337Y69628D01*
X397679Y106600D02*
X424049Y80230D01*
X400507Y106600D02*
X421519Y85588D01*
X389194Y106600D02*
X422193Y73600D01*
X356498Y28400D02*
X434698Y106600D01*
X353670Y28400D02*
X431869Y106600D01*
X359326Y28400D02*
X437526Y106600D01*
X380708D02*
X421504Y65804D01*
X383537Y106600D02*
X422026Y68111D01*
X348013Y28400D02*
X426213Y106600D01*
X350841Y28400D02*
X429041Y106600D01*
X342356Y28400D02*
X420556Y106600D01*
X345184Y28400D02*
X423384Y106600D01*
X378915Y105565D02*
X424309Y60170D01*
X377500Y104151D02*
X422648Y59003D01*
X374426Y101569D02*
X421944Y54050D01*
X392022Y106600D02*
X421614Y77008D01*
X376086Y102737D02*
X421654Y57169D01*
X371666Y101500D02*
X423455Y49711D01*
X367812Y28400D02*
X422537Y83126D01*
X370640Y28400D02*
X424142Y81902D01*
X368838Y101500D02*
X422097Y48240D01*
X373468Y28400D02*
X421523Y76455D01*
X360352Y101500D02*
X422745Y39107D01*
X354696Y101500D02*
X421793Y34402D01*
X363181Y101500D02*
X424455Y40226D01*
X366009Y101500D02*
X421500Y46009D01*
X357524Y101500D02*
X421699Y37325D01*
X351867Y101500D02*
X423576Y29791D01*
X362155Y28400D02*
X422266Y88511D01*
X349039Y101500D02*
X422139Y28400D01*
X364983D02*
X421607Y85024D01*
X347782Y108414D02*
X349896Y106300D01*
X344086Y109281D02*
X347067Y106300D01*
X346717D02*
X348424Y108008D01*
X332574Y106300D02*
X336406Y110132D01*
X333451Y108603D02*
X335753Y106300D01*
X353342Y108511D02*
X355552Y106300D01*
X352373D02*
X353983Y107910D01*
X375552Y102203D02*
X379949Y106600D01*
X351427Y107597D02*
X352724Y106300D01*
X349545D02*
X350752Y107507D01*
X331591Y107634D02*
X332925Y106300D01*
X328349Y108047D02*
X330097Y106300D01*
X329746D02*
X330971Y107525D01*
X324889Y111005D02*
X329594Y106300D01*
X321495Y107611D02*
X326903Y102203D01*
X320410Y107501D02*
X399511Y28400D01*
X322557D02*
X400757Y106600D01*
X316900Y28400D02*
X395100Y106600D01*
X319728Y28400D02*
X397928Y106600D01*
X343382Y101500D02*
X416482Y28400D01*
X340553Y101500D02*
X413653Y28400D01*
X346210Y101500D02*
X419310Y28400D01*
X336699D02*
X414899Y106600D01*
X333870Y28400D02*
X412070Y106600D01*
X339527Y28400D02*
X417727Y106600D01*
X334896Y101500D02*
X407997Y28400D01*
X337725Y101500D02*
X410825Y28400D01*
X331042D02*
X409242Y106600D01*
X329594Y106300D02*
X355593D01*
X328600Y101500D02*
X373855D01*
X328214Y28400D02*
X406414Y106600D01*
X332068Y101500D02*
X405168Y28400D01*
X325385D02*
X403585Y106600D01*
X329240Y101500D02*
X402340Y28400D01*
X480494Y56230D02*
X494275Y70010D01*
X480244Y47495D02*
X498517Y65767D01*
X510600Y51500D02*
Y53685D01*
X480222Y64443D02*
X490032Y74253D01*
X479818Y58382D02*
X492860Y71424D01*
X480481Y36417D02*
X504174Y60110D01*
X480190Y27641D02*
X508417Y55868D01*
X480391Y25013D02*
X509831Y54454D01*
X480321Y44743D02*
X499931Y64353D01*
X480388Y55003D02*
X501266Y34126D01*
X479142Y49221D02*
X497103Y67182D01*
X478284Y39877D02*
X501346Y62939D01*
X479739Y38504D02*
X502760Y61525D01*
X478409Y59801D02*
X491446Y72838D01*
X477377Y50284D02*
X495689Y68596D01*
X478670Y62378D02*
X505246Y35803D01*
X477223Y30331D02*
X505588Y58696D01*
X479039Y29319D02*
X507002Y57282D01*
X479783Y58437D02*
X502876Y35344D01*
X479451Y53112D02*
X500264Y32299D01*
X509786Y31781D02*
X510249Y32244D01*
X509069Y28236D02*
X510286Y29453D01*
X504733Y23900D02*
X507639Y26805D01*
X506352Y26212D02*
X508663Y23900D01*
X503500Y26235D02*
X505835Y23900D01*
X499076D02*
X502107Y26930D01*
X501905Y23900D02*
X504094Y26089D01*
X493419Y23900D02*
X500077Y30557D01*
X496248Y23900D02*
X500753Y28405D01*
X482106Y23900D02*
X510600Y52394D01*
X477841Y51894D02*
X500288Y29447D01*
X480480Y46427D02*
X503006Y23900D01*
X480047Y44031D02*
X500178Y23900D01*
X480423Y35170D02*
X491693Y23900D01*
X478785Y42465D02*
X497349Y23900D01*
X476842Y41579D02*
X494521Y23900D01*
X479541Y33223D02*
X488864Y23900D01*
X477978Y31958D02*
X486036Y23900D01*
X476271Y60492D02*
X477557Y61778D01*
X476670Y61550D02*
X478437Y59783D01*
X475118Y71587D02*
X476210Y70495D01*
X474803Y70338D02*
X475966Y71500D01*
X476078Y40499D02*
X477257Y41679D01*
X475361Y51546D02*
X476427Y50480D01*
X474511Y50247D02*
X475770Y51506D01*
X441351Y28400D02*
X474656Y61705D01*
X438522Y28400D02*
X472880Y62757D01*
X449836Y28400D02*
X473618Y52182D01*
X444179Y28400D02*
X471508Y55729D01*
X447008Y28400D02*
X472199Y53591D01*
X458321Y28400D02*
X472779Y42858D01*
X461150Y28400D02*
X474505Y41756D01*
X452665Y28400D02*
X471754Y47489D01*
X455493Y28400D02*
X471716Y44623D01*
X480452Y26655D02*
X483207Y23900D01*
X480389Y25005D02*
X481494Y23900D01*
X475588Y31519D02*
X476655Y30452D01*
X475876Y20498D02*
X476987Y21610D01*
X479657Y18623D02*
X480159Y19124D01*
X476995Y21611D02*
X478803Y19803D01*
X478156Y19950D02*
X478406Y20200D01*
X469635Y28400D02*
X473496Y32261D01*
X474178Y30115D02*
X475583Y31519D01*
X463978Y28400D02*
X471501Y35922D01*
X466807Y28400D02*
X472123Y33716D01*
X469365Y23600D02*
X473337Y19628D01*
X473600Y22193D02*
X475342Y20452D01*
X502149Y19100D02*
X505464Y15785D01*
X499321Y19100D02*
X503015Y15407D01*
X505127Y15808D02*
X508418Y19100D01*
X493664D02*
X500312Y12452D01*
X496493Y19100D02*
X501361Y14232D01*
X494290Y7800D02*
X505590Y19100D01*
X490836D02*
X500209Y9727D01*
X491462Y7800D02*
X502762Y19100D01*
X486699Y8695D02*
X497105Y19100D01*
X485285Y10109D02*
X494276Y19100D01*
X488007D02*
X499307Y7800D01*
X482457Y12937D02*
X488619Y19100D01*
X483871Y11523D02*
X491448Y19100D01*
X485179D02*
X496479Y7800D01*
X488633D02*
X499933Y19100D01*
X478976Y19646D02*
X490822Y7800D01*
X482350Y19100D02*
X493650Y7800D01*
X509459Y8962D02*
X510621Y7800D01*
X508189Y1900D02*
X509289Y3000D01*
X506936D02*
X508036Y1900D01*
X499947Y7800D02*
X500680Y8533D01*
X505361Y1900D02*
X506461Y3000D01*
X502532Y1900D02*
X503632Y3000D01*
X501279D02*
X502379Y1900D01*
X504107Y3000D02*
X505207Y1900D01*
X498450Y3000D02*
X499550Y1900D01*
X499704D02*
X500804Y3000D01*
X497118Y7800D02*
X500067Y10748D01*
X487594Y7800D02*
X501178D01*
X496875Y1900D02*
X497975Y3000D01*
X494047Y1900D02*
X495147Y3000D01*
X495622D02*
X496722Y1900D01*
X491218D02*
X492318Y3000D01*
X492794D02*
X493894Y1900D01*
X488390D02*
X489490Y3000D01*
X489965D02*
X491065Y1900D01*
X480460Y16598D02*
X482963Y19100D01*
X481042Y14352D02*
X485791Y19100D01*
X463708Y23600D02*
X471504Y15804D01*
X466537Y23600D02*
X472026Y18111D01*
X458051Y23600D02*
X479751Y1900D01*
X455223Y23600D02*
X476923Y1900D01*
X460880Y23600D02*
X482580Y1900D01*
X452395Y23600D02*
X474095Y1900D01*
X454449D02*
X474359Y21810D01*
X443909Y23600D02*
X465609Y1900D01*
X443135D02*
X464835Y23600D01*
X445963Y1900D02*
X467663Y23600D01*
X440307Y1900D02*
X462007Y23600D01*
X441081D02*
X462781Y1900D01*
X449566Y23600D02*
X471266Y1900D01*
X451620D02*
X472681Y22961D01*
X446738Y23600D02*
X468438Y1900D01*
X448792D02*
X470492Y23600D01*
X480452Y15342D02*
X487994Y7800D01*
X480389Y15005D02*
X487594Y7800D01*
X485562Y1900D02*
X486661Y3000D01*
X482733Y1900D02*
X484720Y3886D01*
X487137Y3000D02*
X488237Y1900D01*
X477076D02*
X481891Y6715D01*
X479905Y1900D02*
X483305Y5301D01*
X476995Y11611D02*
X484903Y3703D01*
X475804Y11504D02*
X485408Y1900D01*
X474248D02*
X480477Y8129D01*
X468591Y1900D02*
X477648Y10958D01*
X471419Y1900D02*
X479063Y9543D01*
X462934Y1900D02*
X473377Y12343D01*
X465763Y1900D02*
X475402Y11540D01*
X457277Y1900D02*
X471502Y16125D01*
X460106Y1900D02*
X472050Y13844D01*
X432865Y28400D02*
X471662Y67197D01*
X430110Y74168D02*
X474168Y30110D01*
X435694Y28400D02*
X471767Y64473D01*
X430452Y65342D02*
X467394Y28400D01*
X430474Y45520D02*
X447595Y28400D01*
X430037D02*
X473744Y72107D01*
X429628Y63337D02*
X464565Y28400D01*
X430409Y56899D02*
X458908Y28400D01*
X430170Y54309D02*
X456080Y28400D01*
X429711Y43455D02*
X444766Y28400D01*
X428895Y72555D02*
X472555Y28895D01*
X428530Y29721D02*
X472279Y73470D01*
X428111Y62026D02*
X461737Y28400D01*
X427008Y71614D02*
X470222Y28400D01*
X429003Y52649D02*
X453251Y28400D01*
X427169Y51654D02*
X450423Y28400D01*
X428240Y42097D02*
X441938Y28400D01*
X430347Y37162D02*
X439109Y28400D01*
X429807D02*
X472193D01*
X429807Y23600D02*
X472193D01*
X430226Y34455D02*
X436281Y28400D01*
X429243Y19120D02*
X433722Y23600D01*
X435424D02*
X457124Y1900D01*
X434650D02*
X456350Y23600D01*
X438252D02*
X459952Y1900D01*
X430295Y17344D02*
X436551Y23600D01*
X430222Y14443D02*
X439379Y23600D01*
X429107Y32745D02*
X433452Y28400D01*
X427325Y31699D02*
X430624Y28400D01*
X427527Y20233D02*
X430894Y23600D01*
X426164Y1900D02*
X447864Y23600D01*
X428366Y22172D02*
X448639Y1900D01*
X427476Y11749D02*
X437325Y1900D01*
X425804Y61504D02*
X426899Y60409D01*
X425315Y60448D02*
X426384Y61516D01*
X426636Y50455D02*
X428334Y52152D01*
X423600Y72193D02*
X425342Y70452D01*
X424050Y51944D02*
X425520Y50474D01*
X410238Y28400D02*
X423873Y42035D01*
X401753Y28400D02*
X424972Y51619D01*
X425069Y40403D02*
X426170Y41503D01*
X404581Y28400D02*
X421545Y45364D01*
X407410Y28400D02*
X422362Y43352D01*
X381954Y28400D02*
X425137Y71583D01*
X379125Y28400D02*
X423201Y72476D01*
X387611Y28400D02*
X422448Y63237D01*
X376297Y28400D02*
X421945Y74048D01*
X384782Y28400D02*
X421573Y65191D01*
X390439Y28400D02*
X424005Y61966D01*
X398924Y28400D02*
X423091Y52567D01*
X393267Y28400D02*
X421552Y56685D01*
X396096Y28400D02*
X421882Y54186D01*
X426457Y30477D02*
X427902Y31922D01*
X426009Y41500D02*
X427162Y40347D01*
X418723Y28400D02*
X422984Y32660D01*
X424402Y31793D02*
X425705Y30490D01*
X426206Y21505D02*
X427450Y20260D01*
X421552Y28400D02*
X424812Y31660D01*
X424803Y20338D02*
X425966Y21500D01*
X418453Y23600D02*
X422845Y19209D01*
X421282Y23600D02*
X424604Y20278D01*
X415895Y28400D02*
X421822Y34328D01*
X415625Y23600D02*
X421749Y17476D01*
X412797Y23600D02*
X421690Y14707D01*
X413066Y28400D02*
X421597Y36931D01*
X352625Y1900D02*
X374325Y23600D01*
X341312Y1900D02*
X363012Y23600D01*
X342086D02*
X363786Y1900D01*
X318684D02*
X340384Y23600D01*
X339257D02*
X360957Y1900D01*
X409968Y23600D02*
X431668Y1900D01*
X407140Y23600D02*
X428840Y1900D01*
X420508D02*
X442208Y23600D01*
X401483D02*
X423183Y1900D01*
X404311Y23600D02*
X426011Y1900D01*
X432596Y23600D02*
X454296Y1900D01*
X431821D02*
X453521Y23600D01*
X437478Y1900D02*
X459178Y23600D01*
X423336Y1900D02*
X445036Y23600D01*
X428993Y1900D02*
X450693Y23600D01*
X383738Y1900D02*
X405438Y23600D01*
X380910Y1900D02*
X402610Y23600D01*
X384512D02*
X406212Y1900D01*
X378081D02*
X399781Y23600D01*
X378855D02*
X400555Y1900D01*
X397880D02*
X419580Y23600D01*
X398654D02*
X420354Y1900D01*
X386566D02*
X408266Y23600D01*
X395826D02*
X417526Y1900D01*
X417679D02*
X427557Y11778D01*
X412022Y1900D02*
X422880Y12757D01*
X414851Y1900D02*
X424656Y11705D01*
X406365Y1900D02*
X421662Y17197D01*
X409194Y1900D02*
X421767Y14473D01*
X430260Y17450D02*
X445810Y1900D01*
X429791Y23576D02*
X451467Y1900D01*
X430278Y14604D02*
X442982Y1900D01*
X429209Y12845D02*
X440153Y1900D01*
X424707Y11690D02*
X434497Y1900D01*
X390169Y23600D02*
X411869Y1900D01*
X389395D02*
X411095Y23600D01*
X392223Y1900D02*
X413923Y23600D01*
X381684D02*
X403384Y1900D01*
X387341Y23600D02*
X409041Y1900D01*
X400709D02*
X422279Y23470D01*
X403537Y1900D02*
X423744Y22107D01*
X392998Y23600D02*
X414698Y1900D01*
X395052D02*
X416752Y23600D01*
X335655Y1900D02*
X357355Y23600D01*
X333600D02*
X355300Y1900D01*
X336429Y23600D02*
X358129Y1900D01*
X330772Y23600D02*
X352472Y1900D01*
X332826D02*
X354526Y23600D01*
X346969Y1900D02*
X368669Y23600D01*
X344914D02*
X366614Y1900D01*
X347743Y23600D02*
X369443Y1900D01*
X338483D02*
X360183Y23600D01*
X344140Y1900D02*
X365840Y23600D01*
X322287D02*
X343987Y1900D01*
X321513D02*
X343213Y23600D01*
X324341Y1900D02*
X346041Y23600D01*
X316630D02*
X338330Y1900D01*
X319458Y23600D02*
X341158Y1900D01*
X327944Y23600D02*
X349644Y1900D01*
X329998D02*
X351698Y23600D01*
X325115D02*
X346815Y1900D01*
X327169D02*
X348869Y23600D01*
X367542D02*
X389242Y1900D01*
X366768D02*
X388468Y23600D01*
X369596Y1900D02*
X391296Y23600D01*
X363939Y1900D02*
X385639Y23600D01*
X364713D02*
X386413Y1900D01*
X375253D02*
X396953Y23600D01*
X373199D02*
X394899Y1900D01*
X376027Y23600D02*
X397727Y1900D01*
X370370Y23600D02*
X392070Y1900D01*
X372424D02*
X394124Y23600D01*
X355454Y1900D02*
X377154Y23600D01*
X353399D02*
X375099Y1900D01*
X356228Y23600D02*
X377928Y1900D01*
X349797D02*
X371497Y23600D01*
X350571D02*
X372271Y1900D01*
X361111D02*
X382811Y23600D01*
X361885D02*
X383585Y1900D01*
X358282D02*
X379982Y23600D01*
X359056D02*
X380756Y1900D01*
X297931Y351671D02*
X318376Y372116D01*
X296516Y353085D02*
X315547Y372116D01*
X301868D02*
X323131Y350853D01*
X293688Y355913D02*
X309890Y372116D01*
X295102Y354499D02*
X312719Y372116D01*
X310845Y350443D02*
X332518Y372116D01*
X299856Y350768D02*
X321204Y372116D01*
X312421Y349191D02*
X335346Y372116D01*
X296211D02*
X317474Y350853D01*
X299040Y372116D02*
X320303Y350853D01*
X290860Y358742D02*
X304234Y372116D01*
X289445Y360156D02*
X301405Y372116D01*
X292274Y357328D02*
X307062Y372116D01*
X286617Y362984D02*
X295748Y372116D01*
X288031Y361570D02*
X298577Y372116D01*
X290554D02*
X314647Y348023D01*
X287726Y372116D02*
X308989Y350853D01*
X293383Y372116D02*
X314647Y350851D01*
X279241Y372116D02*
X300980Y350376D01*
X284898Y372116D02*
X306773Y350240D01*
X314647Y350853D02*
X323353D01*
X308382Y350809D02*
X329689Y372116D01*
X313291Y347232D02*
X314647Y348588D01*
X303280Y345706D02*
X304691Y347118D01*
X313353Y346489D02*
X314647Y345195D01*
Y342366D02*
X314866Y342147D01*
X314647D02*
Y350853D01*
Y342147D02*
X323353D01*
X312740Y344273D02*
X314647Y342366D01*
X301772Y349856D02*
X324032Y372116D01*
X282069D02*
X305336Y348849D01*
X302988Y348243D02*
X326861Y372116D01*
X280651Y368951D02*
X298755Y350846D01*
X292829Y348569D02*
X294654Y346745D01*
X302876Y348480D02*
X304652Y346705D01*
X293348Y346695D02*
X294847Y345197D01*
X283788Y365813D02*
X290091Y372116D01*
X282374Y367227D02*
X287263Y372116D01*
X285203Y364399D02*
X292920Y372116D01*
X279223Y369732D02*
X281606Y372116D01*
X280960Y368641D02*
X284435Y372116D01*
X285495Y353377D02*
X286758Y354641D01*
X280361Y353900D02*
X283930Y357469D01*
X283189Y353900D02*
X285344Y356055D01*
X276462Y369800D02*
X278778Y372116D01*
X273633Y369800D02*
X275949Y372116D01*
X276413D02*
X278732Y369797D01*
X276044Y364000D02*
X289195Y350848D01*
X277399Y364000D02*
X291069Y350329D01*
X274704Y353900D02*
X281101Y360297D01*
X277532Y353900D02*
X282516Y358883D01*
X288610Y350835D02*
X289587Y351812D01*
X286920Y351974D02*
X288172Y353226D01*
X285697Y353197D02*
X288129Y350765D01*
X283048Y348101D02*
X283526Y348580D01*
X293317Y347057D02*
X293829Y347569D01*
X283006Y349100D02*
X284735Y347371D01*
X283224Y345450D02*
X284665Y346890D01*
X282491Y349100D02*
X283006D01*
X282575Y348983D02*
X284665Y346893D01*
X273973Y349100D02*
X274614Y348459D01*
X278400Y340626D02*
X280050Y342276D01*
X307525Y372116D02*
X372641Y307000D01*
X307000D02*
X372116Y372116D01*
X309828Y307000D02*
X374944Y372116D01*
X304697D02*
X369812Y307000D01*
X307000D02*
X372116Y372116D01*
X315485Y307000D02*
X380601Y372116D01*
X313182D02*
X378298Y307000D01*
X316010Y372116D02*
X381126Y307000D01*
X310353Y372116D02*
X375469Y307000D01*
X312657D02*
X377773Y372116D01*
X301343Y307000D02*
X366459Y372116D01*
X298515Y307000D02*
X363631Y372116D01*
X304172Y307000D02*
X369287Y372116D01*
X295686Y307000D02*
X360802Y372116D01*
X303194Y345335D02*
X341529Y307000D01*
X279391Y296361D02*
X355145Y372116D01*
X292858Y307000D02*
X357974Y372116D01*
X283235Y345495D02*
X321730Y307000D01*
X292813Y344402D02*
X330215Y307000D01*
X311349Y342836D02*
X347185Y307000D01*
X309205Y342152D02*
X344357Y307000D01*
X314866Y342147D02*
X350013Y307000D01*
X300469Y342403D02*
X335872Y307000D01*
X297696Y342347D02*
X333044Y307000D01*
X314264Y294465D02*
X320999Y301200D01*
X302176Y343524D02*
X338700Y307000D01*
X313388Y301200D02*
X318538Y296050D01*
X310559Y301200D02*
X316969Y294790D01*
X312824Y295853D02*
X318171Y301200D01*
X291470Y342916D02*
X327387Y307000D01*
X289393Y342165D02*
X324558Y307000D01*
X292600D02*
X456899D01*
X282272Y343629D02*
X318901Y307000D01*
X280615Y342458D02*
X316073Y307000D01*
X277800Y300427D02*
X319520Y342147D01*
X277800Y297599D02*
X322348Y342147D01*
X277800Y306084D02*
X314647Y342932D01*
X277800Y303256D02*
X316691Y342147D01*
X278400Y326483D02*
X295644Y343728D01*
X278400Y329312D02*
X294732Y345644D01*
X278400Y332140D02*
X288443Y342183D01*
X278400Y337797D02*
X285123Y344520D01*
X278400Y334969D02*
X286423Y342992D01*
X278400Y333359D02*
X304759Y307000D01*
X278400Y320827D02*
X299794Y342220D01*
X278400Y330531D02*
X301931Y307000D01*
X278400Y323655D02*
X297257Y342512D01*
X278400Y320100D02*
Y342189D01*
X277800Y314570D02*
X306309Y343079D01*
X277800Y308913D02*
X314647Y345760D01*
X277800Y311741D02*
X308268Y342209D01*
X277800Y317398D02*
X305057Y344655D01*
X278400Y327702D02*
X299102Y307000D01*
X278400Y341845D02*
X313245Y307000D01*
X278400Y339016D02*
X310416Y307000D01*
X278400Y336188D02*
X307588Y307000D01*
X278400Y324874D02*
X296274Y307000D01*
X278400Y322045D02*
X293445Y307000D01*
X290831Y296488D02*
X295543Y301200D01*
X278277Y319340D02*
X291060Y306557D01*
X299108Y296279D02*
X304028Y301200D01*
X294342Y294342D02*
X301200Y301200D01*
X304902D02*
X309678Y296424D01*
X280883Y296484D02*
X290549Y306151D01*
X294342Y294342D02*
X301200Y301200D01*
X277800Y314160D02*
X288179Y303781D01*
X277800Y316989D02*
X289594Y305195D01*
X277800Y311332D02*
X286765Y302366D01*
X277800Y308503D02*
X285351Y300952D01*
X277800Y305675D02*
X283937Y299538D01*
X277800Y295600D02*
Y318513D01*
Y302847D02*
X282523Y298124D01*
X270805Y369800D02*
X273121Y372116D01*
X270756D02*
X273072Y369800D01*
X273585Y372116D02*
X275900Y369800D01*
X267928Y372116D02*
X270244Y369800D01*
X267976D02*
X270292Y372116D01*
X273215Y364000D02*
X283315Y353900D01*
X270387Y364000D02*
X280487Y353900D01*
X271876D02*
X279687Y361712D01*
X269047Y353900D02*
X278273Y363126D01*
X272491Y349100D02*
X275509D01*
X114541Y369800D02*
X278600D01*
X1900Y372116D02*
X647706D01*
X264000Y353900D02*
X284000D01*
X264730Y364000D02*
X274830Y353900D01*
X136761Y364000D02*
X277399D01*
X266219Y353900D02*
X276319Y364000D01*
X263280Y353789D02*
X273490Y364000D01*
X267558D02*
X277658Y353900D01*
X259073Y364000D02*
X269173Y353900D01*
X261901Y364000D02*
X272001Y353900D01*
X273337Y346876D02*
X273725Y347264D01*
X273333Y346911D02*
X273604Y346640D01*
X272883Y344533D02*
X273600Y343816D01*
X271588Y343000D02*
X273600Y340988D01*
X266400Y342531D02*
X273600Y335331D01*
X269574Y342185D02*
X273600Y338159D01*
X266400Y337111D02*
X273600Y344311D01*
X266400Y339939D02*
X268624Y342163D01*
X266400Y336874D02*
X273600Y329674D01*
X266400Y331454D02*
X273600Y338654D01*
X266400Y328625D02*
X273600Y335825D01*
X266400Y334282D02*
X273600Y341482D01*
X266400Y339702D02*
X273600Y332502D01*
X266400Y331217D02*
X273600Y324017D01*
X266400Y322969D02*
X273600Y330169D01*
X266400Y334046D02*
X273600Y326846D01*
X266400Y325797D02*
X273600Y332997D01*
X256663Y369800D02*
X258979Y372116D01*
X256614D02*
X258930Y369800D01*
X259442Y372116D02*
X261758Y369800D01*
X253786Y372116D02*
X256101Y369800D01*
X253834D02*
X256150Y372116D01*
X265099D02*
X267415Y369800D01*
X262320D02*
X264635Y372116D01*
X265148Y369800D02*
X267464Y372116D01*
X259491Y369800D02*
X261807Y372116D01*
X262271D02*
X264587Y369800D01*
X239692D02*
X242008Y372116D01*
X239643D02*
X241959Y369800D01*
X242472Y372116D02*
X244788Y369800D01*
X236815Y372116D02*
X239131Y369800D01*
X236864D02*
X239180Y372116D01*
X248178Y369800D02*
X250493Y372116D01*
X251006Y369800D02*
X253322Y372116D01*
X242521Y369800D02*
X244836Y372116D01*
X248129D02*
X250445Y369800D01*
X253416Y364000D02*
X263557Y353859D01*
X250957Y372116D02*
X253273Y369800D01*
X256244Y364000D02*
X266344Y353900D01*
X245300Y372116D02*
X247616Y369800D01*
X245349D02*
X247665Y372116D01*
X250588Y364000D02*
X261909Y352678D01*
X247759Y364000D02*
X261600Y350159D01*
X244931Y364000D02*
X261600Y347331D01*
X236445Y364000D02*
X261600Y338845D01*
X233617Y364000D02*
X261600Y336017D01*
X230789Y364000D02*
X261600Y333189D01*
X242102Y364000D02*
X261600Y344502D01*
X239274Y364000D02*
X261600Y341674D01*
X222303Y364000D02*
X261600Y324703D01*
X219475Y364000D02*
X261600Y321875D01*
X227960Y364000D02*
X261600Y330360D01*
X225132Y364000D02*
X261600Y327532D01*
X273600Y321087D02*
Y346500D01*
X266400Y328389D02*
X273600Y321189D01*
X266400Y320140D02*
X273600Y327340D01*
X266400Y325560D02*
X273000Y318960D01*
X266400Y317312D02*
X273600Y324512D01*
X174220Y364000D02*
X292320Y245900D01*
X171392Y364000D02*
X289492Y245900D01*
X177049Y364000D02*
X295148Y245900D01*
X179877Y364000D02*
X261600Y282277D01*
X266400Y283294D02*
Y343009D01*
X154421Y364000D02*
X272521Y245900D01*
X151593Y364000D02*
X269693Y245900D01*
X157249Y364000D02*
X275349Y245900D01*
X145936Y364000D02*
X264036Y245900D01*
X148764Y364000D02*
X266864Y245900D01*
X165735Y364000D02*
X283835Y245900D01*
X168563Y364000D02*
X286663Y245900D01*
X160078Y364000D02*
X278178Y245900D01*
X162906Y364000D02*
X281006Y245900D01*
X266400Y314483D02*
X273600Y321683D01*
X266400Y322732D02*
X273000Y316132D01*
X266400Y319903D02*
X273000Y313303D01*
Y276900D02*
Y319500D01*
X266400Y308826D02*
X273000Y315426D01*
X266400Y314247D02*
X273000Y307646D01*
X266400Y311655D02*
X273000Y318255D01*
X266400Y317075D02*
X273000Y310475D01*
X266400Y308590D02*
X273000Y301990D01*
X266400Y303170D02*
X273000Y309770D01*
X266400Y300341D02*
X273000Y306941D01*
X266400Y305998D02*
X273000Y312598D01*
X266400Y311418D02*
X273000Y304818D01*
X266400Y302933D02*
X273000Y296333D01*
X266400Y294684D02*
X273000Y301284D01*
X266400Y305761D02*
X273000Y299161D01*
X266400Y297513D02*
X273000Y304113D01*
X210990Y364000D02*
X261600Y313390D01*
X208161Y364000D02*
X261600Y310561D01*
X205333Y364000D02*
X261600Y307733D01*
X216647Y364000D02*
X261600Y319046D01*
X213818Y364000D02*
X261600Y316218D01*
X196847Y364000D02*
X261600Y299248D01*
X194019Y364000D02*
X261600Y296419D01*
X191191Y364000D02*
X261600Y293591D01*
X202504Y364000D02*
X261600Y304904D01*
X199676Y364000D02*
X261600Y302076D01*
X188362Y364000D02*
X261600Y290762D01*
X182705Y364000D02*
X261600Y285105D01*
X185534Y364000D02*
X261600Y287934D01*
X143107Y364000D02*
X261207Y245900D01*
X141519Y357103D02*
X252722Y245900D01*
X137450Y364000D02*
X255550Y245900D01*
X140279Y364000D02*
X258379Y245900D01*
X141389Y354404D02*
X249894Y245900D01*
X140668Y352297D02*
X247065Y245900D01*
X200645D02*
X261600Y306855D01*
X194988Y245900D02*
X261600Y312512D01*
X203474Y245900D02*
X261600Y304027D01*
Y282300D02*
Y351500D01*
X197817Y245900D02*
X261600Y309683D01*
X189331Y245900D02*
X261600Y318169D01*
X186503Y245900D02*
X261600Y320997D01*
X192160Y245900D02*
X261600Y315340D01*
X180846Y245900D02*
X261600Y326654D01*
X183675Y245900D02*
X261600Y323826D01*
X175189Y245900D02*
X261600Y332311D01*
X166704Y245900D02*
X261600Y340796D01*
X178018Y245900D02*
X261600Y329482D01*
X169532Y245900D02*
X261600Y337968D01*
X172361Y245900D02*
X261600Y335139D01*
X139559Y350578D02*
X244237Y245900D01*
X127461Y209485D02*
X261600Y343624D01*
X138118Y349191D02*
X241408Y245900D01*
X136341Y348139D02*
X238580Y245900D01*
X310640Y296498D02*
X315342Y301200D01*
X307731D02*
X316081Y292850D01*
X314986Y292358D02*
X316338Y293710D01*
X304761Y293447D02*
X312514Y301200D01*
X304950Y292667D02*
X306018Y291599D01*
X314924Y291178D02*
X319678Y286424D01*
X311772Y286316D02*
X316184Y290728D01*
X304793Y290651D02*
X306002Y291860D01*
X301925Y296268D02*
X306857Y301200D01*
X296417D02*
X301167Y296450D01*
X293801Y301200D02*
X458100D01*
X292948Y295776D02*
X298372Y301200D01*
X293695Y301094D02*
X298675Y296113D01*
X303675Y295189D02*
X309685Y301200D01*
X302074D02*
X307729Y295545D01*
X304613Y290175D02*
X308675Y286113D01*
X299246Y301200D02*
X306461Y293984D01*
X314045Y289229D02*
X317729Y285545D01*
X313572Y285288D02*
X317212Y288928D01*
X312484Y287961D02*
X316461Y283984D01*
X310099Y287518D02*
X311167Y286450D01*
X308790Y286162D02*
X310142Y287514D01*
X314950Y282667D02*
X316018Y281599D01*
X314708Y283595D02*
X318905Y287792D01*
X314871Y280930D02*
X316000Y282059D01*
X304986Y282358D02*
X306338Y283710D01*
X303401Y288560D02*
X307060Y284901D01*
X302824Y285853D02*
X306647Y289676D01*
X304264Y284466D02*
X308034Y288235D01*
X298127Y288177D02*
X299851Y286453D01*
X300640Y286498D02*
X301849Y287707D01*
X301516Y287616D02*
X306116Y283016D01*
X304953Y281350D02*
X305705Y280599D01*
X294761Y283447D02*
X299053Y287739D01*
X292281Y299679D02*
X297060Y294901D01*
X290866Y298265D02*
X296116Y293016D01*
X294997Y292168D02*
X296221Y293392D01*
X288745Y296144D02*
X293801Y301200D01*
X289452Y296851D02*
X289850Y296453D01*
X294953Y291351D02*
X296677Y289627D01*
X291925Y286268D02*
X296232Y290575D01*
X285210Y292608D02*
X286004Y291814D01*
X284984Y292383D02*
X286356Y293755D01*
X277800Y300018D02*
X281108Y296710D01*
X277800Y297190D02*
X278816Y296173D01*
X284673Y290316D02*
X288816Y286173D01*
X282948Y285776D02*
X286724Y289552D01*
X284682Y290339D02*
X286012Y291669D01*
X294132Y289343D02*
X297843Y285632D01*
X293675Y285189D02*
X297311Y288825D01*
X292617Y288029D02*
X296529Y284117D01*
X290314Y287504D02*
X291411Y286407D01*
X289108Y286279D02*
X290332Y287503D01*
X294907Y282911D02*
X296004Y281814D01*
X294793Y280651D02*
X296002Y281860D01*
X294673Y280316D02*
X295048Y279942D01*
X284997Y282168D02*
X286221Y283392D01*
X284975Y281529D02*
X286435Y280069D01*
X283508Y288653D02*
X287153Y285008D01*
X278569Y287935D02*
X280029Y286475D01*
X280831Y286488D02*
X282161Y287818D01*
X277800Y285600D02*
Y288400D01*
Y286285D02*
X279205Y287690D01*
X284342Y284342D02*
X288158Y288158D01*
X284342Y284342D02*
X288158Y288158D01*
X281676Y287656D02*
X286157Y283176D01*
X314613Y280175D02*
X348889Y245900D01*
X310954D02*
X346102Y281048D01*
X313782Y245900D02*
X347024Y279142D01*
X313401Y278560D02*
X346060Y245900D01*
X311516Y277616D02*
X343232Y245900D01*
X309099Y277205D02*
X340403Y245900D01*
X308125D02*
X339783Y277557D01*
X313520Y132500D02*
X421122Y240103D01*
X307684Y275790D02*
X337575Y245900D01*
X306270Y274376D02*
X334747Y245900D01*
X305297D02*
X337798Y278401D01*
X299377Y132500D02*
X406977Y240100D01*
X305034Y132500D02*
X412634Y240100D01*
X302469Y245900D02*
X336502Y279934D01*
X304856Y272962D02*
X331918Y245900D01*
X302206Y132500D02*
X409806Y240100D01*
X303777D02*
X411377Y132500D01*
X298120Y240100D02*
X405720Y132500D01*
X300949Y240100D02*
X408548Y132500D01*
X296549D02*
X404149Y240100D01*
X293721Y132500D02*
X401321Y240100D01*
X306605D02*
X414205Y132500D01*
X290892D02*
X398492Y240100D01*
X292463D02*
X400063Y132500D01*
X312262Y240100D02*
X419862Y132500D01*
X310691D02*
X418291Y240100D01*
X315091D02*
X422691Y132500D01*
X307863D02*
X415463Y240100D01*
X309434D02*
X417034Y132500D01*
X282407D02*
X390007Y240100D01*
X281149D02*
X388749Y132500D01*
X283978Y240100D02*
X391578Y132500D01*
X278321Y240100D02*
X385921Y132500D01*
X279578D02*
X387178Y240100D01*
X288064Y132500D02*
X395664Y240100D01*
X289635D02*
X397235Y132500D01*
X285235D02*
X392835Y240100D01*
X286806D02*
X394406Y132500D01*
X294406Y279300D02*
X296111Y281005D01*
X302617Y278029D02*
X302876Y277770D01*
X294100Y279300D02*
X294406D01*
X296812Y245900D02*
X328761Y277850D01*
X304097Y272203D02*
X309505Y277611D01*
X301406Y276300D02*
X306111Y281005D01*
X291155Y245900D02*
X326140Y280885D01*
X284100Y279300D02*
X286900D01*
X284957D02*
X286232Y280575D01*
X293983Y245900D02*
X327116Y279033D01*
X285498Y245900D02*
X317915Y278317D01*
X282670Y245900D02*
X316573Y279803D01*
X279841Y245900D02*
X311570Y277629D01*
X300314Y277504D02*
X301462Y276356D01*
X298927Y276300D02*
X300142Y277514D01*
X298194Y276300D02*
X301406D01*
X298194D02*
X299505Y277611D01*
X298442Y276548D02*
X298690Y276300D01*
X303310Y271679D02*
X329090Y245900D01*
X299640D02*
X331314Y277574D01*
X300661Y271500D02*
X326261Y245900D01*
X288327D02*
X319959Y277533D01*
X286519Y271500D02*
X312119Y245900D01*
X283691Y271500D02*
X309291Y245900D01*
X278034Y271500D02*
X303634Y245900D01*
X280862Y271500D02*
X306462Y245900D01*
X295004Y271500D02*
X320604Y245900D01*
X297833Y271500D02*
X323433Y245900D01*
X289348Y271500D02*
X314948Y245900D01*
X292176Y271500D02*
X317776Y245900D01*
X277013D02*
X302623Y271510D01*
X272400Y271500D02*
X302400D01*
X275205D02*
X300805Y245900D01*
X272377Y271500D02*
X297977Y245900D01*
X274184D02*
X299784Y271500D01*
X269836Y240100D02*
X377436Y132500D01*
X268265D02*
X375865Y240100D01*
X275493D02*
X383093Y132500D01*
X268527Y245900D02*
X294127Y271500D01*
X271356Y245900D02*
X296956Y271500D01*
X265699Y245900D02*
X291299Y271500D01*
X262871Y245900D02*
X288471Y271500D01*
X165200Y245900D02*
X419799D01*
X254385D02*
X279985Y271500D01*
X260042Y245900D02*
X285642Y271500D01*
X265436Y132500D02*
X373036Y240100D01*
X264179D02*
X371779Y132500D01*
X267007Y240100D02*
X374607Y132500D01*
X257214Y245900D02*
X282814Y271500D01*
X262608Y132500D02*
X370208Y240100D01*
X251294Y132500D02*
X358894Y240100D01*
X250037D02*
X357637Y132500D01*
X252865Y240100D02*
X360465Y132500D01*
X247208Y240100D02*
X354808Y132500D01*
X248466D02*
X356066Y240100D01*
X273921Y132500D02*
X381522Y240100D01*
X272664D02*
X380264Y132500D01*
X276750D02*
X384350Y240100D01*
X254122Y132500D02*
X361722Y240100D01*
X271093Y132500D02*
X378693Y240100D01*
X239980Y132500D02*
X347580Y240100D01*
X238723D02*
X346323Y132500D01*
X166401Y240100D02*
X421000D01*
X235895D02*
X343495Y132500D01*
X237152D02*
X344752Y240100D01*
X244380D02*
X351980Y132500D01*
X245637D02*
X353237Y240100D01*
X241551D02*
X349151Y132500D01*
X242809D02*
X350409Y240100D01*
X266400Y289027D02*
X273000Y295627D01*
X266400Y297276D02*
X273000Y290676D01*
X266400Y294447D02*
X273000Y287847D01*
X266400Y300104D02*
X273000Y293504D01*
X266400Y291856D02*
X273000Y298456D01*
X267776Y281918D02*
X273000Y287142D01*
X266400Y288791D02*
X273000Y282191D01*
X269190Y280504D02*
X273000Y284314D01*
X266400Y286199D02*
X273000Y292799D01*
X266400Y291619D02*
X273000Y285019D01*
X266400Y283371D02*
X273000Y289971D01*
X220444Y245900D02*
X261600Y287056D01*
X266400Y285962D02*
X273000Y279362D01*
X217616Y245900D02*
X261600Y289884D01*
X223273Y245900D02*
X261600Y284227D01*
X211959Y245900D02*
X261600Y295541D01*
X214787Y245900D02*
X261600Y292713D01*
X206302Y245900D02*
X261600Y301198D01*
X209130Y245900D02*
X261600Y298370D01*
X270604Y279090D02*
X273000Y281485D01*
X266400Y283294D02*
X273010Y276684D01*
X272019Y277676D02*
X273000Y278657D01*
X248728Y245900D02*
X274328Y271500D01*
X251557Y245900D02*
X277157Y271500D01*
X262303Y280603D02*
X270703Y272203D01*
X234586Y245900D02*
X265796Y277110D01*
X231758Y245900D02*
X264382Y278524D01*
X237415Y245900D02*
X267210Y275696D01*
X226101Y245900D02*
X261728Y281527D01*
X228929Y245900D02*
X262968Y279938D01*
X245900Y245900D02*
X271628Y271628D01*
X245900Y245900D02*
X271628Y271628D01*
X240243Y245900D02*
X268624Y274281D01*
X243072Y245900D02*
X270039Y272867D01*
X206039Y132500D02*
X313639Y240100D01*
X204782D02*
X312382Y132500D01*
X207610Y240100D02*
X315210Y132500D01*
X201953Y240100D02*
X309553Y132500D01*
X203211D02*
X310811Y240100D01*
X213267D02*
X320867Y132500D01*
X211696D02*
X319296Y240100D01*
X214525Y132500D02*
X322125Y240100D01*
X208868Y132500D02*
X316468Y240100D01*
X210439D02*
X318039Y132500D01*
X193468Y240100D02*
X301068Y132500D01*
X191897D02*
X299497Y240100D01*
X194726Y132500D02*
X302326Y240100D01*
X189069Y132500D02*
X296669Y240100D01*
X190640D02*
X298240Y132500D01*
X199125Y240100D02*
X306725Y132500D01*
X200382D02*
X307982Y240100D01*
X196297D02*
X303896Y132500D01*
X197554D02*
X305154Y240100D01*
X233066D02*
X340666Y132500D01*
X231495D02*
X339095Y240100D01*
X234324Y132500D02*
X341923Y240100D01*
X228667Y132500D02*
X336267Y240100D01*
X230238D02*
X337838Y132500D01*
X259779D02*
X367379Y240100D01*
X258522D02*
X366122Y132500D01*
X261350Y240100D02*
X368950Y132500D01*
X255694Y240100D02*
X363294Y132500D01*
X256951D02*
X364551Y240100D01*
X220181Y132500D02*
X327781Y240100D01*
X218924D02*
X326524Y132500D01*
X221752Y240100D02*
X329352Y132500D01*
X216096Y240100D02*
X323696Y132500D01*
X217353D02*
X324953Y240100D01*
X225838Y132500D02*
X333438Y240100D01*
X227409D02*
X335009Y132500D01*
X223010D02*
X330610Y240100D01*
X224581D02*
X332181Y132500D01*
X174926D02*
X282526Y240100D01*
X173669D02*
X281269Y132500D01*
X176497Y240100D02*
X284098Y132500D01*
X170841Y240100D02*
X278441Y132500D01*
X172098D02*
X279698Y240100D01*
X186240Y132500D02*
X293840Y240100D01*
X184983D02*
X292583Y132500D01*
X187811Y240100D02*
X295411Y132500D01*
X182154Y240100D02*
X289754Y132500D01*
X183412D02*
X291012Y240100D01*
X157956Y132500D02*
X265556Y240100D01*
X155127Y132500D02*
X262727Y240100D01*
X160784Y132500D02*
X268384Y240100D01*
X140985Y132500D02*
X248585Y240100D01*
X152299Y132500D02*
X259899Y240100D01*
X168012D02*
X275612Y132500D01*
X169270D02*
X276870Y240100D01*
X163613Y132500D02*
X271213Y240100D01*
X166441Y132500D02*
X274041Y240100D01*
X162964Y236663D02*
X267127Y132500D01*
X161550Y235249D02*
X264299Y132500D01*
X160136Y233834D02*
X261470Y132500D01*
X158721Y232420D02*
X258642Y132500D01*
X157307Y231006D02*
X255813Y132500D01*
X179326Y240100D02*
X286926Y132500D01*
X177755D02*
X285355Y240100D01*
X180583Y132500D02*
X288183Y240100D01*
X165793Y239491D02*
X272784Y132500D01*
X164378Y238077D02*
X269955Y132500D01*
X146642D02*
X254242Y240100D01*
X143814Y132500D02*
X251414Y240100D01*
X149471Y132500D02*
X257071Y240100D01*
X150236Y223935D02*
X241671Y132500D01*
X148822Y222521D02*
X238843Y132500D01*
X155893Y229592D02*
X252985Y132500D01*
X154479Y228178D02*
X250156Y132500D01*
X153065Y226763D02*
X247328Y132500D01*
X151650Y225349D02*
X244499Y132500D01*
X188780Y369800D02*
X191096Y372116D01*
X188732D02*
X191048Y369800D01*
X191609D02*
X193925Y372116D01*
X185903D02*
X188219Y369800D01*
X185952D02*
X188268Y372116D01*
X205751Y369800D02*
X208067Y372116D01*
X197266Y369800D02*
X199582Y372116D01*
X208531D02*
X210846Y369800D01*
X194388Y372116D02*
X196704Y369800D01*
X194437D02*
X196753Y372116D01*
X174638Y369800D02*
X176954Y372116D01*
X174590D02*
X176905Y369800D01*
X177418Y372116D02*
X179734Y369800D01*
X171761Y372116D02*
X174077Y369800D01*
X171810D02*
X174126Y372116D01*
X183075D02*
X185391Y369800D01*
X180295D02*
X182611Y372116D01*
X183124Y369800D02*
X185439Y372116D01*
X177467Y369800D02*
X179783Y372116D01*
X180246D02*
X182562Y369800D01*
X225550D02*
X227866Y372116D01*
X225501D02*
X227817Y369800D01*
X228330Y372116D02*
X230645Y369800D01*
X222673Y372116D02*
X224989Y369800D01*
X222722D02*
X225037Y372116D01*
X233986D02*
X236302Y369800D01*
X231207D02*
X233523Y372116D01*
X234035Y369800D02*
X236351Y372116D01*
X228379Y369800D02*
X230694Y372116D01*
X231158D02*
X233474Y369800D01*
X214188Y372116D02*
X216503Y369800D01*
X211408D02*
X213724Y372116D01*
X214236Y369800D02*
X216552Y372116D01*
X208579Y369800D02*
X210895Y372116D01*
X211359D02*
X213675Y369800D01*
X219844Y372116D02*
X222160Y369800D01*
X219893D02*
X222209Y372116D01*
X217016D02*
X219332Y369800D01*
X217065D02*
X219381Y372116D01*
X134992D02*
X137307Y369800D01*
X132212D02*
X134528Y372116D01*
X135040Y369800D02*
X137356Y372116D01*
X129383Y369800D02*
X131699Y372116D01*
X132163D02*
X134479Y369800D01*
X140697D02*
X143013Y372116D01*
X140648D02*
X142964Y369800D01*
X143477Y372116D02*
X145793Y369800D01*
X137820Y372116D02*
X140136Y369800D01*
X137869D02*
X140184Y372116D01*
X120849D02*
X123165Y369800D01*
X118070D02*
X120386Y372116D01*
X123678D02*
X125994Y369800D01*
X112364Y372116D02*
X114680Y369800D01*
X115241D02*
X117557Y372116D01*
X126555Y369800D02*
X128871Y372116D01*
X129335D02*
X131650Y369800D01*
X123727D02*
X126042Y372116D01*
X126506D02*
X128822Y369800D01*
X160496D02*
X162812Y372116D01*
X160447D02*
X162763Y369800D01*
X163276Y372116D02*
X165592Y369800D01*
X157619Y372116D02*
X159935Y369800D01*
X157668D02*
X159984Y372116D01*
X168933D02*
X171248Y369800D01*
X166153D02*
X168469Y372116D01*
X168982Y369800D02*
X171297Y372116D01*
X163325Y369800D02*
X165640Y372116D01*
X166104D02*
X168420Y369800D01*
X149134Y372116D02*
X151450Y369800D01*
X146354D02*
X148670Y372116D01*
X149182Y369800D02*
X151498Y372116D01*
X143526Y369800D02*
X145841Y372116D01*
X146305D02*
X148621Y369800D01*
X154790Y372116D02*
X157106Y369800D01*
X154839D02*
X157155Y372116D01*
X151962D02*
X154278Y369800D01*
X152011D02*
X154327Y372116D01*
X202923Y369800D02*
X205238Y372116D01*
X202874D02*
X205190Y369800D01*
X205702Y372116D02*
X208018Y369800D01*
X200045Y372116D02*
X202361Y369800D01*
X200094D02*
X202410Y372116D01*
X197217D02*
X199533Y369800D01*
X191560Y372116D02*
X193876Y369800D01*
X141128Y358917D02*
X146211Y364000D01*
X140223Y360841D02*
X143383Y364000D01*
X124450Y294156D02*
X194294Y364000D01*
X123123Y295657D02*
X191466Y364000D01*
X124998Y291876D02*
X197123Y364000D01*
X114873Y293064D02*
X185809Y364000D01*
X121098Y296460D02*
X188637Y364000D01*
X124831Y283223D02*
X205608Y364000D01*
X124615Y280178D02*
X208436Y364000D01*
X122141Y286190D02*
X199951Y364000D01*
X123819Y285039D02*
X202780Y364000D01*
X141561Y356522D02*
X149039Y364000D01*
X138965Y362410D02*
X140554Y364000D01*
X141042Y353174D02*
X151868Y364000D01*
X115742D02*
X128812D01*
X137380Y363654D02*
X137726Y364000D01*
X134157Y347495D02*
X235751Y245900D01*
X131311Y347512D02*
X232923Y245900D01*
X125376Y344962D02*
X224438Y245900D01*
X124618Y342891D02*
X221609Y245900D01*
X112284Y296131D02*
X180152Y364000D01*
X109763Y296439D02*
X177324Y364000D01*
X113913Y294933D02*
X182981Y364000D01*
X101272Y296433D02*
X168838Y364000D01*
X103238Y295571D02*
X171667Y364000D01*
X113868Y362126D02*
X230095Y245900D01*
X112454Y360712D02*
X227266Y245900D01*
X104519Y294024D02*
X174495Y364000D01*
X115240Y343784D02*
X213124Y245900D01*
X118021Y372116D02*
X120337Y369800D01*
X115192Y372116D02*
X117508Y369800D01*
X120898D02*
X123214Y372116D01*
X123308Y364000D02*
X125808Y361500D01*
X120480Y364000D02*
X124756Y359724D01*
X126137Y364000D02*
X127196Y362941D01*
X117651Y364000D02*
X124112Y357539D01*
X115283Y363540D02*
X124130Y354693D01*
X109536Y372116D02*
X112598Y369053D01*
X106707Y372116D02*
X111181Y367642D01*
X104018Y350092D02*
X117927Y364000D01*
X101050Y372116D02*
X108353Y364813D01*
X103879Y372116D02*
X109767Y366227D01*
X109627Y350043D02*
X123583Y364000D01*
X112370Y349958D02*
X126412Y364000D01*
X101797Y350055D02*
X115742Y364000D01*
X105928Y349173D02*
X120755Y364000D01*
X123208Y349483D02*
X125302Y351576D01*
X114127Y348886D02*
X124608Y359367D01*
X124636Y348082D02*
X126545Y349991D01*
X111040Y359298D02*
X120161Y350176D01*
X121088Y350191D02*
X124415Y353518D01*
X115253Y347184D02*
X124008Y355939D01*
X125381Y345998D02*
X128115Y348733D01*
X115484Y346369D02*
X116006Y345847D01*
X115473Y344576D02*
X116009Y345112D01*
X109626Y357884D02*
X118091Y349418D01*
X106797Y355055D02*
X111726Y350126D01*
X105383Y353641D02*
X109141Y349883D01*
X103969Y352227D02*
X107449Y348746D01*
X102555Y350813D02*
X103164Y350204D01*
X108212Y356469D02*
X116700Y347981D01*
X95394Y372116D02*
X105525Y361985D01*
X92565Y372116D02*
X104110Y360571D01*
X98222Y372116D02*
X106939Y363399D01*
X88793Y360322D02*
X100586Y372116D01*
X89737D02*
X102696Y359156D01*
X88551Y351595D02*
X109072Y372116D01*
X88184Y348400D02*
X111900Y372116D01*
X92808Y350195D02*
X114729Y372116D01*
X89579Y358280D02*
X103415Y372116D01*
X89824Y355696D02*
X106243Y372116D01*
X84311Y364325D02*
X92101Y372116D01*
X82051Y364894D02*
X89273Y372116D01*
X86142Y363328D02*
X94930Y372116D01*
X75595D02*
X82971Y364739D01*
X79047Y364719D02*
X86444Y372116D01*
X84080D02*
X99868Y356328D01*
X81251Y372116D02*
X98453Y354914D01*
X86908Y372116D02*
X101282Y357742D01*
X78423Y372116D02*
X97039Y353500D01*
X87631Y361989D02*
X97758Y372116D01*
X93712Y350172D02*
X112490Y368951D01*
X89625Y358086D02*
X95625Y352085D01*
X89772Y355110D02*
X94211Y350671D01*
X89190Y352863D02*
X91989Y350064D01*
X88184Y351041D02*
X90117Y349108D01*
X97813Y346071D02*
X98428Y346686D01*
X97380Y343453D02*
X98391Y344465D01*
X97705Y344348D02*
X98907Y343146D01*
X86837Y349560D02*
X87997Y348400D01*
X85148D02*
X89433D01*
X72766Y372116D02*
X79995Y364887D01*
X85356Y348400D02*
X85629Y348673D01*
X85201Y342600D02*
X89433D01*
X76292Y348791D02*
X79741Y345342D01*
X80507Y347404D02*
X81155Y346756D01*
X67109Y372116D02*
X75927Y363299D01*
X64281Y372116D02*
X74445Y361952D01*
X69938Y372116D02*
X77748Y364305D01*
X58624Y372116D02*
X72516Y358224D01*
X61452Y372116D02*
X73292Y360276D01*
X52967Y372116D02*
X73676Y351407D01*
X47310Y372116D02*
X76912Y342514D01*
X50139Y372116D02*
X78327Y343928D01*
X29610Y354879D02*
X46846Y372116D01*
X55796D02*
X72290Y355622D01*
X25409Y361992D02*
X35533Y372116D01*
X23558Y362970D02*
X32704Y372116D01*
X26945Y360700D02*
X38361Y372116D01*
X18458Y363526D02*
X27047Y372116D01*
X21319Y363559D02*
X29876Y372116D01*
X29103Y357201D02*
X44018Y372116D01*
X29407Y351848D02*
X49675Y372116D01*
X1900Y349797D02*
X24219Y372116D01*
X28185Y359111D02*
X41190Y372116D01*
X10541D02*
X19053Y363603D01*
X7712Y372116D02*
X16744Y363084D01*
X13369Y372116D02*
X22057Y363428D01*
X1900Y369596D02*
X4420Y372116D01*
X1900Y363939D02*
X10077Y372116D01*
X4884D02*
X14843Y362157D01*
X1900Y358282D02*
X15734Y372116D01*
X1900Y361111D02*
X12905Y372116D01*
X2055D02*
X13262Y360909D01*
X1900Y369443D02*
X11978Y359364D01*
X1900Y355454D02*
X18562Y372116D01*
X1900Y366614D02*
X11009Y357505D01*
X1900Y366768D02*
X7248Y372116D01*
X1900Y363786D02*
X10432Y355254D01*
X1900Y352625D02*
X21391Y372116D01*
X1900Y360957D02*
X10489Y352368D01*
X1900Y346969D02*
X10474Y355542D01*
X1900Y344140D02*
X10441Y352681D01*
X89996Y296472D02*
X157525Y364000D01*
X44482Y372116D02*
X75498Y341099D01*
X92422Y296069D02*
X160353Y364000D01*
X38825Y372116D02*
X72670Y338271D01*
X41653Y372116D02*
X74084Y339685D01*
X94004Y294823D02*
X163181Y364000D01*
X84585Y293888D02*
X154696Y364000D01*
X94909Y292899D02*
X166010Y364000D01*
X1900Y293228D02*
X80787Y372116D01*
X1900Y290400D02*
X83616Y372116D01*
X1900Y151807D02*
X214093Y364000D01*
X1900Y154635D02*
X211265Y364000D01*
X1900Y148978D02*
X216922Y364000D01*
X1900Y298885D02*
X75131Y372116D01*
X1900Y296057D02*
X77959Y372116D01*
X1900Y140493D02*
X225407Y364000D01*
X1900Y134836D02*
X231064Y364000D01*
X1900Y146150D02*
X219750Y364000D01*
X1900Y143322D02*
X222579Y364000D01*
X81440Y296401D02*
X132434Y347394D01*
X70217Y296491D02*
X116717Y342991D01*
X30882Y296484D02*
X81819Y347421D01*
X83350Y295482D02*
X135782Y347914D01*
X77842Y295631D02*
X130039Y347828D01*
X85311Y342600D02*
X182011Y245900D01*
X38745Y296144D02*
X85201Y342600D01*
X41761Y296320D02*
X88041Y342600D01*
X1900Y279086D02*
X73896Y351082D01*
X1900Y281915D02*
X72899Y352913D01*
X30626Y296498D02*
X81528Y347400D01*
X1900Y287571D02*
X72505Y358176D01*
X1900Y284743D02*
X72329Y355172D01*
X1900Y137665D02*
X228235Y364000D01*
X1900Y270601D02*
X78944Y347645D01*
X1900Y276258D02*
X75235Y349592D01*
X1900Y273429D02*
X76902Y348431D01*
X33168Y372116D02*
X69841Y335442D01*
X30340Y372116D02*
X68427Y334028D01*
X35996Y372116D02*
X71255Y336857D01*
X24683Y372116D02*
X65599Y331200D01*
X27511Y372116D02*
X67013Y332614D01*
X19026Y372116D02*
X62770Y328372D01*
X16197Y372116D02*
X61356Y326957D01*
X21854Y372116D02*
X64184Y329786D01*
X1900Y321513D02*
X52503Y372116D01*
X29428Y356056D02*
X59942Y325543D01*
X1900Y315856D02*
X58160Y372116D01*
X1900Y318684D02*
X55332Y372116D01*
X1900Y313027D02*
X60988Y372116D01*
X1900Y358129D02*
X47214Y312815D01*
X1900Y355300D02*
X45800Y311401D01*
X1900Y304542D02*
X69474Y372116D01*
X1900Y301714D02*
X72302Y372116D01*
X1900Y310199D02*
X63817Y372116D01*
X1900Y307370D02*
X66645Y372116D01*
X29603Y353053D02*
X58528Y324129D01*
X29084Y350744D02*
X57113Y322715D01*
X28157Y348843D02*
X55699Y321300D01*
X1900Y338483D02*
X12008Y348591D01*
X26909Y347263D02*
X54285Y319886D01*
X25364Y345978D02*
X52871Y318472D01*
X23505Y345009D02*
X51456Y317058D01*
X21254Y344432D02*
X50042Y315644D01*
X1900Y352472D02*
X44385Y309987D01*
X18368Y344489D02*
X48628Y314229D01*
X1900Y329998D02*
X16799Y344897D01*
X1900Y332826D02*
X14889Y345815D01*
X1900Y327169D02*
X19121Y344390D01*
X1900Y341312D02*
X11030Y350442D01*
X1900Y335655D02*
X13300Y347055D01*
X1900Y349644D02*
X42971Y308572D01*
X1900Y346815D02*
X41557Y307158D01*
X1900Y324341D02*
X22152Y344593D01*
X1900Y343987D02*
X40143Y305744D01*
X79599Y336998D02*
X120114Y296483D01*
X78185Y335584D02*
X118017Y295753D01*
X114806Y293306D02*
X116001Y292111D01*
X104987Y291664D02*
X106061Y292737D01*
X104996Y291803D02*
X106236Y290563D01*
X114410Y289773D02*
X116040Y291403D01*
X94803Y290682D02*
X99182Y286303D01*
X75357Y332755D02*
X111806Y296306D01*
X72557Y296003D02*
X118118Y341564D01*
X73943Y331341D02*
X109030Y296253D01*
X69700Y327099D02*
X100303Y296496D01*
X68286Y325684D02*
X98139Y295831D01*
X74093Y294710D02*
X120202Y340819D01*
X64646Y293749D02*
X111782Y340885D01*
X76771Y334170D02*
X116635Y294305D01*
X72528Y329927D02*
X107296Y295160D01*
X71114Y328513D02*
X106224Y293403D01*
X119513Y286390D02*
X120624Y287502D01*
X114753Y290530D02*
X119030Y286253D01*
X120611Y287501D02*
X121806Y286306D01*
X111098Y286460D02*
X112727Y288090D01*
X109063Y287736D02*
X110303Y286496D01*
X113660Y288796D02*
X117296Y285160D01*
X113123Y285657D02*
X116843Y289377D01*
X114450Y284156D02*
X118344Y288050D01*
X111903Y287724D02*
X116224Y283403D01*
X104873Y283064D02*
X109436Y287628D01*
X104331Y289639D02*
X108139Y285831D01*
X102284Y286132D02*
X106369Y290216D01*
X100803Y287510D02*
X102112Y286201D01*
X93759Y288897D02*
X97397Y285259D01*
X99763Y286439D02*
X100836Y287513D01*
X103913Y284933D02*
X107567Y288587D01*
X102929Y288212D02*
X106712Y284430D01*
X94519Y284024D02*
X98476Y287981D01*
X104701Y283612D02*
X106010Y282303D01*
X94701Y293612D02*
X96010Y292303D01*
X85000Y292000D02*
X86149Y290850D01*
X93954Y289116D02*
X96067Y291228D01*
X74941Y292730D02*
X76869Y294658D01*
X84965Y291441D02*
X86028Y292504D01*
X82422Y286069D02*
X86431Y290078D01*
X84406Y289765D02*
X88265Y285906D01*
X74848Y290838D02*
X79338Y286348D01*
X66872Y324270D02*
X96712Y294429D01*
X65457Y322856D02*
X92112Y296201D01*
X64043Y321442D02*
X89182Y296303D01*
X74547Y293967D02*
X76026Y292488D01*
X64929Y291203D02*
X66009Y292283D01*
X71440Y286401D02*
X76099Y291060D01*
X64995Y292205D02*
X66088Y291112D01*
X64477Y289895D02*
X68395Y285977D01*
X93238Y285571D02*
X96929Y289262D01*
X91272Y286433D02*
X93384Y288545D01*
X89350Y287649D02*
X90500Y286500D01*
X79996Y286472D02*
X81059Y287535D01*
X80988Y287526D02*
X82467Y286047D01*
X92052Y287776D02*
X96276Y283552D01*
X84004Y284823D02*
X87677Y288496D01*
X84909Y282899D02*
X89601Y287591D01*
X83050Y288292D02*
X86792Y284550D01*
X84547Y283967D02*
X86027Y282488D01*
X73856Y289002D02*
X77502Y285356D01*
X73350Y285482D02*
X77018Y289150D01*
X69612Y287589D02*
X70705Y286495D01*
X64092Y284710D02*
X67790Y288407D01*
X67842Y285631D02*
X69770Y287560D01*
X74585Y283888D02*
X78612Y287915D01*
X72197Y287832D02*
X76332Y283697D01*
X64941Y282730D02*
X66869Y284658D01*
X64292Y284424D02*
X66049Y282666D01*
X123181Y341500D02*
X218781Y245900D01*
X109565Y340974D02*
X204639Y245900D01*
X121047Y340806D02*
X215952Y245900D01*
X124983Y291614D02*
X170697Y245900D01*
X124253Y289516D02*
X167869Y245900D01*
X114104Y342092D02*
X210296Y245900D01*
X105903Y341808D02*
X201810Y245900D01*
X112336Y341031D02*
X207467Y245900D01*
X122805Y288135D02*
X165045Y245896D01*
X124806Y283306D02*
X163105Y245007D01*
X88140Y342600D02*
X184840Y245900D01*
X83842Y341241D02*
X179183Y245900D01*
X92760Y340808D02*
X187668Y245900D01*
X82428Y339827D02*
X176354Y245900D01*
X81014Y338412D02*
X173526Y245900D01*
X100630Y341424D02*
X196153Y245900D01*
X103982Y340900D02*
X198982Y245900D01*
X96749Y342476D02*
X193325Y245900D01*
X95152Y341244D02*
X190497Y245900D01*
X147408Y221107D02*
X236014Y132500D01*
X131694Y205393D02*
X166401Y240100D01*
X145993Y219692D02*
X233186Y132500D01*
X144579Y218278D02*
X230357Y132500D01*
X143165Y216864D02*
X227529Y132500D01*
X141751Y215450D02*
X224700Y132500D01*
X133266Y206964D02*
X207730Y132500D01*
X131851Y205550D02*
X204902Y132500D01*
X124753Y280531D02*
X161691Y243593D01*
X123660Y278796D02*
X160277Y242178D01*
X127593Y209494D02*
X163149Y245051D01*
X119063Y277736D02*
X157449Y239350D01*
X121903Y277724D02*
X158863Y240764D01*
X131081Y203492D02*
X202073Y132500D01*
X129603Y202142D02*
X199245Y132500D01*
X131682Y205221D02*
X166561Y240100D01*
X127164Y201752D02*
X196416Y132500D01*
X114998Y281876D02*
X116110Y282987D01*
X114996Y281803D02*
X116236Y280563D01*
X104410Y279773D02*
X106040Y281402D01*
X94987Y281664D02*
X96061Y282737D01*
X95000Y281999D02*
X96149Y280850D01*
X104803Y280682D02*
X151792Y233693D01*
X94406Y279765D02*
X146135Y228036D01*
X83955Y279116D02*
X86067Y281228D01*
X74965Y281440D02*
X76028Y282504D01*
X74995Y282205D02*
X76089Y281112D01*
X84847Y280838D02*
X141892Y223794D01*
X74477Y279895D02*
X136235Y218137D01*
X64887Y280999D02*
X131993Y213894D01*
X114331Y279639D02*
X156034Y237936D01*
X112929Y278212D02*
X154620Y236522D01*
X110803Y277510D02*
X153206Y235107D01*
X103759Y278897D02*
X150378Y232279D01*
X102052Y277776D02*
X148963Y230865D01*
X99350Y277649D02*
X147549Y229450D01*
X93050Y278292D02*
X144721Y226622D01*
X90988Y277526D02*
X143307Y225208D01*
X83856Y279002D02*
X140478Y222379D01*
X82197Y277832D02*
X139064Y220965D01*
X73168Y278376D02*
X134821Y216722D01*
X79612Y277589D02*
X137650Y219551D01*
X63949Y279110D02*
X130579Y212480D01*
X71166Y277550D02*
X133407Y215308D01*
X61603Y296363D02*
X107471Y342231D01*
X58383Y295971D02*
X103210Y340798D01*
X59800Y317199D02*
X80500Y296500D01*
X58386Y315785D02*
X78265Y295906D01*
X55558Y312957D02*
X72467Y296047D01*
X63459Y295390D02*
X109173Y341105D01*
X54177Y294594D02*
X100875Y341291D01*
X62629Y320028D02*
X87397Y295259D01*
X61215Y318613D02*
X86276Y293552D01*
X56972Y314371D02*
X76792Y294550D01*
X50426Y296499D02*
X95188Y341261D01*
X38765Y296152D02*
X85213Y342600D01*
X54144Y311542D02*
X69338Y296347D01*
X49901Y307300D02*
X60705Y296495D01*
X48487Y305885D02*
X58395Y295977D01*
X52688Y295933D02*
X99311Y342556D01*
X43565Y295295D02*
X90142Y341872D01*
X44704Y293606D02*
X92025Y340927D01*
X52729Y310128D02*
X67502Y295356D01*
X51315Y308714D02*
X66332Y293697D01*
X54887Y290999D02*
X59499Y286387D01*
X60217Y286491D02*
X61297Y287571D01*
X54291Y294424D02*
X56050Y292666D01*
X54966Y292554D02*
X56529Y294117D01*
X63168Y288376D02*
X66876Y284668D01*
X62557Y286003D02*
X66497Y289943D01*
X61166Y287549D02*
X62924Y285791D01*
X53949Y289109D02*
X57609Y285449D01*
X54646Y283749D02*
X58751Y287854D01*
X47072Y304471D02*
X56876Y294668D01*
X45658Y303057D02*
X52924Y295792D01*
X44244Y301643D02*
X49499Y296387D01*
X49855Y287546D02*
X50921Y286480D01*
X53459Y285390D02*
X57110Y289041D01*
X52338Y287892D02*
X56392Y283838D01*
X51603Y286363D02*
X56137Y290897D01*
X48383Y285971D02*
X49946Y287534D01*
X1900Y332673D02*
X34486Y300087D01*
X1900Y341158D02*
X38729Y304330D01*
X40001Y297400D02*
X40921Y296480D01*
X1900Y329845D02*
X33072Y298673D01*
X1900Y327016D02*
X31657Y297259D01*
X42830Y300229D02*
X47609Y295449D01*
X41416Y298814D02*
X46392Y293838D01*
X1900Y335502D02*
X35900Y301501D01*
X1900Y338330D02*
X37314Y302916D01*
X1900Y324188D02*
X29666Y296422D01*
X1900Y321359D02*
X27720Y295539D01*
X1900Y318531D02*
X26456Y293975D01*
X1900Y312874D02*
X28665Y286109D01*
X1900Y310046D02*
X27053Y284893D01*
X1900Y315703D02*
X26019Y291583D01*
X1900Y307217D02*
X26113Y283004D01*
X44980Y292421D02*
X46047Y291355D01*
X34985Y292372D02*
X36348Y293735D01*
X44875Y290949D02*
X46001Y292074D01*
X35759Y293158D02*
X36079Y292838D01*
X44545Y290028D02*
X48528Y286045D01*
X43282Y288463D02*
X46963Y284782D01*
X44177Y284594D02*
X47906Y288323D01*
X42687Y285932D02*
X46567Y289812D01*
X40426Y286499D02*
X41551Y287625D01*
X34984Y292383D02*
X36356Y293755D01*
X34922Y291166D02*
X39666Y286422D01*
X31761Y286320D02*
X36180Y290739D01*
X30083Y287519D02*
X31150Y286453D01*
X28765Y286152D02*
X30128Y287515D01*
X34039Y289220D02*
X37720Y285539D01*
X34704Y283606D02*
X38894Y287796D01*
X33565Y285295D02*
X37205Y288935D01*
X32475Y287956D02*
X36456Y283975D01*
X44922Y281166D02*
X193588Y132500D01*
X34609Y280165D02*
X182274Y132500D01*
X44039Y279220D02*
X190759Y132500D01*
X54545Y280028D02*
X125692Y208881D01*
X33393Y278553D02*
X179446Y132500D01*
X1900Y293075D02*
X162475Y132500D01*
X1900Y301560D02*
X170960Y132500D01*
X1900Y290247D02*
X159647Y132500D01*
X1900Y287418D02*
X156818Y132500D01*
X1900Y284590D02*
X153990Y132500D01*
X1900Y174434D02*
X106843Y279377D01*
X1900Y165949D02*
X116310Y280359D01*
X1900Y163120D02*
X117461Y278681D01*
X1900Y185748D02*
X96368Y280217D01*
X1900Y182920D02*
X97567Y278587D01*
X1900Y298732D02*
X168132Y132500D01*
X1900Y295903D02*
X165304Y132500D01*
X1900Y281761D02*
X151161Y132500D01*
X1900Y278933D02*
X148333Y132500D01*
X62338Y277892D02*
X129164Y211066D01*
X53282Y278463D02*
X124342Y207403D01*
X59855Y277547D02*
X127750Y209651D01*
X1900Y177263D02*
X102727Y278090D01*
X51338Y277579D02*
X123952Y204964D01*
X42475Y277956D02*
X187931Y132500D01*
X31504Y277613D02*
X176617Y132500D01*
X40083Y277519D02*
X185102Y132500D01*
X28087Y278202D02*
X173789Y132500D01*
X1900Y171606D02*
X108344Y278050D01*
X1900Y180091D02*
X99436Y277627D01*
X1900Y160292D02*
X119277Y277669D01*
X1900Y168777D02*
X110624Y277502D01*
X1900Y191405D02*
X88476Y277981D01*
X1900Y188576D02*
X90836Y277513D01*
X1900Y276104D02*
X145504Y132500D01*
X1900Y273276D02*
X142676Y132500D01*
X1900Y157464D02*
X122321Y277885D01*
X1900Y270448D02*
X139848Y132500D01*
X54980Y282421D02*
X56046Y281355D01*
X44966Y282554D02*
X46529Y284117D01*
X54929Y281203D02*
X56009Y282283D01*
X41338Y287579D02*
X46079Y282838D01*
X34953Y282650D02*
X36019Y281583D01*
X34876Y280949D02*
X36001Y282074D01*
X1900Y264944D02*
X26641Y289685D01*
X1900Y304389D02*
X26701Y279587D01*
X1900Y262116D02*
X28026Y288241D01*
X1900Y267772D02*
X26002Y291874D01*
X1900Y259287D02*
X26348Y283735D01*
X1900Y216861D02*
X66099Y281060D01*
X1900Y205547D02*
X76431Y280078D01*
X1900Y236660D02*
X46137Y280897D01*
X1900Y256459D02*
X26180Y280739D01*
X1900Y231003D02*
X48751Y277854D01*
X1900Y242317D02*
X37906Y278323D01*
X1900Y239488D02*
X39946Y277534D01*
X1900Y250802D02*
X28894Y277796D01*
X1900Y247973D02*
X31551Y277625D01*
X1900Y199890D02*
X79601Y277591D01*
X1900Y211204D02*
X68612Y277915D01*
X1900Y208375D02*
X71060Y277535D01*
X1900Y228174D02*
X51297Y277571D01*
X1900Y219689D02*
X59770Y277559D01*
X1900Y233831D02*
X47110Y279041D01*
X1900Y225346D02*
X56497Y279943D01*
X1900Y222517D02*
X57790Y278408D01*
X1900Y245145D02*
X36568Y279813D01*
X1900Y253630D02*
X27205Y278935D01*
X1900Y194233D02*
X86929Y279262D01*
X1900Y197062D02*
X83384Y278545D01*
X1900Y214032D02*
X67018Y279150D01*
X1900Y202718D02*
X77677Y278496D01*
X314525Y124700D02*
X316134Y123091D01*
X314100Y124700D02*
X316900D01*
X314957Y122623D02*
X316631Y124297D01*
X306040Y124700D02*
X306562Y124178D01*
X314964Y121432D02*
X316547Y119849D01*
X311540Y116378D02*
X316122Y120960D01*
X304899Y121051D02*
X306003Y122155D01*
X304100Y124700D02*
X306900D01*
X295292Y240100D02*
X402892Y132500D01*
X304682Y123662D02*
X305719Y124700D01*
X294726D02*
X296177Y123249D01*
X294100Y124700D02*
X296900D01*
X304880Y123031D02*
X306001Y121910D01*
X294978Y122444D02*
X296409Y123875D01*
X294983Y121614D02*
X296359Y120238D01*
X314171Y119397D02*
X317897Y115671D01*
X313417Y115427D02*
X317073Y119083D01*
X310410Y117501D02*
X311531Y116380D01*
X304699Y120383D02*
X308883Y116200D01*
X308203Y115869D02*
X309877Y117543D01*
X312678Y118062D02*
X316562Y114178D01*
X304145Y114640D02*
X307860Y118356D01*
X314623Y113804D02*
X318696Y117877D01*
X303557Y118698D02*
X307198Y115057D01*
X304957Y112623D02*
X306631Y114297D01*
X302637Y115960D02*
X306540Y119863D01*
X298738Y117859D02*
X300114Y116483D01*
X300345Y116497D02*
X301449Y117601D01*
X291700Y116337D02*
X296163Y120800D01*
X294253Y119517D02*
X298017Y115753D01*
X294682Y113662D02*
X298838Y117818D01*
X301749Y117677D02*
X306177Y113249D01*
X293524Y115333D02*
X297167Y118976D01*
X292805Y118135D02*
X296635Y114305D01*
X286241Y124700D02*
X286635Y124305D01*
X284100Y124700D02*
X286900D01*
X284806Y123306D02*
X286001Y122111D01*
X276394Y124700D02*
X276900D01*
X284737Y123516D02*
X285921Y124700D01*
X271927Y127700D02*
X272266Y127360D01*
X269098Y127700D02*
X270852Y125946D01*
X275660Y123966D02*
X276224Y123403D01*
X263442Y127700D02*
X268024Y123118D01*
X266270Y127700D02*
X269438Y124532D01*
X260613Y127700D02*
X266610Y121704D01*
X274246Y122552D02*
X275952Y120846D01*
X254956Y127700D02*
X263781Y118875D01*
X257785Y127700D02*
X265195Y120290D01*
X288625Y116091D02*
X290056Y117522D01*
X284753Y120530D02*
X289031Y116253D01*
X290611Y117501D02*
X291806Y116306D01*
X284833Y120783D02*
X286000Y121951D01*
X280549Y116500D02*
X281716Y117668D01*
X283660Y118796D02*
X287296Y115160D01*
X282766Y115888D02*
X286612Y119735D01*
X284227Y114521D02*
X287979Y118273D01*
X281903Y117724D02*
X286224Y113403D01*
X284978Y112444D02*
X286409Y113875D01*
X272832Y121138D02*
X274538Y119432D01*
X271418Y119724D02*
X273124Y118018D01*
X279346Y117452D02*
X280303Y116496D01*
X270004Y118310D02*
X271710Y116604D01*
X268589Y116895D02*
X270295Y115190D01*
X269403Y114297D02*
X276111Y121005D01*
X267175Y115481D02*
X268963Y113693D01*
X314880Y113031D02*
X316001Y111910D01*
X314945Y111298D02*
X316015Y112368D01*
X304983Y111614D02*
X306359Y110238D01*
X314700Y110383D02*
X396683Y28400D01*
X304253Y109517D02*
X385369Y28400D01*
X313557Y108698D02*
X393854Y28400D01*
X294753Y110530D02*
X376884Y28400D01*
X302805Y108135D02*
X382541Y28400D01*
X284331Y109639D02*
X365570Y28400D01*
X273500Y67025D02*
X316471Y109996D01*
X273500Y64196D02*
X317745Y108442D01*
X273500Y78338D02*
X306122Y110960D01*
X273500Y75510D02*
X307073Y109083D01*
X293660Y108796D02*
X374055Y28400D01*
X282929Y108212D02*
X362742Y28400D01*
X273690Y111795D02*
X357085Y28400D01*
X273500Y109156D02*
X354256Y28400D01*
X311749Y107677D02*
X391026Y28400D01*
X308738Y107859D02*
X388197Y28400D01*
X314071D02*
X392271Y106600D01*
X304426Y30068D02*
X380958Y106600D01*
X305840Y28654D02*
X383786Y106600D01*
X308415Y28400D02*
X386615Y106600D01*
X300611Y107501D02*
X379712Y28400D01*
X311243D02*
X389443Y106600D01*
X289063Y107736D02*
X368398Y28400D01*
X291903Y107724D02*
X371227Y28400D01*
X274727Y59767D02*
X322033Y107073D01*
X273500Y61368D02*
X319703Y107571D01*
X276142Y58353D02*
X323447Y105658D01*
X273500Y72681D02*
X308696Y107877D01*
X273500Y69853D02*
X311202Y107555D01*
X280803Y107510D02*
X359913Y28400D01*
X273500Y106328D02*
X351428Y28400D01*
X277556Y56938D02*
X324862Y104244D01*
X273500Y103499D02*
X348600Y28400D01*
X294899Y111051D02*
X296003Y112155D01*
X294806Y113306D02*
X296001Y112111D01*
X284996Y111803D02*
X286236Y110563D01*
X273500Y111606D02*
X279505Y117611D01*
X275104Y113210D02*
X276010Y112303D01*
X273500Y98137D02*
X286163Y110800D01*
X273500Y60994D02*
Y111606D01*
X265761Y114067D02*
X268700Y111128D01*
X252606Y107700D02*
X272606Y127700D01*
X273500Y109451D02*
X276000Y111951D01*
X264347Y112653D02*
X268700Y108300D01*
X262933Y111239D02*
X268700Y105471D01*
X255297Y103603D02*
X276394Y124700D01*
X254264Y98700D02*
X268781Y113217D01*
X268700Y96300D02*
Y112600D01*
X257092Y98700D02*
X268700Y110308D01*
X273500Y103794D02*
X277979Y108273D01*
X273500Y95309D02*
X287167Y108976D01*
X273500Y100966D02*
X280056Y107522D01*
X273500Y106623D02*
X276612Y109734D01*
X264203Y100154D02*
X268700Y104651D01*
X273500Y83995D02*
X297860Y108355D01*
X273500Y86824D02*
X296540Y109863D01*
X273500Y81167D02*
X299877Y107543D01*
X273500Y92480D02*
X288838Y107818D01*
X273500Y89652D02*
X291449Y107601D01*
X261518Y109824D02*
X268700Y102643D01*
X260104Y108410D02*
X268700Y99814D01*
X258690Y106996D02*
X265561Y100125D01*
X259921Y98700D02*
X268700Y107480D01*
X257276Y105582D02*
X263065Y99793D01*
X255861Y104167D02*
X261329Y98700D01*
X254219Y102981D02*
X258501Y98700D01*
X138600Y132500D02*
X470206D01*
X38166Y125847D02*
X261600Y349281D01*
X139594Y127700D02*
X272606D01*
X41528Y126381D02*
X261600Y346453D01*
X138105Y132448D02*
X245757Y240100D01*
X124997Y122168D02*
X242928Y240100D01*
X34138Y124648D02*
X261711Y352220D01*
X124342Y124342D02*
X240100Y240100D01*
X122948Y125776D02*
X237272Y240100D01*
X124342Y124342D02*
X240100Y240100D01*
X30330Y126497D02*
X267833Y364000D01*
X1900Y123522D02*
X242377Y364000D01*
X32627Y125965D02*
X270662Y364000D01*
X1900Y129179D02*
X236721Y364000D01*
X1900Y126351D02*
X239549Y364000D01*
X1900Y112209D02*
X253691Y364000D01*
X1900Y115037D02*
X250863Y364000D01*
X1900Y109380D02*
X256520Y364000D01*
X1900Y120694D02*
X245206Y364000D01*
X1900Y117866D02*
X248034Y364000D01*
X249300Y127700D02*
X260953Y116047D01*
X246471Y127700D02*
X259539Y114633D01*
X252128Y127700D02*
X262367Y117461D01*
X240814Y127700D02*
X256710Y111804D01*
X243643Y127700D02*
X258124Y113218D01*
X249121Y107700D02*
X269122Y127700D01*
X243465Y107700D02*
X263465Y127700D01*
X251950Y107700D02*
X271950Y127700D01*
X237986D02*
X255296Y110390D01*
X240636Y107700D02*
X260636Y127700D01*
X235157D02*
X253882Y108976D01*
X234979Y107700D02*
X254979Y127700D01*
X237808Y107700D02*
X257808Y127700D01*
X220837Y107700D02*
X240837Y127700D01*
X232329D02*
X252329Y107700D01*
X218009D02*
X238009Y127700D01*
X218187D02*
X238187Y107700D01*
X215180D02*
X235180Y127700D01*
X215358D02*
X235358Y107700D01*
X112074Y126216D02*
X225958Y240100D01*
X109390Y126361D02*
X223129Y240100D01*
X120831Y126488D02*
X234443Y240100D01*
X101015Y126470D02*
X214644Y240100D01*
X103068Y125695D02*
X217473Y240100D01*
X113774Y125087D02*
X228786Y240100D01*
X104417Y124216D02*
X220301Y240100D01*
X114810Y123295D02*
X231615Y240100D01*
X93870Y124982D02*
X208987Y240100D01*
X94854Y123138D02*
X211816Y240100D01*
X92218Y126159D02*
X206159Y240100D01*
X1900Y132008D02*
X233892Y364000D01*
X89649Y126419D02*
X203330Y240100D01*
X69890Y126458D02*
X183531Y240100D01*
X72358Y126098D02*
X186360Y240100D01*
X74893Y122976D02*
X192017Y240100D01*
X84487Y124086D02*
X200502Y240100D01*
X64555Y123952D02*
X180703Y240100D01*
X73962Y124874D02*
X189188Y240100D01*
X204045Y127700D02*
X224045Y107700D01*
X203867D02*
X223867Y127700D01*
X206695Y107700D02*
X226695Y127700D01*
X201038Y107700D02*
X221038Y127700D01*
X201216D02*
X221216Y107700D01*
X212352D02*
X232352Y127700D01*
X209701D02*
X229701Y107700D01*
X212530Y127700D02*
X232530Y107700D01*
X206873Y127700D02*
X226873Y107700D01*
X209524D02*
X229523Y127700D01*
X140337Y214035D02*
X221872Y132500D01*
X138922Y212621D02*
X219044Y132500D01*
X137508Y211207D02*
X216215Y132500D01*
X136094Y209793D02*
X213387Y132500D01*
X134680Y208379D02*
X210558Y132500D01*
X198210Y107700D02*
X218210Y127700D01*
X198388D02*
X218388Y107700D01*
X81192Y126446D02*
X194845Y240100D01*
X83185Y125611D02*
X197674Y240100D01*
X226494Y107700D02*
X246494Y127700D01*
X223844D02*
X243844Y107700D01*
X226672Y127700D02*
X246672Y107700D01*
X221015Y127700D02*
X241015Y107700D01*
X223666D02*
X243666Y127700D01*
X246293Y107700D02*
X266293Y127700D01*
X232151Y107700D02*
X252151Y127700D01*
X251435Y98700D02*
X276270Y123535D01*
X229323Y107700D02*
X249323Y127700D01*
X229501D02*
X249500Y107700D01*
X195559Y127700D02*
X215559Y107700D01*
X195381D02*
X215381Y127700D01*
X121827Y107700D02*
X252606D01*
X192553D02*
X212553Y127700D01*
X192731D02*
X212731Y107700D01*
X1900Y103724D02*
X262176Y364000D01*
X1900Y100895D02*
X265005Y364000D01*
X1900Y106552D02*
X259348Y364000D01*
X211837Y98700D02*
X216037Y102900D01*
X237293Y98700D02*
X241493Y102900D01*
X234502D02*
X238702Y98700D01*
X240122D02*
X244321Y102900D01*
X220359D02*
X224559Y98700D01*
X234465D02*
X238665Y102900D01*
X248607Y98700D02*
X252807Y102900D01*
X245815D02*
X250015Y98700D01*
X248644Y102900D02*
X252844Y98700D01*
X240158Y102900D02*
X244358Y98700D01*
X242950D02*
X247150Y102900D01*
X214666Y98700D02*
X218866Y102900D01*
X211874D02*
X216074Y98700D01*
X110500Y102900D02*
X253600D01*
X209009Y98700D02*
X213209Y102900D01*
X209046D02*
X213246Y98700D01*
X217531Y102900D02*
X221731Y98700D01*
X220322D02*
X224522Y102900D01*
X214703D02*
X218902Y98700D01*
X217494D02*
X221694Y102900D01*
X181417Y127700D02*
X201417Y107700D01*
X181239D02*
X201239Y127700D01*
X184068Y107700D02*
X204068Y127700D01*
X178411Y107700D02*
X198411Y127700D01*
X178589D02*
X198589Y107700D01*
X189725D02*
X209724Y127700D01*
X187074D02*
X207074Y107700D01*
X189902Y127700D02*
X209903Y107700D01*
X184246Y127700D02*
X204246Y107700D01*
X186896D02*
X206896Y127700D01*
X164269Y107700D02*
X184269Y127700D01*
X161618D02*
X181618Y107700D01*
X164447Y127700D02*
X184447Y107700D01*
X158612D02*
X178612Y127700D01*
X158790D02*
X178790Y107700D01*
X175582D02*
X195582Y127700D01*
X175760D02*
X195760Y107700D01*
X172754D02*
X192754Y127700D01*
X172932D02*
X192932Y107700D01*
X192075Y102900D02*
X196275Y98700D01*
X192038D02*
X196238Y102900D01*
X200523Y98700D02*
X204724Y102900D01*
X186381Y98700D02*
X190581Y102900D01*
X189210Y98700D02*
X193410Y102900D01*
X206180Y98700D02*
X210380Y102900D01*
X203389D02*
X207589Y98700D01*
X206217Y102900D02*
X210417Y98700D01*
X200560Y102900D02*
X204760Y98700D01*
X203352D02*
X207552Y102900D01*
X169925Y107700D02*
X189926Y127700D01*
X167275D02*
X187275Y107700D01*
X170104Y127700D02*
X190103Y107700D01*
X161440D02*
X181440Y127700D01*
X167097Y107700D02*
X187097Y127700D01*
X177896Y98700D02*
X182096Y102900D01*
X177933D02*
X182133Y98700D01*
X175068D02*
X179268Y102900D01*
X175104D02*
X179305Y98700D01*
X294526Y39968D02*
X356059Y101500D01*
X293112Y41382D02*
X353230Y101500D01*
X295941Y38554D02*
X358887Y101500D01*
X290284Y44210D02*
X347573Y101500D01*
X291698Y42796D02*
X350402Y101500D01*
X301597Y32897D02*
X370201Y101500D01*
X300183Y34311D02*
X367372Y101500D01*
X303012Y31482D02*
X373029Y101500D01*
X297355Y37139D02*
X361716Y101500D01*
X298769Y35725D02*
X364544Y101500D01*
X283213Y51281D02*
X333431Y101500D01*
X281799Y52696D02*
X330603Y101500D01*
X284627Y49867D02*
X336260Y101500D01*
X278970Y55524D02*
X326276Y102830D01*
X280384Y54110D02*
X327884Y101609D01*
X288870Y45625D02*
X344745Y101500D01*
X273500Y100671D02*
X345771Y28400D01*
X273500Y97843D02*
X342943Y28400D01*
X286041Y48453D02*
X339088Y101500D01*
X287455Y47039D02*
X341917Y101500D01*
X273500Y92186D02*
X337286Y28400D01*
X273500Y95014D02*
X340114Y28400D01*
X273500Y86529D02*
X331629Y28400D01*
X273500Y80872D02*
X325972Y28400D01*
X273500Y78044D02*
X323144Y28400D01*
X297101D02*
X298203Y29502D01*
X273500Y83701D02*
X328801Y28400D01*
X306094D02*
X422193D01*
X291444D02*
X295375Y32331D01*
X294272Y28400D02*
X296789Y30917D01*
X273500Y69558D02*
X314658Y28400D01*
X273500Y72387D02*
X317487Y28400D01*
X273500Y66730D02*
X311830Y28400D01*
X273500Y60994D02*
X306094Y28400D01*
X269403Y58303D02*
X299306Y28400D01*
X273500Y89357D02*
X334457Y28400D01*
X273500Y75215D02*
X320315Y28400D01*
X273500Y63902D02*
X309001Y28400D01*
X273500Y61073D02*
X306173Y28400D01*
X268094Y98388D02*
X268700Y98994D01*
X266624Y99747D02*
X268700Y101823D01*
X268293Y94565D02*
X268700Y94157D01*
X251472Y102900D02*
X255672Y98700D01*
X268700Y60000D02*
Y96300D01*
X249158Y93900D02*
X268700Y74358D01*
X257644Y93900D02*
X268700Y82844D01*
X260472Y93900D02*
X268700Y85672D01*
X242987Y102900D02*
X247187Y98700D01*
X237330Y102900D02*
X241530Y98700D01*
X245778D02*
X249978Y102900D01*
X228845D02*
X233045Y98700D01*
X231673Y102900D02*
X235873Y98700D01*
X240673Y93900D02*
X268700Y65873D01*
X229359Y93900D02*
X294859Y28400D01*
X231636Y98700D02*
X235836Y102900D01*
X246330Y93900D02*
X268700Y71530D01*
X271645Y28400D02*
X285475Y42230D01*
X274473Y28400D02*
X286890Y40816D01*
X266970Y93059D02*
X268700Y91329D01*
X285787Y28400D02*
X292547Y35159D01*
X282959Y28400D02*
X291132Y36574D01*
X288616Y28400D02*
X293961Y33745D01*
X277302Y28400D02*
X288304Y39402D01*
X280130Y28400D02*
X289718Y37988D01*
X251987Y93900D02*
X268700Y77187D01*
X243501Y93900D02*
X268700Y68701D01*
X237845Y93900D02*
X268700Y63045D01*
X254815Y93900D02*
X268700Y80015D01*
X264801Y92400D02*
X268700Y88500D01*
X251846Y28400D02*
X275576Y52130D01*
X257503Y28400D02*
X278404Y49301D01*
X235016Y93900D02*
X268700Y60216D01*
X232047Y28400D02*
X268700Y65053D01*
X315856Y1900D02*
X337556Y23600D01*
X313802D02*
X335502Y1900D01*
X305100Y23600D02*
X422193D01*
X310973D02*
X332673Y1900D01*
X313027D02*
X334727Y23600D01*
X308145D02*
X329845Y1900D01*
X307370D02*
X329070Y23600D01*
X310199Y1900D02*
X331899Y23600D01*
X304542Y1900D02*
X326242Y23600D01*
X305316D02*
X327016Y1900D01*
X296057D02*
X317757Y23600D01*
X294003D02*
X315703Y1900D01*
X296831Y23600D02*
X318531Y1900D01*
X232188Y93900D02*
X297688Y28400D01*
X293228Y1900D02*
X314928Y23600D01*
X301714Y1900D02*
X323414Y23600D01*
X302488D02*
X324188Y1900D01*
X298885D02*
X320585Y23600D01*
X299659D02*
X321359Y1900D01*
X282689Y23600D02*
X304389Y1900D01*
X281915D02*
X303615Y23600D01*
X284743Y1900D02*
X306443Y23600D01*
X279086Y1900D02*
X300786Y23600D01*
X279860D02*
X301560Y1900D01*
X290400D02*
X312100Y23600D01*
X288346D02*
X310046Y1900D01*
X291174Y23600D02*
X312874Y1900D01*
X285517Y23600D02*
X307217Y1900D01*
X287571D02*
X309271Y23600D01*
X270601Y1900D02*
X292301Y23600D01*
X268547D02*
X290247Y1900D01*
X271375Y23600D02*
X293075Y1900D01*
X265718Y23600D02*
X287418Y1900D01*
X267772D02*
X289472Y23600D01*
X276258Y1900D02*
X297958Y23600D01*
X277032D02*
X298732Y1900D01*
X273429D02*
X295129Y23600D01*
X274203D02*
X295903Y1900D01*
X265988Y28400D02*
X282647Y45059D01*
X263160Y28400D02*
X281233Y46473D01*
X268817Y28400D02*
X284061Y43645D01*
X254674Y28400D02*
X276990Y50716D01*
X260331Y28400D02*
X279819Y47887D01*
X262890Y23600D02*
X284590Y1900D01*
X262116D02*
X283816Y23600D01*
X264944Y1900D02*
X286644Y23600D01*
X254404D02*
X276104Y1900D01*
X260061Y23600D02*
X281761Y1900D01*
X240532Y28400D02*
X269919Y57787D01*
X237704Y28400D02*
X268762Y59458D01*
X243361Y28400D02*
X271333Y56373D01*
X229219Y28400D02*
X268700Y67882D01*
X234875Y28400D02*
X268700Y62225D01*
X249018Y28400D02*
X274162Y53544D01*
X253630Y1900D02*
X275330Y23600D01*
X246189Y28400D02*
X272747Y54958D01*
X251576Y23600D02*
X273276Y1900D01*
X245919Y23600D02*
X267619Y1900D01*
X245145D02*
X266845Y23600D01*
X247973Y1900D02*
X269673Y23600D01*
X242317Y1900D02*
X264017Y23600D01*
X243091D02*
X264791Y1900D01*
X257233Y23600D02*
X278933Y1900D01*
X256459D02*
X278159Y23600D01*
X259287Y1900D02*
X280987Y23600D01*
X248748D02*
X270448Y1900D01*
X250802D02*
X272502Y23600D01*
X233831Y1900D02*
X255531Y23600D01*
X231777D02*
X253477Y1900D01*
X234606Y23600D02*
X256306Y1900D01*
X228949Y23600D02*
X250649Y1900D01*
X231003D02*
X252703Y23600D01*
X239488Y1900D02*
X261188Y23600D01*
X240262D02*
X261962Y1900D01*
X236660D02*
X258360Y23600D01*
X237434D02*
X259134Y1900D01*
X209560Y93900D02*
X275060Y28400D01*
X206732Y93900D02*
X272232Y28400D01*
X212389Y93900D02*
X277889Y28400D01*
X201075Y93900D02*
X266575Y28400D01*
X203904Y93900D02*
X269404Y28400D01*
X223703Y93900D02*
X289202Y28400D01*
X220874Y93900D02*
X286374Y28400D01*
X226531Y93900D02*
X292031Y28400D01*
X215217Y93900D02*
X280717Y28400D01*
X218046Y93900D02*
X283546Y28400D01*
X47194Y98700D02*
X261726D01*
X46200Y93900D02*
X261726D01*
X198247D02*
X263747Y28400D01*
X186933Y93900D02*
X252433Y28400D01*
X189620D02*
X255120Y93900D01*
X183964Y28400D02*
X249464Y93900D01*
X181135Y28400D02*
X246635Y93900D01*
X195418D02*
X260918Y28400D01*
X178307D02*
X243807Y93900D01*
X178448D02*
X243948Y28400D01*
X209419D02*
X268700Y87681D01*
X206591Y28400D02*
X268700Y90509D01*
X212248Y28400D02*
X268700Y84852D01*
X203763Y28400D02*
X268700Y93337D01*
X200934Y28400D02*
X264937Y92402D01*
X223562Y28400D02*
X268700Y73538D01*
X220733Y28400D02*
X268700Y76367D01*
X226390Y28400D02*
X268700Y70710D01*
X215076Y28400D02*
X268700Y82024D01*
X217905Y28400D02*
X268700Y79195D01*
X189761Y93900D02*
X255261Y28400D01*
X186792D02*
X252292Y93900D01*
X102994Y28400D02*
X299306D01*
X181276Y93900D02*
X246776Y28400D01*
X184105Y93900D02*
X249605Y28400D01*
X195277D02*
X260777Y93900D01*
X198106Y28400D02*
X262712Y93006D01*
X192449Y28400D02*
X257949Y93900D01*
X192590D02*
X258090Y28400D01*
X197695Y98700D02*
X201895Y102900D01*
X194904D02*
X199103Y98700D01*
X197732Y102900D02*
X201932Y98700D01*
X189247Y102900D02*
X193447Y98700D01*
X194867D02*
X199067Y102900D01*
X226016D02*
X230216Y98700D01*
X225979D02*
X230179Y102900D01*
X228808Y98700D02*
X233008Y102900D01*
X223151Y98700D02*
X227351Y102900D01*
X223188D02*
X227388Y98700D01*
X183590Y102900D02*
X187790Y98700D01*
X183553D02*
X187753Y102900D01*
X186418D02*
X190618Y98700D01*
X180725D02*
X184924Y102900D01*
X180761D02*
X184961Y98700D01*
X155679Y28400D02*
X221179Y93900D01*
X161477D02*
X226977Y28400D01*
X116222Y93900D02*
X181722Y28400D01*
X118910D02*
X184410Y93900D01*
X141678D02*
X207178Y28400D01*
X141537D02*
X207037Y93900D01*
X144366Y28400D02*
X209866Y93900D01*
X138709Y28400D02*
X204209Y93900D01*
X138850D02*
X204350Y28400D01*
X164305Y93900D02*
X229805Y28400D01*
X164165D02*
X229665Y93900D01*
X175619D02*
X241119Y28400D01*
X144506Y93900D02*
X210006Y28400D01*
X161336D02*
X226836Y93900D01*
X119051D02*
X184551Y28400D01*
X116081D02*
X181581Y93900D01*
X121738Y28400D02*
X187238Y93900D01*
X113253Y28400D02*
X178753Y93900D01*
X113394D02*
X178894Y28400D01*
X124707Y93900D02*
X190207Y28400D01*
X136021Y93900D02*
X201521Y28400D01*
X121879Y93900D02*
X187379Y28400D01*
X124567D02*
X190067Y93900D01*
X172791D02*
X238291Y28400D01*
X172650D02*
X238150Y93900D01*
X175478Y28400D02*
X240978Y93900D01*
X169962D02*
X235462Y28400D01*
X214806Y23600D02*
X236506Y1900D01*
X226120Y23600D02*
X247820Y1900D01*
X225346D02*
X247046Y23600D01*
X228174Y1900D02*
X249874Y23600D01*
X216861Y1900D02*
X238561Y23600D01*
X217635D02*
X239335Y1900D01*
X167134Y93900D02*
X232634Y28400D01*
X166993D02*
X232493Y93900D01*
X169822Y28400D02*
X235321Y93900D01*
X158508Y28400D02*
X224008Y93900D01*
X158649D02*
X224149Y28400D01*
X155820Y93900D02*
X221320Y28400D01*
X102000Y23600D02*
X305100D01*
X152851Y28400D02*
X218351Y93900D01*
X152992D02*
X218492Y28400D01*
X211204Y1900D02*
X232904Y23600D01*
X209150D02*
X230850Y1900D01*
X211978Y23600D02*
X233678Y1900D01*
X206321Y23600D02*
X228021Y1900D01*
X208375D02*
X230075Y23600D01*
X222517Y1900D02*
X244217Y23600D01*
X220463D02*
X242163Y1900D01*
X223292Y23600D02*
X244992Y1900D01*
X214032D02*
X235732Y23600D01*
X219689Y1900D02*
X241389Y23600D01*
X199890Y1900D02*
X221590Y23600D01*
X197836D02*
X219536Y1900D01*
X1900D02*
X647706D01*
X195007Y23600D02*
X216707Y1900D01*
X197062D02*
X218762Y23600D01*
X203493D02*
X225193Y1900D01*
X205547D02*
X227247Y23600D01*
X200664D02*
X222364Y1900D01*
X202718D02*
X224418Y23600D01*
X150163Y93900D02*
X215663Y28400D01*
X150022D02*
X215523Y93900D01*
X182920Y1900D02*
X204620Y23600D01*
X158238D02*
X179938Y1900D01*
X161066Y23600D02*
X182766Y1900D01*
X188576D02*
X210276Y23600D01*
X186522D02*
X208222Y1900D01*
X189351Y23600D02*
X211051Y1900D01*
X183694Y23600D02*
X205394Y1900D01*
X185748D02*
X207448Y23600D01*
X130364Y93900D02*
X195864Y28400D01*
X130224D02*
X195723Y93900D01*
X133052Y28400D02*
X198552Y93900D01*
X127395Y28400D02*
X192895Y93900D01*
X127536D02*
X193036Y28400D01*
X147194D02*
X212694Y93900D01*
X147335D02*
X212835Y28400D01*
X133193Y93900D02*
X198693Y28400D01*
X135880D02*
X201380Y93900D01*
X177263Y1900D02*
X198963Y23600D01*
X175208D02*
X196908Y1900D01*
X178037Y23600D02*
X199737Y1900D01*
X172380Y23600D02*
X194080Y1900D01*
X174434D02*
X196134Y23600D01*
X192179D02*
X213879Y1900D01*
X191405D02*
X213105Y23600D01*
X194233Y1900D02*
X215933Y23600D01*
X180091Y1900D02*
X201791Y23600D01*
X180865D02*
X202565Y1900D01*
X163895Y23600D02*
X185595Y1900D01*
X163120D02*
X184820Y23600D01*
X165949Y1900D02*
X187649Y23600D01*
X157464Y1900D02*
X179164Y23600D01*
X160292Y1900D02*
X181992Y23600D01*
X169552D02*
X191252Y1900D01*
X171606D02*
X193306Y23600D01*
X166723D02*
X188423Y1900D01*
X168777D02*
X190477Y23600D01*
X124999Y121893D02*
X125999Y120893D01*
X114682Y120339D02*
X116012Y121669D01*
X124366Y119697D02*
X124585Y119479D01*
X124889Y112995D02*
X139594Y127700D01*
X121495Y116389D02*
X136903Y131797D01*
X124793Y110651D02*
X141842Y127700D01*
X114824Y120754D02*
X119254Y116324D01*
X114638Y123769D02*
X116017Y122390D01*
X105000Y121970D02*
X106139Y123109D01*
X104999Y122094D02*
X106119Y120974D01*
X104439Y119825D02*
X108325Y115939D01*
X102074Y116216D02*
X106284Y120426D01*
X112948Y115776D02*
X116724Y119552D01*
X94867Y120912D02*
X99412Y116367D01*
X93899Y119051D02*
X97551Y115399D01*
X120890Y117517D02*
X121756Y116650D01*
X114342Y114342D02*
X118158Y118158D01*
X119108Y116279D02*
X120332Y117503D01*
X113804Y118945D02*
X117445Y115304D01*
X110831Y116488D02*
X112161Y117818D01*
X114342Y114342D02*
X118158Y118158D01*
X112120Y117802D02*
X116302Y113620D01*
X114997Y112168D02*
X116221Y113392D01*
X114999Y112094D02*
X116119Y110974D01*
X103774Y115087D02*
X107413Y118726D01*
X103105Y118331D02*
X106831Y114605D01*
X109474Y117619D02*
X110594Y116499D01*
X101071Y117536D02*
X102659Y115948D01*
X99391Y116361D02*
X100530Y117500D01*
X104810Y113295D02*
X109205Y117690D01*
X104448Y114159D02*
X106036Y112571D01*
X94417Y114216D02*
X98284Y118083D01*
X104682Y110339D02*
X106012Y111669D01*
X94448Y124159D02*
X96036Y122571D01*
X94518Y119974D02*
X96030Y121485D01*
X84994Y121763D02*
X86081Y122851D01*
X84990Y122304D02*
X86067Y121227D01*
X93068Y115695D02*
X96805Y119432D01*
X84509Y119956D02*
X88456Y116009D01*
X83870Y114982D02*
X87518Y118630D01*
X82218Y116159D02*
X86341Y120282D01*
X74074Y124735D02*
X76062Y122746D01*
X74235Y119490D02*
X76054Y121308D01*
X64977Y121546D02*
X66042Y122610D01*
X64969Y122526D02*
X66032Y121463D01*
X74904Y121076D02*
X79576Y116404D01*
X73991Y119160D02*
X77661Y115491D01*
X64575Y120091D02*
X68591Y116075D01*
X73185Y115611D02*
X76889Y119315D01*
X92263Y117860D02*
X96360Y113763D01*
X91015Y116471D02*
X92526Y117982D01*
X89727Y117567D02*
X90804Y116490D01*
X83221Y118416D02*
X86916Y114721D01*
X81246Y117562D02*
X83235Y115574D01*
X95000Y111970D02*
X96139Y113110D01*
X84854Y113138D02*
X89362Y117646D01*
X94990Y112304D02*
X96067Y111227D01*
X84074Y114735D02*
X86062Y112746D01*
X84518Y109974D02*
X86029Y111485D01*
X74488Y114086D02*
X78414Y118012D01*
X72402Y117921D02*
X76421Y113902D01*
X79649Y116419D02*
X80737Y117506D01*
X71192Y116446D02*
X73010Y118265D01*
X69963Y117532D02*
X71026Y116469D01*
X74994Y111763D02*
X76081Y112851D01*
X74969Y112525D02*
X76032Y111462D01*
X64893Y112976D02*
X69524Y117607D01*
X64235Y109490D02*
X66053Y111308D01*
X147476Y127700D02*
X167476Y107700D01*
X147298D02*
X167298Y127700D01*
X150126Y107700D02*
X170126Y127700D01*
X144470Y107700D02*
X164470Y127700D01*
X144648D02*
X164648Y107700D01*
X155783D02*
X175783Y127700D01*
X153133D02*
X173133Y107700D01*
X155961Y127700D02*
X175961Y107700D01*
X150304Y127700D02*
X170305Y107700D01*
X152955D02*
X172955Y127700D01*
X133156Y107700D02*
X153156Y127700D01*
X130327Y107700D02*
X150327Y127700D01*
X135984Y107700D02*
X155984Y127700D01*
X124671Y107700D02*
X144671Y127700D01*
X127499Y107700D02*
X147499Y127700D01*
X141641Y107700D02*
X161641Y127700D01*
X141819D02*
X161819Y107700D01*
X138813D02*
X158813Y127700D01*
X139292Y127398D02*
X158991Y107700D01*
X130807Y118913D02*
X142020Y107700D01*
X129393Y117499D02*
X139192Y107700D01*
X127979Y116085D02*
X136363Y107700D01*
X126565Y114670D02*
X133535Y107700D01*
X125150Y113256D02*
X130706Y107700D01*
X137878Y125984D02*
X156162Y107700D01*
X136464Y124570D02*
X153334Y107700D01*
X135050Y123156D02*
X150505Y107700D01*
X133636Y121741D02*
X147677Y107700D01*
X132221Y120327D02*
X144849Y107700D01*
X114439Y109825D02*
X116564Y107700D01*
X112900D02*
X119173D01*
X113357D02*
X116232Y110575D01*
X124824Y110754D02*
X127878Y107700D01*
X123804Y108945D02*
X125050Y107700D01*
X116185D02*
X117311Y108825D01*
X104867Y110912D02*
X108100Y107679D01*
X103899Y109051D02*
X108153Y104797D01*
X95872Y98700D02*
X106724Y109552D01*
X94509Y109956D02*
X105765Y98700D01*
X87386D02*
X97413Y108726D01*
X84904Y111076D02*
X97280Y98700D01*
X84558D02*
X96284Y110426D01*
X76073Y98700D02*
X86805Y109432D01*
X83991Y109160D02*
X94452Y98700D01*
X64936Y111245D02*
X66963Y109218D01*
X74575Y110091D02*
X85966Y98700D01*
X67587D02*
X77518Y108630D01*
X64759Y98700D02*
X76341Y110282D01*
X64080Y109273D02*
X74653Y98700D01*
X113105Y108331D02*
X113736Y107700D01*
X112900D02*
Y108193D01*
X102263Y107860D02*
X111422Y98700D01*
X108100Y105300D02*
Y108193D01*
X99727Y107567D02*
X108594Y98700D01*
X98700D02*
X108100Y108100D01*
X93221Y108416D02*
X102937Y98700D01*
X98700D02*
X108100Y108100D01*
X93043Y98700D02*
X102161Y107818D01*
X91246Y107562D02*
X100108Y98700D01*
X73334Y108504D02*
X83138Y98700D01*
X73244D02*
X82526Y107982D01*
X71415Y107594D02*
X80309Y98700D01*
X67718Y108463D02*
X77481Y98700D01*
X70416D02*
X79362Y107646D01*
X82402Y107922D02*
X91623Y98700D01*
X90215D02*
X99205Y107690D01*
X78901Y98700D02*
X88284Y108083D01*
X79962Y107532D02*
X88795Y98700D01*
X61363Y126417D02*
X175046Y240100D01*
X1900Y267619D02*
X137363Y132157D01*
X63298Y125524D02*
X177875Y240100D01*
X1900Y264791D02*
X135898Y130792D01*
X1900Y256306D02*
X131656Y126550D01*
X54052Y124763D02*
X169389Y240100D01*
X1900Y253477D02*
X130242Y125136D01*
X54927Y122809D02*
X172218Y240100D01*
X1900Y250649D02*
X128827Y123721D01*
X1900Y247820D02*
X127413Y122307D01*
X1900Y259134D02*
X133070Y127964D01*
X1900Y261962D02*
X134484Y129378D01*
X1900Y244992D02*
X120393Y126499D01*
X1900Y233678D02*
X109254Y126324D01*
X1900Y225193D02*
X100594Y126499D01*
X1900Y239335D02*
X116749Y124486D01*
X1900Y242163D02*
X118197Y125866D01*
X1900Y236506D02*
X112269Y126138D01*
X1900Y230850D02*
X107445Y125304D01*
X1900Y228021D02*
X106302Y123620D01*
X50116Y126484D02*
X125853Y202221D01*
X43409Y125433D02*
X123915Y205939D01*
X52495Y126034D02*
X128179Y201718D01*
X1900Y222364D02*
X98325Y125939D01*
X1900Y216707D02*
X92659Y125948D01*
X1900Y211051D02*
X87551Y125399D01*
X1900Y219536D02*
X96831Y124605D01*
X44618Y123814D02*
X124434Y203630D01*
X1900Y208222D02*
X86360Y123763D01*
X1900Y205394D02*
X80804Y126490D01*
X1900Y213879D02*
X89412Y126367D01*
X1900Y202565D02*
X78456Y126009D01*
X1900Y194080D02*
X69576Y126404D01*
X1900Y185595D02*
X61026Y126469D01*
X1900Y199737D02*
X76916Y124721D01*
X1900Y196908D02*
X73235Y125574D01*
X1900Y191252D02*
X67660Y125491D01*
X1900Y188423D02*
X66422Y123902D01*
X1900Y174281D02*
X49745Y126436D01*
X1900Y182766D02*
X58591Y126075D01*
X1900Y171453D02*
X47773Y125580D01*
X1900Y165796D02*
X41260Y126435D01*
X1900Y162967D02*
X38730Y126137D01*
X1900Y177109D02*
X56094Y122915D01*
X1900Y179938D02*
X57004Y124834D01*
X1900Y168624D02*
X46487Y124037D01*
X1900Y157310D02*
X36131Y123079D01*
X1900Y160139D02*
X37096Y124943D01*
X1900Y154482D02*
X29920Y126462D01*
X1900Y151654D02*
X27889Y125665D01*
X1900Y148825D02*
X26557Y124168D01*
X1900Y145997D02*
X26001Y121896D01*
X1900Y143168D02*
X25087Y119981D01*
X1900Y140340D02*
X23673Y118567D01*
X1900Y137511D02*
X23000Y116411D01*
X44948Y121315D02*
X46016Y122384D01*
X44935Y122760D02*
X46011Y121685D01*
X54936Y121245D02*
X56963Y119218D01*
X34962Y121420D02*
X36565Y119817D01*
X40116Y116484D02*
X41185Y117552D01*
X57718Y118463D02*
X59745Y116436D01*
X51363Y116417D02*
X56084Y121137D01*
X59890Y116458D02*
X60954Y117523D01*
X38317Y118065D02*
X39920Y116462D01*
X50185Y117511D02*
X51260Y116435D01*
X34955Y122636D02*
X36652Y124334D01*
X23703Y118597D02*
X26111Y121005D01*
X31528Y116381D02*
X36119Y120972D01*
X30395Y117501D02*
X31512Y116385D01*
X28481Y116587D02*
X28873Y116195D01*
X63963Y114874D02*
X67626Y118537D01*
X62358Y116098D02*
X66402Y120142D01*
X63334Y118504D02*
X67004Y114834D01*
X54080Y119273D02*
X57773Y115580D01*
X53298Y115524D02*
X56976Y119202D01*
X61415Y117594D02*
X66094Y112915D01*
X54555Y113952D02*
X58548Y117945D01*
X54935Y112760D02*
X56011Y111685D01*
X54977Y111546D02*
X56042Y112610D01*
X52537Y117987D02*
X56487Y114037D01*
X44927Y112809D02*
X49691Y117573D01*
X44637Y120230D02*
X48730Y116137D01*
X44052Y114763D02*
X47737Y118448D01*
X1900Y120541D02*
X120541Y1900D01*
X1900Y117712D02*
X117712Y1900D01*
X1900Y114884D02*
X114884Y1900D01*
X1900Y112056D02*
X112056Y1900D01*
X54637Y110230D02*
X66167Y98700D01*
X53443Y108596D02*
X63339Y98700D01*
X53445D02*
X63011Y108265D01*
X51579Y107631D02*
X60510Y98700D01*
X50617D02*
X59524Y107607D01*
X62537Y107987D02*
X71824Y98700D01*
X60185Y107511D02*
X68996Y98700D01*
X61930D02*
X70737Y107506D01*
X56274Y98700D02*
X66889Y109315D01*
X59102Y98700D02*
X68414Y108012D01*
X47788Y98700D02*
X57626Y108537D01*
X46077Y99817D02*
X56402Y110142D01*
X48317Y108065D02*
X57682Y98700D01*
X43249Y102646D02*
X48548Y107945D01*
X44663Y101231D02*
X50954Y107523D01*
X1900Y109227D02*
X109227Y1900D01*
X28713Y107870D02*
X108183Y28400D01*
X44165Y109389D02*
X54853Y98700D01*
X42668Y108057D02*
X52025Y98700D01*
X42495Y116034D02*
X46466Y120005D01*
X34165Y119389D02*
X37889Y115665D01*
X43443Y118596D02*
X47096Y114943D01*
X33409Y115433D02*
X37067Y119091D01*
X28166Y115848D02*
X29864Y117545D01*
X41579Y117631D02*
X46131Y113079D01*
X34618Y113814D02*
X38686Y117882D01*
X32668Y118057D02*
X36557Y114168D01*
X1900Y131854D02*
X23000Y110755D01*
X1900Y134683D02*
X23000Y113583D01*
X27800Y115906D02*
X29505Y117611D01*
X1900Y129026D02*
X23000Y107926D01*
X1900Y126198D02*
X23000Y105098D01*
X1900Y123369D02*
X23027Y102243D01*
X1900Y98067D02*
X26003Y122170D01*
X1900Y1900D02*
Y372116D01*
X23000Y102600D02*
Y116900D01*
X44962Y111420D02*
X46565Y109817D01*
X34948Y111315D02*
X36016Y112384D01*
X36178Y109717D02*
X36466Y110005D01*
X34885Y113012D02*
X36001Y111896D01*
X40420Y105474D02*
X46084Y111137D01*
X34889Y111005D02*
X47194Y98700D01*
X41834Y104060D02*
X46976Y109202D01*
X31495Y107611D02*
X44503Y94603D01*
X39006Y106888D02*
X39691Y107573D01*
X27800Y106996D02*
X28686Y107882D01*
X27800Y104168D02*
X31185Y107552D01*
X27800Y115600D02*
Y115906D01*
Y103594D02*
Y108400D01*
X1900Y89581D02*
X23000Y110681D01*
X1900Y86753D02*
X23000Y107853D01*
X1900Y95238D02*
X23000Y116338D01*
X1900Y92410D02*
X23000Y113510D01*
X163791Y102900D02*
X167991Y98700D01*
X163754D02*
X167954Y102900D01*
X166582Y98700D02*
X170782Y102900D01*
X160925Y98700D02*
X165126Y102900D01*
X160962D02*
X165162Y98700D01*
X172239D02*
X176439Y102900D01*
X169448D02*
X173648Y98700D01*
X172276Y102900D02*
X176476Y98700D01*
X166619Y102900D02*
X170819Y98700D01*
X169411D02*
X173611Y102900D01*
X149649D02*
X153849Y98700D01*
X149612D02*
X153812Y102900D01*
X152440Y98700D02*
X156640Y102900D01*
X138298Y98700D02*
X142498Y102900D01*
X138335D02*
X142535Y98700D01*
X158097D02*
X162297Y102900D01*
X155306D02*
X159505Y98700D01*
X158134Y102900D02*
X162334Y98700D01*
X152477Y102900D02*
X156677Y98700D01*
X155269D02*
X159469Y102900D01*
X135506D02*
X139706Y98700D01*
X135470D02*
X139670Y102900D01*
X141126Y98700D02*
X145326Y102900D01*
X132641Y98700D02*
X136841Y102900D01*
X132678D02*
X136878Y98700D01*
X146783D02*
X150983Y102900D01*
X143992D02*
X148192Y98700D01*
X146820Y102900D02*
X151020Y98700D01*
X141163Y102900D02*
X145363Y98700D01*
X143955D02*
X148155Y102900D01*
X91153Y40241D02*
X144812Y93900D01*
X89739Y41655D02*
X141983Y93900D01*
X92567Y38827D02*
X147640Y93900D01*
X86910Y44484D02*
X136326Y93900D01*
X88324Y43070D02*
X139155Y93900D01*
X96810Y34584D02*
X156125Y93900D01*
X98224Y33170D02*
X158954Y93900D01*
X93981Y37413D02*
X150469Y93900D01*
X95396Y35998D02*
X153297Y93900D01*
X121364Y102900D02*
X125564Y98700D01*
X121327D02*
X125527Y102900D01*
X124156Y98700D02*
X128356Y102900D01*
X118499Y98700D02*
X122699Y102900D01*
X118536D02*
X122736Y98700D01*
X129813D02*
X134013Y102900D01*
X127021D02*
X131221Y98700D01*
X129850Y102900D02*
X134050Y98700D01*
X124193Y102900D02*
X128393Y98700D01*
X126984D02*
X131184Y102900D01*
X115671Y98700D02*
X119871Y102900D01*
X112879D02*
X117079Y98700D01*
X115707Y102900D02*
X119907Y98700D01*
X104357D02*
X109047Y103390D01*
X109997Y102953D02*
X114251Y98700D01*
X81729D02*
X90530Y107500D01*
X101528Y98700D02*
X108100Y105272D01*
X112842Y98700D02*
X117042Y102900D01*
X78425Y52969D02*
X119356Y93900D01*
X77011Y54383D02*
X116527Y93900D01*
X107185Y98700D02*
X111385Y102900D01*
X110014Y98700D02*
X114214Y102900D01*
X84082Y47312D02*
X130670Y93900D01*
X82668Y48726D02*
X127841Y93900D01*
X85496Y45898D02*
X133498Y93900D01*
X79839Y51555D02*
X122184Y93900D01*
X81253Y50141D02*
X125013Y93900D01*
X68525Y62869D02*
X99557Y93900D01*
X67111Y64283D02*
X96728Y93900D01*
X69940Y61454D02*
X102385Y93900D01*
X65697Y65697D02*
X93900Y93900D01*
X65697Y65697D02*
X93900Y93900D01*
X74182Y57212D02*
X110871Y93900D01*
X75597Y55798D02*
X113699Y93900D01*
X71354Y60040D02*
X105214Y93900D01*
X72768Y58626D02*
X108042Y93900D01*
X107596Y28400D02*
X173096Y93900D01*
X104908D02*
X170408Y28400D01*
X107737Y93900D02*
X173237Y28400D01*
X102467Y28927D02*
X167439Y93900D01*
X104768Y28400D02*
X170268Y93900D01*
X110565D02*
X176065Y28400D01*
X110424D02*
X175925Y93900D01*
X155409Y23600D02*
X177109Y1900D01*
X129179D02*
X150879Y23600D01*
X149753D02*
X171453Y1900D01*
X101052Y30342D02*
X164611Y93900D01*
X99252D02*
X164752Y28400D01*
X102080Y93900D02*
X167580Y28400D01*
X99638Y31756D02*
X161782Y93900D01*
X96423D02*
X161923Y28400D01*
X90766Y93900D02*
X156266Y28400D01*
X93595Y93900D02*
X159095Y28400D01*
X85109Y93900D02*
X150609Y28400D01*
X87938Y93900D02*
X153438Y28400D01*
X144096Y23600D02*
X165796Y1900D01*
X143322D02*
X165022Y23600D01*
X146150Y1900D02*
X167850Y23600D01*
X140493Y1900D02*
X162193Y23600D01*
X141267D02*
X162967Y1900D01*
X152581Y23600D02*
X174281Y1900D01*
X151807D02*
X173507Y23600D01*
X154635Y1900D02*
X176335Y23600D01*
X146924D02*
X168624Y1900D01*
X148978D02*
X170678Y23600D01*
X132008Y1900D02*
X153708Y23600D01*
X129954D02*
X151654Y1900D01*
X132782Y23600D02*
X154482Y1900D01*
X126351D02*
X148051Y23600D01*
X127125D02*
X148825Y1900D01*
X137665D02*
X159365Y23600D01*
X138439D02*
X160139Y1900D01*
X134836D02*
X156536Y23600D01*
X135610D02*
X157310Y1900D01*
X82281Y93900D02*
X147781Y28400D01*
X79453Y93900D02*
X144953Y28400D01*
X101643Y23627D02*
X123369Y1900D01*
X121468Y23600D02*
X143168Y1900D01*
X115811Y23600D02*
X137511Y1900D01*
X123522D02*
X145222Y23600D01*
X112983D02*
X134683Y1900D01*
X115037D02*
X136737Y23600D01*
X73796Y93900D02*
X139296Y28400D01*
X70967Y93900D02*
X136467Y28400D01*
X76624Y93900D02*
X142124Y28400D01*
X68139Y93900D02*
X133639Y28400D01*
X78268Y1900D02*
X100497Y24129D01*
X72611Y1900D02*
X97658Y26948D01*
X75439Y1900D02*
X99072Y25533D01*
X66954Y1900D02*
X94830Y29776D01*
X69782Y1900D02*
X96244Y28362D01*
X109380Y1900D02*
X131080Y23600D01*
X107326D02*
X129026Y1900D01*
X110154Y23600D02*
X131854Y1900D01*
X104498Y23600D02*
X126198Y1900D01*
X106552D02*
X128252Y23600D01*
X120694Y1900D02*
X142394Y23600D01*
X118640D02*
X140340Y1900D01*
X124297Y23600D02*
X145997Y1900D01*
X112209D02*
X133909Y23600D01*
X117866Y1900D02*
X139566Y23600D01*
X89581Y1900D02*
X111281Y23600D01*
X86753Y1900D02*
X108453Y23600D01*
X92410Y1900D02*
X114110Y23600D01*
X81096Y1900D02*
X102796Y23600D01*
X83925Y1900D02*
X105624Y23600D01*
X100895Y1900D02*
X122595Y23600D01*
X103724Y1900D02*
X125424Y23600D01*
X95238Y1900D02*
X116938Y23600D01*
X98067Y1900D02*
X119767Y23600D01*
X61454Y69940D02*
X85415Y93900D01*
X60040Y71354D02*
X82586Y93900D01*
X62869Y68525D02*
X88243Y93900D01*
X57212Y74182D02*
X76929Y93900D01*
X58626Y72768D02*
X79758Y93900D01*
X62482D02*
X127982Y28400D01*
X59654Y93900D02*
X125154Y28400D01*
X65310Y93900D02*
X130810Y28400D01*
X64283Y67111D02*
X91072Y93900D01*
X56825D02*
X122325Y28400D01*
X55798Y75597D02*
X74101Y93900D01*
X51168D02*
X116668Y28400D01*
X53997Y93900D02*
X119497Y28400D01*
X40396Y107501D02*
X49197Y98700D01*
X54383Y77011D02*
X71273Y93900D01*
X45359Y94052D02*
X111011Y28400D01*
X48340Y93900D02*
X113840Y28400D01*
X27800Y105955D02*
X105354Y28400D01*
X27800Y103594D02*
X102994Y28400D01*
X47312Y84082D02*
X57130Y93900D01*
X45898Y85496D02*
X54302Y93900D01*
X48726Y82668D02*
X59959Y93900D01*
X43070Y88324D02*
X48645Y93900D01*
X44484Y86910D02*
X51474Y93900D01*
X52969Y78425D02*
X68444Y93900D01*
X51555Y79839D02*
X65616Y93900D01*
X28090Y25261D02*
X63717Y60889D01*
X50141Y81253D02*
X62787Y93900D01*
X26824Y26824D02*
X62303Y62303D01*
X21102Y29587D02*
X58060Y66546D01*
X18159Y29473D02*
X56646Y67960D01*
X23381Y29038D02*
X59474Y65131D01*
X1900Y33013D02*
X46747Y77859D01*
X1900Y30184D02*
X48161Y76445D01*
X25261Y28090D02*
X60889Y63717D01*
X26824Y26824D02*
X62303Y62303D01*
X1900Y27356D02*
X49575Y75031D01*
X1900Y24527D02*
X50989Y73617D01*
X33170Y98224D02*
X37026Y102080D01*
X31756Y99638D02*
X35612Y103494D01*
X34584Y96810D02*
X38440Y100666D01*
X28927Y102467D02*
X32783Y106323D01*
X30342Y101052D02*
X34198Y104908D01*
X40241Y91153D02*
X44097Y95009D01*
X38827Y92567D02*
X42683Y96423D01*
X35998Y95396D02*
X39854Y99251D01*
X37413Y93981D02*
X41269Y97837D01*
X1900Y78268D02*
X24119Y100487D01*
X1900Y83925D02*
X23000Y105025D01*
X1900Y81096D02*
X23029Y102225D01*
X1900Y69782D02*
X28362Y96244D01*
X1900Y66954D02*
X29776Y94830D01*
X1900Y75439D02*
X25533Y99072D01*
X1900Y72611D02*
X26948Y97658D01*
X41655Y89739D02*
X45843Y93927D01*
X1900Y58469D02*
X34019Y90587D01*
X1900Y64126D02*
X31190Y93416D01*
X1900Y61297D02*
X32604Y92001D01*
X1900Y47155D02*
X39676Y84930D01*
X1900Y49983D02*
X38261Y86345D01*
X1900Y44326D02*
X41090Y83516D01*
X1900Y55640D02*
X35433Y89173D01*
X1900Y52812D02*
X36847Y87759D01*
X1900Y38670D02*
X43918Y80688D01*
X1900Y41498D02*
X42504Y82102D01*
X1900Y35841D02*
X45332Y79273D01*
X1900Y49830D02*
X22377Y29353D01*
X1900Y47002D02*
X19279Y29623D01*
X1900Y44173D02*
X16926Y29147D01*
X1900Y41345D02*
X14995Y28250D01*
X1900Y38516D02*
X13388Y27029D01*
X1900Y35688D02*
X12078Y25510D01*
X23703Y100903D02*
X100303Y24303D01*
X1900Y95085D02*
X95085Y1900D01*
X1900Y89428D02*
X89428Y1900D01*
X29038Y23381D02*
X65131Y59474D01*
X29587Y21102D02*
X66546Y58060D01*
X1900Y103570D02*
X103570Y1900D01*
X1900Y106399D02*
X106399Y1900D01*
X1900Y100742D02*
X100742Y1900D01*
X1900Y97913D02*
X97913Y1900D01*
X1900Y92256D02*
X92256Y1900D01*
X1900Y80943D02*
X80943Y1900D01*
X1900Y83771D02*
X83771Y1900D01*
X1900Y78114D02*
X78114Y1900D01*
X1900Y75286D02*
X75286Y1900D01*
X1900Y66801D02*
X66801Y1900D01*
X1900Y86600D02*
X86600Y1900D01*
X1900Y72457D02*
X72457Y1900D01*
X1900Y69629D02*
X69629Y1900D01*
X1900Y63972D02*
X63972Y1900D01*
X47155D02*
X84930Y39676D01*
X44326Y1900D02*
X83516Y41090D01*
X49983Y1900D02*
X86345Y38261D01*
X38670Y1900D02*
X80688Y43918D01*
X41498Y1900D02*
X82102Y42504D01*
X61297Y1900D02*
X92001Y32604D01*
X58469Y1900D02*
X90587Y34019D01*
X64126Y1900D02*
X93416Y31190D01*
X52812Y1900D02*
X87759Y36847D01*
X55640Y1900D02*
X89173Y35433D01*
X33013Y1900D02*
X77859Y46747D01*
X30184Y1900D02*
X76445Y48161D01*
X35841Y1900D02*
X79273Y45332D01*
X29473Y18159D02*
X67960Y56646D01*
X27356Y1900D02*
X75031Y49575D01*
X21699Y1900D02*
X72202Y52403D01*
X24527Y1900D02*
X73617Y50989D01*
X16042Y1900D02*
X69374Y55232D01*
X18871Y1900D02*
X70788Y53818D01*
X1900Y18871D02*
X53818Y70788D01*
X1900Y21699D02*
X52403Y72202D01*
X29623Y19279D02*
X47002Y1900D01*
X29147Y16926D02*
X44173Y1900D01*
X1900Y58315D02*
X58315Y1900D01*
X1900Y61144D02*
X61144Y1900D01*
X1900Y55487D02*
X55487Y1900D01*
X1900Y52658D02*
X52658Y1900D01*
X29353Y22377D02*
X49830Y1900D01*
X1900Y32860D02*
X11079Y23680D01*
X1900Y16042D02*
X55232Y69374D01*
X1900Y13214D02*
X10527Y21841D01*
X1900Y30031D02*
X10462Y21469D01*
X1900Y27203D02*
X10444Y18659D01*
X1900Y24374D02*
X24374Y1900D01*
X1900Y21546D02*
X21546Y1900D01*
X1900Y10385D02*
X10413Y18898D01*
X1900Y18717D02*
X18717Y1900D01*
X18659Y10444D02*
X27203Y1900D01*
X13214D02*
X21841Y10527D01*
X10385Y1900D02*
X18898Y10413D01*
X4728Y1900D02*
X14739Y11910D01*
X7557Y1900D02*
X16619Y10962D01*
X28250Y14995D02*
X41345Y1900D01*
X27029Y13388D02*
X38516Y1900D01*
X25510Y12078D02*
X35688Y1900D01*
X23680Y11079D02*
X32860Y1900D01*
X21469Y10462D02*
X30031Y1900D01*
X1900Y15889D02*
X15889Y1900D01*
X1900Y7557D02*
X10962Y16619D01*
X1900Y4728D02*
X11910Y14739D01*
X1900Y7404D02*
X7404Y1900D01*
X1900Y4575D02*
X4575Y1900D01*
X1900D02*
X13176Y13176D01*
X1900Y1900D02*
X13176Y13176D01*
X1900Y13060D02*
X13060Y1900D01*
X1900Y10232D02*
X10232Y1900D01*
D41*
X482600Y87200D02*
X514500Y55300D01*
X426600Y76925D02*
Y77266D01*
X549675Y75500D02*
X550000D01*
X426000Y76000D02*
Y76325D01*
X444134Y94800D02*
X476534D01*
X539100Y78700D02*
X546475D01*
X514500Y51500D02*
Y55300D01*
X518500Y85500D02*
X550000D01*
X514500Y81500D02*
X518500Y85500D01*
X426600Y77266D02*
X444134Y94800D01*
X476534D02*
X482600Y88734D01*
X546475Y78700D02*
X549675Y75500D01*
X482600Y87200D02*
Y88734D01*
X494000Y102000D02*
X514500Y81500D01*
X426000Y86000D02*
X442000Y102000D01*
X494000D01*
X426000Y76325D02*
X426600Y76925D01*
X514500Y54100D02*
X539100Y78700D01*
D42*
X373855Y103900D02*
X378955Y109000D01*
X566500D02*
X600000Y75500D01*
X573500Y112000D02*
X600000Y85500D01*
X354134Y111196D02*
X355400Y109930D01*
X377712Y112000D02*
X573500D01*
X355400Y109888D02*
Y109930D01*
Y109888D02*
X358387Y106900D01*
X350500Y112000D02*
X351304Y111196D01*
X305100Y26000D02*
X426000D01*
X102000D02*
X305100D01*
X276000Y320100D02*
Y346500D01*
X496500Y266000D02*
X509500Y253000D01*
X460500Y266000D02*
X496500D01*
X530375Y25500D02*
X550000D01*
X524964Y30911D02*
X530375Y25500D01*
X522100Y234400D02*
X533000Y223500D01*
X498100Y234400D02*
X522100D01*
X479500Y253000D02*
X498100Y234400D01*
X476000Y16000D02*
X486600Y5400D01*
X589900D01*
X600000Y15500D01*
X284000Y351500D02*
X289000Y346500D01*
X264000Y351500D02*
X284000D01*
X264000Y282300D02*
Y351500D01*
Y282300D02*
X272400Y273900D01*
X302400D01*
X310500Y282000D01*
X276000Y346500D02*
X279000D01*
X275400Y319500D02*
X276000Y320100D01*
X275400Y276900D02*
Y319500D01*
Y276900D02*
X295400D01*
X300500Y282000D01*
X25400Y102600D02*
X102000Y26000D01*
X25400Y102600D02*
Y116900D01*
X30500Y122000D01*
Y112000D02*
X46200Y96300D01*
X264800D01*
X110500Y105300D02*
Y112000D01*
Y105300D02*
X253600D01*
X275400Y127100D01*
X456900D01*
X460000Y124000D01*
X271100Y60000D02*
X305100Y26000D01*
X271100Y60000D02*
Y112600D01*
X280500Y122000D01*
X533000Y191900D02*
Y223500D01*
X471200Y130100D02*
X533000Y191900D01*
X138600Y130100D02*
X471200D01*
X120500Y112000D02*
X138600Y130100D01*
X378955Y109000D02*
X566500D01*
X320500Y112000D02*
X328600Y103900D01*
X373855D01*
X509500Y253000D02*
X523500D01*
X553000Y223500D01*
X460500Y236000D02*
X465700Y230800D01*
X515700D01*
X523000Y223500D01*
X372613Y106900D02*
X377712Y112000D01*
X358387Y106900D02*
X372613D01*
X351304Y111196D02*
X354134D01*
X515553Y21500D02*
X524964Y30911D01*
X480500Y21500D02*
X515553D01*
X476000Y26000D02*
X480500Y21500D01*
X426000Y26000D02*
X476000D01*
X550000Y25500D02*
X600000D01*
D43*
X30500Y292000D02*
X84000Y345500D01*
X93141D01*
X278600Y366900D02*
X299000Y346500D01*
X114541Y366900D02*
X278600D01*
X93141Y345500D02*
X114541Y366900D01*
X127800Y205600D02*
X165200Y243000D01*
X421000D01*
X471000Y293000D01*
X280500Y292000D02*
X292600Y304100D01*
X458100D01*
X471000Y317000D01*
Y293000D02*
X563500D01*
X570500Y286000D01*
D44*
X524964Y30911D02*
D03*
D45*
X426000Y36000D02*
D03*
Y86000D02*
D03*
Y76000D02*
D03*
Y66000D02*
D03*
Y56000D02*
D03*
Y46000D02*
D03*
Y26000D02*
D03*
Y16000D02*
D03*
X476000Y36000D02*
D03*
Y86000D02*
D03*
Y76000D02*
D03*
Y66000D02*
D03*
Y56000D02*
D03*
Y46000D02*
D03*
Y26000D02*
D03*
Y16000D02*
D03*
X550500Y286000D02*
D03*
X560500D02*
D03*
X570500D02*
D03*
X530500Y336000D02*
D03*
X590500D02*
D03*
X530500Y346000D02*
D03*
X590500D02*
D03*
X486500Y352000D02*
D03*
X506500D02*
D03*
X280500Y282000D02*
D03*
X290500D02*
D03*
X310500D02*
D03*
X320500D02*
D03*
X330500D02*
D03*
X340500D02*
D03*
X350500D02*
D03*
X360500D02*
D03*
X370500D02*
D03*
X300500D02*
D03*
X280500Y292000D02*
D03*
X290500D02*
D03*
X310500D02*
D03*
X320500D02*
D03*
X330500D02*
D03*
X340500D02*
D03*
X350500D02*
D03*
X360500D02*
D03*
X370500D02*
D03*
X300500D02*
D03*
X280500Y112000D02*
D03*
X290500D02*
D03*
X310500D02*
D03*
X320500D02*
D03*
X330500D02*
D03*
X340500D02*
D03*
X350500D02*
D03*
X360500D02*
D03*
X370500D02*
D03*
X300500D02*
D03*
X280500Y122000D02*
D03*
X290500D02*
D03*
X310500D02*
D03*
X320500D02*
D03*
X330500D02*
D03*
X340500D02*
D03*
X350500D02*
D03*
X360500D02*
D03*
X370500D02*
D03*
X300500D02*
D03*
X30500Y282000D02*
D03*
X40500D02*
D03*
X60500D02*
D03*
X70500D02*
D03*
X80500D02*
D03*
X90500D02*
D03*
X100500D02*
D03*
X110500D02*
D03*
X120500D02*
D03*
X50500D02*
D03*
X30500Y292000D02*
D03*
X40500D02*
D03*
X60500D02*
D03*
X70500D02*
D03*
X80500D02*
D03*
X90500D02*
D03*
X100500D02*
D03*
X110500D02*
D03*
X120500D02*
D03*
X50500D02*
D03*
X30500Y112000D02*
D03*
X40500D02*
D03*
X60500D02*
D03*
X70500D02*
D03*
X80500D02*
D03*
X90500D02*
D03*
X100500D02*
D03*
X110500D02*
D03*
X120500D02*
D03*
X50500D02*
D03*
X30500Y122000D02*
D03*
X40500D02*
D03*
X60500D02*
D03*
X70500D02*
D03*
X80500D02*
D03*
X90500D02*
D03*
X100500D02*
D03*
X110500D02*
D03*
X120500D02*
D03*
X50500D02*
D03*
X550000Y35500D02*
D03*
Y85500D02*
D03*
Y75500D02*
D03*
Y65500D02*
D03*
Y55500D02*
D03*
Y45500D02*
D03*
Y25500D02*
D03*
Y15500D02*
D03*
X600000Y35500D02*
D03*
Y85500D02*
D03*
Y75500D02*
D03*
Y65500D02*
D03*
Y55500D02*
D03*
Y45500D02*
D03*
Y25500D02*
D03*
Y15500D02*
D03*
D46*
X547500Y178200D02*
D03*
X488400D02*
D03*
X629500Y354000D02*
D03*
X20000Y20000D02*
D03*
Y354000D02*
D03*
X629500Y20000D02*
D03*
D47*
X319000Y346500D02*
D03*
X553000Y223500D02*
D03*
D48*
X309000Y346500D02*
D03*
X299000D02*
D03*
X289000D02*
D03*
X279000D02*
D03*
X269000D02*
D03*
X543000Y223500D02*
D03*
X533000D02*
D03*
X523000D02*
D03*
X513000D02*
D03*
X503000D02*
D03*
X493000D02*
D03*
X483000D02*
D03*
D49*
X509500Y253000D02*
D03*
X479500D02*
D03*
X460500Y236000D02*
D03*
Y266000D02*
D03*
X471000Y293000D02*
D03*
X441000D02*
D03*
Y317000D02*
D03*
X471000D02*
D03*
D50*
X120700Y345500D02*
D03*
X110857D02*
D03*
X102983D02*
D03*
X93141D02*
D03*
D51*
X132787Y356169D02*
D03*
X81054D02*
D03*
D52*
X514500Y81500D02*
D03*
Y51500D02*
D03*
D53*
X264800Y96300D02*
D03*
X460000Y124000D02*
D03*
X127800Y205600D02*
D03*
M02*
