G04*
G04 #@! TF.GenerationSoftware,Altium Limited,Altium Designer,20.0.9 (164)*
G04*
G04 Layer_Color=16711935*
%FSLAX25Y25*%
%MOIN*%
G70*
G01*
G75*
%ADD10C,0.00787*%
%ADD13C,0.00394*%
%ADD54C,0.00600*%
D10*
X82314Y341524D02*
X131527D01*
X82314D02*
Y396642D01*
X131527D01*
Y341524D02*
Y396642D01*
X78377D02*
X135464D01*
X78377D02*
X135464D01*
D13*
X135563Y216961D02*
X143437D01*
Y212039D02*
Y216961D01*
X135563Y212039D02*
X143437D01*
X135563D02*
Y216961D01*
X136850Y187469D02*
X140591Y191209D01*
X136850Y179791D02*
Y191209D01*
Y179791D02*
X143150D01*
Y191209D01*
X136850D02*
X143150D01*
X92445Y214937D02*
X102287D01*
Y207063D02*
Y214937D01*
X92445Y207063D02*
X102287D01*
X92445D02*
Y214937D01*
X105126Y163370D02*
Y184630D01*
X90874Y163370D02*
X105126D01*
X90874D02*
Y184630D01*
X105126D01*
X100894D02*
X105126Y180398D01*
X116843Y169366D02*
Y177634D01*
X122157D01*
Y169366D02*
Y177634D01*
X116843Y169366D02*
X122157D01*
X162039Y192465D02*
Y200535D01*
X166961D01*
Y192465D02*
Y200535D01*
X162039Y192465D02*
X166961D01*
X162039Y166965D02*
Y175035D01*
X166961D01*
Y166965D02*
Y175035D01*
X162039Y166965D02*
X166961D01*
D54*
X68100Y187700D02*
X73900D01*
X68100Y190700D02*
Y193500D01*
Y196500D02*
X73900D01*
Y190700D02*
Y193500D01*
X68100D02*
Y196500D01*
X73900Y193500D02*
Y196500D01*
X68100Y193500D02*
X73900D01*
Y187700D02*
Y190700D01*
X68100Y187700D02*
Y190700D01*
X73900D01*
M02*
