G04*
G04 #@! TF.GenerationSoftware,Altium Limited,Altium Designer,20.0.9 (164)*
G04*
G04 Layer_Color=255*
%FSLAX25Y25*%
%MOIN*%
G70*
G01*
G75*
%ADD15R,0.03780X0.05472*%
%ADD16R,0.04528X0.02362*%
%ADD17R,0.05118X0.08661*%
%ADD18R,0.08465X0.08661*%
%ADD19R,0.05700X0.04400*%
%ADD20R,0.05866X0.03780*%
%ADD21R,0.05709X0.03740*%
%ADD31C,0.07000*%
%ADD44R,0.07000X0.07000*%
%ADD45C,0.06200*%
%ADD46C,0.16500*%
%ADD47R,0.05906X0.05906*%
%ADD48C,0.05906*%
%ADD49C,0.05512*%
%ADD50C,0.06614*%
%ADD51C,0.14764*%
%ADD52C,0.04724*%
D15*
X136311Y214500D02*
D03*
X142689D02*
D03*
D16*
X144921Y189240D02*
D03*
Y185500D02*
D03*
Y181760D02*
D03*
X135079D02*
D03*
Y185500D02*
D03*
Y189240D02*
D03*
D17*
X93232Y211000D02*
D03*
X101500D02*
D03*
D18*
X98000Y182661D02*
D03*
Y165339D02*
D03*
D19*
X71000Y195700D02*
D03*
Y188500D02*
D03*
D20*
X119500Y170193D02*
D03*
Y176807D02*
D03*
D21*
X164500Y192563D02*
D03*
Y200437D02*
D03*
Y167063D02*
D03*
Y174937D02*
D03*
D31*
X504964Y10911D02*
D03*
X524964D02*
D03*
X504964Y30911D02*
D03*
X514964D02*
D03*
D44*
X524964D02*
D03*
D45*
X426000Y36000D02*
D03*
Y86000D02*
D03*
Y76000D02*
D03*
Y66000D02*
D03*
Y56000D02*
D03*
Y46000D02*
D03*
Y26000D02*
D03*
Y16000D02*
D03*
X476000Y36000D02*
D03*
Y86000D02*
D03*
Y76000D02*
D03*
Y66000D02*
D03*
Y56000D02*
D03*
Y46000D02*
D03*
Y26000D02*
D03*
Y16000D02*
D03*
X550500Y286000D02*
D03*
X560500D02*
D03*
X570500D02*
D03*
X530500Y336000D02*
D03*
X590500D02*
D03*
X530500Y346000D02*
D03*
X590500D02*
D03*
X486500Y352000D02*
D03*
X506500D02*
D03*
X280500Y282000D02*
D03*
X290500D02*
D03*
X310500D02*
D03*
X320500D02*
D03*
X330500D02*
D03*
X340500D02*
D03*
X350500D02*
D03*
X360500D02*
D03*
X370500D02*
D03*
X300500D02*
D03*
X280500Y292000D02*
D03*
X290500D02*
D03*
X310500D02*
D03*
X320500D02*
D03*
X330500D02*
D03*
X340500D02*
D03*
X350500D02*
D03*
X360500D02*
D03*
X370500D02*
D03*
X300500D02*
D03*
X280500Y112000D02*
D03*
X290500D02*
D03*
X310500D02*
D03*
X320500D02*
D03*
X330500D02*
D03*
X340500D02*
D03*
X350500D02*
D03*
X360500D02*
D03*
X370500D02*
D03*
X300500D02*
D03*
X280500Y122000D02*
D03*
X290500D02*
D03*
X310500D02*
D03*
X320500D02*
D03*
X330500D02*
D03*
X340500D02*
D03*
X350500D02*
D03*
X360500D02*
D03*
X370500D02*
D03*
X300500D02*
D03*
X30500Y282000D02*
D03*
X40500D02*
D03*
X60500D02*
D03*
X70500D02*
D03*
X80500D02*
D03*
X90500D02*
D03*
X100500D02*
D03*
X110500D02*
D03*
X120500D02*
D03*
X50500D02*
D03*
X30500Y292000D02*
D03*
X40500D02*
D03*
X60500D02*
D03*
X70500D02*
D03*
X80500D02*
D03*
X90500D02*
D03*
X100500D02*
D03*
X110500D02*
D03*
X120500D02*
D03*
X50500D02*
D03*
X30500Y112000D02*
D03*
X40500D02*
D03*
X60500D02*
D03*
X70500D02*
D03*
X80500D02*
D03*
X90500D02*
D03*
X100500D02*
D03*
X110500D02*
D03*
X120500D02*
D03*
X50500D02*
D03*
X30500Y122000D02*
D03*
X40500D02*
D03*
X60500D02*
D03*
X70500D02*
D03*
X80500D02*
D03*
X90500D02*
D03*
X100500D02*
D03*
X110500D02*
D03*
X120500D02*
D03*
X50500D02*
D03*
X550000Y35500D02*
D03*
Y85500D02*
D03*
Y75500D02*
D03*
Y65500D02*
D03*
Y55500D02*
D03*
Y45500D02*
D03*
Y25500D02*
D03*
Y15500D02*
D03*
X600000Y35500D02*
D03*
Y85500D02*
D03*
Y75500D02*
D03*
Y65500D02*
D03*
Y55500D02*
D03*
Y45500D02*
D03*
Y25500D02*
D03*
Y15500D02*
D03*
D46*
X547500Y178200D02*
D03*
X488400D02*
D03*
X629500Y354000D02*
D03*
X20000Y20000D02*
D03*
Y354000D02*
D03*
X629500Y20000D02*
D03*
D47*
X319000Y346500D02*
D03*
X553000Y223500D02*
D03*
D48*
X309000Y346500D02*
D03*
X299000D02*
D03*
X289000D02*
D03*
X279000D02*
D03*
X269000D02*
D03*
X543000Y223500D02*
D03*
X533000D02*
D03*
X523000D02*
D03*
X513000D02*
D03*
X503000D02*
D03*
X493000D02*
D03*
X483000D02*
D03*
D49*
X509500Y253000D02*
D03*
X479500D02*
D03*
X460500Y236000D02*
D03*
Y266000D02*
D03*
X471000Y293000D02*
D03*
X441000D02*
D03*
Y317000D02*
D03*
X471000D02*
D03*
D50*
X120700Y345500D02*
D03*
X110857D02*
D03*
X102983D02*
D03*
X93141D02*
D03*
D51*
X132787Y356169D02*
D03*
X81054D02*
D03*
D52*
X514500Y81500D02*
D03*
Y51500D02*
D03*
M02*
